<svg width="20" height="26" viewBox="0 0 20 26" fill="none" xmlns="http://www.w3.org/2000/svg">
<path fill-rule="evenodd" clip-rule="evenodd" d="M17.5 17.0447C19.0559 15.2665 20 12.9308 20 10.3726C20 4.80178 15.5228 0.285706 10 0.285706C4.47715 0.285706 0 4.80178 0 10.3726C0 12.9308 0.944091 15.2665 2.5 17.0447V24.7848C2.5 25.133 2.84692 25.3745 3.17344 25.2538L9.82656 22.7931C9.93848 22.7517 10.0615 22.7517 10.1734 22.7931L16.8266 25.2538C17.1531 25.3745 17.5 25.133 17.5 24.7848V17.0447Z" fill="#F6CA41"/>
<ellipse cx="10.002" cy="10.3725" rx="8.5" ry="8.57389" fill="#FAEB7B"/>
<path d="M16.0124 16.4352C17.6064 14.8273 18.502 12.6465 18.502 10.3725C18.502 8.0986 17.6064 5.9178 16.0124 4.30988C14.4183 2.70196 12.2563 1.79865 10.002 1.79865C7.74761 1.79864 5.58561 2.70196 3.99155 4.30988L10.002 10.3725L16.0124 16.4352Z" fill="#FCD84A"/>
<path d="M11.0819 6.77492V13.3204H9.89613V7.92868H9.85778L8.32688 8.90667V7.82002L9.95366 6.77492H11.0819Z" fill="#ED9F35"/>
</svg>
