<svg width="284" height="274" viewBox="0 0 284 274" fill="none" xmlns="http://www.w3.org/2000/svg">
<g filter="url(#filter0_d_2810_12997)">
<rect x="12.5" y="9.5" width="259" height="249" rx="11.5" stroke="#BFDBFE" stroke-dasharray="4 4" shape-rendering="crispEdges"/>
<path d="M168.333 92H121.667C117.985 92 115 94.9848 115 98.6667V145.333C115 149.015 117.985 152 121.667 152H168.333C172.015 152 175 149.015 175 145.333V98.6667C175 94.9848 172.015 92 168.333 92Z" stroke="#B0BECB" stroke-linecap="round" stroke-linejoin="round"/>
<path d="M131.667 122H158.333" stroke="#B0BECB" stroke-linecap="round" stroke-linejoin="round"/>
<path d="M145 108.667V135.333" stroke="#B0BECB" stroke-linecap="round" stroke-linejoin="round"/>
<path d="M109.332 180H107.468L111.656 168.364H113.684L117.871 180H116.008L112.718 170.477H112.627L109.332 180ZM109.644 175.443H115.69V176.92H109.644V175.443ZM122.542 180.17C121.837 180.17 121.209 179.991 120.656 179.631C120.106 179.267 119.674 178.75 119.36 178.08C119.049 177.405 118.894 176.597 118.894 175.653C118.894 174.71 119.051 173.903 119.366 173.233C119.684 172.562 120.12 172.049 120.673 171.693C121.226 171.337 121.853 171.159 122.553 171.159C123.095 171.159 123.531 171.25 123.86 171.432C124.193 171.61 124.451 171.818 124.633 172.057C124.818 172.295 124.962 172.506 125.065 172.688H125.167V168.364H126.866V180H125.207V178.642H125.065C124.962 178.828 124.815 179.04 124.621 179.278C124.432 179.517 124.171 179.725 123.837 179.903C123.504 180.081 123.072 180.17 122.542 180.17ZM122.917 178.722C123.406 178.722 123.818 178.593 124.156 178.335C124.496 178.074 124.754 177.712 124.928 177.25C125.106 176.788 125.195 176.25 125.195 175.636C125.195 175.03 125.108 174.5 124.934 174.045C124.76 173.591 124.504 173.237 124.167 172.983C123.83 172.729 123.413 172.602 122.917 172.602C122.406 172.602 121.979 172.735 121.638 173C121.298 173.265 121.04 173.627 120.866 174.085C120.695 174.544 120.61 175.061 120.61 175.636C120.61 176.22 120.697 176.744 120.871 177.21C121.046 177.676 121.303 178.045 121.644 178.318C121.989 178.587 122.413 178.722 122.917 178.722ZM132.558 180.17C131.853 180.17 131.224 179.991 130.671 179.631C130.122 179.267 129.69 178.75 129.376 178.08C129.065 177.405 128.91 176.597 128.91 175.653C128.91 174.71 129.067 173.903 129.381 173.233C129.7 172.562 130.135 172.049 130.688 171.693C131.241 171.337 131.868 171.159 132.569 171.159C133.111 171.159 133.546 171.25 133.876 171.432C134.209 171.61 134.467 171.818 134.648 172.057C134.834 172.295 134.978 172.506 135.08 172.688H135.183V168.364H136.881V180H135.222V178.642H135.08C134.978 178.828 134.83 179.04 134.637 179.278C134.448 179.517 134.186 179.725 133.853 179.903C133.52 180.081 133.088 180.17 132.558 180.17ZM132.933 178.722C133.421 178.722 133.834 178.593 134.171 178.335C134.512 178.074 134.77 177.712 134.944 177.25C135.122 176.788 135.211 176.25 135.211 175.636C135.211 175.03 135.124 174.5 134.95 174.045C134.775 173.591 134.52 173.237 134.183 172.983C133.845 172.729 133.429 172.602 132.933 172.602C132.421 172.602 131.995 172.735 131.654 173C131.313 173.265 131.056 173.627 130.881 174.085C130.711 174.544 130.626 175.061 130.626 175.636C130.626 176.22 130.713 176.744 130.887 177.21C131.061 177.676 131.319 178.045 131.66 178.318C132.004 178.587 132.429 178.722 132.933 178.722ZM153.069 168.364V180H151.455L145.54 171.466H145.433V180H143.677V168.364H145.302L151.222 176.909H151.33V168.364H153.069ZM159.255 180.176C158.395 180.176 157.655 179.992 157.033 179.625C156.416 179.254 155.939 178.733 155.602 178.062C155.268 177.388 155.102 176.598 155.102 175.693C155.102 174.799 155.268 174.011 155.602 173.33C155.939 172.648 156.408 172.116 157.011 171.733C157.617 171.35 158.325 171.159 159.136 171.159C159.628 171.159 160.105 171.241 160.567 171.403C161.03 171.566 161.444 171.822 161.812 172.17C162.179 172.519 162.469 172.972 162.681 173.528C162.893 174.081 162.999 174.754 162.999 175.545V176.148H156.062V174.875H161.335C161.335 174.428 161.244 174.032 161.062 173.688C160.88 173.339 160.624 173.064 160.295 172.864C159.969 172.663 159.586 172.562 159.147 172.562C158.67 172.562 158.253 172.68 157.897 172.915C157.545 173.146 157.272 173.449 157.079 173.824C156.889 174.195 156.795 174.598 156.795 175.034V176.028C156.795 176.612 156.897 177.108 157.102 177.517C157.31 177.926 157.6 178.239 157.971 178.455C158.342 178.667 158.776 178.773 159.272 178.773C159.594 178.773 159.888 178.727 160.153 178.636C160.418 178.542 160.647 178.402 160.84 178.216C161.033 178.03 161.181 177.801 161.283 177.528L162.891 177.818C162.763 178.292 162.531 178.706 162.198 179.062C161.869 179.415 161.454 179.689 160.954 179.886C160.458 180.08 159.891 180.176 159.255 180.176ZM166.761 180L164.192 171.273H165.948L167.658 177.682H167.744L169.46 171.273H171.215L172.92 177.653H173.005L174.704 171.273H176.46L173.897 180H172.164L170.391 173.699H170.261L168.488 180H166.761Z" fill="#B0BECB"/>
</g>
<defs>
<filter id="filter0_d_2810_12997" x="0" y="0" width="284" height="274" filterUnits="userSpaceOnUse" color-interpolation-filters="sRGB">
<feFlood flood-opacity="0" result="BackgroundImageFix"/>
<feColorMatrix in="SourceAlpha" type="matrix" values="0 0 0 0 0 0 0 0 0 0 0 0 0 0 0 0 0 0 127 0" result="hardAlpha"/>
<feOffset dy="3"/>
<feGaussianBlur stdDeviation="6"/>
<feComposite in2="hardAlpha" operator="out"/>
<feColorMatrix type="matrix" values="0 0 0 0 0 0 0 0 0 0 0 0 0 0 0 0 0 0 0.12 0"/>
<feBlend mode="normal" in2="BackgroundImageFix" result="effect1_dropShadow_2810_12997"/>
<feBlend mode="normal" in="SourceGraphic" in2="effect1_dropShadow_2810_12997" result="shape"/>
</filter>
</defs>
</svg>
