<svg width="14" height="18" viewBox="0 0 14 18" fill="none" xmlns="http://www.w3.org/2000/svg">
<path d="M11.4981 16.588C10.6258 17.4587 9.67341 17.3212 8.75662 16.9088C7.78643 16.4872 6.89634 16.4688 5.87274 16.9088C4.59102 17.4771 3.91455 17.3121 3.14908 16.588C-1.19454 11.9777 -0.553678 4.95697 4.3774 4.70033C5.57901 4.76449 6.41569 5.37858 7.11886 5.43358C8.16916 5.2136 9.17496 4.58118 10.2965 4.66367C11.6405 4.77366 12.6552 5.32359 13.3228 6.31346C10.5457 8.02741 11.2044 11.7944 13.75 12.8485C13.2427 14.2233 12.584 15.589 11.4892 16.5972L11.4981 16.588ZM7.02985 4.64534C6.89634 2.60143 8.5074 0.914979 10.3588 0.75C10.6169 3.1147 8.27597 4.87448 7.02985 4.64534Z" fill="black"/>
</svg>
