<svg width="24" height="24" viewBox="0 0 24 24" fill="none" xmlns="http://www.w3.org/2000/svg">
<path d="M15.1003 1.30505C14.6965 0.891859 14.2142 0.56354 13.6818 0.339383C13.1494 0.115227 12.5775 -0.000244141 11.9998 -0.000244141C11.4221 -0.000244141 10.8502 0.115227 10.3177 0.339383C9.7853 0.56354 9.30302 0.891859 8.89927 1.30505L7.96627 2.26205L6.63127 2.24555C6.05339 2.23871 5.47999 2.34749 4.94476 2.56548C4.40954 2.78348 3.92331 3.10629 3.51466 3.51494C3.10601 3.92359 2.7832 4.40982 2.5652 4.94504C2.34721 5.48026 2.23843 6.05367 2.24527 6.63155L2.26027 7.96655L1.30627 8.89955C0.89308 9.3033 0.56476 9.78557 0.340604 10.318C0.116448 10.8505 0.000976563 11.4223 0.000976562 12C0.000976563 12.5778 0.116448 13.1496 0.340604 13.6821C0.56476 14.2145 0.89308 14.6968 1.30627 15.1005L2.26177 16.0336L2.24527 17.3685C2.23843 17.9464 2.34721 18.5198 2.5652 19.0551C2.7832 19.5903 3.10601 20.0765 3.51466 20.4852C3.92331 20.8938 4.40954 21.2166 4.94476 21.4346C5.47999 21.6526 6.05339 21.7614 6.63127 21.7545L7.96627 21.7395L8.89927 22.6935C9.30302 23.1067 9.7853 23.4351 10.3177 23.6592C10.8502 23.8834 11.4221 23.9988 11.9998 23.9988C12.5775 23.9988 13.1494 23.8834 13.6818 23.6592C14.2142 23.4351 14.6965 23.1067 15.1003 22.6935L16.0333 21.738L17.3683 21.7545C17.9461 21.7614 18.5196 21.6526 19.0548 21.4346C19.59 21.2166 20.0762 20.8938 20.4849 20.4852C20.8935 20.0765 21.2163 19.5903 21.4343 19.0551C21.6523 18.5198 21.7611 17.9464 21.7543 17.3685L21.7393 16.0336L22.6933 15.1005C23.1065 14.6968 23.4348 14.2145 23.6589 13.6821C23.8831 13.1496 23.9986 12.5778 23.9986 12C23.9986 11.4223 23.8831 10.8505 23.6589 10.318C23.4348 9.78557 23.1065 9.3033 22.6933 8.89955L21.7378 7.96655L21.7543 6.63155C21.7611 6.05367 21.6523 5.48026 21.4343 4.94504C21.2163 4.40982 20.8935 3.92359 20.4849 3.51494C20.0762 3.10629 19.59 2.78348 19.0548 2.56548C18.5196 2.34749 17.9461 2.23871 17.3683 2.24555L16.0333 2.26055L15.1003 1.30655V1.30505ZM15.5308 10.281L11.0308 14.781C10.9611 14.8509 10.8783 14.9063 10.7872 14.9441C10.6961 14.9819 10.5984 15.0014 10.4998 15.0014C10.4011 15.0014 10.3034 14.9819 10.2123 14.9441C10.1212 14.9063 10.0384 14.8509 9.96877 14.781L7.71877 12.531C7.64904 12.4613 7.59372 12.3785 7.55598 12.2874C7.51825 12.1963 7.49882 12.0987 7.49882 12C7.49882 11.9014 7.51825 11.8038 7.55598 11.7127C7.59372 11.6216 7.64904 11.5388 7.71877 11.469C7.7885 11.3993 7.87128 11.344 7.96239 11.3063C8.0535 11.2685 8.15115 11.2491 8.24977 11.2491C8.34838 11.2491 8.44604 11.2685 8.53714 11.3063C8.62825 11.344 8.71104 11.3993 8.78077 11.469L10.4998 13.1895L14.4688 9.21905C14.6096 9.07822 14.8006 8.9991 14.9998 8.9991C15.1989 8.9991 15.3899 9.07822 15.5308 9.21905C15.6716 9.35988 15.7507 9.55089 15.7507 9.75005C15.7507 9.94921 15.6716 10.1402 15.5308 10.281Z" fill="#2563EB"/>
</svg>
