<svg width="420" height="200" viewBox="0 0 420 200" fill="none" xmlns="http://www.w3.org/2000/svg">
<g filter="url(#filter0_d_1419_97469)">
<g clip-path="url(#clip0_1419_97469)">
<rect x="2" y="1" width="416" height="196" rx="12" fill="url(#paint0_linear_1419_97469)"/>
<path d="M258.114 214C152.376 86 234.901 0.666668 289.381 -26H418V214H258.114Z" fill="url(#paint1_linear_1419_97469)"/>
<path d="M417 12L220 214" stroke="white" stroke-opacity="0.2"/>
<path d="M226 214L417 12V214H253.082H226Z" fill="url(#paint2_linear_1419_97469)"/>
<g filter="url(#filter1_f_1419_97469)">
<path d="M417 102.223V21L271 177L417 102.223Z" fill="#2563EB" fill-opacity="0.2"/>
</g>
<path d="M226 214L417 12V41.1697L253.082 214H226Z" fill="url(#paint3_linear_1419_97469)"/>
<path d="M23.25 52V30C23.25 27.8 25.0263 26 27.1974 26H56.8026C58.9737 26 60.75 27.8 60.75 30V52C60.75 54.2 58.9737 56 56.8026 56H27.1974C25.0263 56 23.25 54.2 23.25 52Z" fill="#AFD5FF"/>
<path d="M60.75 37.6667V35.6875H48.9079C47.8224 35.6875 46.9342 34.7969 46.9342 33.7083C46.9342 32.6198 47.8224 31.7292 48.9079 31.7292H49.8947V29.75H48.9079C46.7368 29.75 44.9605 31.5312 44.9605 33.7083C44.9605 35.8854 46.7368 37.6667 48.9079 37.6667H51.8684V43.6042H48.9079C46.1447 43.6042 43.9737 45.7812 43.9737 48.5521C43.9737 51.3229 46.1447 53.5 48.9079 53.5H50.8816V51.5208H48.9079C47.2303 51.5208 45.9474 50.2344 45.9474 48.5521C45.9474 46.8698 47.2303 45.5833 48.9079 45.5833H60.75V43.6042H53.8421V37.6667H60.75ZM35.0921 43.6042H32.1316V37.6667H35.0921C37.2632 37.6667 39.0395 35.8854 39.0395 33.7083C39.0395 31.5312 37.2632 29.75 35.0921 29.75H32.1316V31.7292H35.0921C36.1776 31.7292 37.0658 32.6198 37.0658 33.7083C37.0658 34.7969 36.1776 35.6875 35.0921 35.6875H23.25V37.6667H30.1579V43.6042H23.25V45.5833H35.0921C36.7697 45.5833 38.0526 46.8698 38.0526 48.5521C38.0526 50.2344 36.7697 51.5208 35.0921 51.5208H33.1184V53.5H35.0921C37.8553 53.5 40.0263 51.3229 40.0263 48.5521C40.0263 45.7812 37.8553 43.6042 35.0921 43.6042Z" fill="#2563EB"/>
<path d="M24.7933 86.1818L26.9602 90.0043L29.1463 86.1818H31.2365L28.1747 91.0909L31.2621 96H29.1719L26.9602 92.331L24.755 96H22.6584L25.7138 91.0909L22.6967 86.1818H24.7933ZM34.7974 86.1818L36.9643 90.0043L39.1504 86.1818H41.2406L38.1788 91.0909L41.2661 96H39.1759L36.9643 92.331L34.759 96H32.6624L35.7178 91.0909L32.7008 86.1818H34.7974ZM44.8014 86.1818L46.9684 90.0043L49.1544 86.1818H51.2446L48.1828 91.0909L51.2702 96H49.18L46.9684 92.331L44.7631 96H42.6665L45.7219 91.0909L42.7049 86.1818H44.8014ZM54.8055 86.1818L56.9724 90.0043L59.1585 86.1818H61.2487L58.1869 91.0909L61.2743 96H59.1841L56.9724 92.331L54.7672 96H52.6706L55.726 91.0909L52.7089 86.1818H54.8055Z" fill="white"/>
<path d="M106.793 86.1818L108.96 90.0043L111.146 86.1818H113.237L110.175 91.0909L113.262 96H111.172L108.96 92.331L106.755 96H104.658L107.714 91.0909L104.697 86.1818H106.793ZM116.797 86.1818L118.964 90.0043L121.15 86.1818H123.241L120.179 91.0909L123.266 96H121.176L118.964 92.331L116.759 96H114.662L117.718 91.0909L114.701 86.1818H116.797ZM126.801 86.1818L128.968 90.0043L131.154 86.1818H133.245L130.183 91.0909L133.27 96H131.18L128.968 92.331L126.763 96H124.667L127.722 91.0909L124.705 86.1818H126.801ZM136.806 86.1818L138.972 90.0043L141.158 86.1818H143.249L140.187 91.0909L143.274 96H141.184L138.972 92.331L136.767 96H134.671L137.726 91.0909L134.709 86.1818H136.806Z" fill="white"/>
<path d="M188.793 86.1818L190.96 90.0043L193.146 86.1818H195.237L192.175 91.0909L195.262 96H193.172L190.96 92.331L188.755 96H186.658L189.714 91.0909L186.697 86.1818H188.793ZM198.797 86.1818L200.964 90.0043L203.15 86.1818H205.241L202.179 91.0909L205.266 96H203.176L200.964 92.331L198.759 96H196.662L199.718 91.0909L196.701 86.1818H198.797ZM208.801 86.1818L210.968 90.0043L213.154 86.1818H215.245L212.183 91.0909L215.27 96H213.18L210.968 92.331L208.763 96H206.667L209.722 91.0909L206.705 86.1818H208.801ZM218.806 86.1818L220.972 90.0043L223.158 86.1818H225.249L222.187 91.0909L225.274 96H223.184L220.972 92.331L218.767 96H216.671L219.726 91.0909L216.709 86.1818H218.806Z" fill="white"/>
<path d="M274.226 82.9091V96H272.244V84.8906H272.168L269.036 86.9361V85.044L272.302 82.9091H274.226ZM277.857 96V94.5682L282.287 89.9787C282.76 89.4801 283.15 89.0433 283.456 88.6683C283.768 88.2891 284 87.929 284.153 87.5881C284.307 87.2472 284.383 86.8849 284.383 86.5014C284.383 86.0668 284.281 85.6918 284.077 85.3764C283.872 85.0568 283.593 84.8118 283.239 84.6413C282.885 84.4666 282.487 84.3793 282.044 84.3793C281.575 84.3793 281.166 84.4751 280.817 84.6669C280.467 84.8587 280.199 85.1293 280.011 85.4787C279.824 85.8281 279.73 86.2372 279.73 86.706H277.844C277.844 85.9091 278.028 85.2124 278.394 84.6158C278.76 84.0192 279.263 83.5568 279.903 83.2287C280.542 82.8963 281.268 82.7301 282.082 82.7301C282.905 82.7301 283.629 82.8942 284.255 83.2223C284.886 83.5462 285.378 83.9893 285.732 84.5518C286.086 85.1101 286.263 85.7408 286.263 86.4439C286.263 86.9297 286.171 87.4048 285.988 87.8693C285.809 88.3338 285.496 88.8516 285.048 89.4226C284.601 89.9893 283.978 90.6776 283.182 91.4872L280.58 94.2102V94.3061H286.474V96H277.857ZM293.544 96.179C292.666 96.179 291.882 96.0277 291.191 95.7251C290.505 95.4226 289.962 95.0028 289.561 94.4659C289.165 93.9247 288.952 93.2983 288.922 92.5866H290.929C290.955 92.9744 291.085 93.3111 291.319 93.5966C291.558 93.8778 291.869 94.0952 292.252 94.2486C292.636 94.402 293.062 94.4787 293.531 94.4787C294.046 94.4787 294.502 94.3892 294.899 94.2102C295.299 94.0312 295.613 93.782 295.838 93.4624C296.064 93.1385 296.177 92.7656 296.177 92.3438C296.177 91.9048 296.064 91.5192 295.838 91.1868C295.617 90.8501 295.291 90.5859 294.86 90.3942C294.434 90.2024 293.919 90.1065 293.314 90.1065H292.208V88.4957H293.314C293.799 88.4957 294.225 88.4084 294.592 88.2337C294.963 88.0589 295.252 87.8161 295.461 87.505C295.67 87.1896 295.774 86.821 295.774 86.3991C295.774 85.9943 295.683 85.6428 295.5 85.3445C295.321 85.0419 295.065 84.8054 294.733 84.6349C294.404 84.4645 294.017 84.3793 293.569 84.3793C293.143 84.3793 292.745 84.4581 292.374 84.6158C292.007 84.7692 291.709 84.9908 291.479 85.2805C291.249 85.5661 291.125 85.9091 291.108 86.3097H289.197C289.218 85.6023 289.427 84.9801 289.823 84.4432C290.224 83.9062 290.752 83.4865 291.409 83.1839C292.065 82.8814 292.794 82.7301 293.595 82.7301C294.434 82.7301 295.159 82.8942 295.768 83.2223C296.382 83.5462 296.855 83.9787 297.187 84.5199C297.524 85.0611 297.69 85.6534 297.686 86.2969C297.69 87.0298 297.485 87.652 297.072 88.1634C296.663 88.6747 296.118 89.0178 295.436 89.1925V89.2947C296.305 89.4268 296.978 89.772 297.456 90.3303C297.937 90.8885 298.176 91.581 298.171 92.4077C298.176 93.1278 297.975 93.7734 297.571 94.3445C297.17 94.9155 296.622 95.3651 295.928 95.6932C295.233 96.017 294.439 96.179 293.544 96.179ZM300.403 93.4432V91.8452L306.06 82.9091H307.319V85.2614H306.52L302.474 91.6662V91.7685H310.227V93.4432H300.403ZM306.609 96V92.9574L306.622 92.2287V82.9091H308.495V96H306.609Z" fill="white"/>
<path d="M23.0568 146V137.273H28.3239V138.21H24.1136V141.159H28.0511V142.097H24.1136V145.062H28.392V146H23.0568ZM30.8001 137.273L33.0501 140.903H33.1182L35.3682 137.273H36.6126L33.8682 141.636L36.6126 146H35.3682L33.1182 142.438H33.0501L30.8001 146H29.5557L32.3682 141.636L29.5557 137.273H30.8001ZM38.0479 146V137.273H40.9968C41.6814 137.273 42.2411 137.396 42.6758 137.643C43.1133 137.888 43.4371 138.219 43.6473 138.636C43.8576 139.054 43.9627 139.52 43.9627 140.034C43.9627 140.548 43.8576 141.016 43.6473 141.436C43.44 141.857 43.1189 142.192 42.6843 142.442C42.2496 142.689 41.6928 142.812 41.0138 142.812H38.9002V141.875H40.9797C41.4485 141.875 41.8249 141.794 42.109 141.632C42.3931 141.47 42.599 141.251 42.7269 140.976C42.8576 140.697 42.9229 140.384 42.9229 140.034C42.9229 139.685 42.8576 139.372 42.7269 139.097C42.599 138.821 42.3917 138.605 42.1047 138.449C41.8178 138.29 41.4371 138.21 40.9627 138.21H39.1047V146H38.0479ZM51.8533 146.119C51.2112 146.119 50.6644 145.945 50.2127 145.595C49.761 145.243 49.4158 144.733 49.1771 144.065C48.9385 143.395 48.8192 142.585 48.8192 141.636C48.8192 140.693 48.9385 139.888 49.1771 139.22C49.4186 138.55 49.7652 138.038 50.2169 137.686C50.6715 137.331 51.2169 137.153 51.8533 137.153C52.4896 137.153 53.0337 137.331 53.4854 137.686C53.9399 138.038 54.2865 138.55 54.5252 139.22C54.7666 139.888 54.8874 140.693 54.8874 141.636C54.8874 142.585 54.7681 143.395 54.5294 144.065C54.2908 144.733 53.9456 145.243 53.4939 145.595C53.0422 145.945 52.4953 146.119 51.8533 146.119ZM51.8533 145.182C52.4896 145.182 52.984 144.875 53.3362 144.261C53.6885 143.648 53.8646 142.773 53.8646 141.636C53.8646 140.881 53.7837 140.237 53.6217 139.706C53.4627 139.175 53.2325 138.77 52.9314 138.491C52.6331 138.213 52.2737 138.074 51.8533 138.074C51.2226 138.074 50.7297 138.385 50.3746 139.007C50.0195 139.626 49.8419 140.503 49.8419 141.636C49.8419 142.392 49.9215 143.034 50.0806 143.562C50.2396 144.091 50.4683 144.493 50.7666 144.768C51.0678 145.044 51.43 145.182 51.8533 145.182ZM56.5667 146V145.233L59.4474 142.08C59.7854 141.71 60.0638 141.389 60.2826 141.116C60.5013 140.841 60.6633 140.582 60.7684 140.341C60.8763 140.097 60.9303 139.841 60.9303 139.574C60.9303 139.267 60.8565 139.001 60.7087 138.777C60.5638 138.553 60.365 138.379 60.1121 138.257C59.8593 138.135 59.5752 138.074 59.2599 138.074C58.9246 138.074 58.632 138.143 58.382 138.283C58.1349 138.419 57.9431 138.611 57.8067 138.858C57.6732 139.105 57.6065 139.395 57.6065 139.727H56.6008C56.6008 139.216 56.7187 138.767 56.9545 138.381C57.1903 137.994 57.5113 137.693 57.9175 137.477C58.3266 137.261 58.7854 137.153 59.294 137.153C59.8053 137.153 60.2585 137.261 60.6533 137.477C61.0482 137.693 61.3579 137.984 61.5823 138.351C61.8067 138.717 61.919 139.125 61.919 139.574C61.919 139.895 61.8607 140.209 61.7442 140.516C61.6306 140.82 61.4317 141.159 61.1477 141.534C60.8664 141.906 60.4758 142.361 59.9758 142.898L58.0156 144.994V145.062H62.0724V146H56.5667ZM66.9946 136.864L64.1821 147.312H63.2616L66.0741 136.864H66.9946ZM71.0762 146.119C70.4342 146.119 69.8873 145.945 69.4356 145.595C68.9839 145.243 68.6387 144.733 68.4001 144.065C68.1615 143.395 68.0422 142.585 68.0422 141.636C68.0422 140.693 68.1615 139.888 68.4001 139.22C68.6416 138.55 68.9882 138.038 69.4399 137.686C69.8944 137.331 70.4399 137.153 71.0762 137.153C71.7126 137.153 72.2566 137.331 72.7084 137.686C73.1629 138.038 73.5095 138.55 73.7481 139.22C73.9896 139.888 74.1103 140.693 74.1103 141.636C74.1103 142.585 73.991 143.395 73.7524 144.065C73.5137 144.733 73.1686 145.243 72.7169 145.595C72.2652 145.945 71.7183 146.119 71.0762 146.119ZM71.0762 145.182C71.7126 145.182 72.2069 144.875 72.5592 144.261C72.9115 143.648 73.0876 142.773 73.0876 141.636C73.0876 140.881 73.0066 140.237 72.8447 139.706C72.6856 139.175 72.4555 138.77 72.1544 138.491C71.8561 138.213 71.4967 138.074 71.0762 138.074C70.4456 138.074 69.9527 138.385 69.5976 139.007C69.2424 139.626 69.0649 140.503 69.0649 141.636C69.0649 142.392 69.1444 143.034 69.3035 143.562C69.4626 144.091 69.6913 144.493 69.9896 144.768C70.2907 145.044 70.653 145.182 71.0762 145.182ZM78.8578 137.273V146H77.801V138.381H77.7499L75.6192 139.795V138.722L77.801 137.273H78.8578Z" fill="white" fill-opacity="0.7"/>
<path d="M23.4091 155.364H25.0909L29.0455 165.023H29.1818L33.1364 155.364H34.8182V167H33.5V158.159H33.3864L29.75 167H28.4773L24.8409 158.159H24.7273V167H23.4091V155.364ZM40.1098 167.205C39.5568 167.205 39.0549 167.1 38.6041 166.892C38.1534 166.68 37.7954 166.375 37.5303 165.977C37.2651 165.576 37.1326 165.091 37.1326 164.523C37.1326 164.023 37.231 163.617 37.428 163.307C37.625 162.992 37.8882 162.746 38.2178 162.568C38.5473 162.39 38.911 162.258 39.3087 162.17C39.7102 162.08 40.1136 162.008 40.5189 161.955C41.0492 161.886 41.4791 161.835 41.8087 161.801C42.142 161.763 42.3845 161.701 42.536 161.614C42.6913 161.527 42.7689 161.375 42.7689 161.159V161.114C42.7689 160.553 42.6155 160.117 42.3087 159.807C42.0057 159.496 41.5454 159.341 40.928 159.341C40.2879 159.341 39.786 159.481 39.4223 159.761C39.0587 160.042 38.803 160.341 38.6553 160.659L37.3826 160.205C37.6098 159.674 37.9129 159.261 38.2916 158.966C38.6742 158.667 39.0909 158.458 39.5416 158.341C39.9962 158.22 40.4432 158.159 40.8826 158.159C41.1629 158.159 41.4848 158.193 41.8485 158.261C42.2159 158.326 42.5701 158.46 42.911 158.665C43.2557 158.869 43.5416 159.178 43.7689 159.591C43.9962 160.004 44.1098 160.557 44.1098 161.25V167H42.7689V165.818H42.7007C42.6098 166.008 42.4583 166.21 42.2462 166.426C42.0341 166.642 41.7519 166.826 41.3996 166.977C41.0473 167.129 40.6174 167.205 40.1098 167.205ZM40.3144 166C40.8447 166 41.2916 165.896 41.6553 165.688C42.0227 165.479 42.2992 165.21 42.4848 164.881C42.6742 164.551 42.7689 164.205 42.7689 163.841V162.614C42.7121 162.682 42.5871 162.744 42.3939 162.801C42.2045 162.854 41.9848 162.902 41.7348 162.943C41.4886 162.981 41.2481 163.015 41.0132 163.045C40.7822 163.072 40.5947 163.095 40.4507 163.114C40.1023 163.159 39.7765 163.233 39.4735 163.335C39.1742 163.434 38.9318 163.583 38.7462 163.784C38.5644 163.981 38.4735 164.25 38.4735 164.591C38.4735 165.057 38.6458 165.409 38.9905 165.648C39.339 165.883 39.7803 166 40.3144 166ZM52.8191 160.227L51.6145 160.568C51.5388 160.367 51.427 160.172 51.2793 159.983C51.1354 159.79 50.9384 159.631 50.6884 159.506C50.4384 159.381 50.1183 159.318 49.7282 159.318C49.1941 159.318 48.749 159.441 48.393 159.688C48.0407 159.93 47.8645 160.239 47.8645 160.614C47.8645 160.947 47.9858 161.21 48.2282 161.403C48.4706 161.597 48.8494 161.758 49.3645 161.886L50.66 162.205C51.4403 162.394 52.0217 162.684 52.4043 163.074C52.7869 163.46 52.9782 163.958 52.9782 164.568C52.9782 165.068 52.8342 165.515 52.5464 165.909C52.2623 166.303 51.8645 166.614 51.3532 166.841C50.8418 167.068 50.2471 167.182 49.5691 167.182C48.6789 167.182 47.9422 166.989 47.3589 166.602C46.7755 166.216 46.4062 165.652 46.2509 164.909L47.5236 164.591C47.6448 165.061 47.874 165.413 48.2111 165.648C48.552 165.883 48.9971 166 49.5464 166C50.1714 166 50.6676 165.867 51.035 165.602C51.4062 165.333 51.5918 165.011 51.5918 164.636C51.5918 164.333 51.4858 164.08 51.2736 163.875C51.0615 163.667 50.7358 163.511 50.2964 163.409L48.8418 163.068C48.0426 162.879 47.4555 162.585 47.0805 162.188C46.7092 161.786 46.5236 161.284 46.5236 160.682C46.5236 160.189 46.6619 159.754 46.9384 159.375C47.2187 158.996 47.5994 158.699 48.0805 158.483C48.5653 158.267 49.1145 158.159 49.7282 158.159C50.5918 158.159 51.2698 158.348 51.7623 158.727C52.2585 159.106 52.6108 159.606 52.8191 160.227ZM58.6221 167.182C57.8342 167.182 57.1429 166.994 56.5482 166.619C55.9573 166.244 55.4952 165.72 55.1619 165.045C54.8323 164.371 54.6676 163.583 54.6676 162.682C54.6676 161.773 54.8323 160.979 55.1619 160.301C55.4952 159.623 55.9573 159.097 56.5482 158.722C57.1429 158.347 57.8342 158.159 58.6221 158.159C59.41 158.159 60.0994 158.347 60.6903 158.722C61.285 159.097 61.7471 159.623 62.0766 160.301C62.41 160.979 62.5766 161.773 62.5766 162.682C62.5766 163.583 62.41 164.371 62.0766 165.045C61.7471 165.72 61.285 166.244 60.6903 166.619C60.0994 166.994 59.41 167.182 58.6221 167.182ZM58.6221 165.977C59.2206 165.977 59.713 165.824 60.0994 165.517C60.4857 165.21 60.7717 164.807 60.9573 164.307C61.1429 163.807 61.2357 163.265 61.2357 162.682C61.2357 162.098 61.1429 161.555 60.9573 161.051C60.7717 160.547 60.4857 160.14 60.0994 159.83C59.713 159.519 59.2206 159.364 58.6221 159.364C58.0236 159.364 57.5312 159.519 57.1448 159.83C56.7585 160.14 56.4725 160.547 56.2869 161.051C56.1013 161.555 56.0085 162.098 56.0085 162.682C56.0085 163.265 56.1013 163.807 56.2869 164.307C56.4725 164.807 56.7585 165.21 57.1448 165.517C57.5312 165.824 58.0236 165.977 58.6221 165.977ZM66.0444 161.75V167H64.7035V158.273H65.999V159.636H66.1126C66.3172 159.193 66.6278 158.837 67.0444 158.568C67.4611 158.295 67.999 158.159 68.6581 158.159C69.249 158.159 69.766 158.28 70.2092 158.523C70.6524 158.761 70.9971 159.125 71.2433 159.614C71.4895 160.098 71.6126 160.712 71.6126 161.455V167H70.2717V161.545C70.2717 160.86 70.0937 160.326 69.7376 159.943C69.3816 159.557 68.8929 159.364 68.2717 159.364C67.8437 159.364 67.4611 159.456 67.124 159.642C66.7906 159.828 66.5274 160.098 66.3342 160.455C66.141 160.811 66.0444 161.242 66.0444 161.75ZM88.2684 159H86.8593C86.7759 158.595 86.6301 158.239 86.4218 157.932C86.2172 157.625 85.9672 157.367 85.6718 157.159C85.3801 156.947 85.0562 156.788 84.7002 156.682C84.3441 156.576 83.9729 156.523 83.5865 156.523C82.882 156.523 82.2437 156.701 81.6718 157.057C81.1036 157.413 80.6509 157.938 80.3138 158.631C79.9805 159.324 79.8138 160.174 79.8138 161.182C79.8138 162.189 79.9805 163.04 80.3138 163.733C80.6509 164.426 81.1036 164.951 81.6718 165.307C82.2437 165.663 82.882 165.841 83.5865 165.841C83.9729 165.841 84.3441 165.788 84.7002 165.682C85.0562 165.576 85.3801 165.419 85.6718 165.21C85.9672 164.998 86.2172 164.739 86.4218 164.432C86.6301 164.121 86.7759 163.765 86.8593 163.364H88.2684C88.1623 163.958 87.9691 164.491 87.6888 164.96C87.4085 165.43 87.06 165.83 86.6434 166.159C86.2267 166.485 85.7589 166.733 85.2399 166.903C84.7248 167.074 84.1737 167.159 83.5865 167.159C82.5941 167.159 81.7115 166.917 80.9388 166.432C80.1661 165.947 79.5581 165.258 79.1149 164.364C78.6718 163.47 78.4502 162.409 78.4502 161.182C78.4502 159.955 78.6718 158.894 79.1149 158C79.5581 157.106 80.1661 156.417 80.9388 155.932C81.7115 155.447 82.5941 155.205 83.5865 155.205C84.1737 155.205 84.7248 155.29 85.2399 155.46C85.7589 155.631 86.2267 155.881 86.6434 156.21C87.06 156.536 87.4085 156.934 87.6888 157.403C87.9691 157.869 88.1623 158.402 88.2684 159ZM93.989 167.182C93.2011 167.182 92.5098 166.994 91.9151 166.619C91.3242 166.244 90.8621 165.72 90.5287 165.045C90.1992 164.371 90.0344 163.583 90.0344 162.682C90.0344 161.773 90.1992 160.979 90.5287 160.301C90.8621 159.623 91.3242 159.097 91.9151 158.722C92.5098 158.347 93.2011 158.159 93.989 158.159C94.7769 158.159 95.4662 158.347 96.0572 158.722C96.6519 159.097 97.114 159.623 97.4435 160.301C97.7769 160.979 97.9435 161.773 97.9435 162.682C97.9435 163.583 97.7769 164.371 97.4435 165.045C97.114 165.72 96.6519 166.244 96.0572 166.619C95.4662 166.994 94.7769 167.182 93.989 167.182ZM93.989 165.977C94.5875 165.977 95.0799 165.824 95.4662 165.517C95.8526 165.21 96.1386 164.807 96.3242 164.307C96.5098 163.807 96.6026 163.265 96.6026 162.682C96.6026 162.098 96.5098 161.555 96.3242 161.051C96.1386 160.547 95.8526 160.14 95.4662 159.83C95.0799 159.519 94.5875 159.364 93.989 159.364C93.3905 159.364 92.8981 159.519 92.5117 159.83C92.1253 160.14 91.8394 160.547 91.6537 161.051C91.4681 161.555 91.3753 162.098 91.3753 162.682C91.3753 163.265 91.4681 163.807 91.6537 164.307C91.8394 164.807 92.1253 165.21 92.5117 165.517C92.8981 165.824 93.3905 165.977 93.989 165.977ZM103.616 167.182C102.828 167.182 102.137 166.994 101.542 166.619C100.951 166.244 100.489 165.72 100.156 165.045C99.8261 164.371 99.6613 163.583 99.6613 162.682C99.6613 161.773 99.8261 160.979 100.156 160.301C100.489 159.623 100.951 159.097 101.542 158.722C102.137 158.347 102.828 158.159 103.616 158.159C104.404 158.159 105.093 158.347 105.684 158.722C106.279 159.097 106.741 159.623 107.07 160.301C107.404 160.979 107.57 161.773 107.57 162.682C107.57 163.583 107.404 164.371 107.07 165.045C106.741 165.72 106.279 166.244 105.684 166.619C105.093 166.994 104.404 167.182 103.616 167.182ZM103.616 165.977C104.214 165.977 104.707 165.824 105.093 165.517C105.479 165.21 105.765 164.807 105.951 164.307C106.137 163.807 106.229 163.265 106.229 162.682C106.229 162.098 106.137 161.555 105.951 161.051C105.765 160.547 105.479 160.14 105.093 159.83C104.707 159.519 104.214 159.364 103.616 159.364C103.017 159.364 102.525 159.519 102.139 159.83C101.752 160.14 101.466 160.547 101.281 161.051C101.095 161.555 101.002 162.098 101.002 162.682C101.002 163.265 101.095 163.807 101.281 164.307C101.466 164.807 101.752 165.21 102.139 165.517C102.525 165.824 103.017 165.977 103.616 165.977ZM109.697 170.273V158.273H110.993V159.659H111.152C111.25 159.508 111.387 159.314 111.561 159.08C111.739 158.841 111.993 158.629 112.322 158.443C112.656 158.254 113.106 158.159 113.675 158.159C114.409 158.159 115.057 158.343 115.618 158.71C116.178 159.078 116.616 159.598 116.93 160.273C117.245 160.947 117.402 161.742 117.402 162.659C117.402 163.583 117.245 164.384 116.93 165.062C116.616 165.737 116.18 166.259 115.623 166.631C115.067 166.998 114.425 167.182 113.697 167.182C113.137 167.182 112.688 167.089 112.351 166.903C112.014 166.714 111.754 166.5 111.572 166.261C111.39 166.019 111.25 165.818 111.152 165.659H111.038V170.273H109.697ZM111.015 162.636C111.015 163.295 111.112 163.877 111.305 164.381C111.498 164.881 111.781 165.273 112.152 165.557C112.523 165.837 112.978 165.977 113.515 165.977C114.076 165.977 114.544 165.83 114.919 165.534C115.298 165.235 115.582 164.833 115.771 164.33C115.964 163.822 116.061 163.258 116.061 162.636C116.061 162.023 115.966 161.47 115.777 160.977C115.591 160.481 115.309 160.089 114.93 159.801C114.555 159.509 114.084 159.364 113.515 159.364C112.97 159.364 112.512 159.502 112.14 159.778C111.769 160.051 111.489 160.434 111.3 160.926C111.11 161.415 111.015 161.985 111.015 162.636ZM123.186 167.182C122.345 167.182 121.62 166.996 121.01 166.625C120.404 166.25 119.936 165.727 119.607 165.057C119.281 164.383 119.118 163.598 119.118 162.705C119.118 161.811 119.281 161.023 119.607 160.341C119.936 159.655 120.395 159.121 120.982 158.739C121.573 158.352 122.262 158.159 123.05 158.159C123.505 158.159 123.953 158.235 124.397 158.386C124.84 158.538 125.243 158.784 125.607 159.125C125.97 159.462 126.26 159.909 126.476 160.466C126.692 161.023 126.8 161.708 126.8 162.523V163.091H120.073V161.932H125.436C125.436 161.439 125.338 161 125.141 160.614C124.948 160.227 124.671 159.922 124.311 159.699C123.955 159.475 123.535 159.364 123.05 159.364C122.516 159.364 122.054 159.496 121.664 159.761C121.277 160.023 120.98 160.364 120.772 160.784C120.563 161.205 120.459 161.655 120.459 162.136V162.909C120.459 163.568 120.573 164.127 120.8 164.585C121.031 165.04 121.351 165.386 121.76 165.625C122.169 165.86 122.645 165.977 123.186 165.977C123.539 165.977 123.857 165.928 124.141 165.83C124.429 165.727 124.677 165.576 124.885 165.375C125.094 165.17 125.255 164.917 125.368 164.614L126.664 164.977C126.527 165.417 126.298 165.803 125.976 166.136C125.654 166.466 125.256 166.723 124.783 166.909C124.309 167.091 123.777 167.182 123.186 167.182ZM128.92 167V158.273H130.215V159.591H130.306C130.465 159.159 130.753 158.809 131.17 158.54C131.586 158.271 132.056 158.136 132.579 158.136C132.677 158.136 132.8 158.138 132.948 158.142C133.096 158.146 133.208 158.152 133.283 158.159V159.523C133.238 159.511 133.134 159.494 132.971 159.472C132.812 159.445 132.643 159.432 132.465 159.432C132.041 159.432 131.662 159.521 131.329 159.699C130.999 159.873 130.738 160.116 130.545 160.426C130.355 160.733 130.261 161.083 130.261 161.477V167H128.92Z" fill="white"/>
<path d="M359.185 159.966L358.829 158.185H354.848L354.215 159.953L351.024 159.96C353.075 155.031 354.597 151.381 355.591 149.008C355.85 148.387 356.311 148.07 356.99 148.075C357.51 148.079 358.357 148.08 359.533 148.077L362 159.961L359.185 159.966ZM355.743 155.745H358.309L357.351 151.28L355.743 155.745ZM335.182 148.074L338.389 148.077L333.43 159.968L330.183 159.964C329.366 156.824 328.56 153.68 327.764 150.534C327.605 149.907 327.292 149.469 326.688 149.261C326.149 149.076 325.253 148.791 324 148.405V148.077H329.125C330.012 148.077 330.53 148.506 330.696 149.386C330.864 150.269 331.286 152.514 331.963 156.122L335.182 148.074ZM342.797 148.077L340.262 159.966L337.208 159.961L339.738 148.074L342.797 148.077ZM348.988 147.857C349.902 147.857 351.053 148.142 351.715 148.405L351.18 150.868C350.581 150.628 349.596 150.303 348.768 150.314C347.565 150.335 346.821 150.84 346.821 151.324C346.821 152.113 348.113 152.51 349.443 153.371C350.959 154.353 351.161 155.235 351.142 156.195C351.121 158.182 349.443 160.143 345.902 160.143C344.287 160.12 343.705 159.985 342.387 159.516L342.945 156.945C344.286 157.506 344.854 157.684 346 157.684C347.05 157.684 347.951 157.26 347.959 156.521C347.965 155.995 347.642 155.734 346.464 155.085C345.286 154.435 343.633 153.535 343.656 151.725C343.682 149.41 345.875 147.857 348.988 147.857Z" fill="white"/>
</g>
</g>
<defs>
<filter id="filter0_d_1419_97469" x="0" y="0" width="420" height="200" filterUnits="userSpaceOnUse" color-interpolation-filters="sRGB">
<feFlood flood-opacity="0" result="BackgroundImageFix"/>
<feColorMatrix in="SourceAlpha" type="matrix" values="0 0 0 0 0 0 0 0 0 0 0 0 0 0 0 0 0 0 127 0" result="hardAlpha"/>
<feOffset dy="1"/>
<feGaussianBlur stdDeviation="1"/>
<feComposite in2="hardAlpha" operator="out"/>
<feColorMatrix type="matrix" values="0 0 0 0 0 0 0 0 0 0 0 0 0 0 0 0 0 0 0.05 0"/>
<feBlend mode="normal" in2="BackgroundImageFix" result="effect1_dropShadow_1419_97469"/>
<feBlend mode="normal" in="SourceGraphic" in2="effect1_dropShadow_1419_97469" result="shape"/>
</filter>
<filter id="filter1_f_1419_97469" x="237" y="-13" width="214" height="224" filterUnits="userSpaceOnUse" color-interpolation-filters="sRGB">
<feFlood flood-opacity="0" result="BackgroundImageFix"/>
<feBlend mode="normal" in="SourceGraphic" in2="BackgroundImageFix" result="shape"/>
<feGaussianBlur stdDeviation="17" result="effect1_foregroundBlur_1419_97469"/>
</filter>
<linearGradient id="paint0_linear_1419_97469" x1="419.398" y1="5.35494" x2="-8.2232" y2="-7.13649" gradientUnits="userSpaceOnUse">
<stop stop-color="#0099FF"/>
<stop offset="0.684664" stop-color="#2563EB"/>
</linearGradient>
<linearGradient id="paint1_linear_1419_97469" x1="418" y1="-44.7097" x2="235.887" y2="213.503" gradientUnits="userSpaceOnUse">
<stop stop-color="#0099FF"/>
<stop offset="1" stop-color="#2563EB"/>
</linearGradient>
<linearGradient id="paint2_linear_1419_97469" x1="231.02" y1="193.613" x2="426.239" y2="3.75807" gradientUnits="userSpaceOnUse">
<stop stop-color="#0099FF"/>
<stop offset="1" stop-color="#2563EB"/>
</linearGradient>
<linearGradient id="paint3_linear_1419_97469" x1="294.399" y1="214" x2="345.005" y2="79.4696" gradientUnits="userSpaceOnUse">
<stop stop-color="#0099FF"/>
<stop offset="1" stop-color="#2563EB"/>
</linearGradient>
<clipPath id="clip0_1419_97469">
<rect x="2" y="1" width="416" height="196" rx="12" fill="white"/>
</clipPath>
</defs>
</svg>
