<svg width="21" height="20" viewBox="0 0 21 20" fill="none" xmlns="http://www.w3.org/2000/svg">
<path d="M10.3333 1.875C8.93056 1.87469 7.55161 2.23757 6.3307 2.9283C5.10979 3.61904 4.08851 4.6141 3.36626 5.81664C2.64402 7.01918 2.24541 8.38822 2.20924 9.79052C2.17308 11.1928 2.50058 12.5806 3.15988 13.8188L2.27316 16.4789C2.19971 16.6992 2.18905 16.9355 2.24238 17.1615C2.2957 17.3874 2.41091 17.5941 2.57508 17.7582C2.73924 17.9224 2.94589 18.0376 3.17185 18.0909C3.39782 18.1443 3.63416 18.1336 3.85441 18.0602L6.51457 17.1734C7.60423 17.753 8.81161 18.0767 10.0451 18.12C11.2785 18.1633 12.5056 17.925 13.6332 17.4232C14.7608 16.9215 15.7593 16.1694 16.5529 15.2241C17.3464 14.2789 17.9142 13.1652 18.2131 11.9678C18.512 10.7703 18.5342 9.52047 18.2779 8.31315C18.0217 7.10584 17.4938 5.97276 16.7343 4.99993C15.9748 4.02711 15.0036 3.24009 13.8945 2.69864C12.7854 2.15718 11.5675 1.87551 10.3333 1.875ZM10.3333 16.875C9.1247 16.8758 7.9373 16.5575 6.89113 15.9523C6.81453 15.9079 6.72937 15.8803 6.64128 15.8713C6.5532 15.8622 6.4642 15.872 6.38019 15.9L3.45832 16.875L4.43254 13.9531C4.46062 13.8692 4.47054 13.7802 4.46165 13.6921C4.45276 13.604 4.42526 13.5188 4.38097 13.4422C3.62314 12.132 3.31887 10.6083 3.51537 9.10747C3.71187 7.60667 4.39815 6.21267 5.46776 5.14171C6.53736 4.07076 7.9305 3.38271 9.43105 3.18431C10.9316 2.98592 12.4557 3.28826 13.7669 4.04444C15.078 4.80062 16.103 5.96837 16.6828 7.36652C17.2626 8.76468 17.3648 10.3151 16.9735 11.7773C16.5822 13.2394 15.7193 14.5316 14.5187 15.4533C13.3181 16.375 11.8469 16.8748 10.3333 16.875Z" fill="#606E80"/>
</svg>
