<svg width="250" height="400" viewBox="0 0 134 200" fill="none"  xmlns="http://www.w3.org/2000/svg">
<g clip-path="url(#clip0_2726_4683)">
<path d="M73.4026 66.7043C73.6012 67.7343 72.9244 68.7327 71.8957 68.9314C70.8669 69.1302 69.8698 68.4526 69.6713 67.4226C69.4728 66.3926 70.1496 65.3943 71.1783 65.1955C72.207 64.9967 73.2041 65.6744 73.4026 66.7043Z" fill="#5F6A82"/>
<path d="M108.193 71.2174H34.8838V69.0581C34.8838 65.7423 37.5684 63.0544 40.8801 63.0544H102.192C105.504 63.0544 108.188 65.7423 108.188 69.0581V71.2174H108.193Z" fill="#0C1529"/>
<path d="M102.197 197.33H40.3342C37.0225 197.33 34.3379 194.643 34.3379 191.327V180.499H108.193V191.327C108.193 194.643 105.508 197.33 102.197 197.33Z" fill="#0C1529"/>
<path d="M72.3185 192.633C74.5157 192.023 75.8028 189.745 75.1935 187.545C74.5842 185.346 72.3091 184.057 70.112 184.667C67.9149 185.277 66.6277 187.555 67.237 189.755C67.8464 191.954 70.1214 193.243 72.3185 192.633Z" fill="#5F6A82"/>
<path d="M100.224 90.7346L73.4296 80.8705L64.8081 107.903L55.5284 80.9177L29.402 90.9201L44.3699 66.9327L20.6646 52.5771L48.3578 49.447L45.1778 21.7438L64.4891 41.6279L84.4819 21.6418L80.6148 49.3606L108.979 52.343L84.5947 66.8277L100.224 90.7346Z" fill="#DBEAFE"/>
<path d="M108.193 180.489H34.8838V71.2219H108.193V180.489Z" fill="#F8F2ED"/>
<path d="M45.069 141.921L45.1039 139.992C45.108 139.766 45.2964 139.584 45.5219 139.588L46.0993 139.599C46.3249 139.603 46.5065 139.791 46.5024 140.017L46.4674 141.946C46.4633 142.172 46.275 142.354 46.0495 142.349L45.472 142.339C45.2465 142.335 45.0649 142.146 45.069 141.921Z" fill="#0072FF"/>
<path fill-rule="evenodd" clip-rule="evenodd" d="M48.6362 138.938C48.6092 138.992 48.5685 139.051 48.6407 139.105C48.6588 139.132 48.6859 139.123 48.7084 139.123C49.1596 139.132 49.6108 139.141 50.062 139.15C50.0845 139.15 50.1026 139.15 50.1251 139.141C50.2786 139.173 50.3688 139.268 50.3959 139.421C50.3959 139.471 50.3914 139.521 50.3959 139.571C50.3959 139.643 50.3462 139.697 50.2966 139.742C50.2154 139.819 50.2289 139.882 50.2876 139.959C50.3598 140.049 50.4139 140.149 50.4049 140.271C50.3959 140.393 50.3282 140.483 50.2379 140.555C50.1612 140.619 50.1477 140.677 50.2019 140.772C50.3146 140.962 50.2921 141.066 50.1297 141.215C50.071 141.269 50.0439 141.328 50.08 141.405C50.2425 141.793 50.0304 142.019 49.6153 142.014C49.0197 142.005 48.4242 142.005 47.8286 142.014C47.5985 142.014 47.3684 142.014 47.1383 142.014C46.9758 142.014 46.8089 141.947 46.8089 141.748C46.8044 141.323 46.8495 139.986 46.845 139.738C46.845 139.652 46.8721 139.566 46.9172 139.498C47.1744 139.141 47.3909 138.753 47.7158 138.446C47.7519 138.41 47.788 138.373 47.8331 138.346C47.964 138.26 48.0091 138.139 48.0136 137.989C48.0136 137.845 48.0136 137.696 48.0587 137.551C48.1489 137.285 48.5054 137.203 48.6768 137.425C48.8754 137.682 48.943 137.98 48.8708 138.301C48.8708 138.301 48.8122 138.572 48.6543 138.929L48.6362 138.938Z" fill="#0072FF"/>
<path d="M65.8179 139.634L65.8522 137.705C65.8562 137.479 66.0445 137.297 66.27 137.301L66.8475 137.312C67.073 137.316 67.2547 137.504 67.2507 137.73L67.2163 139.663C67.2123 139.889 67.0241 140.071 66.7985 140.067L66.2211 140.057C65.9955 140.053 65.8138 139.864 65.8179 139.638L65.8179 139.634Z" fill="#878A8C"/>
<path fill-rule="evenodd" clip-rule="evenodd" d="M63.6827 140.714C63.7098 140.659 63.7504 140.601 63.6782 140.546C63.6602 140.519 63.6331 140.528 63.6105 140.528C63.1593 140.519 62.7082 140.51 62.257 140.506C62.2344 140.506 62.2164 140.506 62.1938 140.515C62.0359 140.483 61.9502 140.388 61.9231 140.235C61.9231 140.185 61.9276 140.135 61.9231 140.086C61.9231 140.013 61.9727 139.959 62.0224 139.914C62.1036 139.837 62.09 139.774 62.0314 139.697C61.9592 139.607 61.905 139.507 61.9141 139.385C61.9231 139.263 61.9908 139.173 62.081 139.101C62.1577 139.038 62.1712 138.979 62.1171 138.884C62.0043 138.694 62.0269 138.59 62.1893 138.441C62.2479 138.387 62.2705 138.328 62.2389 138.252C62.0765 137.863 62.2886 137.637 62.7037 137.642C63.2992 137.651 63.8948 137.651 64.4904 137.642C64.7205 137.642 64.9506 137.642 65.1807 137.642C65.3431 137.642 65.51 137.709 65.51 137.908C65.5146 138.333 65.4694 139.67 65.474 139.918C65.474 140.004 65.4469 140.09 65.4018 140.158C65.1446 140.515 64.928 140.903 64.6032 141.21C64.5671 141.247 64.531 141.278 64.4858 141.305C64.355 141.391 64.3099 141.513 64.3099 141.662C64.3099 141.807 64.3099 141.956 64.2648 142.1C64.1745 142.367 63.8181 142.448 63.6466 142.227C63.4481 141.969 63.3804 141.671 63.4526 141.35C63.4526 141.35 63.5113 141.079 63.6692 140.723L63.6827 140.714Z" fill="#878A8C"/>
<path d="M82.2226 140.049V140.908L84.8079 139.2L82.2226 137.492V138.351C82.2226 138.351 81.045 138.495 80.1155 139.25C79.1861 140.004 78.7529 141.12 78.7529 142.163C78.7529 142.163 79.0552 141.097 79.9486 140.487C80.9412 139.81 82.2181 140.054 82.2181 140.054L82.2226 140.049Z" fill="#878A8C"/>
<path d="M100.437 137.809H96.3086V138.378H100.437V137.809Z" fill="#878A8C"/>
<path d="M100.437 139.001H96.3086V139.57H100.437V139.001Z" fill="#878A8C"/>
<path d="M99.3 140.194H96.3086V140.763H99.3V140.194Z" fill="#878A8C"/>
<path d="M102.486 140.194H99.792V140.763H102.486V140.194Z" fill="#878A8C"/>
<path d="M100.874 141.843L100.856 139.132H101.42L101.438 141.843H100.874Z" fill="#878A8C"/>
<path d="M72.0526 160.608H43.6953V177.801H72.0526V160.608Z" fill="#D8D8D8"/>
<path opacity="0.68" d="M69.111 173.343H64.3916V176.013H69.111V173.343Z" fill="#161616"/>
<path d="M87.2398 160.608H75.8789V163.694H87.2398V160.608Z" fill="#D8D8D8"/>
<path d="M91.2148 166.915H75.8789V168.405H91.2148V166.915Z" fill="#D8D8D8"/>
<path d="M91.2148 170.434H75.8789V171.924H91.2148V170.434Z" fill="#D8D8D8"/>
<path d="M34.8838 156.402H108.193" stroke="#BDBDBD" stroke-width="0.87" stroke-miterlimit="10"/>
<path d="M34.8838 144.698H108.193" stroke="#BDBDBD" stroke-width="0.87" stroke-miterlimit="10"/>
<path d="M75.9642 127.301H56.1299V129.659H75.9642V127.301Z" fill="#BDBDBD"/>
<path d="M86.3776 132.162H56.1299V134.52H86.3776V132.162Z" fill="#BDBDBD"/>
<path d="M71.2542 148.655H45.3379V152.463H71.2542V148.655Z" fill="#BDBDBD"/>
<path d="M52.304 130.911C52.304 133.291 50.3774 135.22 47.9997 135.22C45.6219 135.22 43.6953 133.291 43.6953 130.911C43.6953 128.53 45.6219 126.601 47.9997 126.601C50.3774 126.601 52.304 128.53 52.304 130.911Z" fill="#878A8C"/>
<path d="M101.515 148.989H84.9385V151.871H101.515V148.989Z" fill="#FF3434"/>
<path d="M81.5092 148.33H78.3779C77.7873 148.33 77.3086 148.809 77.3086 149.4V151.718C77.3086 152.309 77.7873 152.789 78.3779 152.789H81.5092C82.0997 152.789 82.5785 152.309 82.5785 151.718V149.4C82.5785 148.809 82.0997 148.33 81.5092 148.33Z" fill="#FF3434"/>
<path d="M79.168 150.561V149.486L80.0974 150.024L81.0269 150.561L80.0974 151.099L79.168 151.637V150.561Z" fill="#FFFFFD"/>
<path d="M100.473 126.398H98.9072L99.6878 127.301L100.473 128.209L101.253 127.301L102.034 126.398H100.473Z" fill="#878A8C"/>
<path d="M96.2686 162.605H100.934C101.647 162.605 102.229 162.022 102.229 161.308C102.229 160.595 101.647 160.012 100.934 160.012H96.2686C95.5557 160.012 94.9736 160.595 94.9736 161.308C94.9736 162.022 95.5557 162.605 96.2686 162.605Z" fill="#2893FF"/>
<g style="mix-blend-mode:multiply">
<path d="M98.957 161.588C98.957 162.899 100.017 163.96 101.326 163.96C102.634 163.96 103.695 162.899 103.695 161.588C103.695 160.278 102.634 159.217 101.326 159.217C100.017 159.217 98.957 160.278 98.957 161.588Z" fill="#DBDBDB"/>
</g>
<path d="M98.957 160.992C98.957 162.302 100.017 163.364 101.326 163.364C102.634 163.364 103.695 162.302 103.695 160.992C103.695 159.682 102.634 158.621 101.326 158.621C100.017 158.621 98.957 159.682 98.957 160.992Z" fill="#0072FF"/>
<path d="M108.198 71.2219H34.8838V123.358H108.198V71.2219Z" fill="#307CFF"/>
<path d="M41.1514 76.1006L43.1276 78.1515L45.1083 76.1006" stroke="white" stroke-width="1.12" stroke-miterlimit="10"/>
<mask id="mask0_2726_4683" style="mask-type:luminance" maskUnits="userSpaceOnUse" x="20" y="31" width="87" height="93" class="userSvg">
<path d="M106.713 31.9448H20.8789V123.362H106.713V31.9448Z" fill="white"/>
</mask>
<g mask="url(#mask0_2726_4683)">
<path d="M30.6864 78.1131C31.5507 76.9626 32.3913 75.7952 33.1438 74.5632C33.5302 73.932 33.9133 73.3008 34.2997 72.6661C34.4319 72.4489 34.5674 72.2283 34.7674 72.0756C34.9674 71.9229 35.2521 71.8516 35.4759 71.9704C35.703 72.0892 35.808 72.3641 35.8013 72.6186C35.7945 72.8732 35.6928 73.1141 35.6013 73.3517C35.1132 74.6141 34.5912 76.0938 34.52 77.4479C34.4861 78.1335 34.5166 78.8258 34.6183 79.5045L44.3769 101.414L37.5028 105.46L29.2695 80.1867" fill="#FF9B73"/>
<path d="M30.6864 78.1131C31.5507 76.9626 32.3913 75.7952 33.1438 74.5632C33.5302 73.932 33.9133 73.3008 34.2997 72.6661C34.4319 72.4489 34.5674 72.2283 34.7674 72.0756C34.9674 71.9229 35.2521 71.8516 35.4759 71.9704C35.703 72.0892 35.808 72.3641 35.8013 72.6186C35.7945 72.8732 35.6928 73.1141 35.6013 73.3517C35.1132 74.6141 34.5912 76.0938 34.52 77.4479C34.4861 78.1335 34.5166 78.8258 34.6183 79.5045L44.3769 101.414L37.5028 105.46L29.2695 80.1867" stroke="#EF714B" stroke-width="1.52" stroke-linecap="round" strokeLinejoin="round"/>
<path fill-rule="evenodd" clip-rule="evenodd" d="M22.9001 63.9005C22.8459 63.4898 22.9713 63.1267 23.2323 62.9604C23.595 62.7296 23.7848 62.7126 23.7848 62.7126L31.1673 63.5441C31.7097 63.5509 32.2113 63.9989 32.2859 64.5453L34.7908 81.6192C34.8111 81.7006 34.8043 81.8262 34.7637 81.9653C34.6145 82.4846 34.1196 82.8273 33.5807 82.8171L26.6693 82.695C26.127 82.6882 25.6254 82.2402 25.5508 81.6938C25.5508 81.6938 23.1442 65.8009 22.9001 63.8971V63.9005Z" fill="#B2B7C6"/>
<path fill-rule="evenodd" clip-rule="evenodd" d="M34.8107 81.5138L32.2685 64.4332C32.2007 63.9275 31.7363 63.5101 31.2313 63.5067L24.0081 62.6854C23.503 62.6786 23.1505 63.0825 23.2183 63.5881L25.8249 81.3917C25.8927 81.8973 26.3571 82.3148 26.8621 82.3182L34.0209 82.4132C34.5259 82.42 34.8785 82.0161 34.8107 81.5104V81.5138Z" fill="#3E4A70"/>
<path fill-rule="evenodd" clip-rule="evenodd" d="M30.2989 80.9879C30.0379 81.0422 29.8718 81.3103 29.9294 81.5852C29.987 81.8601 30.248 82.0399 30.509 81.989C30.77 81.9347 30.9361 81.6666 30.8785 81.3917C30.8209 81.1168 30.5599 80.937 30.2989 80.9879Z" fill="#041446"/>
<path fill-rule="evenodd" clip-rule="evenodd" d="M24.4863 63.1095C24.3812 63.1265 24.327 63.2283 24.3643 63.3369C24.4016 63.4421 24.5168 63.5134 24.6219 63.4964C24.727 63.4794 24.7812 63.3776 24.7439 63.269C24.7066 63.1604 24.5914 63.0926 24.4863 63.1095Z" fill="#041446"/>
<path fill-rule="evenodd" clip-rule="evenodd" d="M23.2158 63.5405C23.2158 63.5405 23.2158 63.5745 23.2192 63.588L25.7072 80.516L34.6929 80.6518L32.2728 64.45L23.2158 63.5405Z" fill="#307CFF"/>
<path style="mix-blend-mode:hard-light" fill-rule="evenodd" clip-rule="evenodd" d="M28.9905 65.6684C30.448 67.9048 31.9056 70.1413 33.3665 72.3778L32.2716 64.45L27.916 64.0122C28.2753 64.5654 28.6312 65.1152 28.9905 65.6684Z" fill="url(#paint0_linear_2726_4683)"/>
<path style="mix-blend-mode:hard-light" fill-rule="evenodd" clip-rule="evenodd" d="M29.7064 70.9865C29.9674 70.8134 30.2318 70.6437 30.4928 70.4706L26.1643 63.8392L24.9678 63.7205C25.544 64.6028 26.1202 65.4852 26.6965 66.3676C27.6998 67.9083 28.7031 69.4491 29.7064 70.9898V70.9865Z" fill="url(#paint1_linear_2726_4683)"/>
<path fill-rule="evenodd" clip-rule="evenodd" d="M30.1808 82.6778H30.6011C30.6554 82.6778 30.696 82.6235 30.6723 82.5726L30.6452 82.5047C30.635 82.4776 30.6045 82.4572 30.5774 82.4572L30.2486 82.447C30.2249 82.447 30.2012 82.4572 30.1876 82.4742L30.1266 82.5488C30.0825 82.5997 30.1198 82.6778 30.1842 82.6778H30.1808Z" fill="#041446"/>
<path d="M24.6634 78.6525C25.3752 78.6288 26.0836 78.4319 26.7073 78.0824C26.9751 77.9331 27.2598 77.6955 27.2361 77.3968C27.2225 77.2204 27.0937 77.0677 26.9378 76.9828C26.7819 76.898 26.5954 76.8708 26.4158 76.8606C25.8192 76.8301 24.8803 76.976 24.3651 77.329C23.66 77.8143 23.7109 78.6831 24.6634 78.6525Z" fill="#FF9B73" stroke="#EF714B" stroke-width="1.52" stroke-miterlimit="10"/>
<path d="M23.3449 76.6943C24.2635 77.0337 25.4227 76.7452 26.3108 76.4602C26.6599 76.3482 27.0429 76.1683 27.1514 75.8086C27.2565 75.4692 27.0361 75.4352 26.7446 75.235C26.4497 75.0348 26.0871 74.9839 25.7345 74.9703C24.8838 74.933 23.6127 75.0314 22.8771 75.5065C22.7246 75.6049 22.606 75.7814 22.6263 75.9715C22.6365 76.0767 22.6907 76.1751 22.7517 76.2599C22.9076 76.4737 23.1144 76.6095 23.3449 76.6943Z" fill="#FF9B73" stroke="#EF714B" stroke-width="1.52" stroke-miterlimit="10"/>
<path d="M24.0808 72.4794C24.6943 72.2927 25.3045 72.1027 25.918 71.916C26.2942 71.8007 26.7383 71.6072 26.7823 71.2203C26.806 70.9997 26.6739 70.7859 26.4942 70.657C25.6468 70.0461 23.9622 70.6162 22.5521 71.2543C22.1691 71.4273 21.9759 71.8142 22.0979 72.2079C22.1962 72.5167 22.525 72.7 22.8504 72.7271C23.1758 72.7543 23.5012 72.6559 23.8164 72.5609C23.9046 72.5337 23.9961 72.5066 24.0842 72.4794H24.0808Z" fill="#FF9B73" stroke="#EF714B" stroke-width="1.52" stroke-miterlimit="10"/>
<path d="M21.9688 74.1288C22.0738 74.4376 22.3755 74.648 22.6941 74.7328C23.0127 74.8177 23.3551 74.7905 23.6839 74.7498C24.7482 74.6208 25.799 74.3493 26.7955 73.9455C27.0497 73.8437 27.3277 73.7011 27.4056 73.4432C27.7073 72.4387 25.4804 72.6864 25.0228 72.7305C24.3754 72.7916 21.5722 72.9851 21.9654 74.1288H21.9688Z" fill="#FF9B73" stroke="#EF714B" stroke-width="1.52" stroke-miterlimit="10"/>
<path d="M63.8168 81.4254C61.0611 79.6946 58.1393 79.8134 55.3734 81.1505C52.1906 86.2716 45.9233 96.3646 43.8319 99.3375C44.1234 98.9235 40.5169 91.2469 40.1711 90.4222C39.1644 88.0194 38.0696 85.654 36.8934 83.3293C35.785 85.5013 32.3954 87.6359 29.9956 88.0703C29.7143 87.9617 36.6629 107.248 37.5612 109.705C38.2425 111.569 39.2865 114.799 41.1067 115.936C44.4318 118.013 50.4416 108.131 52.0584 106.132C54.4243 103.203 59.9256 97.919 62.139 94.8714C63.8948 92.455 65.7015 89.9165 66.1624 86.964C66.315 85.99 66.3048 85.0092 66.1862 84.0352C65.6676 83.0374 64.9659 82.1415 63.8202 81.422L63.8168 81.4254Z" fill="#2E3B6B"/>
<g style="mix-blend-mode:multiply" opacity="0.5">
<path d="M66.1815 84.0386C65.6629 83.0408 64.9613 82.1449 63.8156 81.4254C61.0599 79.6946 58.138 79.8134 55.3721 81.1505C54.579 82.4265 53.596 84.008 52.5317 85.7151C52.4774 86.421 52.4741 87.1337 52.5147 87.8396C52.5486 88.464 52.8639 89.3498 52.7351 89.9233C52.6503 90.3102 52.0639 90.8091 51.8504 91.179C51.5656 91.6677 51.3352 92.1903 51.1487 92.7231C50.7623 93.8397 50.5623 95.0173 50.4573 96.1915C50.2471 98.5536 50.4132 100.922 50.4471 103.284C50.4911 106.505 48.8777 109.237 47.627 112.078C49.5794 109.726 51.2979 107.065 52.0504 106.132C54.4163 103.203 59.9176 97.919 62.131 94.8714C63.8868 92.455 65.6934 89.9165 66.1544 86.964C66.3069 85.99 66.2968 85.0092 66.1781 84.0352L66.1815 84.0386Z" fill="#2E3B6B"/>
</g>
<path d="M41.5768 107.717C41.6005 107.337 41.6514 106.96 41.709 106.583C41.7632 106.237 41.7768 105.887 41.8243 105.545C41.9158 104.859 42.0615 104.177 42.2547 103.515C42.6547 102.134 43.2275 100.889 44.0004 99.6701C44.1698 99.402 44.0546 99.0253 43.7902 98.8692C43.5123 98.7063 43.1564 98.8081 42.9903 99.0796C42.1971 100.369 41.5328 101.778 41.1938 103.257C41.0277 103.99 40.9294 104.737 40.8989 105.49C40.882 105.867 40.8718 106.247 40.9192 106.621C40.9667 106.994 41.0379 107.398 41.1057 107.785C41.1565 108.066 41.5599 107.978 41.5768 107.72V107.717Z" fill="#182349"/>
<path d="M39.0829 105.178C39.7031 104.041 40.3133 102.901 41.0692 101.849C41.825 100.797 42.7097 99.8874 43.6995 99.0899C43.9401 98.8964 43.8995 98.4824 43.6995 98.2822C43.4622 98.0446 43.13 98.0853 42.8927 98.2822C41.8386 99.1442 40.9234 100.152 40.154 101.275C39.3845 102.399 38.7846 103.634 38.5507 104.958C38.4965 105.266 38.9168 105.494 39.0862 105.185L39.0829 105.178Z" fill="#182349"/>
<path d="M32.4386 61.192C32.5098 60.8934 32.5844 60.6015 32.6759 60.3096C32.7674 60.0178 32.8386 59.7191 32.8928 59.4205C32.9538 59.0709 32.9572 58.7078 32.9742 58.3514C32.9911 57.9951 33.0114 57.6048 32.8894 57.2824C32.781 56.9939 32.5301 56.736 32.1946 56.753C31.859 56.77 31.6149 56.9736 31.4997 57.2824C31.3844 57.5912 31.4014 58.0087 31.415 58.3514C31.4285 58.6942 31.4319 59.0709 31.4963 59.4205C31.5505 59.7191 31.6217 60.0212 31.7132 60.3096C31.8048 60.5981 31.8827 60.8934 31.9505 61.192C32.0081 61.433 32.3844 61.4364 32.442 61.192H32.4386Z" fill="#93C5FD"/>
<path d="M34.1639 61.8504C34.2927 61.769 34.4215 61.6909 34.5503 61.6095C34.6791 61.528 34.8147 61.4669 34.9537 61.3956C35.2282 61.2531 35.4994 61.0868 35.7536 60.907C36.0451 60.6999 36.3027 60.4386 36.5671 60.2011C36.6823 60.0958 36.7908 59.9805 36.8993 59.8651C36.9535 59.8074 37.0111 59.7531 37.0586 59.692C37.1738 59.5461 37.2518 59.4035 37.3094 59.2237C37.4687 58.7146 36.9467 58.192 36.4383 58.3515C36.1875 58.4295 36.0044 58.5653 35.818 58.7451C35.7061 58.8537 35.5875 58.9589 35.4824 59.0743C35.235 59.3424 34.9706 59.6105 34.7571 59.9092C34.5808 60.1569 34.4249 60.4216 34.2825 60.6898C34.208 60.8255 34.1503 60.9612 34.069 61.0936C33.9876 61.226 33.8995 61.3651 33.8148 61.5042C33.6826 61.7214 33.947 61.9862 34.1639 61.8538V61.8504Z" fill="#93C5FD"/>
<path d="M34.9132 63.5405C35.2115 63.6117 35.503 63.6864 35.7945 63.778C36.086 63.8697 36.3843 63.9409 36.6826 63.9952C37.0317 64.0563 37.3944 64.0597 37.7503 64.0767C38.1062 64.0936 38.496 64.114 38.818 63.9918C39.1061 63.8832 39.3637 63.6321 39.3468 63.2961C39.3298 62.9601 39.1265 62.7158 38.818 62.6004C38.5096 62.485 38.0926 62.502 37.7503 62.5155C37.4079 62.5291 37.0317 62.5325 36.6826 62.597C36.3843 62.6513 36.0826 62.7226 35.7945 62.8142C35.5064 62.9058 35.2115 62.9839 34.9132 63.0518C34.6726 63.1095 34.6692 63.4862 34.9132 63.5439V63.5405Z" fill="#93C5FD"/>
<path d="M89.4131 131.544C89.4131 131.544 86.3218 134.191 71.2856 133.815C59.6763 133.526 56.6155 130.689 56.6155 130.689C56.6155 130.689 54.1818 82.7829 57.1884 78.9174C59.3747 76.1074 63.6455 74.923 69.2112 74.6617C71.3094 74.5667 73.5906 74.5972 76.0141 74.7262C77.8106 74.8212 79.5122 75.1199 81.0951 75.5712C87.3082 77.3461 91.6469 81.4594 92.2909 84.6698C93.0976 88.6982 89.4165 131.544 89.4165 131.544H89.4131Z" fill="#2E3B6B"/>
<path d="M79.9192 81.9819C81.6038 79.6979 80.8615 76.8098 78.2549 75.6152C75.9398 74.553 73.0146 74.4919 70.6283 75.3471C68.6827 76.0429 66.6998 77.8347 66.7439 80.0543C66.771 81.3812 67.5574 82.6165 68.6319 83.3903C71.1334 85.189 75.0721 85.0464 77.7532 83.7568C78.6481 83.3258 79.387 82.7014 79.9192 81.9819Z" fill="white"/>
<g style="mix-blend-mode:multiply" opacity="0.5">
<path d="M92.1756 84.5647C91.5349 81.456 87.4064 77.5261 81.4848 75.7036C79.2104 77.1018 75.9971 82.9391 74.3226 93.3171V93.3239C73.7972 96.514 73.4312 100.125 73.2719 104.174C72.5634 122.629 74.4582 127.913 74.4582 127.913C74.4582 127.913 86.3489 129.471 89.8944 127.387C90.7248 116.595 92.8535 87.826 92.1789 84.5647H92.1756Z" fill="#2E3B6B"/>
</g>
<g style="mix-blend-mode:multiply" opacity="0.5">
<path d="M70.5776 75.4763C70.5776 75.4763 59.6156 76.2908 56.3108 81.4221C55.8837 84.0218 55.6973 88.3182 55.6532 93.324C55.8498 93.9416 56.0091 94.2776 56.0091 94.2776C55.9719 94.2776 55.9278 94.2776 55.8939 94.2878C55.8329 94.3014 55.7448 94.3285 55.6465 94.376C55.5956 105.643 56.2261 120.026 56.565 126.854C59.0564 128.429 64.9644 127.261 64.9644 127.261C64.9644 127.261 63.9001 105.199 64.6288 93.9315C65.3576 82.6643 70.5809 75.4797 70.5809 75.4797L70.5776 75.4763Z" fill="#2E3B6B"/>
</g>
<path d="M53.0238 108.117C51.7493 111.446 52.4611 119.68 53.6576 121.848C55.0168 124.305 61.213 123.202 61.213 123.202C61.213 123.202 61.0605 102.446 62.0401 91.895C63.0196 81.3405 67.599 74.7939 67.599 74.7939C67.599 74.7939 56.5286 75.2182 54.8643 81.3914C53.783 85.4096 54.1084 88.654 54.4711 90.4187C54.6643 91.369 54.8643 91.895 54.8643 91.895C54.8338 91.895 54.7965 91.895 54.766 91.9018C54.4101 91.9697 53.1932 92.5126 52.3425 96.9313C51.3324 102.147 53.6542 107.062 53.6542 107.062C53.4 107.303 53.1932 107.666 53.0204 108.12L53.0238 108.117Z" fill="#FF3434"/>
<path d="M63.3487 84.6734C63.3487 84.6734 61.4437 78.3305 63.7215 75.3101C65.9993 72.2896 68.4669 71.7874 68.4669 71.7874C68.4669 71.7874 65.4027 74.7128 64.996 76.6268C64.5892 78.5443 63.3487 84.6734 63.3487 84.6734Z" fill="#E82828"/>
<path d="M68.4702 71.7872C71.7141 70.8098 79.5982 69.3166 83.5776 70.9558C83.5776 70.9558 83.903 74.3597 82.5065 75.5441C81.11 76.7285 67.5618 69.8189 63.6096 83.4108C63.6096 83.4108 62.43 73.6097 68.4736 71.7906L68.4702 71.7872Z" fill="#A30413"/>
<path d="M61.3656 91.8952C61.3656 91.8952 57.4981 91.7866 54.4746 90.4189C54.6678 91.3692 54.8678 91.8952 54.8678 91.8952C54.8678 91.8952 59.0505 92.4348 61.3656 91.8952Z" fill="#E82828"/>
<path d="M53.0244 108.117C55.8344 108.426 59.8476 107.785 59.8476 107.785C59.8476 107.785 55.4242 107.832 53.6583 107.058C53.404 107.299 53.1973 107.662 53.0244 108.117Z" fill="#E82828"/>
<path d="M63.2939 66.7849C65.1977 66.7849 66.7411 64.5027 66.7411 61.6875C66.7411 58.8723 65.1977 56.5901 63.2939 56.5901C61.39 56.5901 59.8467 58.8723 59.8467 61.6875C59.8467 64.5027 61.39 66.7849 63.2939 66.7849Z" fill="#E6E6E6"/>
<path d="M63.7548 66.7849C65.6587 66.7849 67.202 64.5027 67.202 61.6875C67.202 58.8723 65.6587 56.5901 63.7548 56.5901C61.851 56.5901 60.3076 58.8723 60.3076 61.6875C60.3076 64.5027 61.851 66.7849 63.7548 66.7849Z" fill="#182349"/>
<path d="M64.1542 66.9275C66.0581 66.9275 67.6014 64.6453 67.6014 61.8301C67.6014 59.0148 66.0581 56.7327 64.1542 56.7327C62.2504 56.7327 60.707 59.0148 60.707 61.8301C60.707 64.6453 62.2504 66.9275 64.1542 66.9275Z" fill="white"/>
<path d="M69.1309 73.3177C69.4664 74.5836 69.2732 75.9343 69.08 77.207C68.8665 78.6086 68.8563 78.7308 68.5512 80.112C68.5309 80.2104 68.5106 80.3088 68.4902 80.4073C69.3546 81.4424 70.2664 82.0668 71.7036 82.2569C73.0289 82.4333 74.3542 82.2195 75.5745 81.6222C76.6795 81.0826 78.9437 79.5045 79.7674 77.7669C79.7233 77.5701 79.6792 77.3767 79.6386 77.1764C78.8047 72.9173 78.5132 69.3505 78.7302 65.183C78.7539 64.7486 75.9982 64.6637 75.7067 64.6875C74.605 64.7757 73.3645 65.1287 72.4493 65.8481C71.751 66.3979 71.3883 67.2396 70.8053 67.9251C69.9105 68.9839 69.019 69.9681 68.2903 71.1899C68.2631 71.234 68.7072 72.0621 68.7377 72.1401C68.8902 72.5202 69.019 72.9139 69.1275 73.3144L69.1309 73.3177Z" fill="#FF9B73" stroke="#EF714B" stroke-width="1.31" stroke-miterlimit="10"/>
<g style="mix-blend-mode:multiply" opacity="0.3">
<path d="M68.538 72.225C68.6871 72.5949 68.8125 72.9818 68.9176 73.3755C69.2498 74.621 69.043 75.9785 68.8634 77.1731L68.8159 77.4921C68.7922 77.6584 68.7685 77.8009 68.7481 77.9333C71.1141 77.3326 73.1004 75.7884 74.6121 73.7725C75.3544 72.7816 75.9781 71.699 76.4865 70.5722C77.3983 68.5631 77.378 66.6593 77.0899 64.5144C76.3679 64.4567 75.7069 64.4601 75.6934 64.4635C74.3918 64.5687 73.1614 65.0099 72.3174 65.6717C71.853 66.0348 71.531 66.5167 71.2191 66.9817C71.0395 67.2498 70.8531 67.5315 70.6429 67.7792L70.2734 68.2136C69.4871 69.1333 68.7447 70.0021 68.1075 71.0745C68.0295 71.2035 68.0465 71.2476 68.4329 72.0078C68.4871 72.113 68.5278 72.1978 68.5414 72.2216L68.538 72.225Z" fill="#EF8B67"/>
</g>
<path d="M62.6028 50.875C61.8571 52.8264 61.6232 54.9407 61.63 57.0278C62.8571 55.3038 64.0841 53.5798 65.3111 51.8558C66.1246 50.7121 67.5584 48.8116 66.894 47.3048C66.1348 45.5807 64.4908 47.6204 63.9316 48.3941C63.3791 49.1543 62.935 49.996 62.5994 50.875H62.6028Z" fill="#39222F"/>
<path d="M77.1782 67.4025C75.8901 68.9059 74.3513 70.2023 72.6328 71.2103C71.0363 72.147 68.7822 73.3246 66.9179 72.3472C65.7621 71.7431 65.1011 70.5791 64.4673 69.51C63.1657 67.3075 61.6709 64.3651 62.2606 61.7587C62.4877 60.761 62.4945 59.7157 62.2979 58.7111C62.1352 57.8899 61.9352 57.3774 62.1251 56.5595C62.5691 54.6828 63.0097 52.8875 63.9249 51.1601C65.2028 48.7505 68.4026 47.4473 71.0736 47.2709C72.7514 47.1589 74.4733 47.4745 75.9545 48.2924C81.7609 51.4961 83.1574 57.1466 81.2897 61.6264" fill="#FF9B73"/>
<path d="M77.1782 67.4025C75.8901 68.9059 74.3513 70.2023 72.6328 71.2103C71.0363 72.147 68.7822 73.3246 66.9179 72.3472C65.7621 71.7431 65.1011 70.5791 64.4673 69.51C63.1657 67.3075 61.6709 64.3651 62.2606 61.7587C62.4877 60.761 62.4945 59.7157 62.2979 58.7111C62.1352 57.8899 61.9352 57.3774 62.1251 56.5595C62.5691 54.6828 63.0097 52.8875 63.9249 51.1601C65.2028 48.7505 68.4026 47.4473 71.0736 47.2709C72.7514 47.1589 74.4733 47.4745 75.9545 48.2924C81.7609 51.4961 83.1574 57.1466 81.2897 61.6264" stroke="#EF714B" stroke-width="1.43" stroke-miterlimit="10" stroke-linecap="round"/>
<g style="mix-blend-mode:multiply" opacity="0.3">
<path d="M77.4867 58.1208C74.2768 60.3301 75.053 64.6877 77.2155 67.3551L81.2932 61.6265C81.7644 60.4964 82.0254 59.295 82.066 58.0733C80.6831 57.2486 78.9036 57.1468 77.4901 58.1208H77.4867Z" fill="#EF8B67"/>
</g>
<path d="M85.1608 50.9361C85.1032 50.875 85.0388 50.8241 84.9642 50.78C84.5541 50.5322 84.0355 50.6103 83.5643 50.6985C84.2998 50.5594 84.8015 48.7539 84.8252 48.16C84.8523 47.522 84.5981 46.8466 84.0626 46.5005C83.4762 46.1204 82.7101 46.1204 82.039 46.1781C81.3102 46.2392 80.7781 46.3647 80.09 46.6294C80.2662 45.5163 80.4256 44.2946 79.8561 43.324C78.9714 41.8205 76.7445 41.9529 75.3649 42.6384C75.6361 41.5083 75.4632 40.2696 74.8599 39.2786C74.2565 38.2876 73.2159 37.5614 72.0702 37.3781C71.1923 37.239 70.2941 37.4087 69.4467 37.6768C65.6029 38.8985 62.5387 42.316 61.7388 46.2731C61.3287 45.8217 61.1524 45.0548 60.4677 44.9937C59.9491 44.9462 59.522 45.3195 59.2576 45.815C59.0509 46.0729 58.8949 46.3851 58.817 46.7143C58.5763 47.7256 58.817 48.8863 59.4678 49.6702C59.8813 50.1691 60.3186 50.685 60.9084 50.9123C60.4847 50.6205 59.8508 50.8411 59.6135 51.3128C59.3763 51.7845 59.5085 52.409 59.8644 52.7891C60.2203 53.1692 60.7592 53.3185 61.2609 53.2676C61.4609 53.2472 61.6337 53.1963 61.7964 53.1251C62.7591 52.7076 64.3352 52.09 65.3589 51.8694C68.2739 51.2449 71.1991 50.6035 74.1616 50.332C74.7683 50.2777 75.287 50.7698 75.287 51.3807C75.287 52.0085 75.3039 52.6771 75.3039 52.7653C75.3039 53.6036 74.8938 56.0471 75.8191 56.4238C76.1174 56.5459 76.4564 56.5799 76.7174 56.7699C77.1207 57.0686 77.1919 57.6387 77.1919 58.1444C77.1919 58.6467 77.1682 59.1965 77.4732 59.5969C78.2427 60.615 79.0324 58.2225 79.4832 59.9668C79.7239 60.9035 80.1578 61.7893 80.5306 62.6852C80.8154 62.1185 81.0797 61.5449 81.3407 60.968C81.8187 60.5506 82.1915 59.3085 82.4322 58.3378C82.8017 57.3604 83.1948 56.3864 83.4694 55.3751C83.7609 54.2959 83.6321 53.8072 84.6083 53.1726C85.0117 52.9113 85.3506 52.5176 85.4523 52.0459C85.537 51.659 85.432 51.2212 85.1642 50.9395L85.1608 50.9361Z" fill="#182349"/>
<path d="M70.8761 61.4365C69.8999 61.3109 70.0931 59.7939 71.0693 59.9195C72.0455 60.0451 71.8523 61.5621 70.8761 61.4365Z" fill="#242C54"/>
<path d="M63.2633 60.6252C63.2633 60.6082 63.2666 60.5878 63.27 60.5709C63.3717 59.6444 64.8699 59.8446 64.697 60.7541C64.6937 60.7711 64.6903 60.7915 64.6869 60.8084C64.5174 61.7112 63.1616 61.5551 63.2633 60.6286V60.6252Z" fill="#242C54"/>
<path d="M73.9605 57.0958C73.8113 56.9397 73.5503 56.8786 73.3504 56.8039C73.1199 56.7157 72.8623 56.6614 72.6216 56.6139C72.1267 56.5189 71.6251 56.4544 71.12 56.4136C70.6455 56.3763 70.1675 56.356 69.693 56.3661C69.4456 56.3695 69.1981 56.3831 68.9507 56.4001C68.6626 56.4204 68.3745 56.4204 68.1575 56.641C67.9643 56.8413 68.0219 57.1365 68.2389 57.2858C68.4728 57.442 68.727 57.391 68.988 57.3707C69.2083 57.3537 69.432 57.3401 69.6523 57.3334C70.1269 57.3164 70.6048 57.313 71.0793 57.3334C71.5539 57.3537 72.0081 57.3843 72.4691 57.4284C72.6928 57.4487 72.9165 57.4691 73.1402 57.4827C73.2588 57.4895 73.3741 57.4827 73.4927 57.4827C73.6249 57.4895 73.7368 57.5098 73.8622 57.4623C74.0147 57.4046 74.0825 57.2214 73.9605 57.0958Z" fill="#242C54"/>
<path d="M65.7575 56.8175C65.6693 56.7292 65.571 56.6851 65.4524 56.658L65.6524 56.8141C65.4524 56.5324 65.0321 56.4374 64.7135 56.3491C64.3948 56.2609 64.0254 56.227 63.683 56.2032C63.0051 56.1625 62.3035 56.2405 61.6357 56.3729C61.3171 56.4374 61.1036 56.8344 61.2019 57.1365C61.3103 57.4759 61.6222 57.6388 61.9645 57.5709C62.5238 57.4589 63.0492 57.4283 63.6796 57.408C63.9745 57.3978 64.2728 57.408 64.5677 57.391C64.8626 57.374 65.2727 57.4317 65.527 57.2756L65.2694 57.3096C65.3948 57.3333 65.5032 57.3503 65.6253 57.3096C65.8286 57.2383 65.9168 56.9838 65.7541 56.8209L65.7575 56.8175Z" fill="#242C54"/>
<path d="M67.3507 68.8957C68.876 69.364 70.9673 68.2543 70.825 66.3199C70.8182 66.218 70.8046 66.1162 70.7843 66.0178C70.7707 65.9465 70.7436 65.899 70.7233 65.8447C70.0928 65.9974 69.4488 66.1128 68.8285 66.2452C67.6659 66.4963 66.5677 66.6287 65.4932 66.4488C65.6931 67.4126 66.3236 68.5088 67.2151 68.8482C67.2591 68.8652 67.3066 68.8821 67.354 68.8957H67.3507Z" fill="#242C54"/>
<path d="M70.8047 66.167C70.0793 66.296 69.3743 66.5471 68.7472 66.9442C68.1777 67.3039 67.3168 67.9996 67.0117 68.7462C67.0795 68.7802 67.1439 68.8209 67.2151 68.848C67.2592 68.865 67.3066 68.882 67.3541 68.8956C68.8794 69.3605 70.9707 68.2507 70.8284 66.3197C70.825 66.2688 70.8148 66.2179 70.808 66.167H70.8047Z" fill="#FF3434"/>
<path d="M70.7233 65.8481C70.7233 65.8481 70.7233 65.8481 70.7233 65.8447C70.0928 65.9974 69.4488 66.1128 68.8285 66.2452C67.6659 66.4963 66.5677 66.6287 65.4932 66.4488C65.5203 66.5846 65.561 66.7237 65.605 66.8628C67.4049 67.3278 69.2014 66.8628 70.7267 65.8515L70.7233 65.8481Z" fill="white"/>
<path d="M72.0937 63.3911H69.8261C68.694 63.3911 67.7754 62.4714 67.7754 61.3379V59.5765C67.7754 58.9623 68.2737 58.4634 68.8872 58.4634H73.0326C73.6461 58.4634 74.1444 58.9623 74.1444 59.5765V61.3379C74.1444 62.4714 73.2258 63.3911 72.0937 63.3911ZM68.8872 59.1998C68.6804 59.1998 68.5143 59.3661 68.5143 59.5731V61.3345C68.5143 62.0573 69.1041 62.6479 69.8261 62.6479H72.0937C72.8157 62.6479 73.4055 62.0573 73.4055 61.3345V59.5731C73.4055 59.3661 73.2394 59.1998 73.0326 59.1998H68.8872Z" fill="#FF3434"/>
<path d="M64.0778 63.3911H63.3456C62.2135 63.3911 61.2949 62.4714 61.2949 61.3379V59.5765C61.2949 58.9623 61.7932 58.4634 62.4067 58.4634H65.0167C65.6302 58.4634 66.1285 58.9623 66.1285 59.5765V61.3379C66.1285 62.4714 65.2099 63.3911 64.0778 63.3911ZM62.4067 59.1998C62.1999 59.1998 62.0338 59.3661 62.0338 59.5731V61.3345C62.0338 62.0573 62.6236 62.6479 63.3456 62.6479H64.0778C64.7997 62.6479 65.3895 62.0573 65.3895 61.3345V59.5731C65.3895 59.3661 65.2234 59.1998 65.0167 59.1998H62.4067Z" fill="#FF3434"/>
<path d="M66.6065 59.2268C66.42 60.9169 66.1658 61.4904 65.2066 62.9565C65.0778 63.1534 64.932 63.3638 64.9659 63.5945C65.0032 63.8559 65.254 64.0561 65.4845 64.2258C65.8133 64.4701 66.1421 64.7111 66.4709 64.9554" stroke="#EF714B" stroke-width="1.56" stroke-linecap="round" strokeLinejoin="round"/>
<path d="M67.8092 60.5776C67.6363 60.2892 67.2804 60.0923 66.9211 60.0855C66.5754 60.0754 66.1957 60.262 66.0093 60.5437L65.3721 60.1195C65.7042 59.6206 66.3042 59.288 66.9347 59.322C67.555 59.3355 68.1549 59.6749 68.46 60.1874L67.8058 60.581L67.8092 60.5776Z" fill="#FF3434"/>
<path d="M80.8329 58.256L73.7852 59.4939L73.9169 60.246L80.9647 59.0081L80.8329 58.256Z" fill="#FF3434"/>
<path d="M78.1982 60.5777C78.2152 60.3537 78.2423 60.1297 78.2898 59.9091C78.4355 59.2372 78.7745 58.5822 79.3439 58.2021C79.9134 57.822 80.737 57.7813 81.2624 58.2191C81.7539 58.6297 81.8861 59.3254 81.8997 59.9668C81.9369 61.6366 81.3607 63.3165 80.3066 64.6095C80.0456 64.9319 79.7202 65.2509 79.3066 65.3052C78.8965 65.3595 78.422 65.0133 78.5033 64.6027" fill="#FF9B73"/>
<path d="M78.1982 60.5777C78.2152 60.3537 78.2423 60.1297 78.2898 59.9091C78.4355 59.2372 78.7745 58.5822 79.3439 58.2021C79.9134 57.822 80.737 57.7813 81.2624 58.2191C81.7539 58.6297 81.8861 59.3254 81.8997 59.9668C81.9369 61.6366 81.3607 63.3165 80.3066 64.6095C80.0456 64.9319 79.7202 65.2509 79.3066 65.3052C78.8965 65.3595 78.422 65.0133 78.5033 64.6027" stroke="#EF714B" stroke-width="1.37" stroke-linecap="round" strokeLinejoin="round"/>
<path d="M80.8351 60.5812C80.8249 60.3911 80.8114 60.1977 80.7334 60.0246C80.6555 59.8515 80.4928 59.7056 80.3029 59.7022C80.1233 59.6988 79.964 59.8244 79.8725 59.9771C79.7809 60.1298 79.7471 60.3097 79.7165 60.4862C79.5911 61.1717 79.4623 61.8572 79.3369 62.5462" stroke="#EF714B" stroke-width="1.45" stroke-linecap="round" strokeLinejoin="round"/>
<path d="M79.3466 66.9275C81.2505 66.9275 82.7938 64.6453 82.7938 61.8301C82.7938 59.0148 81.2505 56.7327 79.3466 56.7327C77.4428 56.7327 75.8994 59.0148 75.8994 61.8301C75.8994 64.6453 77.4428 66.9275 79.3466 66.9275Z" fill="white"/>
<path d="M80.1191 66.9275C82.0229 66.9275 83.5663 64.6453 83.5663 61.8301C83.5663 59.0148 82.0229 56.7327 80.1191 56.7327C78.2152 56.7327 76.6719 59.0148 76.6719 61.8301C76.6719 64.6453 78.2152 66.9275 80.1191 66.9275Z" fill="#182349"/>
<path d="M80.6894 66.9275C82.5932 66.9275 84.1366 64.6453 84.1366 61.8301C84.1366 59.0148 82.5932 56.7327 80.6894 56.7327C78.7856 56.7327 77.2422 59.0148 77.2422 61.8301C77.2422 64.6453 78.7856 66.9275 80.6894 66.9275Z" fill="#E6E6E6"/>
<path d="M81.133 65.7701C82.6044 65.7701 83.7972 64.0061 83.7972 61.83C83.7972 59.6539 82.6044 57.8899 81.133 57.8899C79.6616 57.8899 78.4688 59.6539 78.4688 61.83C78.4688 64.0061 79.6616 65.7701 81.133 65.7701Z" fill="#307CFF"/>
<path d="M81.1326 65.2305C82.4037 65.2305 83.4341 63.708 83.4341 61.83C83.4341 59.9519 82.4037 58.4294 81.1326 58.4294C79.8615 58.4294 78.8311 59.9519 78.8311 61.83C78.8311 63.708 79.8615 65.2305 81.1326 65.2305Z" fill="white"/>
<path d="M80.5264 62.6854L81.1975 60.3674L82.1873 62.2238L80.5264 62.6854Z" fill="#307CFF"/>
<path d="M75.4481 41.9631C75.4617 42.5027 75.3566 43.0491 75.1396 43.5276C79.9766 45.8015 80.3833 52.1851 79.2749 57.0076C79.0546 57.9714 80.5359 58.382 80.7562 57.4182C82.0713 51.693 81.2985 44.3931 75.4481 41.9665V41.9631Z" fill="white"/>
<path d="M74.9639 102.708C75.1164 120.148 77.1468 125.14 77.1468 125.14C77.1468 125.14 89.9763 126.803 92.2914 124.234C94.6065 121.662 92.2914 113.54 92.2914 113.54C92.2914 113.54 92.8066 112.281 93.3489 110.364L93.3557 110.357C93.5862 109.553 93.8269 108.626 94.0336 107.629C94.2438 106.641 94.4201 105.579 94.5421 104.493C94.8505 101.686 94.1794 99.5548 93.5828 98.2856C93.1659 97.4032 92.7795 96.9315 92.7795 96.9315C92.7795 96.9315 95.2336 86.808 94.1455 82.3248C93.9048 81.3203 93.4676 80.4685 92.9015 79.7422C89.6441 75.5374 82.0718 75.5374 82.0718 75.5374C79.9432 76.1177 76.7163 81.7275 75.4859 92.4551V92.4619C75.13 95.4756 74.9435 98.8897 74.9706 102.711L74.9639 102.708Z" fill="#FF3434"/>
<path d="M93.3151 120.562C93.3558 118.271 92.8237 115.696 92.5084 114.392C91.0712 113.985 89.3832 114.131 87.8308 113.978C85.3225 113.731 82.8041 113.3 80.3669 112.662C79.1874 112.353 78.0281 111.969 76.8621 111.613C76.4588 111.491 75.852 111.236 75.208 111.039C75.2894 112.543 75.3843 113.897 75.4893 115.119C78.3061 116.836 81.4957 117.84 84.6954 118.648C87.5122 119.357 90.4069 120.107 93.3151 120.562Z" fill="#A30413"/>
<path d="M75.4692 92.4517L75.476 92.4585C77.4047 94.9631 88.8614 95.0853 88.8614 95.0853C88.8614 95.0853 96.4168 106.183 90.9765 109.607C85.6413 112.97 76.0861 110.605 75.7336 110.52C77.8419 112.251 91.0409 113.425 93.3459 110.364L93.3526 110.357C93.4543 110.218 93.5391 110.065 93.5933 109.909C93.817 109.305 93.9492 108.518 94.0272 107.629C94.2814 104.7 93.8712 100.671 93.573 98.2856C93.156 97.4032 92.7696 96.9315 92.7696 96.9315C92.7696 96.9315 95.2237 86.8079 94.1356 82.3248C93.895 81.3203 93.4577 80.4684 92.8917 79.7422C86.1057 79.9051 85.5363 92.4551 85.5363 92.4551C83.6517 93.1373 75.7472 92.4789 75.4726 92.4551H75.4658L75.4692 92.4517Z" fill="#E82828"/>
<path d="M77.2694 83.4109C77.2694 83.4109 75.2154 76.7897 75.8458 74.7161C76.4763 72.6459 82.9741 70.3246 83.5775 70.9559C84.1808 71.5871 84.8587 73.4536 84.2181 75.6969C84.2181 75.6969 80.1777 76.3247 77.2694 83.4109Z" fill="#E82828"/>
<path d="M72.1811 102.955C70.6321 102.616 66.3544 109.515 68.561 110.184C70.7676 110.852 76.0995 103.817 72.1811 102.955Z" fill="#0E1F51"/>
<path d="M69.7987 109.04C69.0598 109.051 63.9619 108.918 63.1246 108.457C63.0941 108.44 63.0602 108.423 63.0297 108.402C62.2298 107.9 61.5858 106.678 61.0672 106.23C60.5248 105.759 60.5384 105.073 60.1486 104.455C59.752 103.834 59.8876 102.46 59.8876 102.46C59.8876 102.46 58.6639 100.064 59.5317 100.142C60.613 100.244 61.3417 101.649 61.3417 101.649L63.5992 102.993C63.5992 102.993 66.9447 102.962 67.0464 102.331C67.1413 101.7 65.7617 101.717 64.7449 101.225C64.0703 100.902 64.311 100.125 64.311 100.125L66.2736 100.363C66.2736 100.363 69.0496 100.943 69.5208 101.394C69.9919 101.839 71.5579 103.94 71.5579 103.94L75.4593 105.345L74.2628 110.693C74.2628 110.693 70.5478 109.027 69.8055 109.044L69.7987 109.04Z" fill="#FF8B66"/>
<path d="M63.0297 108.399C62.2298 107.897 61.5858 106.675 61.0672 106.227C60.5248 105.755 60.5384 105.07 60.1486 104.452C59.752 103.831 59.8876 102.457 59.8876 102.457C60.213 103.037 62.3349 104.33 62.4366 104.588C62.5382 104.846 62.1925 104.931 62.1247 105.351C62.0569 105.769 62.8636 106.088 62.6569 106.485C62.4501 106.882 62.3315 107.293 62.8365 107.703C63.0535 107.883 63.0636 108.141 63.0331 108.399H63.0297Z" fill="#EF6E4B"/>
<path d="M103.927 115.01C103.809 113.34 91.7927 80.3801 91.7927 80.3801C87.5253 82.6268 86.0135 91.9799 86.4677 95.7741L90.2911 105.881L72.1806 102.952C73.2721 103.746 71.3095 109.736 68.5605 110.181C68.5605 110.181 104.534 123.423 103.931 115.006L103.927 115.01ZM101.748 110.54C101.88 110.466 101.948 110.455 101.924 110.533L101.748 110.54Z" fill="#2E3B6B"/>
<g style="mix-blend-mode:multiply" opacity="0.5">
<path d="M89.041 89.0376C89.8105 87.5104 90.5799 85.2841 92.5527 85.0669C92.8814 85.0296 93.1967 85.0669 93.4983 85.128C92.4781 82.2738 91.7934 80.3801 91.7934 80.3801C87.631 82.5691 86.0989 91.5048 86.4446 95.4653C87.0751 93.1881 88.0615 90.9822 89.041 89.0342V89.0376Z" fill="#2E3B6B"/>
</g>
<path d="M98.7755 109.845C98.5349 109.576 98.2806 109.319 98.0332 109.054C97.7858 108.789 97.5485 108.524 97.2773 108.283C96.735 107.802 96.1147 107.391 95.4944 107.014C94.2742 106.271 92.9183 105.63 91.5252 105.29C91.1591 105.202 90.7761 105.165 90.4066 105.246C89.9355 105.351 89.4711 105.738 89.5999 106.264C89.6643 106.529 89.9592 106.685 90.2168 106.614C90.3151 106.587 90.4033 106.553 90.4846 106.492C90.4982 106.481 90.6744 106.329 90.5693 106.403C90.6032 106.38 90.6981 106.346 90.61 106.373C90.6507 106.359 90.8168 106.332 90.7117 106.342C91.0066 106.315 91.0913 106.342 91.393 106.427C92.0201 106.6 92.637 106.821 93.2403 107.065C94.4301 107.55 95.5147 108.229 96.5757 108.962C96.8774 109.173 97.196 109.366 97.4909 109.583C97.7858 109.8 98.0535 110.048 98.3179 110.299C98.6196 110.584 99.0467 110.153 98.7721 109.845H98.7755Z" fill="#182349"/>
<path d="M98.3458 107.225C97.8984 106.889 97.4306 106.543 96.9391 106.274C96.4239 105.989 95.8714 105.762 95.3121 105.575C94.2071 105.209 93.058 105.009 91.8954 104.971C91.2649 104.951 91.2683 105.928 91.8954 105.952C92.9699 105.989 94.0376 106.166 95.0647 106.478C96.0917 106.79 97.1357 107.167 98.0712 107.696C98.3865 107.873 98.6203 107.428 98.3458 107.225Z" fill="#182349"/>
</g>
<path d="M108.198 122.341H34.8838V123.642H108.198V122.341Z" fill="#BDBDBD"/>
<path d="M48.821 122.341H34.8838V123.642H48.821V122.341Z" fill="#FF3434"/>
<path d="M49.913 122.992C49.913 123.728 49.3174 124.324 48.582 124.324C47.8465 124.324 47.251 123.728 47.251 122.992C47.251 122.255 47.8465 121.659 48.582 121.659C49.3174 121.659 49.913 122.255 49.913 122.992Z" fill="#FF3434"/>
<path d="M30.1008 40.746L26.7599 32.2885C26.0771 30.5626 26.923 28.6064 28.6517 27.9237L42.3899 22.4805C44.1146 21.796 46.0684 22.6415 46.7495 24.3714L50.0904 32.8288C50.5907 34.0991 50.2657 35.4883 49.3751 36.409L50.7556 39.082L46.697 37.7918L34.4586 42.6408C32.7339 43.3253 30.7801 42.4799 30.0991 40.7499L30.1008 40.746Z" fill="#307CFF"/>
<path d="M39.3353 36.0375L43.2328 34.5509C43.2642 34.5387 43.2906 34.5219 43.3148 34.4993C43.4329 34.3878 43.6751 34.1295 43.699 33.834C43.7131 33.6574 43.645 33.4897 43.4887 33.3232C43.4049 33.2339 43.3957 33.0993 43.4646 32.9969C43.5029 32.9426 43.822 32.4407 43.3771 32.0207C43.2847 31.9348 43.2693 31.7927 43.3383 31.6903C43.369 31.6422 43.6426 31.1842 43.2189 30.8021C43.1186 30.7126 43.1039 30.5637 43.1814 30.458C43.1814 30.458 43.4571 30.065 43.2684 29.7465C43.1272 29.5084 42.5999 29.6501 42.4655 29.7022L39.8599 30.6687C39.694 30.7329 39.5155 30.6113 39.5119 30.4317C39.503 30.0765 39.4086 29.0569 39.0798 28.5887C38.754 28.1194 38.3532 27.7285 38.1898 27.5779C38.1543 27.5456 38.1136 27.5252 38.0664 27.5138C38.0204 27.5053 37.959 27.4995 37.8952 27.5045C37.7697 27.5202 37.6591 27.5828 37.5615 27.6963C37.4998 27.7662 37.486 27.867 37.5192 27.9528L37.9544 29.097L37.9556 29.1427C37.9561 29.1951 37.9637 30.4326 37.4442 32.0847L37.4306 32.1262L37.0708 32.6078L36.9793 32.6859L38.1689 35.8181C38.2208 35.9526 38.3686 36.0204 38.5031 35.9683C38.546 35.9517 38.5904 35.9476 38.6364 35.9561L39.1968 36.0451C39.2417 36.0507 39.2862 36.0466 39.3302 36.0329L39.3353 36.0375Z" fill="#ECF2F4"/>
<path d="M35.5469 37.7845L38.0094 36.8471L37.2793 34.9221L36.4034 32.6192L33.9409 33.5566L35.5458 37.7816L35.5469 37.7845Z" fill="#ECF2F4"/>
<path d="M104.11 18.6547L116.239 23.2108C117.763 23.784 118.535 25.4834 117.963 27.0086L115.166 34.4745C114.594 35.9997 112.896 36.7715 111.372 36.1983L103.39 33.2004L98.2609 34.914L99.4214 31.7086L99.2433 31.6422C97.7192 31.0689 96.9473 29.3695 97.5192 27.8443L100.317 20.3784C100.889 18.8532 102.586 18.0814 104.11 18.6547Z" fill="#FF3434"/>
<path d="M104.122 25.0669C104.552 24.0137 105.554 23.2821 106.848 23.7565C107.652 24.0509 108.173 24.774 108.254 25.5708C108.831 25.0154 109.696 24.801 110.5 25.0953C112.274 25.7447 112.19 27.8775 111.004 29.005C109.75 30.1977 108.048 30.768 106.343 30.8438L106.317 30.8373C105.135 29.7404 104.084 28.1908 103.911 26.5508C103.857 26.0432 103.937 25.5228 104.123 25.0643L104.122 25.0669Z" fill="#F2F3F3"/>
<path d="M110.894 39.626L122.417 47.6094C123.865 48.613 124.226 50.6007 123.224 52.0499L118.323 59.1424C117.321 60.5917 115.335 60.9522 113.887 59.9487L106.303 54.6958L100.47 55.1417L102.531 52.084L102.361 51.9646C100.912 50.961 100.551 48.9733 101.553 47.5241L106.455 40.4316C107.457 38.9823 109.442 38.6218 110.891 39.6253L110.894 39.626Z" fill="#182349"/>
<path d="M112.738 51.5266L111.483 52.9659L118.321 53.8977L116.488 47.236L115.233 48.6753C115.233 48.6753 113.046 47.1921 110.385 47.0912C107.725 46.9904 105.365 48.2247 103.839 49.974C103.839 49.974 105.91 48.63 108.302 48.9211C110.962 49.2433 112.742 51.5273 112.742 51.5273L112.738 51.5266Z" fill="#F2F3F3"/>
<path opacity="0.5" d="M98.5244 199.774H103.668C107.711 199.774 110.991 196.49 110.991 192.443V139.909" stroke="#60A5FA" stroke-miterlimit="10" stroke-linecap="round"/>
<path opacity="0.5" d="M113.477 112.258V98.4077" stroke="#60A5FA" stroke-miterlimit="10" stroke-linecap="round"/>
<path opacity="0.5" d="M32.79 171.342V131.746" stroke="#60A5FA" stroke-miterlimit="10" stroke-linecap="round"/>
<path opacity="0.5" d="M103.465 119.206C105.513 118.799 107.074 116.708 106.894 114.625C106.831 113.907 106.587 113.22 106.348 112.538C105.599 110.429 104.855 108.314 104.106 106.205" stroke="#60A5FA" stroke-miterlimit="10" stroke-linecap="round"/>
<path opacity="0.5" d="M103.623 104.416C103.299 103.49 102.978 102.568 102.653 101.642" stroke="#60A5FA" stroke-miterlimit="10" stroke-linecap="round"/>
<path opacity="0.5" d="M102.612 60.249C106.339 60.9447 109.646 63.5829 111.153 67.0703" stroke="#93C5FD" stroke-miterlimit="10" stroke-linecap="round"/>
<path opacity="0.5" d="M132.005 58.7705C131.942 58.779 131.883 58.7698 131.84 58.753C131.785 58.7313 131.716 58.6856 131.669 58.6015C131.445 59.001 131.258 59.4329 131.075 59.8583C130.99 60.0545 130.906 60.2492 130.82 60.4388C130.816 60.4468 130.812 60.4549 130.808 60.4629C130.493 61.1482 130.169 61.8641 129.853 62.5719C129.853 62.572 129.853 62.5721 129.853 62.5722C129.848 62.5829 129.843 62.5935 129.838 62.6042M132.005 58.7705L128.205 66.5382C128.178 66.5218 128.146 66.5065 128.109 66.4948C128.504 65.6202 128.892 64.7426 129.28 63.8652C129.466 63.4447 129.652 63.0243 129.838 62.6042M132.005 58.7705C131.843 59.1862 131.638 59.5886 131.432 59.9916C131.331 60.1902 131.23 60.3889 131.133 60.5894C131.13 60.5957 131.127 60.602 131.124 60.6083C130.789 61.3067 130.453 62.0051 130.109 62.699C130.106 62.706 130.102 62.7129 130.099 62.7199L129.838 62.6042M132.005 58.7705L130.099 62.7202L129.838 62.6042M132.095 58.5229L131.905 58.403L131.901 58.4003L131.819 58.3488L131.9 58.3999L131.904 58.4026L132.095 58.5239C132.095 58.5236 132.095 58.5233 132.095 58.5229Z" fill="white" stroke="#60A5FA"/>
<mask id="path-128-inside-1_2726_4683" fill="white">
<path d="M16.2277 67.1154C15.8035 68.2674 16.0111 69.5368 16.8142 70.4719C17.1977 70.9191 17.7121 71.2534 18.267 71.4567C18.7679 71.6374 19.4852 71.7729 19.9635 71.4748C20.0673 71.4115 20.0492 71.2444 19.9274 71.2082C19.6928 71.145 19.4401 71.1359 19.1965 71.1088C18.9528 71.0817 18.7047 71.032 18.4656 70.9507C17.9783 70.7881 17.5361 70.5125 17.1887 70.1286C16.4939 69.3696 16.2322 68.177 16.5119 67.1922C16.566 67.0025 16.2863 66.9302 16.2186 67.1109L16.2277 67.1154Z"/>
</mask>
<path d="M16.2277 67.1154C15.8035 68.2674 16.0111 69.5368 16.8142 70.4719C17.1977 70.9191 17.7121 71.2534 18.267 71.4567C18.7679 71.6374 19.4852 71.7729 19.9635 71.4748C20.0673 71.4115 20.0492 71.2444 19.9274 71.2082C19.6928 71.145 19.4401 71.1359 19.1965 71.1088C18.9528 71.0817 18.7047 71.032 18.4656 70.9507C17.9783 70.7881 17.5361 70.5125 17.1887 70.1286C16.4939 69.3696 16.2322 68.177 16.5119 67.1922C16.566 67.0025 16.2863 66.9302 16.2186 67.1109L16.2277 67.1154Z" fill="white" fill-opacity="0.5"/>
<path d="M16.2277 67.1154L17.1661 67.4609L17.475 66.6219L16.6756 66.2214L16.2277 67.1154ZM16.8142 70.4719L17.5733 69.8209L17.5728 69.8203L16.8142 70.4719ZM18.267 71.4567L17.9231 72.3957L17.9276 72.3973L18.267 71.4567ZM19.9635 71.4748L19.4431 70.6208L19.4345 70.6261L19.9635 71.4748ZM19.9274 71.2082L20.2118 70.2495L20.1998 70.246L20.1877 70.2427L19.9274 71.2082ZM18.4656 70.9507L18.7875 70.004L18.7821 70.0022L18.4656 70.9507ZM17.1887 70.1286L17.9302 69.4576L17.9263 69.4533L17.1887 70.1286ZM16.5119 67.1922L15.5503 66.9178L15.55 66.919L16.5119 67.1922ZM16.2186 67.1109L15.2822 66.7602L14.9668 67.6022L15.7706 68.005L16.2186 67.1109ZM15.2892 66.7699C14.7443 68.2499 15.0077 69.9034 16.0556 71.1234L17.5728 69.8203C17.0144 69.1702 16.8627 68.2848 17.1661 67.4609L15.2892 66.7699ZM16.0551 71.1228C16.5638 71.7161 17.2285 72.1412 17.9231 72.3957L18.611 70.5177C18.1956 70.3656 17.8316 70.1221 17.5733 69.8209L16.0551 71.1228ZM17.9276 72.3973C18.2374 72.5091 18.6374 72.6164 19.0602 72.6433C19.4726 72.6695 20.0083 72.6252 20.4925 72.3234L19.4345 70.6261C19.4404 70.6224 19.3783 70.6595 19.1872 70.6473C19.0066 70.6358 18.7975 70.585 18.6064 70.516L17.9276 72.3973ZM20.4839 72.3287C21.3131 71.8233 21.1813 70.5371 20.2118 70.2495L19.643 72.1669C18.9172 71.9516 18.8215 70.9997 19.4431 70.6208L20.4839 72.3287ZM20.1877 70.2427C19.8547 70.1529 19.4468 70.1305 19.307 70.115L19.0859 72.1027C19.4335 72.1414 19.5309 72.137 19.6671 72.1738L20.1877 70.2427ZM19.307 70.115C19.1212 70.0943 18.9458 70.0578 18.7875 70.004L18.1436 71.8975C18.4636 72.0063 18.7845 72.0692 19.0859 72.1027L19.307 70.115ZM18.7821 70.0022C18.4441 69.8893 18.1528 69.7036 17.9302 69.4576L16.4472 70.7995C16.9194 71.3215 17.5124 71.6869 18.149 71.8993L18.7821 70.0022ZM17.9263 69.4533C17.4747 68.96 17.2852 68.1296 17.4738 67.4655L15.55 66.919C15.1791 68.2245 15.5131 69.7792 16.4511 70.8038L17.9263 69.4533ZM17.4735 67.4666C17.5594 67.1655 17.527 66.8252 17.3399 66.5338C17.1662 66.2633 16.9086 66.1108 16.6699 66.0468C16.1961 65.9198 15.5292 66.1005 15.2822 66.7602L17.1551 67.4617C16.9757 67.9407 16.4826 68.0672 16.152 67.9786C15.9849 67.9338 15.7913 67.8236 15.657 67.6144C15.5092 67.3843 15.4914 67.1241 15.5503 66.9178L17.4735 67.4666ZM15.7706 68.005L15.7797 68.0095L16.6756 66.2214L16.6666 66.2169L15.7706 68.005Z" fill="#60A5FA" mask="url(#path-128-inside-1_2726_4683)"/>
</g>
<defs>
<linearGradient id="paint0_linear_2726_4683" x1="26.136" y1="59.1495" x2="34.1244" y2="70.1904" gradientUnits="userSpaceOnUse">
<stop stop-color="white"/>
<stop offset="0.23" stop-color="#FEFEFE" stop-opacity="0.9801"/>
<stop offset="0.37" stop-color="#FDFDFD" stop-opacity="0.9216"/>
<stop offset="0.48" stop-color="#FBFBFC" stop-opacity="0.81"/>
<stop offset="0.58" stop-color="#F8F8FA" stop-opacity="0.6724"/>
<stop offset="0.67" stop-color="#F4F5F7" stop-opacity="0.5184"/>
<stop offset="0.75" stop-color="#EFF1F4" stop-opacity="0.3481"/>
<stop offset="0.83" stop-color="#EAECEF" stop-opacity="0.1936"/>
<stop offset="0.91" stop-color="#E3E6EB" stop-opacity="0.0729"/>
<stop offset="0.97" stop-color="#DCDFE6" stop-opacity="0.01"/>
<stop offset="1" stop-color="#DADDE4" stop-opacity="0"/>
</linearGradient>
<linearGradient id="paint1_linear_2726_4683" x1="25.2134" y1="62.1529" x2="29.0812" y2="69.714" gradientUnits="userSpaceOnUse">
<stop stop-color="white"/>
<stop offset="0.23" stop-color="#FEFEFE" stop-opacity="0.9801"/>
<stop offset="0.37" stop-color="#FDFDFD" stop-opacity="0.9216"/>
<stop offset="0.48" stop-color="#FBFBFC" stop-opacity="0.81"/>
<stop offset="0.58" stop-color="#F8F8FA" stop-opacity="0.6724"/>
<stop offset="0.67" stop-color="#F4F5F7" stop-opacity="0.5184"/>
<stop offset="0.75" stop-color="#EFF1F4" stop-opacity="0.3481"/>
<stop offset="0.83" stop-color="#EAECEF" stop-opacity="0.1936"/>
<stop offset="0.91" stop-color="#E3E6EB" stop-opacity="0.0729"/>
<stop offset="0.97" stop-color="#DCDFE6" stop-opacity="0.01"/>
<stop offset="1" stop-color="#DADDE4" stop-opacity="0"/>
</linearGradient>
<clipPath id="clip0_2726_4683">
<rect width="132.632" height="200" fill="white" > </rect>
</clipPath>
</defs>
</svg>
