<svg width="1920" height="275" viewBox="0 0 1920 275" fill="none" xmlns="http://www.w3.org/2000/svg">
<path d="M0.00999568 272.991C52.0775 237.457 107.863 207.68 164.569 180.271C219.005 154.143 275.141 130.933 331.957 110.422C512.918 45.3797 704.196 8.0558 896.422 1.12879C1070.36 -5.01855 1245.38 13.9533 1413.82 57.7843C1592.18 103.994 1763.35 177.752 1920.02 272.971L1919.24 274.361C1900.86 265.405 1881.52 255.179 1863 246.383C1836.86 233.728 1804.16 218.605 1777.62 206.88C1770 203.341 1756.81 198.014 1748.8 194.565C1733.06 187.668 1707.2 177.323 1690.82 170.925C1671.74 163.269 1644.4 153.263 1624.89 146.276C1607.89 140.519 1590.11 134.041 1573.08 128.694C1565.86 126.465 1541.95 118.758 1535.86 116.859C1522.09 112.841 1504.64 107.723 1490.89 103.694C1485.95 102.305 1458.66 95.0982 1453.18 93.5988C1436.62 89.1008 1416.85 84.6727 1400.15 80.5045C1250.84 46.1693 1097.41 28.9068 944.182 30.4261C699.738 32.5552 455.953 80.9843 227.901 168.616C169.427 191.077 111.972 216.216 56.0558 244.504C37.3938 253.91 18.9218 263.785 0.87962 274.331L0 273.001L0.00999568 272.991Z" fill="url(#paint0_linear_2279_8072)"/>
<defs>
<linearGradient id="paint0_linear_2279_8072" x1="1886.06" y1="122.703" x2="999.799" y2="1109.79" gradientUnits="userSpaceOnUse">
<stop offset="0.03" stop-color="#02D4FD"/>
<stop offset="1" stop-color="#023CFF"/>
</linearGradient>
</defs>
</svg>
