<svg width="37" height="36" viewBox="0 0 37 36" fill="none" xmlns="http://www.w3.org/2000/svg">
<g filter="url(#filter0_d_4215_9007)">
<rect x="2.5" y="1" width="32" height="32" rx="4" fill="white"/>
<rect x="3" y="1.5" width="31" height="31" rx="3.5" stroke="#E5E7EB"/>
<path d="M21.4375 12V12.0625H21.5H24C24.116 12.0625 24.2273 12.1086 24.3094 12.1906C24.3914 12.2727 24.4375 12.384 24.4375 12.5C24.4375 12.616 24.3914 12.7273 24.3094 12.8094C24.2273 12.8914 24.116 12.9375 24 12.9375H23.5H23.4375V13V22C23.4375 22.2486 23.3387 22.4871 23.1629 22.6629C22.9871 22.8387 22.7486 22.9375 22.5 22.9375H14.5C14.2514 22.9375 14.0129 22.8387 13.8371 22.6629C13.6613 22.4871 13.5625 22.2486 13.5625 22V13V12.9375H13.5H13C12.884 12.9375 12.7727 12.8914 12.6906 12.8094C12.6086 12.7273 12.5625 12.616 12.5625 12.5C12.5625 12.384 12.6086 12.2727 12.6906 12.1906C12.7727 12.1086 12.884 12.0625 13 12.0625H15.5H15.5625V12V11.5C15.5625 11.1188 15.714 10.7531 15.9835 10.4835C16.2531 10.214 16.6188 10.0625 17 10.0625H20C20.3812 10.0625 20.7469 10.214 21.0165 10.4835C21.286 10.7531 21.4375 11.1188 21.4375 11.5V12ZM20.5 12.0625H20.5625V12V11.5C20.5625 11.3508 20.5032 11.2077 20.3977 11.1023C20.2923 10.9968 20.1492 10.9375 20 10.9375H17C16.8508 10.9375 16.7077 10.9968 16.6023 11.1023C16.4968 11.2077 16.4375 11.3508 16.4375 11.5V12V12.0625H16.5H20.5ZM22.5 22.0625H22.5625V22V13V12.9375H22.5H14.5H14.4375V13V22V22.0625H14.5H22.5ZM17.4375 15.5V19.5C17.4375 19.616 17.3914 19.7273 17.3094 19.8094C17.2273 19.8914 17.116 19.9375 17 19.9375C16.884 19.9375 16.7727 19.8914 16.6906 19.8094C16.6086 19.7273 16.5625 19.616 16.5625 19.5V15.5C16.5625 15.384 16.6086 15.2727 16.6906 15.1906C16.7727 15.1086 16.884 15.0625 17 15.0625C17.116 15.0625 17.2273 15.1086 17.3094 15.1906C17.3914 15.2727 17.4375 15.384 17.4375 15.5ZM20.4375 15.5V19.5C20.4375 19.616 20.3914 19.7273 20.3094 19.8094C20.2273 19.8914 20.116 19.9375 20 19.9375C19.884 19.9375 19.7727 19.8914 19.6906 19.8094C19.6086 19.7273 19.5625 19.616 19.5625 19.5V15.5C19.5625 15.384 19.6086 15.2727 19.6906 15.1906C19.7727 15.1086 19.884 15.0625 20 15.0625C20.116 15.0625 20.2273 15.1086 20.3094 15.1906C20.3914 15.2727 20.4375 15.384 20.4375 15.5Z" fill="#6B7280" stroke="#6B7280" stroke-width="0.125"/>
</g>
<defs>
<filter id="filter0_d_4215_9007" x="0.5" y="0" width="36" height="36" filterUnits="userSpaceOnUse" color-interpolation-filters="sRGB">
<feFlood flood-opacity="0" result="BackgroundImageFix"/>
<feColorMatrix in="SourceAlpha" type="matrix" values="0 0 0 0 0 0 0 0 0 0 0 0 0 0 0 0 0 0 127 0" result="hardAlpha"/>
<feOffset dy="1"/>
<feGaussianBlur stdDeviation="1"/>
<feComposite in2="hardAlpha" operator="out"/>
<feColorMatrix type="matrix" values="0 0 0 0 0 0 0 0 0 0 0 0 0 0 0 0 0 0 0.05 0"/>
<feBlend mode="normal" in2="BackgroundImageFix" result="effect1_dropShadow_4215_9007"/>
<feBlend mode="normal" in="SourceGraphic" in2="effect1_dropShadow_4215_9007" result="shape"/>
</filter>
</defs>
</svg>
