<svg width="36" height="36" viewBox="0 0 36 36" fill="none" xmlns="http://www.w3.org/2000/svg">
<g filter="url(#filter0_d_4215_5576)">
<rect x="2" y="1" width="32" height="32" rx="4" fill="white"/>
<rect x="2.5" y="1.5" width="31" height="31" rx="3.5" stroke="#E5E7EB"/>
<path d="M24.1627 13.6298L24.1627 13.6298C24.2498 13.7169 24.3188 13.8202 24.366 13.934C24.4131 14.0477 24.4374 14.1697 24.4374 14.2928C24.4374 14.4159 24.4131 14.5379 24.366 14.6516C24.3188 14.7654 24.2498 14.8687 24.1627 14.9558L24.2069 15L24.1627 14.9558L16.4558 22.6627L16.4556 22.6628C16.3689 22.7502 16.2658 22.8195 16.1521 22.8667C16.0384 22.9138 15.9164 22.9379 15.7933 22.9375H15.7931H13C12.7514 22.9375 12.5129 22.8387 12.3371 22.6629C12.1613 22.4871 12.0625 22.2486 12.0625 22L12.0625 19.2069L12.0625 19.2067C12.0621 19.0836 12.0862 18.9616 12.1333 18.8479C12.1805 18.7342 12.2498 18.631 12.3371 18.5444L12.3373 18.5442L20.0442 10.8367L20.0017 10.7942L20.0442 10.8367C20.1313 10.7496 20.2346 10.6805 20.3484 10.6334C20.4621 10.5863 20.5841 10.562 20.7072 10.562C20.8303 10.562 20.9523 10.5863 21.066 10.6334C21.1798 10.6805 21.2831 10.7496 21.3702 10.8367L24.1627 13.6298ZM15.7931 22.0625H15.819L15.8373 22.0442L21.3373 16.5442L21.3815 16.5L21.3373 16.4558L18.5442 13.6627L18.5 13.6185L18.4558 13.6627L12.9558 19.1627L12.9375 19.181V19.2069V22V22.0625H13H15.7931ZM21.9558 15.8367L22 15.8809L22.0442 15.8367L23.5442 14.3367L23.5884 14.2925L23.5442 14.2483L20.7511 11.4558L20.7069 11.4116L20.6627 11.4558L19.1627 12.9558L19.1185 13L19.1627 13.0442L21.9558 15.8367Z" fill="#6B7280" stroke="#6B7280" stroke-width="0.125"/>
</g>
<defs>
<filter id="filter0_d_4215_5576" x="0" y="0" width="36" height="36" filterUnits="userSpaceOnUse" color-interpolation-filters="sRGB">
<feFlood flood-opacity="0" result="BackgroundImageFix"/>
<feColorMatrix in="SourceAlpha" type="matrix" values="0 0 0 0 0 0 0 0 0 0 0 0 0 0 0 0 0 0 127 0" result="hardAlpha"/>
<feOffset dy="1"/>
<feGaussianBlur stdDeviation="1"/>
<feComposite in2="hardAlpha" operator="out"/>
<feColorMatrix type="matrix" values="0 0 0 0 0 0 0 0 0 0 0 0 0 0 0 0 0 0 0.05 0"/>
<feBlend mode="normal" in2="BackgroundImageFix" result="effect1_dropShadow_4215_5576"/>
<feBlend mode="normal" in="SourceGraphic" in2="effect1_dropShadow_4215_5576" result="shape"/>
</filter>
</defs>
</svg>
