<svg width="210" height="200" viewBox="0 0 210 200" fill="none" xmlns="http://www.w3.org/2000/svg">
<g clip-path="url(#clip0_2726_7844)">
<path d="M31.7151 182.409C-8.90372 158.959 -8.90372 120.939 31.7151 97.4886C72.3339 74.0383 138.187 74.0383 178.801 97.4886C219.42 120.939 219.42 158.959 178.801 182.409C138.183 205.859 72.3296 205.859 31.7151 182.409Z" fill="#FAFAFA"/>
<path d="M184.166 138.389C179.369 141.159 179.369 145.648 184.166 148.418C188.963 151.187 196.738 151.187 201.535 148.418C206.332 145.648 206.332 141.159 201.535 138.389C196.738 135.619 188.963 135.619 184.166 138.389Z" fill="#EBEBEB"/>
<path d="M27.0765 140.967C30.8106 143.147 30.8063 146.677 27.0765 148.857C23.3424 151.038 17.2952 151.038 13.5611 148.857C9.83121 146.677 9.83121 143.147 13.5611 140.967C17.2952 138.786 23.3424 138.786 27.0765 140.967Z" fill="#EBEBEB"/>
<path d="M195.599 157.956C207.795 164.997 207.795 176.417 195.599 183.459C183.402 190.5 163.622 190.5 151.425 183.459C139.228 176.417 139.228 164.997 151.425 157.956C163.622 150.914 183.402 150.914 195.599 157.956Z" fill="#EBEBEB"/>
<path d="M65.9326 157.956C78.1293 164.997 78.1293 176.417 65.9326 183.459C53.7358 190.5 33.9556 190.5 21.7589 183.459C9.56214 176.417 9.56214 164.997 21.7589 157.956C33.9556 150.914 53.7358 150.914 65.9326 157.956Z" fill="#EBEBEB"/>
<path d="M80.8519 145.58L140.875 180.211C141.533 180.591 141.533 181.21 140.875 181.59L132.054 186.668C131.397 187.048 130.326 187.048 129.669 186.668L69.6452 152.037C68.988 151.657 68.988 151.038 69.6452 150.658L78.4663 145.58C79.1235 145.2 80.1947 145.2 80.8519 145.58Z" fill="#EBEBEB"/>
<path d="M59.4541 58.6109L60.2095 59.0632L75.7093 50.1141L74.9539 49.666L59.4541 58.6109Z" fill="#FAFAFA"/>
<path d="M74.9544 49.6661L60.21 58.1757V12.4059L74.9544 3.90063V49.6661Z" fill="white"/>
<path d="M77.1348 0.98999L58.7842 11.5821V61.5298L77.1348 50.9377V0.98999ZM75.7094 50.1141L60.2095 59.0632V12.4058L75.7094 3.45665V50.1141Z" fill="#F0F0F0"/>
<path d="M75.7095 50.1141L74.9541 49.666V3.9005L75.7095 3.46094V50.1141Z" fill="#E0E0E0"/>
<path d="M77.135 0.990098L76.3668 0.550537L58.0205 11.1469L58.7844 11.5822L77.135 0.990098Z" fill="#FAFAFA"/>
<path d="M58.0205 11.147L58.7844 11.5823V61.53L58.0205 61.0904V11.147Z" fill="#E0E0E0"/>
<path d="M73.8493 48.7828L61.3154 56.0163V13.7417L73.8493 6.50391V48.7828Z" fill="#F0F0F0"/>
<path d="M73.8493 48.7828L61.3154 56.0163V13.7417L73.8493 6.50391V48.7828Z" fill="#F0F0F0"/>
<path d="M61.3154 43.8623C61.9086 43.9092 62.5103 43.8922 63.1078 43.8452C65.1904 43.6873 67.2516 43.2392 69.2104 42.518C70.7254 41.959 72.2404 41.2335 73.8493 41.1865V48.7785L72.1508 49.7601C71.4765 49.1626 70.6956 48.6975 69.825 48.467C67.4095 47.8311 64.9343 49.0474 62.4549 49.3291C62.0793 49.3717 61.6995 49.3845 61.3197 49.3845V43.858L61.3154 43.8623Z" fill="#FAFAFA"/>
<path d="M61.3154 28.9556C64.1192 28.1277 66.9956 27.4364 68.9971 25.3794C70.6102 23.7193 71.3698 21.4233 71.899 19.1743C72.4282 16.921 72.7952 14.5995 73.8152 12.5212C73.8237 12.4998 73.8365 12.4828 73.8493 12.4614V35.054C73.6914 35.2887 73.5378 35.5234 73.3671 35.7496C71.5277 38.2461 68.8136 40.3287 65.7153 40.4866C64.2601 40.5634 62.7579 40.222 61.3154 40.2263V28.9513V28.9556Z" fill="#FAFAFA"/>
<path d="M61.3154 20.6167C63.4663 18.7219 64.6143 15.6791 64.0936 12.8412C64.0552 12.6321 64.004 12.423 63.9528 12.2139L68.7752 9.4314C68.7581 9.7472 68.741 10.0673 68.7325 10.3831C68.6813 12.2224 68.7453 14.0873 68.3356 15.884C67.6528 18.8969 65.5873 21.5641 62.8432 22.981C62.3524 23.2327 61.8403 23.4461 61.3197 23.6168V20.6124L61.3154 20.6167Z" fill="#FAFAFA"/>
<path d="M154.387 23.9837L153.734 24.3763L140.329 16.6349L140.982 16.2466L154.387 23.9837Z" fill="#FAFAFA"/>
<path d="M140.982 16.2467L153.734 23.6083V10.255L140.982 2.89771V16.2467Z" fill="white"/>
<path d="M139.096 17.3478L154.967 26.5103V9.54237L139.096 0.379883V17.3478ZM140.329 2.51367L153.733 10.2508V24.3722L140.329 16.6351V2.51367Z" fill="#F0F0F0"/>
<path d="M140.329 16.6351L140.982 16.2467V2.89775L140.329 2.51367V16.6351Z" fill="#E0E0E0"/>
<path d="M139.096 0.379814L139.757 0L155.628 9.16249L154.967 9.5423L139.096 0.379814Z" fill="#FAFAFA"/>
<path d="M155.628 9.1626L154.967 9.54241V26.5103L155.628 26.1305V9.1626Z" fill="#E0E0E0"/>
<path d="M141.477 15.8455L153.234 22.6352V19.2425L150.293 12.4528L148.463 14.1513L149.124 16.9935L145.061 8.31323L141.477 12.4528V15.8455Z" fill="#F0F0F0"/>
<path d="M148.574 9.17519C149.056 9.45258 149.444 10.1269 149.444 10.6816C149.444 11.2364 149.056 11.4626 148.574 11.1852C148.091 10.9078 147.703 10.2335 147.703 9.67876C147.703 9.12398 148.091 8.8978 148.574 9.17519Z" fill="#F0F0F0"/>
<path d="M140.927 37.9217L140.274 38.3143L126.869 30.5729L127.522 30.1846L140.927 37.9217Z" fill="#FAFAFA"/>
<path d="M127.522 30.1847L140.274 37.5462V24.193L127.522 16.8357V30.1847Z" fill="white"/>
<path d="M125.636 31.2858L141.507 40.4482V23.4804L125.636 14.3179V31.2858ZM126.869 16.4517L140.274 24.1888V38.3102L126.869 30.5731V16.4517Z" fill="#F0F0F0"/>
<path d="M126.869 30.5731L127.522 30.1847V16.8357L126.869 16.4517V30.5731Z" fill="#E0E0E0"/>
<path d="M125.636 14.3178L126.297 13.938L142.168 23.1005L141.503 23.4803L125.636 14.3178Z" fill="#FAFAFA"/>
<path d="M142.169 23.1006L141.503 23.4804V40.4483L142.169 40.0685V23.1006Z" fill="#E0E0E0"/>
<path d="M128.017 29.7835L139.774 36.5732V33.1762L136.833 26.3908L135.003 28.0893L135.664 30.9315L131.601 22.2512L128.017 26.3908V29.7835Z" fill="#F0F0F0"/>
<path d="M135.114 23.1132C135.596 23.3906 135.984 24.0648 135.984 24.6196C135.984 25.1744 135.596 25.4006 135.114 25.1232C134.632 24.8458 134.243 24.1715 134.243 23.6168C134.243 23.062 134.632 22.8358 135.114 23.1132Z" fill="#F0F0F0"/>
<path d="M13.1426 91.164L14.0473 91.706L44.8336 73.9315L43.9289 73.3938L13.1426 91.164Z" fill="#FAFAFA"/>
<path d="M43.9294 73.3939L14.0479 90.6392V21.8074L43.9294 4.56641V73.3939Z" fill="white"/>
<path d="M46.5412 1.07983L12.3408 20.8216V94.6635L46.5412 74.9175V1.07983ZM44.8342 73.9316L14.0521 91.7061V21.8075L44.8342 4.03727V73.9359V73.9316Z" fill="#F0F0F0"/>
<path d="M44.8334 73.9315L43.9287 73.3938V4.56629L44.8334 4.03711V73.9315Z" fill="#E0E0E0"/>
<path d="M14.0479 66.6938V67.7564L44.8342 49.9819L43.9294 49.4399L14.0479 66.6938Z" fill="#FAFAFA"/>
<path d="M14.0479 42.7312V43.7939L44.8342 26.0194L43.9294 25.4817L14.0479 42.7312Z" fill="#FAFAFA"/>
<path d="M46.5407 1.07972L45.6232 0.550537L11.4229 20.2966L12.3404 20.8215L46.5407 1.07972Z" fill="#FAFAFA"/>
<path d="M11.4229 20.2966L12.3404 20.8215V94.6634L11.4229 94.1385V20.2966Z" fill="#E0E0E0"/>
<path d="M27.2168 14.2067L28.1343 13.6775V83.5761L27.2168 83.0512V14.2067Z" fill="#E0E0E0"/>
<path d="M29.8418 12.696L28.1348 13.6776V83.5762L29.8418 82.5862V12.696Z" fill="#F0F0F0"/>
<path d="M46.5412 25.0337V27.0053L12.3408 46.7471V44.7798L46.5412 25.0337Z" fill="#F0F0F0"/>
<path d="M46.5412 48.9919V50.9593L12.3408 70.7054V68.738L46.5412 48.9919Z" fill="#F0F0F0"/>
<path d="M28.1351 35.6598L27.2176 35.1306L14.0479 42.7312V43.7938L28.1351 35.6598Z" fill="#FAFAFA"/>
<path d="M28.1351 59.6095L27.2176 59.0803L14.0479 66.6809V67.7435L28.1351 59.6095Z" fill="#FAFAFA"/>
<path d="M199.102 29.7962C199.102 19.3406 192.214 6.88783 183.722 1.98439C179.224 -0.610302 175.178 -0.571894 172.366 1.59177C168.87 3.04274 166.63 7.0628 166.63 13.0246V73.6712L197.391 91.4328L199.098 90.447V29.7962H199.102Z" fill="#E6E6E6"/>
<path d="M197.394 91.4284V30.7819C197.394 20.3263 190.507 7.87354 182.014 2.9701C173.522 -1.93335 166.634 2.56468 166.634 13.0202V73.6668L197.394 91.4284Z" fill="#F5F5F5"/>
<path d="M195.709 30.7819V88.5137L168.312 72.6938V13.0245C168.312 7.80101 170.151 4.19491 173.241 3.05974C173.928 2.80368 174.679 2.67139 175.481 2.67139C177.231 2.67139 179.143 3.26031 181.165 4.42963C189.184 9.05568 195.705 20.8811 195.705 30.7819H195.709Z" fill="#E0E0E0"/>
<path d="M168.315 72.6939L170.052 71.6953L195.709 86.5123V88.5138L168.315 72.6939Z" fill="#EBEBEB"/>
<path d="M195.709 30.782V86.5123L170.048 71.6953V12.0175C170.048 7.86515 171.209 4.73701 173.24 3.05559C173.927 2.79953 174.678 2.66724 175.48 2.66724C177.23 2.66724 179.142 3.25616 181.165 4.42548C189.184 9.05153 195.705 20.877 195.705 30.7778L195.709 30.782Z" fill="white"/>
<path d="M182.856 81.0882L181.17 80.1195V3.82373H182.856V81.0882Z" fill="#F5F5F5"/>
<path d="M184.537 6.86211V80.1236L182.855 81.0923V5.51782C183.427 5.93178 183.986 6.37561 184.537 6.85784V6.86211Z" fill="#E0E0E0"/>
<path d="M168.315 60.8257L181.169 68.2513V70.2229L168.315 62.8016V60.8257Z" fill="#F5F5F5"/>
<path d="M170.052 59.8228L168.315 60.8256L181.169 68.2512V66.2753L170.052 59.8228Z" fill="#EBEBEB"/>
<path d="M182.855 69.2202L195.709 76.6415V78.6174L182.855 71.1961V69.2202Z" fill="#F5F5F5"/>
<path d="M184.592 68.2173L182.855 69.2202L195.709 76.6415V74.6699L184.592 68.2173Z" fill="#EBEBEB"/>
<path d="M168.315 16.7715L181.169 24.1928V26.1644L168.315 18.7474V16.7715Z" fill="#F5F5F5"/>
<path d="M170.052 15.7686L168.315 16.7714L181.169 24.1928V22.2211L170.052 15.7686Z" fill="#EBEBEB"/>
<path d="M182.855 25.1616L195.709 32.5872V34.5588L182.855 27.1375V25.1616Z" fill="#F5F5F5"/>
<path d="M184.592 24.1631L182.855 25.1617L195.709 32.5873V30.6114L184.592 24.1631Z" fill="#EBEBEB"/>
<path d="M185.656 144.688C181.806 140.715 179.545 131.544 183.3 128.395H202.402C206.153 131.544 203.895 140.711 200.05 144.684C200.016 144.722 199.978 144.756 199.944 144.795C199.901 144.838 199.854 144.884 199.811 144.927C199.705 145.034 199.589 145.136 199.461 145.239C199.431 145.264 199.402 145.286 199.367 145.311C199.274 145.388 199.18 145.461 199.077 145.533C198.915 145.653 198.749 145.759 198.578 145.853C195.411 147.701 190.278 147.701 187.111 145.853C186.94 145.759 186.774 145.648 186.612 145.529C186.518 145.461 186.428 145.392 186.343 145.324C186.304 145.294 186.266 145.264 186.228 145.234C186.108 145.136 185.997 145.034 185.89 144.931C185.839 144.884 185.788 144.833 185.737 144.782C185.707 144.752 185.677 144.722 185.647 144.688H185.656Z" fill="#232E33"/>
<path d="M200.746 127.123C205.103 129.666 205.103 133.793 200.746 136.336C196.388 138.88 189.321 138.88 184.964 136.336C180.607 133.793 180.607 129.666 184.964 127.123C189.321 124.579 196.388 124.579 200.746 127.123Z" fill="#303F46"/>
<path d="M198.647 128.347C201.847 130.217 201.847 133.247 198.647 135.116C195.446 136.985 190.256 136.985 187.056 135.116C183.855 133.247 183.855 130.217 187.056 128.347C190.256 126.478 195.446 126.478 198.647 128.347Z" fill="#13191C"/>
<path d="M187.056 131.561C190.256 129.692 195.446 129.692 198.647 131.561C199.534 132.082 200.17 132.692 200.563 133.341C200.166 133.989 199.534 134.6 198.647 135.12C195.446 136.989 190.256 136.989 187.056 135.12C186.168 134.6 185.532 133.989 185.14 133.341C185.537 132.692 186.168 132.082 187.056 131.561Z" fill="#DEDEDE"/>
<path d="M191.664 109.766C191.805 110.961 192.543 112.502 193.712 113.074C194.877 113.646 196.021 113.377 196.533 112.971C197.045 112.566 195.5 112.69 194.549 112.011C193.597 111.333 193.537 110.902 194.485 111.435C195.432 111.969 197.058 112.557 197.959 112.455C198.859 112.353 199.585 111.273 199.444 111.034C199.303 110.799 198.509 111.35 197.148 111.294C195.786 111.239 194.724 110.641 194.344 110.048C193.964 109.455 194.224 109.557 195.445 110.138C196.666 110.722 198.927 111.153 199.751 110.479C200.575 109.809 200.617 108.772 200.459 108.55C200.301 108.324 199.307 109.28 197.643 109.237C195.978 109.19 194.609 108.473 194.784 107.825C194.958 107.176 195.496 107.471 196.785 107.671C198.074 107.872 200.549 107.914 201.206 107.453C201.863 106.993 201.962 105.49 201.676 105.354C201.39 105.217 200.331 106.199 198.637 106.327C196.943 106.455 196.128 105.973 196.764 105.721C197.4 105.469 200.762 105.465 201.21 105.055C201.659 104.645 201.77 101.94 201.77 101.94C201.77 101.94 199.802 101.112 199.303 101.176C198.804 101.24 197.19 102.934 196.819 103.724C196.448 104.509 196.17 103.736 196.401 103.126C196.631 102.516 197.72 100.992 198.419 100.694C197.493 100.263 196.392 99.9553 195.944 100.698C195.496 101.44 194.971 103.433 194.903 104.534C194.835 105.635 194.062 106.651 193.943 105.251C193.828 103.852 194.395 101.206 195.21 100.54C194.331 100.617 192.057 101.496 192.086 103.058C192.112 104.62 192.654 106.105 192.628 106.604C192.603 107.099 192.035 106.634 191.664 105.554C191.293 104.475 190.947 102.994 191.502 102.221C190.597 102.516 189.714 102.896 190.175 104.581C190.635 106.271 191.527 106.796 191.416 107.112C191.305 107.432 190.23 106.314 189.897 105.35C189.3 106.246 189.334 107.125 189.799 107.983C190.264 108.84 190.921 109.412 191.664 109.762V109.766Z" fill="#AC9F9A"/>
<path opacity="0.25" d="M191.664 109.766C191.805 110.961 192.543 112.502 193.712 113.074C194.877 113.646 196.021 113.377 196.533 112.971C197.045 112.566 195.5 112.69 194.549 112.011C193.597 111.333 193.537 110.902 194.485 111.435C195.432 111.969 197.058 112.557 197.959 112.455C198.859 112.353 199.585 111.273 199.444 111.034C199.303 110.799 198.509 111.35 197.148 111.294C195.786 111.239 194.724 110.641 194.344 110.048C193.964 109.455 194.224 109.557 195.445 110.138C196.666 110.722 198.927 111.153 199.751 110.479C200.575 109.809 200.617 108.772 200.459 108.55C200.301 108.324 199.307 109.28 197.643 109.237C195.978 109.19 194.609 108.473 194.784 107.825C194.958 107.176 195.496 107.471 196.785 107.671C198.074 107.872 200.549 107.914 201.206 107.453C201.863 106.993 201.962 105.49 201.676 105.354C201.39 105.217 200.331 106.199 198.637 106.327C196.943 106.455 196.128 105.973 196.764 105.721C197.4 105.469 200.762 105.465 201.21 105.055C201.659 104.645 201.77 101.94 201.77 101.94C201.77 101.94 199.802 101.112 199.303 101.176C198.804 101.24 197.19 102.934 196.819 103.724C196.448 104.509 196.17 103.736 196.401 103.126C196.631 102.516 197.72 100.992 198.419 100.694C197.493 100.263 196.392 99.9553 195.944 100.698C195.496 101.44 194.971 103.433 194.903 104.534C194.835 105.635 194.062 106.651 193.943 105.251C193.828 103.852 194.395 101.206 195.21 100.54C194.331 100.617 192.057 101.496 192.086 103.058C192.112 104.62 192.654 106.105 192.628 106.604C192.603 107.099 192.035 106.634 191.664 105.554C191.293 104.475 190.947 102.994 191.502 102.221C190.597 102.516 189.714 102.896 190.175 104.581C190.635 106.271 191.527 106.796 191.416 107.112C191.305 107.432 190.23 106.314 189.897 105.35C189.3 106.246 189.334 107.125 189.799 107.983C190.264 108.84 190.921 109.412 191.664 109.762V109.766Z" fill="white"/>
<path d="M187.797 114.294C188.822 114.294 189.876 114.828 190.661 115.446C191.77 116.321 192.564 117.52 193.106 118.814C193.746 120.333 194.054 121.967 194.276 123.589C194.506 125.266 194.621 126.969 194.553 128.663C194.48 130.566 194.22 132.512 193.465 134.275C193.409 134.407 193.273 134.343 193.303 134.211C193.648 132.687 193.99 131.168 194.105 129.602C194.224 128.023 194.177 126.431 194.015 124.856C193.717 121.997 193.213 118.809 191.271 116.56C190.32 115.455 189.159 114.798 187.793 114.337C187.78 114.333 187.767 114.294 187.793 114.294H187.797Z" fill="#303F46"/>
<path d="M188.42 119.479C190.507 120.926 191.753 123.299 192.393 125.701C192.773 127.123 192.94 128.595 192.978 130.063C193.021 131.582 192.995 133.008 192.671 134.497C192.654 134.582 192.423 134.599 192.445 134.441C192.637 132.931 192.765 131.629 192.671 130.131C192.581 128.714 192.466 127.289 192.116 125.915C191.493 123.487 190.238 121.259 188.407 119.543C188.39 119.526 188.386 119.454 188.42 119.479Z" fill="#303F46"/>
<path d="M190.691 124.118C190.7 124.05 190.764 124.105 190.764 124.152C190.781 125.812 190.832 127.464 191.024 129.115C191.118 129.913 191.242 130.712 191.4 131.497C191.562 132.316 191.792 133.118 191.933 133.942C191.95 134.036 191.818 134.224 191.754 134.074C191.135 132.589 190.917 130.857 190.738 129.269C190.542 127.566 190.495 125.825 190.691 124.118Z" fill="#303F46"/>
<path d="M193.785 106.843C192.436 108.247 191.438 109.95 190.772 111.776C190.465 112.621 190.226 113.496 190.055 114.38C189.893 115.237 189.701 116.227 189.803 117.102C189.816 117.213 189.978 117.341 190.012 117.166C190.106 116.723 190.085 116.249 190.132 115.796C190.179 115.34 190.247 114.887 190.337 114.439C190.52 113.5 190.785 112.574 191.126 111.683C191.788 109.967 192.718 108.375 193.81 106.899C193.832 106.869 193.823 106.796 193.781 106.839L193.785 106.843Z" fill="#303F46"/>
<path d="M190.269 115.95C190.649 117.943 188.408 120.393 185.523 120.017C186.765 119.104 188.118 117.487 187.52 117.004C186.923 116.522 187.141 118.519 185.101 119.629C185.101 119.629 184.162 119.748 183.338 118.46C185.408 117.841 186.97 115.643 186.261 115.788C185.976 115.848 185.16 116.923 183.902 117.35C182.638 117.777 181.618 117.491 180.543 115.728C181.495 115.882 182.911 115.959 183.966 115.289C184.721 114.811 185.024 114.44 183.534 114.794C182.045 115.144 181.546 115.336 180.394 114.9C179.241 114.465 178.631 112.903 178.631 112.903C178.631 112.903 180.483 113.727 181.123 113.262C181.768 112.796 179.442 113.027 178.298 112.041C177.154 111.055 176.553 109.916 176.553 109.916C176.553 109.916 177.692 108.601 178.268 108.384C179.011 109.468 179.907 110.932 180.172 110.778C180.436 110.624 180.3 109.685 179.066 108.461C179.066 108.461 179.583 107.658 180.569 107.94C180.569 107.94 181.29 108.307 181.751 110.667C181.849 111.162 182.25 111.708 181.862 109.801C181.537 108.213 181 107.552 181 107.552C181 107.552 182.48 107.078 183.428 108.636C184.985 111.205 184.764 112.144 185.126 112.114C185.263 112.101 185.25 111.572 184.815 110.151C184.379 108.729 183.829 108.008 183.829 108.008C183.829 108.008 185.122 107.24 186.308 108.759C187.495 110.279 187.695 112.69 187.785 112.762C188.028 112.954 188.173 111.132 187.875 110.023C187.597 108.99 187.414 108.499 187.414 108.499C187.414 108.499 189.044 108.422 189.667 110.215C190.29 112.007 189.424 114.034 189.812 114.051C190.2 114.068 190.661 110.539 190.661 110.539C190.661 110.539 192.872 114.529 190.269 115.959V115.95Z" fill="#AC9F9A"/>
<path opacity="0.2" d="M190.269 115.95C190.649 117.943 188.408 120.393 185.523 120.017C186.765 119.104 188.118 117.487 187.52 117.004C186.923 116.522 187.141 118.519 185.101 119.629C185.101 119.629 184.162 119.748 183.338 118.46C185.408 117.841 186.97 115.643 186.261 115.788C185.976 115.848 185.16 116.923 183.902 117.35C182.638 117.777 181.618 117.491 180.543 115.728C181.495 115.882 182.911 115.959 183.966 115.289C184.721 114.811 185.024 114.44 183.534 114.794C182.045 115.144 181.546 115.336 180.394 114.9C179.241 114.465 178.631 112.903 178.631 112.903C178.631 112.903 180.483 113.727 181.123 113.262C181.768 112.796 179.442 113.027 178.298 112.041C177.154 111.055 176.553 109.916 176.553 109.916C176.553 109.916 177.692 108.601 178.268 108.384C179.011 109.468 179.907 110.932 180.172 110.778C180.436 110.624 180.3 109.685 179.066 108.461C179.066 108.461 179.583 107.658 180.569 107.94C180.569 107.94 181.29 108.307 181.751 110.667C181.849 111.162 182.25 111.708 181.862 109.801C181.537 108.213 181 107.552 181 107.552C181 107.552 182.48 107.078 183.428 108.636C184.985 111.205 184.764 112.144 185.126 112.114C185.263 112.101 185.25 111.572 184.815 110.151C184.379 108.729 183.829 108.008 183.829 108.008C183.829 108.008 185.122 107.24 186.308 108.759C187.495 110.279 187.695 112.69 187.785 112.762C188.028 112.954 188.173 111.132 187.875 110.023C187.597 108.99 187.414 108.499 187.414 108.499C187.414 108.499 189.044 108.422 189.667 110.215C190.29 112.007 189.424 114.034 189.812 114.051C190.2 114.068 190.661 110.539 190.661 110.539C190.661 110.539 192.872 114.529 190.269 115.959V115.95Z" fill="white"/>
<path d="M194.728 120.342C195.338 119.33 197.762 118.361 201.142 119.407C202.179 119.727 203.519 120.423 204.428 121.263C202.209 120.645 199.205 120.043 198.791 120.82C198.377 121.596 199.666 121.434 200.839 121.366C203.387 121.225 204.83 121.639 204.83 121.639C204.83 121.639 206.362 122.689 207.07 124.413C204.966 122.791 202.107 122.309 200.814 122.539C199.521 122.77 199.388 123.282 200.425 123.265C201.462 123.248 203.502 123.137 207.872 125.693C207.872 125.693 208.636 126.649 208.376 128.719C207.74 127.69 206.583 126.978 205.555 126.397C204.527 125.813 203.408 125.258 202.265 124.934C202.06 124.874 201.646 124.771 201.475 124.951C201.279 125.155 201.454 125.42 201.62 125.552C201.945 125.813 202.414 126.005 202.802 126.133C203.349 126.312 203.882 126.555 204.411 126.786C205.269 127.161 206.195 127.541 206.985 128.062C207.42 128.352 208.005 129.914 207.492 131.305C206.391 130.716 204.386 128.51 202.61 128.121C200.835 127.737 202.768 128.723 204.027 129.705C205.111 130.545 207.019 132.24 207.019 132.24C207.019 132.24 205.982 134.489 205.252 135.538C203.408 135.351 201.65 134.408 201.65 134.408C201.65 134.408 201.582 130.699 200.835 130.114C200.084 129.53 200.323 131.075 200.699 132.483C201.078 133.891 201.155 134.403 201.155 134.403C201.155 134.403 197.476 133.925 196.427 132.308C196.61 131.582 197.302 129.764 197.72 128.54C198.159 127.251 198.799 126.261 198.484 125.907C198.181 125.569 197.447 126.466 196.802 127.661C195.902 129.325 195.509 131.489 195.509 131.489C195.509 131.489 193.217 130.251 192.603 129.282C192.313 126.905 194.203 124.904 194.566 124.626C194.924 124.349 194.762 123.043 193.038 124.208C191.178 125.467 191.297 127.379 191.297 127.379C191.297 127.379 189.573 126.636 189.33 124.878C188.937 122.044 190.755 119.842 194.732 120.346L194.728 120.342Z" fill="#AC9F9A"/>
<path opacity="0.25" d="M194.728 120.342C195.338 119.33 197.762 118.361 201.142 119.407C202.179 119.727 203.519 120.423 204.428 121.263C202.209 120.645 199.205 120.043 198.791 120.82C198.377 121.596 199.666 121.434 200.839 121.366C203.387 121.225 204.83 121.639 204.83 121.639C204.83 121.639 206.362 122.689 207.07 124.413C204.966 122.791 202.107 122.309 200.814 122.539C199.521 122.77 199.388 123.282 200.425 123.265C201.462 123.248 203.502 123.137 207.872 125.693C207.872 125.693 208.636 126.649 208.376 128.719C207.74 127.69 206.583 126.978 205.555 126.397C204.527 125.813 203.408 125.258 202.265 124.934C202.06 124.874 201.646 124.771 201.475 124.951C201.279 125.155 201.454 125.42 201.62 125.552C201.945 125.813 202.414 126.005 202.802 126.133C203.349 126.312 203.882 126.555 204.411 126.786C205.269 127.161 206.195 127.541 206.985 128.062C207.42 128.352 208.005 129.914 207.492 131.305C206.391 130.716 204.386 128.51 202.61 128.121C200.835 127.737 202.768 128.723 204.027 129.705C205.111 130.545 207.019 132.24 207.019 132.24C207.019 132.24 205.982 134.489 205.252 135.538C203.408 135.351 201.65 134.408 201.65 134.408C201.65 134.408 201.582 130.699 200.835 130.114C200.084 129.53 200.323 131.075 200.699 132.483C201.078 133.891 201.155 134.403 201.155 134.403C201.155 134.403 197.476 133.925 196.427 132.308C196.61 131.582 197.302 129.764 197.72 128.54C198.159 127.251 198.799 126.261 198.484 125.907C198.181 125.569 197.447 126.466 196.802 127.661C195.902 129.325 195.509 131.489 195.509 131.489C195.509 131.489 193.217 130.251 192.603 129.282C192.313 126.905 194.203 124.904 194.566 124.626C194.924 124.349 194.762 123.043 193.038 124.208C191.178 125.467 191.297 127.379 191.297 127.379C191.297 127.379 189.573 126.636 189.33 124.878C188.937 122.044 190.755 119.842 194.732 120.346L194.728 120.342Z" fill="white"/>
<path d="M187.302 117.41C188.92 117.09 191.241 117.41 192.479 118.69C193.717 119.97 193.845 121.575 193.529 122.411C193.217 123.248 192.726 121.178 191.442 120.226C190.162 119.275 189.568 119.373 190.661 120.384C191.758 121.396 193.204 123.269 193.452 124.485C193.695 125.702 192.59 127.106 192.223 127.02C191.856 126.935 192.244 125.672 191.6 123.918C190.955 122.164 189.731 121.033 188.796 120.785C187.861 120.538 188.105 120.837 189.376 122.185C190.648 123.534 192.163 126.303 191.634 127.66C191.105 129.018 189.773 129.508 189.415 129.397C189.056 129.286 189.884 127.584 189.125 125.433C188.365 123.282 186.854 121.797 186.082 122.296C185.309 122.795 185.92 123.376 186.722 124.972C187.524 126.568 188.621 129.781 188.297 130.831C187.972 131.881 186.056 132.641 185.757 132.325C185.459 132.009 186.291 130.217 185.749 127.955C185.207 125.693 184.234 124.831 184.17 125.766C184.106 126.705 185.514 131.087 185.173 131.847C184.827 132.602 181.341 133.883 181.341 133.883C181.341 133.883 179.433 131.663 179.305 130.985C179.177 130.306 180.713 127.494 181.584 126.675C182.454 125.855 181.328 125.825 180.628 126.38C179.928 126.935 178.396 128.996 178.302 130.037C177.35 129.013 176.488 127.703 177.269 126.807C178.05 125.911 180.432 124.391 181.836 123.841C183.244 123.29 184.247 121.852 182.369 122.292C180.491 122.727 177.278 124.579 176.753 125.924C176.484 124.741 176.676 121.408 178.725 120.79C180.773 120.171 182.941 120.252 183.577 120.009C184.213 119.765 183.368 119.223 181.801 119.194C180.235 119.164 178.157 119.334 177.389 120.38C177.397 119.078 177.517 117.764 179.911 117.657C182.305 117.551 183.368 118.494 183.735 118.212C184.102 117.93 182.194 117 180.799 116.97C181.716 115.818 182.877 115.489 184.191 115.733C185.506 115.976 186.526 116.595 187.294 117.423L187.302 117.41Z" fill="#AC9F9A"/>
<path d="M194.83 113.253C194.771 111.563 196.704 110.125 197.929 110.125C196.947 110.884 196.405 112.178 196.904 111.636C197.95 110.496 198.65 109.886 200.284 109.527C201.915 109.169 202.909 110.347 202.909 110.347C202.909 110.347 201.176 110.496 199.657 111.273C199.175 111.52 197.95 112.31 199.567 111.601C202.115 110.483 203.468 110.983 203.468 110.983C203.468 110.983 204.701 111.469 205.205 112.434C203.25 111.589 200.98 112.306 200.139 112.579C199.299 112.852 198.752 113.59 200.122 113.108C201.488 112.626 204.309 112.485 205.623 113.488C206.942 114.495 207.304 116.795 207.304 116.795C207.304 116.795 202.521 113.987 201.62 114.956C201.872 115.587 205.943 116.296 206.984 117.226C208.026 118.156 207.906 121.08 207.906 121.08C207.906 121.08 204.889 122.155 203.916 121.993C202.943 121.831 201.833 118.506 201.223 118.199C200.613 117.892 200.583 120.811 202.004 122.693C202.004 122.693 200.63 123.546 199.853 122.509C199.077 121.472 198.586 118.856 198.778 117.495C198.97 116.134 198.018 116.816 197.826 117.875C197.634 118.929 197.694 121.054 198.377 122.181C198.377 122.181 196.341 122.134 195.509 121.425C194.677 120.717 195.223 117.627 195.761 116.676C196.303 115.728 195.372 115.545 194.83 116.492C194.288 117.439 193.781 119.846 194.049 120.836C192.458 119.582 191.467 117.529 192.27 115.378C193.119 113.099 194.826 113.253 194.826 113.253H194.83Z" fill="#AC9F9A"/>
<path d="M14.5894 145.208C11.5253 142.046 9.72441 134.096 12.7117 131.586H27.9256C30.9129 134.096 29.1163 142.042 26.0522 145.208C26.0266 145.238 25.9967 145.268 25.9668 145.294C25.9327 145.328 25.8985 145.366 25.8601 145.396C25.7748 145.481 25.6809 145.562 25.5827 145.644C25.5571 145.665 25.5358 145.682 25.5102 145.703C25.4334 145.763 25.3608 145.823 25.2797 145.878C25.1474 145.972 25.0151 146.058 24.8828 146.134C22.3607 147.607 18.2724 147.607 15.7502 146.134C15.6137 146.058 15.4814 145.972 15.3533 145.878C15.2765 145.823 15.2082 145.767 15.14 145.712C15.1101 145.686 15.0802 145.665 15.0503 145.639C14.9565 145.562 14.8668 145.481 14.7815 145.4C14.7388 145.362 14.7004 145.319 14.6577 145.281C14.6364 145.255 14.6108 145.234 14.5852 145.208H14.5894Z" fill="#37474F"/>
<path d="M26.6071 130.571C30.0766 132.598 30.0766 135.884 26.6071 137.911C23.1375 139.938 17.5086 139.938 14.0348 137.911C10.5652 135.884 10.5652 132.598 14.0348 130.571C17.5043 128.544 23.1332 128.544 26.6071 130.571Z" fill="#455A64"/>
<path d="M24.9385 131.548C27.4862 133.037 27.4862 135.449 24.9385 136.938C22.3907 138.427 18.2554 138.427 15.7077 136.938C13.1599 135.449 13.1599 133.037 15.7077 131.548C18.2554 130.059 22.3907 130.059 24.9385 131.548Z" fill="#263238"/>
<path d="M15.7036 134.104C18.2513 132.615 22.3866 132.615 24.9343 134.104C25.6428 134.518 26.1463 135.005 26.4621 135.521C26.1463 136.037 25.6428 136.524 24.9343 136.938C22.3866 138.427 18.2513 138.427 15.7036 136.938C14.9952 136.524 14.4916 136.037 14.1758 135.521C14.4916 135.005 14.9952 134.518 15.7036 134.104Z" fill="#FAFAFA"/>
<path d="M19.2971 113.816C18.1321 115.079 14.893 115.425 13.5487 112.015C12.2898 108.815 10.9327 105.78 10.5443 104.603C10.156 103.429 11.3168 103.041 11.3168 103.041C11.3168 103.041 11.4107 101.282 14.3894 102.473C17.3383 103.651 19.4721 105.473 20.7737 108.401C22.054 111.286 21.2901 113.424 19.2929 113.816H19.2971Z" fill="#C8BBAD"/>
<path opacity="0.45" d="M19.2971 113.816C18.1321 115.079 14.893 115.425 13.5487 112.015C12.2898 108.815 10.9327 105.78 10.5443 104.603C10.156 103.429 11.3168 103.041 11.3168 103.041C11.3168 103.041 11.4107 101.282 14.3894 102.473C17.3383 103.651 19.4721 105.473 20.7737 108.401C22.054 111.286 21.2901 113.424 19.2929 113.816H19.2971Z" fill="white"/>
<path d="M20.5899 118.331C20.5344 117.734 20.4534 117.136 20.3296 116.552C20.0863 115.382 19.7535 114.239 19.3395 113.116C18.5031 110.833 17.3338 108.691 15.8871 106.74C15.0719 105.644 14.18 104.585 13.1729 103.659C13.143 103.629 13.1174 103.698 13.1387 103.723C14.7988 105.511 16.2583 107.432 17.3892 109.595C18.4903 111.704 19.3267 113.936 19.8474 116.257C19.9925 116.906 20.1333 117.559 20.2528 118.212C20.3723 118.877 20.4448 119.547 20.5558 120.213C20.5686 120.281 20.671 120.32 20.6753 120.23C20.7137 119.599 20.6454 118.959 20.5857 118.331H20.5899Z" fill="#C8BBAD"/>
<path opacity="0.3" d="M20.5899 118.331C20.5344 117.734 20.4534 117.136 20.3296 116.552C20.0863 115.382 19.7535 114.239 19.3395 113.116C18.5031 110.833 17.3338 108.691 15.8871 106.74C15.0719 105.644 14.18 104.585 13.1729 103.659C13.143 103.629 13.1174 103.698 13.1387 103.723C14.7988 105.511 16.2583 107.432 17.3892 109.595C18.4903 111.704 19.3267 113.936 19.8474 116.257C19.9925 116.906 20.1333 117.559 20.2528 118.212C20.3723 118.877 20.4448 119.547 20.5558 120.213C20.5686 120.281 20.671 120.32 20.6753 120.23C20.7137 119.599 20.6454 118.959 20.5857 118.331H20.5899Z" fill="black"/>
<path d="M21.584 112.933C18.9082 113.761 16.9195 111.67 17.6066 108.392C18.2937 105.115 21.7376 101.479 23.0392 102.456C23.8501 101.645 25.6382 101.935 26.4831 104.598C27.3239 107.261 26.56 114.094 21.5882 112.933H21.584Z" fill="#C8BBAD"/>
<path opacity="0.25" d="M21.584 112.933C18.9082 113.761 16.9195 111.67 17.6066 108.392C18.2937 105.115 21.7376 101.479 23.0392 102.456C23.8501 101.645 25.6382 101.935 26.4831 104.598C27.3239 107.261 26.56 114.094 21.5882 112.933H21.584Z" fill="white"/>
<path d="M23.155 104.449C22.357 106.331 21.8363 108.35 21.3754 110.338C20.9017 112.37 20.5902 114.435 20.3427 116.505C19.8605 120.508 19.7794 124.558 19.805 128.586C19.8135 129.7 19.8263 130.814 19.8477 131.932C19.869 133.08 19.8477 134.241 19.9501 135.38C19.9885 135.82 20.6115 135.7 20.6201 135.299C20.6585 133.294 20.5475 131.279 20.5305 129.269C20.5091 127.285 20.5177 125.3 20.5689 123.316C20.6713 119.275 20.9658 115.233 21.6528 111.251C21.8449 110.142 22.054 109.032 22.3143 107.936C22.5874 106.779 22.9203 105.644 23.2233 104.496C23.2361 104.449 23.1806 104.389 23.155 104.453V104.449Z" fill="#C8BBAD"/>
<path opacity="0.3" d="M23.155 104.449C22.357 106.331 21.8363 108.35 21.3754 110.338C20.9017 112.37 20.5902 114.435 20.3427 116.505C19.8605 120.508 19.7794 124.558 19.805 128.586C19.8135 129.7 19.8263 130.814 19.8477 131.932C19.869 133.08 19.8477 134.241 19.9501 135.38C19.9885 135.82 20.6115 135.7 20.6201 135.299C20.6585 133.294 20.5475 131.279 20.5305 129.269C20.5091 127.285 20.5177 125.3 20.5689 123.316C20.6713 119.275 20.9658 115.233 21.6528 111.251C21.8449 110.142 22.054 109.032 22.3143 107.936C22.5874 106.779 22.9203 105.644 23.2233 104.496C23.2361 104.449 23.1806 104.389 23.155 104.453V104.449Z" fill="black"/>
<path d="M17.2273 122.543C16.058 123.866 13.3779 123.751 11.5813 121.387C9.78462 119.023 8.70492 110.142 11.2356 110.705C11.7733 109.519 18.7636 112.365 19.6598 118.165C20.3127 122.381 17.2315 122.543 17.2315 122.543H17.2273Z" fill="#C8BBAD"/>
<path opacity="0.25" d="M17.2273 122.543C16.058 123.866 13.3779 123.751 11.5813 121.387C9.78462 119.023 8.70492 110.142 11.2356 110.705C11.7733 109.519 18.7636 112.365 19.6598 118.165C20.3127 122.381 17.2315 122.543 17.2315 122.543H17.2273Z" fill="white"/>
<path d="M19.318 126.738C19.2455 126.188 19.1175 125.654 18.9724 125.117C18.6779 124.028 18.3322 122.957 17.9311 121.903C17.1117 119.748 16.0405 117.717 14.8072 115.775C14.1244 114.699 13.4074 113.624 12.5923 112.643C12.571 112.617 12.5497 112.677 12.5625 112.694C13.1855 113.603 13.8214 114.503 14.3804 115.455C14.9608 116.441 15.4857 117.465 15.9637 118.502C16.8898 120.499 17.6665 122.569 18.2682 124.686C18.4389 125.287 18.5797 125.898 18.759 126.495C18.9425 127.118 19.1772 127.728 19.3308 128.36C19.3522 128.45 19.4717 128.484 19.4589 128.36C19.4034 127.818 19.3863 127.272 19.3138 126.73L19.318 126.738Z" fill="#C8BBAD"/>
<path opacity="0.3" d="M19.318 126.738C19.2455 126.188 19.1175 125.654 18.9724 125.117C18.6779 124.028 18.3322 122.957 17.9311 121.903C17.1117 119.748 16.0405 117.717 14.8072 115.775C14.1244 114.699 13.4074 113.624 12.5923 112.643C12.571 112.617 12.5497 112.677 12.5625 112.694C13.1855 113.603 13.8214 114.503 14.3804 115.455C14.9608 116.441 15.4857 117.465 15.9637 118.502C16.8898 120.499 17.6665 122.569 18.2682 124.686C18.4389 125.287 18.5797 125.898 18.759 126.495C18.9425 127.118 19.1772 127.728 19.3308 128.36C19.3522 128.45 19.4717 128.484 19.4589 128.36C19.4034 127.818 19.3863 127.272 19.3138 126.73L19.318 126.738Z" fill="black"/>
<path d="M21.5068 121.229C19.979 120.879 19.9022 119.044 21.8141 116.786C23.726 114.533 28.5441 113.547 28.7745 114.499C29.8457 114.499 29.8457 117.853 27.4729 120.934C25.1001 124.016 21.6519 123.299 21.5068 121.229Z" fill="#C8BBAD"/>
<path opacity="0.25" d="M21.5068 121.229C19.979 120.879 19.9022 119.044 21.8141 116.786C23.726 114.533 28.5441 113.547 28.7745 114.499C29.8457 114.499 29.8457 117.853 27.4729 120.934C25.1001 124.016 21.6519 123.299 21.5068 121.229Z" fill="white"/>
<path d="M24.5027 117.952C23.4998 118.669 22.6121 119.488 21.8525 120.465C21.1014 121.438 20.5082 122.518 20.0729 123.666C20.0217 123.798 20.2479 123.99 20.3034 123.845C21.1569 121.592 22.6377 119.501 24.5112 117.981C24.524 117.973 24.5197 117.939 24.5027 117.952Z" fill="#C8BBAD"/>
<path opacity="0.3" d="M24.5027 117.952C23.4998 118.669 22.6121 119.488 21.8525 120.465C21.1014 121.438 20.5082 122.518 20.0729 123.666C20.0217 123.798 20.2479 123.99 20.3034 123.845C21.1569 121.592 22.6377 119.501 24.5112 117.981C24.524 117.973 24.5197 117.939 24.5027 117.952Z" fill="black"/>
<path d="M23.2573 132.423C21.1363 133.281 22.0453 135.803 24.1151 137.723C26.1849 139.639 29.1423 140.147 30.5634 140.045C31.9845 139.942 32.3515 139.75 32.3515 139.75C32.3515 139.75 32.5777 137.57 32.3387 136.242C32.0058 134.377 30.6402 131.753 27.3456 130.861C24.0511 129.969 23.2573 131.164 23.2573 132.427V132.423Z" fill="#C8BBAD"/>
<path opacity="0.45" d="M23.2573 132.423C21.1363 133.281 22.0453 135.803 24.1151 137.723C26.1849 139.639 29.1423 140.147 30.5634 140.045C31.9845 139.942 32.3515 139.75 32.3515 139.75C32.3515 139.75 32.5777 137.57 32.3387 136.242C32.0058 134.377 30.6402 131.753 27.3456 130.861C24.0511 129.969 23.2573 131.164 23.2573 132.427V132.423Z" fill="white"/>
<path d="M29.1211 136.148C28.1396 135.052 27.1154 133.959 25.8778 133.144C24.67 132.35 23.0612 131.672 21.6145 132.167C21.0554 132.359 20.1805 132.918 20.2872 133.614C20.2958 133.682 20.4195 133.853 20.5049 133.759C20.7652 133.46 20.9487 133.114 21.2688 132.867C21.6017 132.611 21.9943 132.483 22.4082 132.436C23.4196 132.316 24.4908 132.641 25.3785 133.11C26.8124 133.87 27.9689 135.047 29.1083 136.178C29.1211 136.191 29.1339 136.157 29.1254 136.144L29.1211 136.148Z" fill="#C8BBAD"/>
<path opacity="0.3" d="M29.1211 136.148C28.1396 135.052 27.1154 133.959 25.8778 133.144C24.67 132.35 23.0612 131.672 21.6145 132.167C21.0554 132.359 20.1805 132.918 20.2872 133.614C20.2958 133.682 20.4195 133.853 20.5049 133.759C20.7652 133.46 20.9487 133.114 21.2688 132.867C21.6017 132.611 21.9943 132.483 22.4082 132.436C23.4196 132.316 24.4908 132.641 25.3785 133.11C26.8124 133.87 27.9689 135.047 29.1083 136.178C29.1211 136.191 29.1339 136.157 29.1254 136.144L29.1211 136.148Z" fill="black"/>
<path d="M15.187 121.57C15.3876 120.606 13.9963 118.293 9.65195 117.849C5.30756 117.405 2.0514 119.249 1.39419 120.089C0.736984 120.93 0.408381 121.818 1.19361 122.04C1.98312 122.262 4.6973 122.526 6.48114 123.346C8.26499 124.165 11.8882 126.589 14.3591 125.868C16.83 125.147 16.4161 122.526 15.187 121.566V121.57Z" fill="#C8BBAD"/>
<path opacity="0.45" d="M15.187 121.57C15.3876 120.606 13.9963 118.293 9.65195 117.849C5.30756 117.405 2.0514 119.249 1.39419 120.089C0.736984 120.93 0.408381 121.818 1.19361 122.04C1.98312 122.262 4.6973 122.526 6.48114 123.346C8.26499 124.165 11.8882 126.589 14.3591 125.868C16.83 125.147 16.4161 122.526 15.187 121.566V121.57Z" fill="white"/>
<path d="M18.4905 124.933C16.6597 121.148 11.9355 119.991 8.07337 120.013C6.7931 120.021 5.54697 120.179 4.30937 120.504C4.2923 120.508 4.28803 120.55 4.30937 120.546C6.37914 120.218 8.52574 120.145 10.5998 120.482C12.6482 120.815 14.6625 121.451 16.3482 122.697C17.1761 123.312 17.8803 124.114 18.4052 125.002C18.4607 125.095 18.5289 125.006 18.4905 124.929V124.933Z" fill="#C8BBAD"/>
<path opacity="0.3" d="M18.4905 124.933C16.6597 121.148 11.9355 119.991 8.07337 120.013C6.7931 120.021 5.54697 120.179 4.30937 120.504C4.2923 120.508 4.28803 120.55 4.30937 120.546C6.37914 120.218 8.52574 120.145 10.5998 120.482C12.6482 120.815 14.6625 121.451 16.3482 122.697C17.1761 123.312 17.8803 124.114 18.4052 125.002C18.4607 125.095 18.5289 125.006 18.4905 124.929V124.933Z" fill="black"/>
<path d="M25.3093 116.5C25.2538 118.02 27.3918 118.903 29.4616 117.589C31.5314 116.274 33.6993 114.994 35.6197 114.499C37.5359 114.004 38.4449 112.438 37.8389 111.682C37.2329 110.927 36.2684 109.015 31.2284 109.638C26.1841 110.261 24.4003 112.532 23.7089 114.136C23.0176 115.741 24.5496 116.936 25.3093 116.496V116.5Z" fill="#C8BBAD"/>
<path opacity="0.45" d="M25.3093 116.5C25.2538 118.02 27.3918 118.903 29.4616 117.589C31.5314 116.274 33.6993 114.994 35.6197 114.499C37.5359 114.004 38.4449 112.438 37.8389 111.682C37.2329 110.927 36.2684 109.015 31.2284 109.638C26.1841 110.261 24.4003 112.532 23.7089 114.136C23.0176 115.741 24.5496 116.936 25.3093 116.496V116.5Z" fill="white"/>
<path d="M33.5159 111.674C32.8032 111.563 32.0435 111.725 31.3522 111.9C30.7163 112.062 30.0975 112.288 29.5001 112.562C28.3179 113.112 27.2382 113.893 26.3463 114.845C26.0945 115.114 25.8513 115.399 25.6336 115.702C25.4373 115.971 25.2026 116.266 25.0959 116.586C25.0618 116.684 25.2069 116.85 25.2965 116.748C25.544 116.462 25.7318 116.108 25.9665 115.805C26.2183 115.481 26.4872 115.169 26.7773 114.875C27.3577 114.286 28.0149 113.773 28.7191 113.342C29.4019 112.924 30.1189 112.57 30.87 112.293C31.2839 112.143 31.6979 112.024 32.1246 111.917C32.577 111.802 33.0251 111.691 33.4945 111.725C33.5201 111.725 33.5329 111.674 33.5073 111.67L33.5159 111.674Z" fill="#C8BBAD"/>
<path opacity="0.3" d="M33.5159 111.674C32.8032 111.563 32.0435 111.725 31.3522 111.9C30.7163 112.062 30.0975 112.288 29.5001 112.562C28.3179 113.112 27.2382 113.893 26.3463 114.845C26.0945 115.114 25.8513 115.399 25.6336 115.702C25.4373 115.971 25.2026 116.266 25.0959 116.586C25.0618 116.684 25.2069 116.85 25.2965 116.748C25.544 116.462 25.7318 116.108 25.9665 115.805C26.2183 115.481 26.4872 115.169 26.7773 114.875C27.3577 114.286 28.0149 113.773 28.7191 113.342C29.4019 112.924 30.1189 112.57 30.87 112.293C31.2839 112.143 31.6979 112.024 32.1246 111.917C32.577 111.802 33.0251 111.691 33.4945 111.725C33.5201 111.725 33.5329 111.674 33.5073 111.67L33.5159 111.674Z" fill="black"/>
<path d="M21.6907 124.703C20.9823 123.994 19.0661 124.161 18.1571 126.248C17.2481 128.335 19.1557 130.622 19.3691 131.262C20.244 130.754 20.9268 131.057 22.4674 130.754C24.008 130.451 25.523 128.825 25.4248 126.913C25.3266 125.002 24.5158 123.738 21.6907 124.699V124.703Z" fill="#C8BBAD"/>
<path opacity="0.45" d="M21.6907 124.703C20.9823 123.994 19.0661 124.161 18.1571 126.248C17.2481 128.335 19.1557 130.622 19.3691 131.262C20.244 130.754 20.9268 131.057 22.4674 130.754C24.008 130.451 25.523 128.825 25.4248 126.913C25.3266 125.002 24.5158 123.738 21.6907 124.699V124.703Z" fill="white"/>
<path d="M21.6648 124.494C21.285 124.677 20.9607 125.125 20.7302 125.463C20.4827 125.825 20.2779 126.222 20.1242 126.632C19.8127 127.473 19.6847 128.403 19.8554 129.291C19.8639 129.325 19.8895 129.291 19.8895 129.273C19.8298 128.369 19.9621 127.473 20.3376 126.645C20.5083 126.269 20.7217 125.915 20.9735 125.591C21.1058 125.42 21.2466 125.253 21.4003 125.1C21.5283 124.967 21.7075 124.852 21.8057 124.694C21.8569 124.613 21.7758 124.443 21.6691 124.494H21.6648Z" fill="#C8BBAD"/>
<path opacity="0.3" d="M21.6648 124.494C21.285 124.677 20.9607 125.125 20.7302 125.463C20.4827 125.825 20.2779 126.222 20.1242 126.632C19.8127 127.473 19.6847 128.403 19.8554 129.291C19.8639 129.325 19.8895 129.291 19.8895 129.273C19.8298 128.369 19.9621 127.473 20.3376 126.645C20.5083 126.269 20.7217 125.915 20.9735 125.591C21.1058 125.42 21.2466 125.253 21.4003 125.1C21.5283 124.967 21.7075 124.852 21.8057 124.694C21.8569 124.613 21.7758 124.443 21.6691 124.494H21.6648Z" fill="black"/>
<path d="M18.3665 128.932C18.3025 127.379 16.6168 126.145 14.2227 125.433C11.8243 124.72 9.2339 125.322 7.48846 127.225C5.74302 129.128 4.83403 130.746 5.54672 131.198C6.2594 131.651 9.43448 132.816 11.5043 133.464C13.5783 134.113 16.2967 134.305 18.3708 133.076C20.4448 131.847 20.3125 129.709 18.3708 128.932H18.3665Z" fill="#C8BBAD"/>
<path opacity="0.25" d="M18.3665 128.932C18.3025 127.379 16.6168 126.145 14.2227 125.433C11.8243 124.72 9.2339 125.322 7.48846 127.225C5.74302 129.128 4.83403 130.746 5.54672 131.198C6.2594 131.651 9.43448 132.816 11.5043 133.464C13.5783 134.113 16.2967 134.305 18.3708 133.076C20.4448 131.847 20.3125 129.709 18.3708 128.932H18.3665Z" fill="white"/>
<path d="M18.4991 128.757C17.7309 128.309 16.7707 128.151 15.8959 128.061C15.0296 127.972 14.1547 127.989 13.2884 128.091C12.3751 128.198 11.4704 128.403 10.587 128.663C10.1261 128.8 9.66948 128.949 9.21712 129.115C8.79463 129.269 8.35933 129.414 7.96245 129.632C7.94538 129.64 7.93684 129.692 7.96245 129.687C8.40201 129.598 8.83303 129.423 9.25979 129.29C9.72069 129.15 10.1859 129.013 10.6553 128.889C11.5301 128.663 12.4178 128.48 13.3183 128.386C14.2144 128.292 15.1277 128.283 16.0239 128.394C16.8689 128.501 17.6627 128.761 18.4735 128.992C18.6399 129.039 18.593 128.804 18.4948 128.753L18.4991 128.757Z" fill="#C8BBAD"/>
<path opacity="0.3" d="M18.4991 128.757C17.7309 128.309 16.7707 128.151 15.8959 128.061C15.0296 127.972 14.1547 127.989 13.2884 128.091C12.3751 128.198 11.4704 128.403 10.587 128.663C10.1261 128.8 9.66948 128.949 9.21712 129.115C8.79463 129.269 8.35933 129.414 7.96245 129.632C7.94538 129.64 7.93684 129.692 7.96245 129.687C8.40201 129.598 8.83303 129.423 9.25979 129.29C9.72069 129.15 10.1859 129.013 10.6553 128.889C11.5301 128.663 12.4178 128.48 13.3183 128.386C14.2144 128.292 15.1277 128.283 16.0239 128.394C16.8689 128.501 17.6627 128.761 18.4735 128.992C18.6399 129.039 18.593 128.804 18.4948 128.753L18.4991 128.757Z" fill="black"/>
<path d="M23.3124 126.619C21.6011 125.258 22.1687 121.993 28.1646 121.818C34.1605 121.643 38.4409 123.205 38.2489 125.138C39.2134 126.102 38.7226 128.804 33.8703 129.649C29.0181 130.494 22.0705 130.071 23.3081 126.619H23.3124Z" fill="#C8BBAD"/>
<path opacity="0.25" d="M23.3124 126.619C21.6011 125.258 22.1687 121.993 28.1646 121.818C34.1605 121.643 38.4409 123.205 38.2489 125.138C39.2134 126.102 38.7226 128.804 33.8703 129.649C29.0181 130.494 22.0705 130.071 23.3081 126.619H23.3124Z" fill="white"/>
<path d="M35.4284 125.159C33.6744 124.835 31.8522 124.797 30.0726 124.848C28.4296 124.895 26.7226 124.972 25.1265 125.415C24.7125 125.531 24.3071 125.676 23.9188 125.864C23.7395 125.949 23.5646 126.043 23.3938 126.145C23.2573 126.226 23.1079 126.299 23.0567 126.461C23.0268 126.559 23.1378 126.674 23.2359 126.653C23.5987 126.568 23.9401 126.286 24.2858 126.132C24.6229 125.983 24.9686 125.859 25.3228 125.753C26.0013 125.552 26.7012 125.428 27.4054 125.343C29.0783 125.134 30.7768 125.04 32.4667 125.065C33.4525 125.078 34.4341 125.155 35.4156 125.232C35.4455 125.232 35.4583 125.168 35.4284 125.164V125.159Z" fill="#C8BBAD"/>
<path opacity="0.3" d="M35.4284 125.159C33.6744 124.835 31.8522 124.797 30.0726 124.848C28.4296 124.895 26.7226 124.972 25.1265 125.415C24.7125 125.531 24.3071 125.676 23.9188 125.864C23.7395 125.949 23.5646 126.043 23.3938 126.145C23.2573 126.226 23.1079 126.299 23.0567 126.461C23.0268 126.559 23.1378 126.674 23.2359 126.653C23.5987 126.568 23.9401 126.286 24.2858 126.132C24.6229 125.983 24.9686 125.859 25.3228 125.753C26.0013 125.552 26.7012 125.428 27.4054 125.343C29.0783 125.134 30.7768 125.04 32.4667 125.065C33.4525 125.078 34.4341 125.155 35.4156 125.232C35.4455 125.232 35.4583 125.168 35.4284 125.164V125.159Z" fill="black"/>
<path d="M160.6 154.503C160.669 150.897 160.323 134.817 160.323 134.817L170.958 134.928C169.438 148.482 168.773 153.07 168.517 154.512L168.418 155.191C168.435 155.237 168.457 155.404 168.47 155.703C168.572 158.088 165.858 159.518 163.767 161.216C162.939 161.886 160.54 163.871 158.087 165.224C156.55 166.073 153.362 166.308 152.923 165.343C155.466 163.256 157.143 161.643 159.136 159.309C160.088 158.195 160.558 156.851 160.6 154.495V154.503Z" fill="#FFA8A7"/>
<path d="M147.362 168.556C147.217 168.565 147.072 170.114 147.883 170.729C148.822 171.437 151.527 172.542 155.005 171.919C158.483 171.301 160.331 170.148 161.68 168.941C163.028 167.729 164.919 166.026 166.485 165.603C167.94 165.211 169.507 164.485 169.959 164.016C170.411 163.551 170.253 161.592 170.253 161.592L147.362 168.552V168.556Z" fill="black"/>
<path d="M157.741 159.411C157.954 159.181 158.163 158.942 158.364 158.707C158.552 158.485 158.722 158.25 158.872 158.007C158.923 157.926 158.97 157.845 159.03 157.768C159.098 157.683 159.132 157.597 159.17 157.495C159.273 157.23 159.375 156.966 159.478 156.706C159.661 156.228 159.887 155.707 160.348 155.494C160.694 155.336 161.091 155.383 161.466 155.442C162.41 155.592 163.348 155.788 164.274 156.031C164.496 156.091 164.731 156.159 164.885 156.33C165.23 156.714 164.97 157.312 164.834 157.811C164.782 158.007 164.816 158.297 165.021 158.306C165.102 158.306 165.175 158.259 165.235 158.208C165.879 157.666 166.152 156.74 166.873 156.3C167.368 155.997 168.073 155.703 168.405 155.233L168.508 154.516C168.76 154.508 168.952 154.589 169.075 154.734C169.289 154.981 169.323 155.472 169.344 155.673C169.408 156.223 169.434 156.718 169.528 157.269C169.673 158.11 169.95 158.622 170.138 159.368C170.343 160.171 170.458 161.011 170.356 161.844C170.305 162.262 170.164 162.475 169.865 162.787C169.442 163.226 168.977 163.534 168.423 163.802C167.693 164.157 166.933 164.447 166.186 164.763C164.65 165.424 162.892 166.709 161.364 168.062C159.781 169.461 156.379 170.963 154.101 171.113C150.622 171.343 148.113 170.332 147.362 169.15C147.247 168.326 147.14 167.473 147.477 166.858C148.574 164.857 151.241 164.059 153.345 162.855C154.263 162.33 155.138 161.673 155.974 161.033C156.597 160.555 157.182 160 157.728 159.411H157.741Z" fill="#37474F"/>
<path d="M159.742 164.609C159.614 164.69 159.452 164.665 159.345 164.558C157.826 163.03 154.971 162.117 153.998 162.462C153.998 162.462 154.118 161.993 155.082 161.711C155.082 161.711 157.613 161.468 160.105 163.901C160.259 164.05 160.224 164.31 160.045 164.421L159.738 164.609H159.742Z" fill="#FAFAFA"/>
<path d="M156.384 160.717C157.434 160.316 159.96 161.455 161.206 162.706C161.317 162.817 161.484 162.834 161.607 162.736L161.919 162.497C162.072 162.381 162.085 162.151 161.944 162.019C161.236 161.357 159.213 159.663 157.246 159.927C157.246 159.927 156.469 160.32 156.388 160.713L156.384 160.717Z" fill="#FAFAFA"/>
<path d="M158.364 158.707C159.115 158.532 161.1 158.971 162.751 160.294C162.888 160.405 163.088 160.367 163.165 160.209L163.315 159.919C163.374 159.799 163.345 159.654 163.242 159.569C162.662 159.104 160.741 157.704 158.911 157.943C158.911 157.943 158.454 158.319 158.364 158.707Z" fill="#FAFAFA"/>
<path d="M152.069 163.529C156.414 164.481 158.082 167.323 158.868 169.653C157.31 170.422 155.505 171.015 154.114 171.104C150.636 171.335 148.126 170.323 147.375 169.141C147.26 168.318 147.157 167.464 147.49 166.85C148.369 165.245 150.264 164.413 152.069 163.525V163.529Z" fill="#BA68C8"/>
<path d="M152.069 163.529C155.573 163.564 158.829 166.542 158.868 169.653C157.31 170.422 155.505 171.015 154.114 171.104C150.636 171.335 148.126 170.323 147.375 169.141C147.26 168.318 147.157 167.464 147.49 166.85C148.369 165.245 150.264 164.413 152.069 163.525V163.529Z" fill="#FAFAFA"/>
<path d="M179.843 139.618L189.927 138.338C190.665 144.522 191.352 153.112 191.903 158.861L192.065 161.046C192.065 161.046 193.717 168.808 193.367 171.143C192.838 174.651 187.477 173.865 187.128 171.787C186.773 169.709 185.523 165.8 184.512 160.312C184.106 158.319 179.911 139.942 179.843 139.614V139.618Z" fill="#FFA8A7"/>
<path d="M185.715 174.51L188.745 166.372C189.641 165.761 190.678 164.558 191.749 165.13C192.116 165.326 192.483 165.522 192.79 165.813C193.606 166.585 193.742 167.763 194.024 168.817C194.314 169.897 195.069 170.806 195.291 171.894C195.705 173.955 195.855 175.265 195.441 177.211C195.027 179.153 193.35 180.335 191.643 180.98C190.213 181.517 188.348 181.21 187.465 179.934C186.355 178.329 185.907 176.746 185.715 174.514V174.51Z" fill="black"/>
<path d="M185.715 174.51C186.944 172.504 193.555 171.339 195.458 172.961C195.424 172.709 195.386 172.436 195.339 172.15C194.912 169.517 194.677 169.077 193.918 166.67C193.512 165.386 193.299 164.468 193.09 163.269C192.881 162.07 192.697 160.704 192.578 159.859C192.415 158.69 191.908 158.861 191.908 158.861L192.07 161.046C192.07 161.046 191.916 161.106 191.818 160.662C191.72 160.218 191.728 159.573 191.319 159.373C190.329 158.886 186.116 159.966 185.323 160.777C185.169 160.931 184.977 161.059 185.156 161.95C185.271 162.518 185.284 162.736 185.062 162.825L184.516 160.316C184.132 160.44 184.03 160.926 184.196 161.797C184.627 164.042 185.156 165.019 185.323 166.888C185.468 168.548 185.425 169.956 185.515 171.86C185.553 172.662 185.528 173.251 185.72 174.506L185.715 174.51Z" fill="#37474F"/>
<path d="M193.073 169.077C191.22 168.907 188.293 169.517 186.996 170.247C186.885 170.311 186.752 170.225 186.748 170.093L186.714 169.649C186.714 169.581 186.739 169.513 186.795 169.478C187.269 169.188 189.565 167.887 192.979 168.318C193.051 168.326 193.115 168.386 193.132 168.463L193.252 168.855C193.282 168.979 193.188 169.09 193.068 169.082L193.073 169.077Z" fill="#FAFAFA"/>
<path d="M192.505 166.606C190.666 166.483 188.459 166.828 186.833 167.776C186.722 167.84 186.594 167.759 186.586 167.639L186.564 167.263C186.564 167.199 186.594 167.14 186.65 167.106C187.123 166.828 189.07 165.646 192.462 165.975C192.535 165.983 192.595 166.034 192.612 166.103L192.688 166.397C192.714 166.512 192.62 166.615 192.501 166.611L192.505 166.606Z" fill="#FAFAFA"/>
<path d="M192.01 164.071C190.171 163.948 188.169 164.234 186.543 165.181C186.432 165.245 186.304 165.164 186.296 165.044L186.274 164.669C186.274 164.605 186.304 164.545 186.36 164.511C186.833 164.234 188.575 163.111 191.967 163.44C192.04 163.448 192.1 163.5 192.117 163.568L192.194 163.862C192.219 163.978 192.125 164.08 192.006 164.071H192.01Z" fill="#FAFAFA"/>
<path d="M195.445 172.987C195.603 174.856 195.522 176.145 194.677 177.6C193.597 179.46 189.351 181.394 187.332 178.842C186.329 177.574 185.886 176.076 185.715 174.51C186.841 172.457 193.554 171.331 195.445 172.987Z" fill="#FAFAFA"/>
<path d="M186.355 89.5425C187.405 100.51 187.938 108.277 188.497 116.381C188.984 123.427 189.013 125.369 189.769 131.279C191.002 140.933 191.587 153.543 191.587 153.543C191.587 153.543 188.151 155.873 183.171 155.105C183.171 155.105 179.3 142.422 177.512 133.2C175.878 124.776 173.509 111.375 173.509 111.375L172.067 123.077C172.067 123.077 172.212 124.852 171.521 132.013C171.175 135.568 169.331 151.158 169.331 151.158C169.331 151.158 164.3 152.353 160.412 150.607C160.412 150.607 159.729 128.087 159.631 124.818C159.49 120.188 159.025 88.7572 158.936 85.2578L186.355 89.5425Z" fill="#455A64"/>
<path d="M160.237 151.397C164.21 153.18 169.332 151.87 169.332 151.87L169.664 149.041C169.664 149.041 168.491 149.719 165.41 149.681C162.328 149.643 160.237 148.759 160.237 148.759V151.397Z" fill="#37474F"/>
<path opacity="0.3" d="M173.509 111.371L171.525 99.8956C171.525 99.8956 167.684 99.9254 164.773 96.6309C166.131 100.045 170.291 101.201 170.291 101.201L172.387 112.301L172.067 123.077L173.509 111.375V111.371Z" fill="black"/>
<path d="M183.253 156.121C187.559 156.795 191.792 154.384 191.792 154.384L191.643 151.525C191.643 151.525 190.768 152.327 187.785 153.104C184.802 153.88 182.553 153.577 182.553 153.577L183.248 156.121H183.253Z" fill="#37474F"/>
<path d="M134.141 80.6701C136.958 80.8066 142.186 80.9944 146.654 81.1224C151.344 81.259 152.304 81.5535 154.54 78.7838C156.794 75.9928 160.882 69.6341 160.882 69.6341C160.882 69.6341 164.458 59.9211 163.536 56.187C159.935 55.9651 157.651 57.4374 156.392 59.2724C154.737 61.6836 147.606 73.1293 147.606 73.1293C147.606 73.1293 137.035 74.2004 134.478 73.9913C131.922 73.7822 131.158 73.2488 130.023 72.4038C128.312 71.1278 127.501 71.1619 126.037 69.4762C125.337 68.6739 124.825 69.792 124.983 70.5431C125.303 72.0581 126.707 73.1975 126.618 73.7651C126.562 74.1279 125.977 74.1407 124.936 73.8846C122.939 73.3939 121.125 72.6086 119.149 72.0837C118.39 71.8831 117.412 71.8447 116.836 72.5275C116.802 72.5702 116.768 72.6172 116.759 72.6726C116.747 72.7665 116.811 72.8519 116.875 72.9202C117.037 73.0994 117.22 73.2573 117.417 73.3939C117.558 73.492 117.984 73.7566 117.984 73.7566C117.984 73.7566 117.412 74.2303 117.583 74.5504C117.771 74.8918 118.283 75.4124 118.821 75.6045C118.774 76.0099 118.876 76.7994 120.178 77.2389C120.071 77.5547 120.523 78.357 122.158 79.0953C123.43 79.6715 125.606 80.2433 127.087 80.4951C129.528 80.9048 131.312 80.5292 134.128 80.6615L134.141 80.6701Z" fill="#FFA8A7"/>
<path d="M163.993 55.0005C160.254 55.184 158.146 56.0631 155.714 59.9594C153.234 63.924 150.17 68.9213 150.17 68.9213C150.17 68.9213 152.21 69.4334 154.484 70.5686C156.759 71.7038 157.941 74.2345 157.941 74.2345L161.099 69.6511C163.075 64.7818 164.36 59.2638 163.997 55.0005H163.993Z" fill="#263238"/>
<path d="M126.955 74.9983C127.587 76.1505 130.169 77.593 132.392 77.0083C131.065 77.9344 129.46 77.4223 128.683 77.0979C127.911 76.7736 127.117 75.7835 126.955 74.9983Z" fill="#F28F8F"/>
<path d="M185.639 57.1471C185.639 57.1471 187.145 60.4502 187.068 64.5556C186.996 68.4562 186.437 73.8632 186.168 79.9317C185.976 84.2718 186.898 93.2252 186.898 93.2252C182.442 97.0106 163.375 98.1201 158.813 92.4314C158.813 92.4314 158.749 82.8465 158.907 75.4806C159.009 70.5473 159.21 65.1104 159.683 62.4816C160.78 56.396 162.807 55.8839 163.998 54.9963C166.302 54.4329 168.816 53.7544 168.816 53.7544C168.816 53.7544 169.669 53.1569 174.594 53.7331C178.9 54.2366 185.643 57.1471 185.643 57.1471H185.639Z" fill="#37474F"/>
<path d="M177.816 50.5324C179.43 47.5878 180.979 45.6845 182.054 42.471C182.489 41.1694 183.108 38.1863 182.37 36.4964C181.854 35.3185 181.09 34.401 179.805 34.4095C180.095 32.7324 179.285 31.7508 178.576 31.0595C177.868 30.3681 176.741 30.1377 175.819 30.5047C175.695 29.664 175.064 28.9172 174.253 28.6611C173.442 28.4051 172.495 28.6526 171.914 29.2756C171.287 28.0935 170.088 28.0039 169.52 28.0509C168.522 28.1362 167.604 28.8702 167.305 29.8262C166.576 29.2372 165.679 28.8062 164.741 28.8147C163.802 28.8233 162.837 29.3439 162.492 30.2188C162.154 31.068 162.44 32.0197 162.739 32.8818C162.304 32.5659 161.672 32.5403 161.211 32.822C160.75 33.1037 160.49 33.6798 160.575 34.2132C160.631 34.5632 160.827 34.896 160.789 35.2503C160.755 35.5575 160.529 35.8392 160.234 35.9331C159.94 36.027 159.59 35.9331 159.385 35.7069C159.261 36.2617 159.436 36.8805 159.837 37.2859C160.238 37.6913 160.853 37.8705 161.412 37.7511C161.314 38.2376 161.531 38.771 161.937 39.0527C162.231 39.2575 162.688 39.313 163.038 39.2447C163.038 39.2447 177.735 50.477 177.816 50.541V50.5324Z" fill="#263238"/>
<path d="M163.371 47.8608C163.875 50.1867 164.813 51.2535 166.401 51.7998C167.485 52.1711 169.017 52.043 169.017 52.043L168.919 54.3262C168.104 56.1229 168.232 57.2879 168.863 61.3208C171.287 58.1286 175.325 59.1315 177.778 54.9151L177.851 47.2164C177.851 47.2164 178.85 48.3857 180.54 47.3188C181.696 46.5848 182.55 44.6644 181.743 42.8678C180.941 41.1052 179.272 41.8051 178.751 42.3258C178.235 42.8507 177.646 43.7341 177.198 43.6957C176.511 43.6359 176.344 43.0598 176.187 42.6288C175.901 41.8734 175.704 40.9047 175.696 39.2318C175.239 38.9885 174.608 38.7581 174.416 38.2118C173.716 36.2317 174.394 35.6214 174.787 34.7594C172.994 33.5559 170.344 35.7366 168.339 35.9927C166.043 36.2829 165.526 34.9685 164.276 35.1264C163.708 36.2487 163.328 37.5461 163.166 39.1507C162.902 41.7923 162.693 44.6772 163.38 47.8566L163.371 47.8608Z" fill="#FFA8A7"/>
<path d="M169.021 52.0433C170.856 51.9664 174.556 51.1684 175.555 50.157C176.553 49.1498 177.001 47.063 177.001 47.063C177.001 47.063 176.814 49.7046 176.037 50.8611C175.26 52.0176 173.335 52.4956 172.166 52.7687C170.997 53.0419 168.97 53.204 168.97 53.204L169.021 52.0433Z" fill="#F28F8F"/>
<path d="M170.681 46.6404L168.343 47.336C168.522 48.006 169.192 48.3901 169.836 48.198C170.481 48.006 170.861 47.3104 170.681 46.6404Z" fill="#B16668"/>
<path d="M170.52 47.1738C169.871 47.1439 169.308 47.5835 169.158 48.1937C169.372 48.2578 169.602 48.2663 169.832 48.198C170.298 48.0615 170.618 47.6603 170.699 47.1994C170.639 47.1866 170.579 47.1781 170.52 47.1738Z" fill="#F28F8F"/>
<path d="M164.126 39.855L165.837 39.0911C165.641 38.6089 165.103 38.3869 164.629 38.5961C164.156 38.8052 163.934 39.3685 164.126 39.855Z" fill="#263238"/>
<path d="M172.516 39.7951L170.724 39.1721C170.877 38.6685 171.406 38.3954 171.901 38.5703C172.397 38.741 172.67 39.2915 172.516 39.7951Z" fill="#263238"/>
<path d="M165.999 41.6304C166.025 42.0571 165.692 42.4327 165.265 42.4668C164.834 42.501 164.467 42.1852 164.442 41.7584C164.416 41.3316 164.749 40.9561 165.176 40.922C165.607 40.8878 165.974 41.2036 165.999 41.6261V41.6304Z" fill="#263238"/>
<path d="M171.735 41.7028C171.76 42.1295 171.428 42.5051 171.001 42.5392C170.57 42.5734 170.203 42.2576 170.177 41.8351C170.152 41.4083 170.484 41.0328 170.911 40.9986C171.342 40.9645 171.709 41.2803 171.735 41.7028Z" fill="#263238"/>
<path d="M165.517 44.9122L168.034 45.9236L168.854 41.0073C167.949 40.7982 166.451 43.2179 165.521 44.9122H165.517Z" fill="#F28F8F"/>
<path d="M168.862 61.3208C169.251 60.8258 170.753 59.3065 172.238 60.2411C173.719 61.1757 174.594 62.2682 174.594 62.2682C174.594 62.2682 177.905 59.7589 179.467 56.7246C180.112 55.47 180.009 55.2182 179.467 54.1086C178.925 52.999 178.456 52.4229 178.174 52.1583C178.038 52.0303 177.803 52.0516 177.803 52.0516L177.794 52.9478C177.794 52.9478 177.222 55.1499 175.106 57.0575C172.989 58.9651 169.793 58.628 168.862 61.3208Z" fill="#263238"/>
<path d="M168.863 61.3209C168.658 59.8102 168.607 57.9111 168.739 56.8527C168.871 55.7944 168.918 54.3263 168.918 54.3263L168.991 52.6577C168.991 52.6577 168.44 52.854 167.868 53.6563C167.408 54.3007 166.652 55.0945 166.008 56.8741C165.363 58.6579 165.346 59.3663 165.316 59.9723C165.824 59.3407 167.275 58.8244 167.715 59.4816C168.154 60.1345 168.867 61.3209 168.867 61.3209H168.863Z" fill="#263238"/>
<path d="M167.036 91.0574C169.784 90.4343 174.76 89.8155 179.1 88.7444C183.658 87.6177 184.149 87.2379 185.566 83.969C186.991 80.6787 187.623 78.8777 189.232 73.3598C190.84 67.8418 193.055 59.8785 185.634 57.5911C183.97 59.0676 182.856 62.4732 182.13 64.5771C181.183 67.3425 177.376 79.9404 177.376 79.9404C177.376 79.9404 167.48 84.1439 164.962 84.6304C162.444 85.1127 161.565 84.8054 160.246 84.2933C158.253 83.5209 157.485 83.7726 155.62 82.5436C154.733 81.9589 154.536 83.1709 154.89 83.8537C155.603 85.2279 157.532 85.6888 157.08 86.2905C156.841 86.6063 156.077 86.8282 155.061 86.8709C153.008 86.9563 151.033 86.8197 148.835 87.2806C147.738 87.511 147.17 87.7628 146.803 88.5737C146.782 88.6249 146.765 88.6804 146.769 88.7358C146.782 89.2906 148.242 89.2992 148.242 89.2992C148.242 89.2992 147.819 89.7515 148.071 90.3276C148.229 90.6861 148.976 90.972 149.547 91.0105C149.611 91.4159 149.714 91.9792 151.084 92.056C151.067 92.3889 152.052 93.1058 153.828 93.379C155.206 93.5966 157.976 93.3235 159.465 93.1144C162.124 92.7431 164.292 91.6847 167.04 91.0617L167.036 91.0574Z" fill="#FFA8A7"/>
<path d="M185.638 57.1471C188.613 58.3164 190.482 59.8186 191.075 61.6963C191.668 63.5783 191.156 67.2399 190.034 71.1447C189.044 74.5972 187.806 78.3313 187.806 78.3313C187.806 78.3313 187.247 76.3597 183.94 75.0026C181.046 73.8162 179.104 73.8973 179.104 73.8973C179.104 73.8973 181.456 66.0194 182.058 64.1545C182.659 62.2895 183.573 58.6962 185.642 57.1428L185.638 57.1471Z" fill="#263238"/>
<path d="M128.397 171.488L85.6401 146.8C84.1635 145.951 82.9558 143.86 82.9558 142.144V35.7794C83.0241 35.8178 83.0923 35.8605 83.1692 35.9032C91.4184 40.6914 120.421 57.3733 125.687 60.446C126.216 60.7533 126.502 61.0605 126.511 61.0648C127.607 62.089 128.397 63.7278 128.397 65.1147V171.484V171.488ZM136.68 55.3377C136.68 54.2068 136.283 52.9479 135.639 51.834C134.999 50.7202 134.111 49.7472 133.125 49.1753L82.8534 20.1515C80.886 19.0206 78.6114 19.5029 77.233 20.3009C75.8503 21.0989 74.2969 21.961 74.2969 25.0934V147.761C74.2969 148.802 74.4676 149.707 74.7706 150.483C75.4064 152.148 76.6227 153.21 77.8475 153.919L128.12 182.943C130.083 184.073 132.49 183.203 133.877 182.405C135.255 181.607 136.68 180.271 136.68 178.001V55.3377Z" fill="#3B82F6"/>
<path d="M136.68 55.3377V178.005C136.68 180.275 135.259 181.611 133.876 182.409C132.494 183.207 130.083 184.082 128.119 182.947L77.8474 153.923C76.6226 153.215 75.4064 152.152 74.7705 150.488L74.9711 150.372L75.5259 150.052C76.0209 151.281 76.9214 152.438 77.9456 153.027L127.018 181.359C129.131 182.58 130.855 181.585 130.855 179.149V57.4715C130.855 56.682 130.578 55.7986 130.13 55.0176L135.643 51.834C136.288 52.9478 136.685 54.2025 136.685 55.3377H136.68Z" fill="#3B82F6"/>
<path opacity="0.4" d="M136.68 55.3377V178.005C136.68 180.275 135.259 181.611 133.876 182.409C132.494 183.207 130.083 184.082 128.119 182.947L77.8474 153.923C76.6226 153.215 75.4064 152.152 74.7705 150.488L74.9711 150.372L75.5259 150.052C76.0209 151.281 76.9214 152.438 77.9456 153.027L127.018 181.359C129.131 182.58 130.855 181.585 130.855 179.149V57.4715C130.855 56.682 130.578 55.7986 130.13 55.0176L135.643 51.834C136.288 52.9478 136.685 54.2025 136.685 55.3377H136.68Z" fill="black"/>
<path d="M128.397 171.488L85.6404 146.8C84.1638 145.951 82.9561 143.86 82.9561 142.144V35.7794C83.0244 35.8178 83.0927 35.8605 83.1695 35.9031C91.4187 40.6913 120.421 57.3733 125.687 60.446C126.217 60.7532 126.502 61.0605 126.511 61.0648C127.608 62.089 128.397 63.7277 128.397 65.1147V171.484V171.488ZM130.855 57.4715C130.855 56.682 130.578 55.7986 130.13 55.0176C129.673 54.2366 129.05 53.5453 128.359 53.1484L77.9417 24.0393C76.384 23.1388 75.1123 23.8728 75.1123 25.6695V148.123C75.1123 148.738 75.2617 149.404 75.5263 150.044C76.0213 151.273 76.9218 152.429 77.946 153.018L127.019 181.351C129.131 182.571 130.855 181.577 130.855 179.14V57.4715Z" fill="#3B82F6"/>
<path opacity="0.2" d="M128.397 171.488L85.6404 146.8C84.1638 145.951 82.9561 143.86 82.9561 142.144V35.7794C83.0244 35.8178 83.0927 35.8605 83.1695 35.9031C91.4187 40.6913 120.421 57.3733 125.687 60.446C126.217 60.7532 126.502 61.0605 126.511 61.0648C127.608 62.089 128.397 63.7277 128.397 65.1147V171.484V171.488ZM130.855 57.4715C130.855 56.682 130.578 55.7986 130.13 55.0176C129.673 54.2366 129.05 53.5453 128.359 53.1484L77.9417 24.0393C76.384 23.1388 75.1123 23.8728 75.1123 25.6695V148.123C75.1123 148.738 75.2617 149.404 75.5263 150.044C76.0213 151.273 76.9218 152.429 77.946 153.018L127.019 181.351C129.131 182.571 130.855 181.577 130.855 179.14V57.4715Z" fill="black"/>
<path d="M132.507 69.3908C132.507 68.4988 133.096 67.4319 133.821 67.0137C134.171 66.8131 134.487 66.8003 134.722 66.9412C134.888 67.0393 135.537 67.4021 135.708 67.5045C135.959 67.6539 136.113 67.9782 136.113 68.4391V84.9119C136.113 85.8039 135.524 86.8708 134.799 87.289C134.466 87.481 134.163 87.5024 133.932 87.3829C133.753 87.289 133.087 86.9049 132.917 86.8025C132.665 86.6531 132.511 86.3288 132.511 85.8679V69.395L132.507 69.3908Z" fill="#3B82F6"/>
<path opacity="0.2" d="M132.507 69.3908C132.507 68.4988 133.096 67.4319 133.821 67.0137C134.171 66.8131 134.487 66.8003 134.722 66.9412C134.888 67.0393 135.537 67.4021 135.708 67.5045C135.959 67.6539 136.113 67.9782 136.113 68.4391V84.9119C136.113 85.8039 135.524 86.8708 134.799 87.289C134.466 87.481 134.163 87.5024 133.932 87.3829C133.753 87.289 133.087 86.9049 132.917 86.8025C132.665 86.6531 132.511 86.3288 132.511 85.8679V69.395L132.507 69.3908Z" fill="black"/>
<path d="M133.484 69.9541V86.427C133.484 87.3189 134.073 87.703 134.799 87.2848C135.524 86.8665 136.113 85.8039 136.113 84.9077V68.4349C136.113 67.543 135.524 67.1589 134.799 67.5771C134.073 67.9953 133.484 69.0579 133.484 69.9541Z" fill="#3B82F6"/>
<path opacity="0.35" d="M133.484 69.9541V86.427C133.484 87.3189 134.073 87.703 134.799 87.2848C135.524 86.8665 136.113 85.8039 136.113 84.9077V68.4349C136.113 67.543 135.524 67.1589 134.799 67.5771C134.073 67.9953 133.484 69.0579 133.484 69.9541Z" fill="black"/>
<path d="M97.7732 39.2019C97.3123 38.9373 96.9453 39.1507 96.9453 39.6799C96.9453 40.2091 97.3166 40.8535 97.7732 41.1181C98.2341 41.3869 98.6011 41.1693 98.6011 40.6401C98.6011 40.1109 98.2299 39.4665 97.7732 39.2019ZM108.109 45.4881L101.277 41.5448C100.871 41.3144 100.543 41.4766 100.543 41.9204C100.543 42.3642 100.871 42.9105 101.277 43.1452L108.109 47.0884C108.515 47.3231 108.843 47.1567 108.843 46.7129C108.843 46.269 108.515 45.7228 108.109 45.4881Z" fill="#3B82F6"/>
<path opacity="0.6" d="M97.7732 39.2019C97.3123 38.9373 96.9453 39.1507 96.9453 39.6799C96.9453 40.2091 97.3166 40.8535 97.7732 41.1181C98.2341 41.3869 98.6011 41.1693 98.6011 40.6401C98.6011 40.1109 98.2299 39.4665 97.7732 39.2019ZM108.109 45.4881L101.277 41.5448C100.871 41.3144 100.543 41.4766 100.543 41.9204C100.543 42.3642 100.871 42.9105 101.277 43.1452L108.109 47.0884C108.515 47.3231 108.843 47.1567 108.843 46.7129C108.843 46.269 108.515 45.7228 108.109 45.4881Z" fill="black"/>
<path opacity="0.4" d="M128.397 171.488V174.604C128.397 176.319 127.193 177.015 125.712 176.153L80.2585 149.907C78.7819 149.058 77.5742 146.967 77.5742 145.251V36.5946C77.5742 34.4309 79.102 33.5518 80.9755 34.6315C80.9755 34.6315 81.2657 34.8022 81.7991 35.1095C81.8845 35.1607 81.9784 35.2119 82.0808 35.2716C82.2045 35.3442 82.3411 35.421 82.4862 35.5063C82.5929 35.5704 82.7081 35.6344 82.8276 35.7027C82.866 35.7283 82.9087 35.7539 82.9514 35.7795V142.145C82.9514 143.86 84.1591 145.951 85.6357 146.8L128.393 171.488H128.397Z" fill="black"/>
<path opacity="0.6" d="M83.2629 148.286C81.8376 147.466 80.6768 145.456 80.6768 143.8V35.1436C80.6768 34.9174 80.6939 34.7041 80.7323 34.5035C80.6085 34.4395 80.4848 34.3883 80.361 34.3413C80.3098 34.5888 80.2842 34.8577 80.2842 35.1436V143.8C80.2842 145.58 81.5346 147.744 83.0666 148.627L128.388 174.796C128.388 174.732 128.397 174.668 128.397 174.6V174.343L83.2629 148.281V148.286Z" fill="#3B82F6"/>
<path opacity="0.2" d="M83.2629 148.286C81.8376 147.466 80.6768 145.456 80.6768 143.8V35.1436C80.6768 34.9174 80.6939 34.7041 80.7323 34.5035C80.6085 34.4395 80.4848 34.3883 80.361 34.3413C80.3098 34.5888 80.2842 34.8577 80.2842 35.1436V143.8C80.2842 145.58 81.5346 147.744 83.0666 148.627L128.388 174.796C128.388 174.732 128.397 174.668 128.397 174.6V174.343L83.2629 148.281V148.286Z" fill="white"/>
<path d="M27.1489 156.62C26.9568 157.7 26.5983 158.95 26.2996 161.157C26.0052 163.324 26.4831 163.453 25.0791 168.988C24.2384 172.312 24.4048 173.631 26.4533 176.409C28.6468 179.383 30.9086 178.76 32.3638 175.427C33.6057 172.577 33.5204 171.262 33.5033 168.322C33.4862 165.381 33.5076 164.524 33.627 162.194C33.7295 160.137 33.5502 158.733 33.6655 157.158L27.1531 156.62H27.1489Z" fill="#37474F"/>
<path d="M26.5382 164.682C26.9223 161.831 26.9949 158.878 27.1272 156.953C27.4259 152.639 26.487 144.116 27.0546 137.625L37.9796 136.435C37.6297 138.965 34.6936 150.428 33.648 157.341C33.648 157.341 33.2853 166.713 32.7134 170.844C32.6409 171.365 32.0861 171.689 31.6081 171.467C30.1187 170.767 28.0532 170.699 26.6535 171.185C26.1286 171.365 25.5866 170.993 25.5908 170.439C25.6036 168.911 26.2438 166.824 26.5297 164.682H26.5382Z" fill="#FFBDA7"/>
<path d="M57.3332 136.174C57.4868 145.443 57.7514 153.646 58.1355 156.044C58.5153 158.442 58.6732 159.249 59.3261 160.922C59.9791 162.595 61.0588 164.81 62.0019 165.872C62.0019 165.872 64.7118 168.642 64.1272 168.945C63.5425 169.248 58.0075 169.952 55.5109 169.256C53.0101 168.561 52.7029 166.461 51.7768 162.629C50.8507 158.801 50.0015 153.197 50.0015 153.197C50.0015 153.197 50.1039 153.048 50.2447 152.54C50.552 151.426 49.6558 147.654 49.165 145.17L57.3417 136.178L57.3332 136.174Z" fill="#FFBDA7"/>
<path d="M47.6494 158.989C47.8329 159.885 48.6267 160.883 48.998 162.275C49.3735 163.666 49.6722 165.121 49.8259 167.123C49.9795 169.124 50.0008 169.41 50.0008 169.41L50.6196 169.363C50.6196 169.363 50.3977 166.47 50.3038 165.202C50.2057 163.935 50.2612 162.996 50.8586 162.812C50.8586 162.812 50.6538 158.767 47.6494 158.993V158.989Z" fill="#263238"/>
<path d="M50.0866 152.673C49.7068 153.739 48.3881 155.263 47.8334 156.287C47.509 156.88 47.4023 157.516 47.3938 158.037C47.3853 158.549 47.5986 159.036 47.9699 159.39C48.5034 159.889 49.3569 160.734 49.9458 161.485C50.7268 162.488 52.1991 164.835 52.6301 166.504C53.0611 168.172 53.3215 169.649 54.781 170.451C55.9204 171.079 60.5507 171.885 62.8894 171.983C66.0815 172.12 66.871 170.567 65.6548 169.367C64.4385 168.168 62.3687 166.115 61.9975 165.859C61.9975 165.859 60.5593 165.646 59.0443 166.337C57.2775 167.144 56.7313 168.194 54.8365 167.298C53.1209 166.487 52.3783 163.363 52.4253 158.844C52.4808 153.714 50.0866 152.664 50.0866 152.664V152.673Z" fill="#37474F"/>
<path d="M32.9233 78.7795C32.8678 80.0427 32.36 80.9261 32.36 80.9261C30.8962 83.9049 27.6785 88.228 27.5974 94.3946C27.5462 98.2013 27.9345 111.772 28.1863 123.943C28.0668 125.262 27.0255 128.446 26.7908 135.965C26.603 141.957 26.8804 151.273 26.8804 151.273C26.8804 151.273 31.1565 153.411 34.9077 152.024C36.4483 146.318 39.0601 132.598 40.5922 126.069C42.2053 119.189 43.1698 112.574 43.1698 112.574L45.4657 122.629C45.4657 122.629 44.992 125.953 45.4657 130.417C45.8882 134.424 49.7888 148.99 49.7888 148.99C49.7888 148.99 54.5429 150.5 57.7777 148.294C57.7777 148.294 58.1362 127.464 58.1959 123.06C58.2556 118.656 58.6397 93.093 56.0194 81.5577C55.8957 81.02 55.8786 78.8777 55.8786 78.8777C52.7035 81.4553 37.1141 81.6431 32.9318 78.7795H32.9233Z" fill="#37474F"/>
<path d="M27.3838 150.786C27.3838 150.731 27.324 145.102 27.3752 137.873C27.4179 132.167 28.1861 129.18 28.8049 126.781C29.1335 125.501 29.4194 124.396 29.5517 123.103C29.8163 120.551 29.8376 116.326 29.8675 110.475C29.8846 107.663 29.9016 104.47 29.9486 100.992C30.0937 90.6605 31.9287 86.6149 34.9416 81.178L35.2873 81.37C32.3086 86.7514 30.4863 90.7587 30.3455 101.001C30.2985 104.479 30.2815 107.667 30.2644 110.479C30.2345 116.339 30.2089 120.572 29.9443 123.145C29.8077 124.468 29.5218 125.586 29.1847 126.884C28.5702 129.261 27.8105 132.222 27.7678 137.881C27.7166 145.106 27.7764 150.731 27.7764 150.786H27.3838Z" fill="#455A64"/>
<path d="M52.2764 148.341C52.0844 147.287 51.8369 146.007 51.568 144.611C50.5865 139.507 49.3659 133.153 49.127 129.88C48.9648 127.652 49.0203 126.137 49.0758 124.673C49.1227 123.397 49.1696 122.194 49.0587 120.632C48.824 117.329 46.2805 98.7306 46.2549 98.5428L46.6432 98.4873C46.6688 98.6751 49.2166 117.286 49.4513 120.602C49.5623 122.185 49.5196 123.401 49.4684 124.686C49.4129 126.141 49.3574 127.643 49.5196 129.85C49.7586 133.102 50.9748 139.443 51.9564 144.534C52.2252 145.93 52.4685 147.21 52.6648 148.269L52.2764 148.341Z" fill="#455A64"/>
<path d="M26.8168 149.199C28.4342 150.709 33.4315 151.145 35.4031 150.116L34.7673 153.227C34.7673 153.227 33.4657 154.089 30.6234 153.812C27.7599 153.53 26.885 152.387 26.885 152.387L26.8125 149.199H26.8168Z" fill="#455A64"/>
<path d="M49.3236 147.005C51.0093 147.586 56.0536 147.359 57.9142 146.237L57.8033 148.909C57.8033 148.909 56.7492 149.894 53.907 150.159C51.052 150.424 49.8357 149.617 49.8357 149.617L49.3193 147.005H49.3236Z" fill="#455A64"/>
<path d="M43.165 112.574L45.9048 96.2425C45.9048 96.2425 50.2236 96.618 53.403 92.7473C53.403 92.7473 53.4798 96.4388 47.3899 98.0562L44.3087 112.203L45.461 122.633L43.165 112.579V112.574Z" fill="#263238"/>
<path d="M55.9771 81.3442C55.9771 81.3442 53.4038 84.5407 42.6922 83.909C35.4885 83.4823 33.0005 81.6472 32.3604 80.9303C32.5737 80.431 32.8042 79.7823 32.8682 79.0568C32.8767 78.9459 32.9109 78.852 32.9237 78.7837C37.1016 81.6472 52.6954 81.4595 55.8704 78.8818C55.8704 78.8818 55.8875 80.6059 55.9771 81.3485V81.3442Z" fill="#263238"/>
<path d="M46.5194 46.4995C46.7968 45.6887 47.0102 44.7839 47.5351 44.0841C48.0515 43.397 48.8154 42.9574 49.4555 42.3984C50.1384 41.8009 50.8254 41.1992 51.5082 40.6017C54.0176 38.6472 54.4571 34.6911 53.3177 33.0225C50.6889 29.1603 45.2605 28.5714 42.4311 28.9C37.0668 29.5145 34.7025 31.3325 34.6257 34.179C32.9912 34.4607 32.1761 35.3867 31.5061 36.6883C31.0111 37.6528 30.9001 38.7581 30.8745 39.825C30.8361 41.5192 31.9755 43.6232 30.3667 44.9802C29.5814 45.6417 28.6554 45.7185 27.7677 46.1325C27.0422 46.4696 26.4448 47.0543 26.0692 47.7627C25.6851 48.4925 25.7662 49.2436 25.6809 50.0288C25.587 50.8823 25.1986 51.6462 24.567 52.2138C24.008 52.7174 23.3977 53.0374 22.9496 53.6605C21.7718 55.3035 21.7248 56.4771 21.9638 58.0646C22.1089 59.0206 22.5698 59.9765 23.1886 60.7233C24.7932 62.6523 27.3025 63.7576 29.59 64.6282C30.8574 65.1104 32.0993 65.3152 33.4521 65.3963C34.9372 65.486 36.7808 65.4091 38.2062 64.9568C39.6956 64.4831 41.5904 63.7362 42.589 62.4645C43.498 61.3123 43.5407 59.4004 43.4468 58.0092C43.3358 56.3448 42.6488 54.8383 42.3799 53.2167C42.2817 52.6149 42.2988 51.9065 42.4695 51.3176C42.7426 50.3702 43.0712 49.1838 44.0144 48.7613C44.9618 48.3388 46.1738 47.5365 46.528 46.5038L46.5194 46.4995Z" fill="#37474F"/>
<path d="M45.2942 35.9032C45.2814 33.2957 47.8676 30.381 51.3755 31.6996C54.8835 33.0183 55.148 37.7127 54.3244 39.9019C53.5008 42.0955 56.4027 43.2733 56.7441 45.4498C57.0855 47.6262 55.0456 49.3503 56.1595 50.477C57.2733 51.6036 58.3615 50.2039 57.9775 49.4613C58.7712 50.0204 58.6688 51.2323 57.8537 51.8554C57.0429 52.4785 56.0144 52.4699 55.434 52.2736C56.5777 52.6577 58.0628 54.0618 58.4298 55.2012C58.7371 56.1486 58.5621 57.032 58.1183 57.9154C57.7939 58.5598 57.3885 59.2895 57.5166 60.0492C57.6446 60.8003 58.2036 61.3934 58.3189 62.1872C58.4725 63.2498 58.1183 64.129 57.5336 64.9953C56.4198 66.6383 53.9659 67.3254 52.0669 67.2315C50.8037 67.1675 49.8306 66.4036 48.8875 65.6311C47.6414 64.6112 46.3867 64.385 44.7992 64.4618C43.9115 64.5045 43.0793 64.496 42.2045 64.368C40.7151 64.1546 39.4306 63.2072 38.1289 62.4988C36.9383 61.8501 36.0122 60.9155 35.5513 59.6181C34.3649 56.2681 38.1332 54.3007 40.1987 52.6022C41.4321 51.5908 42.7721 50.5282 43.792 49.2949C45.4393 47.3062 44.9869 44.2805 45.0595 41.8821C45.1192 39.8849 45.1918 37.8876 45.2899 35.8904L45.2942 35.9032Z" fill="#263238"/>
<path d="M48.7045 54.4629C51.1967 54.8982 52.2337 54.8214 54.5382 56.4601C56.8427 58.0946 66.4405 75.6941 66.4405 75.6941C66.4405 75.6941 64.5372 76.7652 61.7889 75.9971C59.0363 75.2289 54.9095 72.63 54.9095 72.63L48.7002 54.4672L48.7045 54.4629Z" fill="#F0997A"/>
<path d="M31.6808 55.2522C31.6808 55.2522 35.1674 54.3305 37.4719 53.8696C39.5417 53.4556 42.5333 53.4428 44.5305 53.7117C46.9673 54.036 47.4666 54.1555 48.6316 54.4201C48.6316 54.4201 51.8579 57.6122 54.4654 61.133C57.0558 64.6324 57.5466 65.8529 57.3332 68.8317C57.1753 71.0722 55.7371 72.8347 55.7371 72.8347C55.8396 74.9642 55.9164 77.2986 56.0828 79.6457C51.444 83.0598 37.2628 83.1963 32.8757 79.0525C33.119 75.0282 33.1873 72.8901 31.907 68.614C30.5926 64.227 29.4446 57.4927 31.6851 55.2522H31.6808Z" fill="#C8473A"/>
<path d="M50.6634 37.1961C51.3291 38.7282 51.7175 41.8478 51.7943 43.2518C52.0845 48.5521 50.5908 50.272 49.3234 51.1042C48.5296 51.6205 47.1426 51.9577 45.4313 51.8467L45.3332 54.2835C45.3332 54.2835 49.7629 58.359 45.5722 59.0803C40.1267 60.0149 37.1138 54.1683 37.1138 54.1683L37.3613 48.4156C36.8108 48.9106 35.8421 48.7911 35.2105 48.3772C34.2545 47.7541 33.6059 46.2263 33.5632 45.5051C33.5291 44.8991 33.6016 44.2888 33.9771 43.7895C34.3058 43.3542 34.9758 43.0299 35.5177 43.0939C36.3542 43.1878 36.6316 43.542 37.0029 43.9688C37.4979 44.5449 37.5406 45.4069 38.3258 44.9076C38.9659 44.4979 38.7824 43.6444 38.8422 42.8592C38.8635 42.5477 38.9403 42.202 39.0684 41.9203C39.2177 41.6003 39.4183 41.3058 39.5378 40.9687C39.7725 40.3029 39.7981 39.65 39.8195 38.9501C39.8621 37.5845 39.717 36.253 41.1424 35.583C41.7399 35.3056 42.3971 35.233 43.05 35.2885C43.2719 35.3098 45.3332 35.8476 45.3033 35.8945C47.117 33.0395 49.3618 34.1661 50.6719 37.1833L50.6634 37.1961Z" fill="#FFBDA7"/>
<path d="M44.0783 46.2947L47.1211 47.1951C46.8864 48.0657 46.0201 48.5693 45.1794 48.3218C44.3386 48.0743 43.8479 47.1653 44.0783 46.2947Z" fill="#B16668"/>
<path d="M44.1084 47.2634C44.2876 47.178 44.4839 47.1226 44.6931 47.1226C45.3844 47.1226 45.952 47.6475 46.0288 48.3175C45.76 48.3943 45.4698 48.4028 45.1796 48.3175C44.6589 48.1638 44.2706 47.7542 44.1084 47.2591V47.2634Z" fill="#F28F8F"/>
<path d="M44.1847 41.8692C44.2402 42.3002 43.9372 42.6971 43.5061 42.7526C43.0751 42.808 42.6782 42.505 42.6228 42.074C42.5673 41.643 42.8703 41.2461 43.3013 41.1906C43.7323 41.1352 44.1292 41.4382 44.1847 41.8692Z" fill="#263238"/>
<path d="M49.7755 40.9219C49.831 41.3529 49.528 41.7498 49.097 41.8053C48.6659 41.8608 48.2691 41.5578 48.2136 41.1268C48.1581 40.6957 48.4611 40.2988 48.8921 40.2434C49.3232 40.1879 49.72 40.4909 49.7755 40.9219Z" fill="#263238"/>
<path d="M50.4031 39.4623L48.4912 38.5917C48.7131 38.0497 49.3234 37.8065 49.8483 38.0454C50.3775 38.2844 50.625 38.9203 50.4031 39.4623Z" fill="#263238"/>
<path d="M43.1047 39.1765L41.5129 40.5506C41.1161 40.1239 41.1459 39.4666 41.5855 39.0868C42.0251 38.707 42.7036 38.7497 43.1005 39.1765H43.1047Z" fill="#263238"/>
<path d="M45.918 40.3884L46.8312 46.0003L49.6393 44.481L45.918 40.3884Z" fill="#F0997A"/>
<path d="M45.431 51.8426C41.2146 51.4116 39.5759 50.3703 38.4834 48.3816C38.4834 48.3816 38.8547 50.972 40.8092 51.8639C42.8577 52.7985 45.3883 52.9351 45.3883 52.9351L45.431 51.8426Z" fill="#F0997A"/>
<path d="M31.6815 55.2524C29.9659 55.7176 27.6188 56.8485 27.2389 59.9724C26.9829 62.0934 27.559 67.2486 28.4296 71.3668C29.1209 74.64 29.9915 78.6388 31.9674 78.9716C33.939 79.3002 36.2094 72.8775 36.2094 72.8775C36.2094 72.8775 35.2663 66.1689 34.831 62.55C34.4725 59.567 33.4653 56.7632 31.6815 55.2524Z" fill="#FFBDA7"/>
<path d="M34.9463 63.4973C33.0345 66.4291 29.582 71.4606 30.6233 74.4351C30.3672 71.9343 33.4399 67.8972 35.1171 64.8245C35.0573 64.3636 35.0018 63.9198 34.9463 63.4973Z" fill="#F0997A"/>
<path d="M44.0364 53.8058C43.7505 53.0803 43.2682 52.6023 42.6921 52.0603C41.9709 51.3818 40.3876 49.1029 40.1401 48.7786C39.8926 48.4542 39.564 47.2337 39.2994 46.4271C39.0391 45.6376 38.8086 45.0999 37.9978 45.3474C37.9892 45.3005 37.9722 45.181 37.9252 44.9036C37.8185 44.2635 37.5966 44.0629 37.3021 43.9861C37.1058 43.9349 36.8754 43.9989 36.8754 43.9989C36.8754 43.9989 36.8199 43.6447 36.5553 43.3886C36.2523 43.0984 35.9707 43.1069 35.8341 43.2563C35.6719 43.4355 35.7402 43.8196 35.753 44.7926C35.7701 45.851 35.7957 46.696 35.8682 46.9776C35.8682 46.9776 35.6549 47.366 35.7359 47.8952C35.817 48.4243 35.9835 50.7118 36.4444 51.5866C36.7175 52.103 38.4074 54.48 38.8427 55.3677C39.3719 56.345 38.5653 57.7575 37.5838 59.52C36.4486 61.5514 35.7402 63.7962 33.4955 67.5047C32.6804 68.8532 31.8866 70.2487 31.3105 71.7979C30.6405 73.5902 30.3076 75.357 30.7087 77.6487C31.0544 79.6246 33.4571 79.2875 35.6677 78.0243C38.2837 76.5263 39.1671 75.0412 39.9139 73.5817C41.0832 71.3028 41.8898 67.1547 42.5982 64.2442C43.5968 60.1218 43.8827 58.8628 44.0278 58.0349C44.3052 56.4559 44.5229 55.022 44.0364 53.7972V53.8058Z" fill="#FFBDA7"/>
<path d="M36.444 51.5865C36.7598 52.0986 37.1396 52.6278 37.4938 53.1485C37.848 53.6691 38.198 54.1855 38.5309 54.7189C38.693 54.9878 38.8637 55.2481 38.9832 55.5554C39.0899 55.8627 39.0942 56.1998 39.043 56.5113C38.9363 57.1472 38.6546 57.7233 38.3602 58.2781C38.0572 58.8286 34.2249 66.4804 33.4951 67.5003C34.1822 66.4505 37.9505 58.7646 38.2492 58.2141C38.5437 57.6678 38.8211 57.096 38.9277 56.49C38.979 56.187 38.979 55.8755 38.8808 55.5895C38.7741 55.3079 38.6034 55.0347 38.4498 54.7659C37.8054 53.6905 36.6787 52.0645 36.444 51.5823V51.5865Z" fill="#F0997A"/>
<path d="M37.9936 45.3514C37.921 45.4539 37.9253 45.5819 37.9424 45.6971C37.9637 45.8166 37.9979 45.9361 38.0277 46.0556L38.2027 46.7768C38.3179 47.2548 38.4161 47.737 38.5142 48.2192C38.5612 48.454 38.5953 48.7143 38.6551 48.9319C38.7234 49.1538 38.83 49.38 38.9282 49.6019L39.5555 50.942C39.2611 50.5408 38.9922 50.1269 38.7532 49.6916C38.6337 49.4739 38.5228 49.252 38.4289 49.0087C38.3819 48.8765 38.3691 48.7612 38.3393 48.6375L38.2667 48.2747C38.1728 47.7882 38.0832 47.3017 38.0107 46.8109C37.9723 46.5677 37.9381 46.3202 37.9082 46.0769C37.8954 45.9532 37.8784 45.8294 37.8784 45.7014C37.8741 45.5776 37.8997 45.4325 37.9936 45.3472V45.3514Z" fill="#F0997A"/>
<path d="M36.871 44.0029C36.7173 44.0627 36.7131 44.2291 36.7344 44.3657C36.7515 44.5108 36.7856 44.6516 36.8112 44.7967C36.8624 45.0869 36.9094 45.3814 36.9478 45.6758C37.0246 46.2605 37.0715 46.8537 37.1441 47.4298C37.2166 47.9974 37.4556 48.5266 37.6775 49.0771C37.8995 49.6191 38.1598 50.1482 38.3988 50.6902C38.0744 50.1952 37.7714 49.6873 37.5068 49.1539C37.2422 48.6333 36.9777 48.0785 36.8923 47.4682C36.8112 46.875 36.7771 46.2861 36.7387 45.7014C36.7216 45.407 36.7045 45.1168 36.6747 44.8223C36.6619 44.6729 36.6533 44.5278 36.6533 44.3742C36.6533 44.2974 36.6619 44.2206 36.6875 44.148C36.7173 44.0712 36.7899 44.0243 36.8624 44.0072L36.871 44.0029Z" fill="#F0997A"/>
<path d="M35.8894 46.9177C35.9364 47.1823 36.0516 47.4938 36.154 47.8737C36.2863 48.2919 36.393 48.6632 36.5466 49.2478C36.7003 49.8325 36.7685 50.1952 36.9136 50.5324C36.7173 50.2806 36.76 50.3446 36.6277 49.952C36.4954 49.5594 36.457 49.41 36.2778 48.8381C36.0985 48.2663 36.0302 48.0742 35.962 47.7627C35.8894 47.4512 35.8809 47.2378 35.8894 46.9177Z" fill="#F0997A"/>
<path d="M42.594 64.2484C42.9995 62.52 43.4049 60.7874 43.7847 59.0548C43.9725 58.1885 44.1218 57.3093 44.2242 56.4302C44.3181 55.5554 44.3139 54.6464 43.9895 53.8227L44.0493 53.8526L44.0066 53.8654L43.9895 53.8227C43.8274 53.4088 43.5713 53.0375 43.2683 52.7046C42.9696 52.3717 42.6154 52.0858 42.3166 51.7401C41.7234 51.0531 41.19 50.3233 40.6566 49.5935L40.2597 49.043C40.1914 48.9491 40.1274 48.8681 40.0591 48.7656C39.9951 48.6632 39.9481 48.5565 39.9055 48.4541C39.7348 48.0316 39.6067 47.5963 39.4702 47.1653C39.3336 46.7343 39.2184 46.2947 39.0391 45.8893C38.9453 45.693 38.8258 45.4967 38.638 45.4071C38.4502 45.3132 38.224 45.343 38.0149 45.4028L37.9594 45.4199L37.9466 45.3601C37.8869 45.023 37.8656 44.673 37.7119 44.3786C37.6351 44.2335 37.5199 44.114 37.3662 44.0628C37.2169 44.003 37.0462 44.0158 36.8883 44.05L36.8413 44.0628L36.8328 44.0158C36.7944 43.8153 36.6962 43.6104 36.5554 43.461C36.4146 43.3117 36.214 43.1837 36.0177 43.2135C35.9238 43.2306 35.8427 43.2946 35.8129 43.3885C35.7787 43.4824 35.7744 43.5933 35.7702 43.7C35.7702 43.9177 35.7787 44.1353 35.783 44.3572L35.8086 45.6716C35.8257 46.1069 35.8214 46.555 35.9025 46.9733V46.9861V46.9989C35.736 47.3445 35.7531 47.6731 35.8043 48.1298C35.8385 48.4584 35.9537 49.3844 36.0006 49.7045C36.0476 50.0246 36.1073 50.6007 36.325 51.292C36.1116 50.6775 36.0476 50.2721 35.9537 49.7301C35.8555 49.1881 35.8086 48.5736 35.7574 48.1426C35.7062 47.7115 35.672 47.336 35.847 46.969V46.9946C35.7574 46.555 35.7616 46.1155 35.7403 45.6759L35.7104 44.3615C35.7019 44.1439 35.6934 43.9219 35.6934 43.7C35.6934 43.5891 35.6976 43.4738 35.736 43.3629C35.7702 43.2434 35.8811 43.1495 36.0049 43.1282C36.2567 43.0898 36.4658 43.2391 36.6237 43.397C36.7816 43.5635 36.884 43.7726 36.931 43.9988L36.8712 43.9603C37.0462 43.9177 37.234 43.9049 37.4089 43.9732C37.5839 44.0329 37.729 44.1737 37.8101 44.3316C37.8954 44.4895 37.9424 44.6645 37.9722 44.8352L38.0576 45.3473L37.9893 45.3046C38.207 45.2406 38.463 45.1979 38.6892 45.3132C38.9154 45.4241 39.0477 45.6418 39.1416 45.8466C39.3293 46.2691 39.4446 46.7044 39.5854 47.1354C39.722 47.5664 39.85 47.9975 40.0207 48.4114C40.0634 48.5139 40.1103 48.6163 40.1658 48.7059C40.2255 48.7912 40.2981 48.8894 40.3621 48.979L40.759 49.5295C41.2882 50.2593 41.8173 50.9933 42.402 51.6761C42.6879 52.0175 43.0464 52.3035 43.3451 52.6449C43.6524 52.982 43.9127 53.3661 44.0791 53.7971L44.0194 53.7672L44.0621 53.7544L44.0791 53.7971C44.4078 54.6421 44.4035 55.5682 44.3053 56.4473C44.1986 57.3307 44.045 58.2098 43.853 59.0761C43.4646 60.813 43.0208 62.5328 42.594 64.2569V64.2484Z" fill="#F0997A"/>
<path d="M55.2256 51.13C55.2256 51.13 55.0079 50.9892 54.9951 50.4856C54.9823 49.982 55.0677 49.6449 55.0634 49.0816C55.0634 48.5225 54.9268 47.5751 54.4275 47.4215C53.9282 47.2679 53.5441 48.4073 53.4204 49.3504C53.2966 50.2936 53.2241 50.8484 52.4772 51.847C51.7304 52.8456 51.0476 54.1557 51.5597 55.4232L55.2256 51.1343V51.13Z" fill="#F0997A"/>
<path d="M58.8275 49.6405C58.6525 48.6889 58.8104 47.5281 58.7976 46.7813C58.7806 46.0344 58.6227 45.3858 58.4007 44.6219C58.1788 43.858 58.0508 42.8764 57.799 42.7527C57.5472 42.6289 57.0735 42.8722 57.0309 43.4568C57.0309 43.4568 56.7321 42.9959 56.4889 42.5179C56.2456 42.0442 56.1048 41.4681 55.7036 41.3273C55.2982 41.1865 55.0294 41.8223 55.1275 42.296C55.2257 42.7697 55.311 43.0429 55.311 43.0429C55.311 43.0429 54.8843 43.1837 55.1531 44.0457C55.2982 44.5109 55.4689 44.7627 55.6225 45.0315C55.6908 45.6802 55.6823 45.996 55.9341 46.5465C56.0493 47.1653 56.092 47.6817 56.3096 48.1981C56.1176 48.6163 55.7122 49.0985 55.6354 49.8539C55.5628 50.6093 55.661 50.797 54.6965 51.6122C54.0478 52.1584 52.9724 52.7516 52.3323 53.5368C51.6921 54.3178 51.2227 55.167 51.8201 56.3321C52.4176 57.4971 52.887 58.3421 53.4376 59.5584C53.8515 60.4759 54.2313 61.6751 55.8999 66.0024C57.193 69.361 57.4747 70.3938 58.0252 71.6314C58.8275 73.428 59.6213 74.1023 61.5075 75.0497C64.2431 76.4196 67.4949 76.411 67.3114 74.0084C67.0895 71.132 66.4195 68.8745 65.3654 67.1888C64.6997 66.1262 64.162 65.7165 62.8177 63.8473C61.6996 62.2939 61.2728 61.8885 59.7621 59.887C58.2727 57.9196 57.2784 56.0334 57.3467 55.4146C57.4619 54.3733 58.0849 52.9095 58.3965 52.1584C58.8702 51.0147 59.0494 51.0744 58.8275 49.6363V49.6405Z" fill="#FFBDA7"/>
<path d="M51.5552 55.4189C51.6278 56.0036 51.9863 56.4773 52.2295 57.0065C52.4856 57.5271 52.7459 58.0478 52.9849 58.5769C53.2239 59.1061 53.4756 59.631 53.7018 60.1645C53.9365 60.6979 54.1627 61.4618 54.3804 61.9995C54.1115 61.4832 53.8555 60.7321 53.6037 60.2114C53.3433 59.6908 53.1044 59.1616 52.8526 58.641L52.11 57.0662L51.7387 56.2767C51.6192 56.0079 51.5467 55.7134 51.551 55.4232L51.5552 55.4189Z" fill="#B16668"/>
<path d="M57.0308 43.4569C57.0521 43.7258 57.1033 43.9818 57.1673 44.2336C57.2314 44.4854 57.3082 44.7372 57.3935 44.9804L57.4063 45.0188L57.3935 45.07C57.3594 45.1981 57.338 45.3432 57.321 45.4797C57.3039 45.6206 57.3039 45.7614 57.3082 45.9022C57.3167 46.1839 57.3722 46.4613 57.4703 46.7259L57.4959 46.7899L57.4661 46.8411C57.4149 46.9264 57.3594 47.0289 57.321 47.127C57.2783 47.2294 57.2356 47.3319 57.2057 47.4386C57.1759 47.5452 57.1417 47.6562 57.1247 47.7672C57.1033 47.8781 57.0948 47.9933 57.082 48.1086C57.0265 47.8824 57.018 47.6434 57.0478 47.4044C57.0649 47.2849 57.082 47.1697 57.1204 47.0545C57.1545 46.9392 57.1929 46.8283 57.2484 46.7088L57.2399 46.824C57.1076 46.5381 57.0265 46.2266 57.0137 45.9108C57.0052 45.7529 57.0137 45.595 57.035 45.4413C57.0564 45.2834 57.0863 45.1341 57.1417 44.9762V45.0615C57.0649 44.7969 57.018 44.5323 56.9924 44.2592C56.971 43.9904 56.9753 43.713 57.0308 43.4526V43.4569Z" fill="#F0997A"/>
<path d="M55.3105 43.0428C55.3831 43.1794 55.4599 43.3032 55.5538 43.4227C55.6477 43.5379 55.7501 43.6488 55.8525 43.7427L55.8739 43.7598L55.8824 43.8025C55.9293 44.1097 56.019 44.417 56.147 44.6987C56.2708 44.9846 56.4457 45.2406 56.6591 45.454L56.7274 45.5223L56.6975 45.6119C56.6463 45.7613 56.6122 45.9448 56.5866 46.1155C56.5652 46.2905 56.5524 46.4697 56.5524 46.6489C56.5524 46.8282 56.5652 47.0117 56.5866 47.1909C56.6036 47.3744 56.642 47.5537 56.6719 47.7372C56.5866 47.5707 56.5183 47.3958 56.4585 47.2165C56.3988 47.0373 56.3646 46.8495 56.3348 46.6617C56.3134 46.474 56.3049 46.2819 56.3177 46.0899C56.3305 45.8936 56.3518 45.7101 56.4201 45.5095L56.4585 45.6674C56.3348 45.5436 56.2153 45.4156 56.1257 45.2662C56.0318 45.1212 55.9507 44.9675 55.8909 44.8054C55.8312 44.6432 55.78 44.481 55.7501 44.3146C55.7202 44.1481 55.6989 43.9817 55.6989 43.8067L55.7245 43.8708C55.6178 43.747 55.5367 43.6147 55.4684 43.4739C55.4002 43.333 55.3404 43.1879 55.3148 43.0386L55.3105 43.0428Z" fill="#F0997A"/>
<path d="M56.4251 49.2394C56.3909 49.5765 56.2501 49.9008 56.0666 50.1825C55.8788 50.4684 55.6484 50.716 55.3838 50.9251C55.4691 50.78 55.5673 50.6434 55.6612 50.5068C55.7551 50.3703 55.849 50.238 55.9386 50.0972C56.1178 49.824 56.2714 49.5381 56.4208 49.2351L56.4251 49.2394Z" fill="#F0997A"/>
<path d="M53.1434 52.7261C52.8959 53.3022 52.7295 53.8826 52.7466 54.4715C52.7466 54.766 52.7935 55.0562 52.8746 55.3421C52.9557 55.628 53.0752 55.9097 53.1989 56.1999C52.9727 55.9822 52.785 55.7176 52.6527 55.4232C52.5161 55.1287 52.4521 54.8044 52.4436 54.4758C52.435 53.8228 52.6953 53.1699 53.1434 52.7261Z" fill="#F0997A"/>
</g>
<defs>
<clipPath id="clip0_2726_7844">
<rect width="208.535" height="200" fill="white" transform="translate(0.732422)"/>
</clipPath>
</defs>
</svg>
