<svg width="59" height="28" viewBox="0 0 59 28" fill="none" xmlns="http://www.w3.org/2000/svg">
<path d="M0 6C0 2.68629 2.68629 0 6 0H53C56.3137 0 59 2.68629 59 6V22C59 25.3137 56.3137 28 53 28H6C2.68629 28 0 25.3137 0 22V6Z" fill="#FEF9C3"/>
<g clip-path="url(#clip0_1472_11427)">
<path d="M16 19C18.7614 19 21 16.7614 21 14C21 11.2386 18.7614 9 16 9C13.2386 9 11 11.2386 11 14C11 16.7614 13.2386 19 16 19Z" stroke="#854D0E" stroke-linecap="round" strokeLinejoin="round"/>
<path d="M16 14.5C16.8284 14.5 17.5 13.8284 17.5 13C17.5 12.1716 16.8284 11.5 16 11.5C15.1716 11.5 14.5 12.1716 14.5 13C14.5 13.8284 15.1716 14.5 16 14.5Z" stroke="#854D0E" stroke-linecap="round" strokeLinejoin="round"/>
<path d="M13.5 18.331V17.5C13.5 17.2348 13.6054 16.9804 13.7929 16.7929C13.9804 16.6054 14.2348 16.5 14.5 16.5H17.5C17.7652 16.5 18.0196 16.6054 18.2071 16.7929C18.3946 16.9804 18.5 17.2348 18.5 17.5V18.331" stroke="#854D0E" stroke-linecap="round" strokeLinejoin="round"/>
</g>
<path d="M27.9588 18V9.27273H33.3707V10.4062H29.2756V13.0653H32.983V14.1946H29.2756V18H27.9588ZM36.8292 18.1449C36.4144 18.1449 36.0394 18.0682 35.7042 17.9148C35.3689 17.7585 35.1033 17.5327 34.9073 17.2372C34.7141 16.9418 34.6175 16.5795 34.6175 16.1506C34.6175 15.7812 34.6886 15.4773 34.8306 15.2386C34.9726 15 35.1644 14.8111 35.4059 14.6719C35.6474 14.5327 35.9172 14.4276 36.2155 14.3565C36.5138 14.2855 36.8178 14.2315 37.1275 14.1946C37.5195 14.1491 37.8377 14.1122 38.082 14.0838C38.3263 14.0526 38.5039 14.0028 38.6147 13.9347C38.7255 13.8665 38.7809 13.7557 38.7809 13.6023V13.5724C38.7809 13.2003 38.6758 12.9119 38.4655 12.7074C38.2582 12.5028 37.9485 12.4006 37.5366 12.4006C37.1076 12.4006 36.7695 12.4957 36.5224 12.6861C36.278 12.8736 36.109 13.0824 36.0153 13.3125L34.8178 13.0398C34.9599 12.642 35.1672 12.321 35.44 12.0767C35.7155 11.8295 36.0323 11.6506 36.3903 11.5398C36.7482 11.4261 37.1246 11.3693 37.5195 11.3693C37.7809 11.3693 38.0579 11.4006 38.3505 11.4631C38.6459 11.5227 38.9215 11.6335 39.1772 11.7955C39.4357 11.9574 39.6474 12.1889 39.8121 12.4901C39.9769 12.7884 40.0593 13.1761 40.0593 13.6534V18H38.815V17.1051H38.7638C38.6814 17.2699 38.5579 17.4318 38.3931 17.5909C38.2283 17.75 38.0167 17.8821 37.7582 17.9872C37.4996 18.0923 37.19 18.1449 36.8292 18.1449ZM37.1062 17.1222C37.4584 17.1222 37.7596 17.0526 38.0096 16.9134C38.2624 16.7741 38.4542 16.5923 38.5849 16.3679C38.7184 16.1406 38.7851 15.8977 38.7851 15.6392V14.7955C38.7397 14.8409 38.6516 14.8835 38.5209 14.9233C38.3931 14.9602 38.2468 14.9929 38.082 15.0213C37.9172 15.0469 37.7567 15.071 37.6005 15.0938C37.4442 15.1136 37.3136 15.1307 37.2084 15.1449C36.9613 15.1761 36.7354 15.2287 36.5309 15.3026C36.3292 15.3764 36.1672 15.483 36.0451 15.6222C35.9258 15.7585 35.8661 15.9403 35.8661 16.1676C35.8661 16.483 35.9826 16.7216 36.2155 16.8835C36.4485 17.0426 36.7454 17.1222 37.1062 17.1222ZM43.0905 14.1136V18H41.8164V11.4545H43.0394V12.5199H43.1204C43.2709 12.1733 43.5067 11.8949 43.8277 11.6847C44.1516 11.4744 44.5593 11.3693 45.0508 11.3693C45.4968 11.3693 45.8874 11.4631 46.2226 11.6506C46.5579 11.8352 46.8178 12.1108 47.0025 12.4773C47.1871 12.8437 47.2794 13.2969 47.2794 13.8366V18H46.0053V13.9901C46.0053 13.5156 45.8817 13.1449 45.6346 12.8778C45.3874 12.608 45.0479 12.473 44.6161 12.473C44.3206 12.473 44.0579 12.5369 43.8277 12.6648C43.6005 12.7926 43.4201 12.9801 43.2865 13.2273C43.1559 13.4716 43.0905 13.767 43.0905 14.1136Z" fill="#854D0E"/>
<defs>
<clipPath id="clip0_1472_11427">
<rect width="12" height="12" fill="white" transform="translate(10 8)"/>
</clipPath>
</defs>
</svg>
