<svg width="24" height="24" viewBox="0 0 24 24" fill="none" xmlns="http://www.w3.org/2000/svg">
<path d="M0 6C0 2.68629 2.68629 0 6 0H18C21.3137 0 24 2.68629 24 6V18C24 21.3137 21.3137 24 18 24H6C2.68629 24 0 21.3137 0 18V6Z" fill="#FEF9C3"/>
<g clip-path="url(#clip0_2448_105085)">
<path d="M15 16C15 15.2044 14.6839 14.4413 14.1213 13.8787C13.5587 13.3161 12.7956 13 12 13C11.2044 13 10.4413 13.3161 9.87868 13.8787C9.31607 14.4413 9 15.2044 9 16" stroke="#854D0E" stroke-linecap="round" stroke-linejoin="round"/>
<path d="M12 13C13.1046 13 14 12.1046 14 11C14 9.89543 13.1046 9 12 9C10.8954 9 10 9.89543 10 11C10 12.1046 10.8954 13 12 13Z" stroke="#854D0E" stroke-linecap="round" stroke-linejoin="round"/>
<path d="M12 17C14.7614 17 17 14.7614 17 12C17 9.23858 14.7614 7 12 7C9.23858 7 7 9.23858 7 12C7 14.7614 9.23858 17 12 17Z" stroke="#854D0E" stroke-linecap="round" stroke-linejoin="round"/>
</g>
<defs>
<clipPath id="clip0_2448_105085">
<rect width="12" height="12" fill="white" transform="translate(6 6)"/>
</clipPath>
</defs>
</svg>
