<svg width="24" height="24" viewBox="0 0 24 24" fill="none" xmlns="http://www.w3.org/2000/svg">
<path d="M20.3285 4.55569C18.7548 3.81938 17.09 3.29621 15.3781 3C15.1648 3.38552 14.9157 3.90405 14.7439 4.31657C12.8981 4.039 11.0693 4.039 9.25742 4.31657C9.0857 3.90415 8.83093 3.38552 8.61572 3C6.90209 3.29634 5.23586 3.82085 3.66147 4.55953C0.528538 9.29388 -0.320776 13.9105 0.103834 18.4618C2.1818 20.0136 4.19556 20.9562 6.17538 21.5731C6.66745 20.8965 7.10241 20.1801 7.47574 19.4314C6.76489 19.1608 6.07961 18.8273 5.42805 18.4348C5.5995 18.3077 5.76693 18.1753 5.93009 18.0377C9.8783 19.8844 14.1683 19.8844 18.0694 18.0377C18.2333 18.1744 18.4007 18.3068 18.5714 18.4348C17.9188 18.8283 17.2322 19.1625 16.5199 19.4333C16.8954 20.1851 17.3296 20.9021 17.8203 21.575C19.802 20.9582 21.8176 20.0155 23.8956 18.4618C24.3939 13.1858 23.0445 8.61151 20.3285 4.55569ZM8.01367 15.6628C6.82842 15.6628 5.85641 14.5563 5.85641 13.2089C5.85641 11.8615 6.80771 10.7531 8.01367 10.7531C9.21964 10.7531 10.1917 11.8595 10.1709 13.2089C10.1728 14.5563 9.21974 15.6628 8.01367 15.6628ZM15.9858 15.6628C14.8005 15.6628 13.8286 14.5563 13.8286 13.2089C13.8286 11.8615 14.7798 10.7531 15.9858 10.7531C17.1918 10.7531 18.1637 11.8595 18.143 13.2089C18.143 14.5563 17.1918 15.6628 15.9858 15.6628Z" fill="#606E80"/>
</svg>
