<svg width="24" height="22" viewBox="0 0 24 22" fill="none" xmlns="http://www.w3.org/2000/svg">
<path fill-rule="evenodd" clip-rule="evenodd" d="M12.1936 0.623999C12.0757 0.594591 11.9526 0.59243 11.8338 0.61768C11.7149 0.64293 11.6034 0.694926 11.5076 0.769723C11.4118 0.84452 11.3343 0.940152 11.281 1.04936C11.2277 1.15857 11.2 1.27848 11.2 1.4V7.024C9.20634 7.1402 7.26591 7.71221 5.528 8.696C4.9072 8.1504 4.0704 7.872 3.2352 7.872C2.37745 7.872 1.55481 8.21263 0.948134 8.819C0.341462 9.42537 0.000424209 10.2478 0 11.1056C0 12.3008 0.6496 13.336 1.6112 13.8928C1.60386 13.995 1.60012 14.0975 1.6 14.2C1.6 16.1888 2.9632 18.0016 4.8336 19.272C6.7296 20.56 9.2864 21.4 12 21.4C14.7136 21.4 17.2704 20.56 19.1664 19.272C21.0368 18.0016 22.4 16.1888 22.4 14.2C22.4 14.0976 22.3968 13.9952 22.3888 13.8928C22.8788 13.611 23.2858 13.2049 23.5687 12.7156C23.8516 12.2262 24.0004 11.6709 24 11.1056C24 10.2476 23.6592 9.42468 23.0524 8.81797C22.4457 8.21125 21.6228 7.8704 20.7648 7.8704C19.9296 7.8704 19.0928 8.1488 18.472 8.6944C16.734 7.71117 14.7935 7.13971 12.8 7.024V2.424L17.688 3.6464C17.8398 4.19069 18.1789 4.66396 18.6454 4.98284C19.1119 5.30173 19.6759 5.44578 20.2382 5.38963C20.8005 5.33349 21.3249 5.08074 21.7192 4.6759C22.1134 4.27107 22.3521 3.74011 22.3933 3.17654C22.4346 2.61296 22.2756 2.05292 21.9444 1.59505C21.6133 1.13717 21.1312 0.810823 20.5831 0.673479C20.0349 0.536135 19.4559 0.596604 18.948 0.844236C18.4401 1.09187 18.0358 1.51078 17.8064 2.0272L12.1936 0.623999ZM20 3.8C19.79 3.80003 19.5885 3.7175 19.4388 3.57023C19.2891 3.42296 19.2034 3.22275 19.2 3.0128V2.9872C19.2025 2.82954 19.2516 2.67615 19.341 2.54628C19.4304 2.41642 19.5562 2.31588 19.7026 2.25728C19.849 2.19869 20.0094 2.18466 20.1638 2.21696C20.3181 2.24926 20.4594 2.32645 20.5701 2.43882C20.6807 2.5512 20.7556 2.69375 20.7854 2.84857C20.8153 3.0034 20.7987 3.16359 20.7378 3.30903C20.6769 3.45447 20.5744 3.57866 20.4431 3.66601C20.3118 3.75337 20.1577 3.79998 20 3.8ZM8 13.4H9.6V11.8H8V13.4ZM12 16.6C10.4208 16.6 9.4128 16.328 8.3104 15.864L7.6896 17.336C8.9632 17.8736 10.1824 18.2 12 18.2C13.8176 18.2 15.0368 17.8736 16.3104 17.336L15.6896 15.864C14.5856 16.328 13.5776 16.6 12 16.6ZM16 13.4H14.4V11.8H16V13.4Z" fill="#FF4500"/>
</svg>
