<svg width="241" height="100" viewBox="0 0 241 100" fill="none" xmlns="http://www.w3.org/2000/svg">
<g clip-path="url(#clip0_2743_151769)">
<g opacity="0.8">
<path fill-rule="evenodd" clip-rule="evenodd" d="M172.422 51.0205H178.497V59.6566H178.57C179.594 57.8264 181.646 57.096 183.805 57.096C185.745 57.096 188.05 57.7914 189.33 59.3278C191.05 61.3413 191.233 63.1337 191.233 66.7564V78.1014H185.158V67.0502C185.158 66.0609 185.158 62.8049 181.902 62.8049C178.646 62.8049 178.497 65.8426 178.497 66.8291V78.1014H172.422V51.0205ZM214.363 78.1015H208.616V75.9424H208.543C207.298 78.5408 204.81 78.7619 203.274 78.7619C202.028 78.7619 199.101 78.4681 197.309 76.2012C195.7 74.1877 195.479 72.7241 195.479 69.9424V57.7915H201.554V69.026V69.026C201.554 70.4169 201.554 73.088 204.81 73.088C206.567 73.088 208.287 72.1743 208.287 68.9532V57.7915H214.363V78.1015ZM224.829 51.0205H218.754V78.1014H224.573V75.9423H224.646C225.414 77.406 227.611 78.7968 230.465 78.7968C235.627 78.7968 240.713 75.503 240.713 67.8184C240.713 60.1337 234.967 57.096 230.722 57.096C229.881 57.096 226.988 57.096 224.829 59.4006V51.0205ZM234.635 67.9262C234.635 70.5973 232.66 73.1229 229.549 73.1229V73.1256C226.511 73.1256 224.608 70.7105 224.608 67.8911C224.608 65.3655 226.439 62.7671 229.66 62.7671C232.66 62.7671 234.635 65.255 234.635 67.9262Z" fill="url(#paint0_linear_2743_151769)"/>
</g>
<path d="M105.158 39.9634C104.061 44.5753 99.9991 48.3435 94.5086 48.3435C88.3603 48.3435 83.6406 43.5133 83.6406 37.4729C83.6406 31.4325 88.2875 26.6777 94.363 26.6777C99.743 26.6777 104.099 30.2276 105.123 35.2033H98.9749C98.3172 33.8125 97.1096 32.3489 94.584 32.3489C91.6918 32.2033 89.7538 34.5807 89.7538 37.5079C89.7538 40.4351 91.6945 42.667 94.584 42.667C97.1096 42.667 98.3172 41.2033 98.9749 39.9581H105.161L105.158 39.9634Z" fill="black"/>
<path d="M108.454 27.3732H114.163V29.5322H114.236C114.748 28.543 115.81 26.6777 119.322 26.6777V32.7882C116.505 32.861 114.527 33.4459 114.527 36.5214V47.6831H108.451V27.3732H108.454Z" fill="black"/>
<path d="M141.208 41.3165C140.219 43.5861 138.793 45.3408 137.073 46.5133C135.388 47.7209 133.378 48.3435 131.291 48.3435C125.472 48.3435 120.531 43.6238 120.531 37.5834C120.531 31.9122 124.995 26.6777 131.181 26.6777C137.367 26.6777 141.903 31.5807 141.903 37.7667C141.903 38.5726 141.83 38.9015 141.758 39.3758H126.534C126.901 41.7909 128.914 43.2195 131.291 43.2195C133.157 43.2195 134.146 42.3785 134.987 41.3165H141.208ZM135.828 35.2788C135.572 34.0713 134.364 31.8017 131.216 31.8017C128.068 31.8017 126.86 34.0713 126.604 35.2788H135.825H135.828Z" fill="black"/>
<path d="M166.609 47.6858H160.533V45.4891H160.46C159.436 47.4648 156.911 48.3812 154.531 48.3812C148.089 48.3812 144.32 43.33 144.32 37.5106C144.32 30.8502 149.115 26.6777 154.531 26.6777C157.862 26.6777 159.727 28.2869 160.46 29.5322H160.533V27.3732H166.609V47.6831V47.6858ZM155.447 42.7074C159.253 42.7074 160.533 39.4864 160.533 37.5106C160.533 35.0578 158.849 32.3516 155.409 32.3516C151.97 32.3516 150.396 35.2788 150.396 37.5861C150.396 39.4891 151.787 42.7101 155.447 42.7101V42.7074Z" fill="black"/>
<path d="M178.503 27.3695H181.43V31.9814H178.503V47.6822H172.428V31.9814H169.428V27.3695H172.428V20.5986H178.503V27.3695Z" fill="black"/>
<path d="M194.057 26.71C201.45 26.71 205 32.5294 205 37.5051C205 42.4809 201.45 48.3003 194.057 48.3003C186.663 48.3003 183.113 42.4809 183.113 37.5051C183.113 32.5294 186.663 26.71 194.057 26.71ZM194.057 42.6291C196.693 42.6291 198.925 40.4701 198.925 37.5051C198.925 34.5402 196.693 32.3811 194.057 32.3811C191.421 32.3811 189.189 34.5402 189.189 37.5051C189.189 40.4701 191.421 42.6291 194.057 42.6291Z" fill="black"/>
<path d="M208.403 27.3732H214.112V29.5322H214.185C214.697 28.543 215.759 26.6777 219.271 26.6777V32.7882C216.454 32.861 214.476 33.4459 214.476 36.5214V47.6831H208.4V27.3732H208.403Z" fill="black"/>
<path d="M231.092 33.0769C231.054 32.6376 230.982 31.5405 229.189 31.5405C227.909 31.5405 227.469 32.3465 227.469 32.8936C227.469 33.9907 228.971 34.6133 230.58 35.0904C234.019 36.0419 237.68 37.0661 237.68 41.457C237.68 45.8478 233.912 48.3734 229.41 48.3734C226.335 48.3734 221.688 46.9826 221.141 41.6403H227.178C227.434 43.5055 229.227 43.5055 229.483 43.5055C230.507 43.5055 231.607 42.9206 231.607 41.9314C231.607 40.3573 230.106 40.174 226.227 38.6753C223.591 37.8343 221.397 36.1147 221.397 33.368C221.397 29.3411 225.057 26.6699 229.265 26.6699C231.936 26.6699 236.548 27.7319 237.06 33.0742H231.095L231.092 33.0769Z" fill="black"/>
<path d="M75.4016 49.1056C75.5417 74.5908 50.0889 95.1892 29.8329 94.6744C22.4824 94.4884 10.0431 91.3752 5.00266 82.3078C4.25603 80.9628 1.8652 76.3779 3.23717 71.1326C4.46897 66.4183 8.09161 63.7337 9.38002 62.8064C16.1482 57.9358 21.5283 61.2835 28.1213 57.1946C32.5876 54.4237 34.5337 50.1461 35.8275 47.2997C44.1833 28.9277 25.6442 7.07058 29.8329 3.53689C34.9649 -0.791949 75.2237 17.1649 75.4016 49.1056Z" fill="url(#paint1_radial_2743_151769)"/>
<g filter="url(#filter0_d_2743_151769)">
<path d="M75.4025 49.1091C75.4025 67.6859 63.9497 79.4488 61.9578 81.4272C48.947 94.3571 32.9093 94.6752 29.8338 94.6779C40.3567 75.5943 39.0548 66.101 35.885 60.9555C29.9389 51.3113 15.8068 54.3167 8.62085 41.4029C4.0063 33.1118 5.54808 24.1684 5.73945 23.1334C6.15724 20.8935 7.26236 15.3652 11.8554 10.5808C17.4861 4.7102 24.6532 3.81802 28.4079 3.35171C36.5076 2.34363 42.7556 4.62934 45.912 5.82611C55.3917 9.4191 60.9524 15.5485 63.1734 18.0525C65.9012 21.1307 75.4025 32.1927 75.4025 49.1118V49.1091Z" fill="url(#paint2_radial_2743_151769)"/>
</g>
</g>
<defs>
<filter id="filter0_d_2743_151769" x="1.56626" y="1.48431" width="75.4533" height="96.967" filterUnits="userSpaceOnUse" color-interpolation-filters="sRGB">
<feFlood flood-opacity="0" result="BackgroundImageFix"/>
<feColorMatrix in="SourceAlpha" type="matrix" values="0 0 0 0 0 0 0 0 0 0 0 0 0 0 0 0 0 0 127 0" result="hardAlpha"/>
<feOffset dx="-1.07817" dy="1.07817"/>
<feGaussianBlur stdDeviation="1.34771"/>
<feColorMatrix type="matrix" values="0 0 0 0 0 0 0 0 0 0 0 0 0 0 0 0 0 0 0.08 0"/>
<feBlend mode="normal" in2="BackgroundImageFix" result="effect1_dropShadow_2743_151769"/>
<feBlend mode="normal" in="SourceGraphic" in2="effect1_dropShadow_2743_151769" result="shape"/>
</filter>
<linearGradient id="paint0_linear_2743_151769" x1="161.456" y1="90.6283" x2="260.412" y2="60.4214" gradientUnits="userSpaceOnUse">
<stop stop-color="#609791"/>
<stop offset="0.252272" stop-color="#0E2C97"/>
<stop offset="0.318866" stop-color="#111DD5"/>
<stop offset="0.441722" stop-color="#E7029F"/>
<stop offset="0.687434" stop-color="#E86A43"/>
<stop offset="0.766659" stop-color="#F6A29F"/>
<stop offset="1" stop-color="#A58E49"/>
</linearGradient>
<radialGradient id="paint1_radial_2743_151769" cx="0" cy="0" r="1" gradientUnits="userSpaceOnUse" gradientTransform="translate(45.8318 43.7513) rotate(169.17) scale(193.461 244.647)">
<stop stop-color="#609791"/>
<stop offset="0.252272" stop-color="#0E2C97"/>
<stop offset="0.318866" stop-color="#111DD5"/>
<stop offset="0.441722" stop-color="#E7029F"/>
<stop offset="0.687434" stop-color="#E86A43"/>
<stop offset="0.766659" stop-color="#F6A29F"/>
<stop offset="1" stop-color="#A58E49"/>
</radialGradient>
<radialGradient id="paint2_radial_2743_151769" cx="0" cy="0" r="1" gradientUnits="userSpaceOnUse" gradientTransform="translate(89.5826 106.251) rotate(-79.0459) scale(131.564 171.962)">
<stop stop-color="#609791"/>
<stop offset="0.252272" stop-color="#0E2C97"/>
<stop offset="0.318866" stop-color="#111DD5"/>
<stop offset="0.441722" stop-color="#E7029F"/>
<stop offset="0.687434" stop-color="#E86A43"/>
<stop offset="0.766659" stop-color="#F6A29F"/>
<stop offset="1" stop-color="#A58E49"/>
</radialGradient>
<clipPath id="clip0_2743_151769">
<rect width="240.714" height="100" fill="white"/>
</clipPath>
</defs>
</svg>
