<svg width="24" height="20" viewBox="0 0 24 20" fill="none" xmlns="http://www.w3.org/2000/svg">
<path d="M16.764 18.6435C12.7665 18.6435 9.525 15.9435 9.525 12.6165C9.525 9.2865 12.7635 6.5865 16.761 6.5865C20.7585 6.5865 24 9.2865 24 12.6165C24 14.4315 23.025 16.068 21.501 17.1705C21.4155 17.2301 21.3516 17.3158 21.3192 17.4149C21.2867 17.5139 21.2873 17.6209 21.321 17.7195L21.648 18.9345C21.6684 18.9914 21.6829 19.0502 21.6915 19.11C21.69 19.174 21.6639 19.2349 21.6186 19.2801C21.5734 19.3254 21.5125 19.3515 21.4485 19.353C21.3995 19.3495 21.3521 19.3341 21.3105 19.308L19.725 18.393C19.6094 18.3219 19.4767 18.2836 19.341 18.282C19.2689 18.2822 19.1971 18.2928 19.128 18.3135C18.3593 18.5335 17.5636 18.6446 16.764 18.6435ZM13.596 11.313C13.6873 11.4531 13.8132 11.5672 13.9615 11.6443C14.1099 11.7215 14.2756 11.7589 14.4427 11.7532C14.6098 11.7474 14.7726 11.6985 14.9153 11.6113C15.0579 11.5241 15.1756 11.4016 15.257 11.2555C15.3384 11.1094 15.3806 10.9448 15.3796 10.7776C15.3787 10.6104 15.3345 10.4463 15.2515 10.3012C15.1684 10.1561 15.0493 10.0349 14.9056 9.94935C14.762 9.86382 14.5987 9.81685 14.4315 9.813C14.3041 9.8128 14.1778 9.83778 14.0601 9.8865C13.9423 9.93522 13.8354 10.0067 13.7453 10.0969C13.6553 10.1871 13.584 10.2942 13.5354 10.412C13.4869 10.5298 13.4621 10.6561 13.4625 10.7835C13.4515 10.9697 13.4972 11.1548 13.596 11.313ZM18.444 11.3145C18.5357 11.4545 18.6622 11.5684 18.8111 11.645C18.9599 11.7217 19.1261 11.7584 19.2934 11.7517C19.4607 11.745 19.6234 11.695 19.7656 11.6067C19.9079 11.5184 20.0248 11.3948 20.105 11.2478C20.1852 11.1009 20.226 10.9357 20.2234 10.7683C20.2208 10.6009 20.1748 10.437 20.09 10.2926C20.0052 10.1483 19.8845 10.0284 19.7395 9.94457C19.5946 9.86078 19.4304 9.81596 19.263 9.8145C19.0069 9.8149 18.7614 9.9168 18.5804 10.0979C18.3993 10.2789 18.2974 10.5244 18.297 10.7805C18.2916 10.9692 18.3428 11.1552 18.444 11.3145Z" fill="#606E80"/>
<path d="M0 7.239C0 9.4215 1.1715 11.3865 3.0015 12.723C3.10363 12.7948 3.17974 12.8978 3.21841 13.0165C3.25708 13.1352 3.25624 13.2633 3.216 13.3815L2.8245 14.841C2.79848 14.9083 2.78231 14.9791 2.7765 15.051C2.77589 15.0892 2.78297 15.1271 2.7973 15.1625C2.81163 15.1979 2.83293 15.2301 2.85994 15.2571C2.88694 15.2841 2.9191 15.3054 2.9545 15.3197C2.9899 15.334 3.02781 15.3411 3.066 15.3405C3.126 15.3405 3.1815 15.326 3.2325 15.297L5.1345 14.1975C5.27369 14.1124 5.43338 14.0668 5.5965 14.0655C5.6845 14.0655 5.77 14.078 5.853 14.103C6.64671 14.3312 7.46521 14.4622 8.2905 14.493C8.11419 13.8831 8.02481 13.2514 8.025 12.6165C8.025 8.2125 12.2025 5.0865 16.761 5.0865L16.986 5.0895C15.8805 2.1435 12.588 0 8.694 0C3.894 0 0 3.24 0 7.239ZM6.948 4.9065C6.948 5.21282 6.82631 5.5066 6.60971 5.72321C6.3931 5.93981 6.09933 6.0615 5.793 6.0615C5.48668 6.0615 5.1929 5.93981 4.97629 5.72321C4.75969 5.5066 4.638 5.21282 4.638 4.9065C4.638 4.60017 4.75969 4.3064 4.97629 4.08979C5.1929 3.87319 5.48668 3.7515 5.793 3.7515C6.09933 3.7515 6.3931 3.87319 6.60971 4.08979C6.82631 4.3064 6.948 4.60017 6.948 4.9065ZM12.7605 4.9065C12.7605 5.21282 12.6388 5.5066 12.4222 5.72321C12.2056 5.93981 11.9118 6.0615 11.6055 6.0615C11.2992 6.0615 11.0054 5.93981 10.7888 5.72321C10.5722 5.5066 10.4505 5.21282 10.4505 4.9065C10.4505 4.60017 10.5722 4.3064 10.7888 4.08979C11.0054 3.87319 11.2992 3.7515 11.6055 3.7515C11.9118 3.7515 12.2056 3.87319 12.4222 4.08979C12.6388 4.3064 12.7605 4.60017 12.7605 4.9065Z" fill="#606E80"/>
</svg>
