<svg width="24" height="24" viewBox="0 0 24 24" fill="none" xmlns="http://www.w3.org/2000/svg">
<path d="M20.3287 4.55569C18.7551 3.81938 17.0903 3.29621 15.3783 3C15.1651 3.38552 14.9159 3.90405 14.7441 4.31657C12.8983 4.039 11.0695 4.039 9.25766 4.31657C9.08594 3.90415 8.83118 3.38552 8.61597 3C6.90233 3.29634 5.2361 3.82085 3.66171 4.55953C0.528782 9.29388 -0.320532 13.9105 0.104078 18.4618C2.18204 20.0136 4.1958 20.9562 6.17563 21.5731C6.6677 20.8965 7.10265 20.1801 7.47599 19.4314C6.76514 19.1608 6.07986 18.8273 5.4283 18.4348C5.59975 18.3077 5.76717 18.1753 5.93033 18.0377C9.87855 19.8844 14.1685 19.8844 18.0697 18.0377C18.2335 18.1744 18.4009 18.3068 18.5716 18.4348C17.919 18.8283 17.2325 19.1625 16.5202 19.4333C16.8957 20.1851 17.3298 20.9021 17.8205 21.575C19.8022 20.9582 21.8179 20.0155 23.8958 18.4618C24.3941 13.1858 23.0447 8.61151 20.3287 4.55569ZM8.01392 15.6628C6.82867 15.6628 5.85666 14.5563 5.85666 13.2089C5.85666 11.8615 6.80795 10.7531 8.01392 10.7531C9.21989 10.7531 10.1919 11.8595 10.1712 13.2089C10.1731 14.5563 9.21998 15.6628 8.01392 15.6628ZM15.986 15.6628C14.8007 15.6628 13.8288 14.5563 13.8288 13.2089C13.8288 11.8615 14.78 10.7531 15.986 10.7531C17.1921 10.7531 18.164 11.8595 18.1433 13.2089C18.1433 14.5563 17.1921 15.6628 15.986 15.6628Z" fill="#5865F2"/>
</svg>
