<svg width="24" height="22" viewBox="0 0 24 22" fill="none" xmlns="http://www.w3.org/2000/svg">
<path fill-rule="evenodd" clip-rule="evenodd" d="M12.1936 0.623877C12.0757 0.594469 11.9526 0.592308 11.8338 0.617558C11.7149 0.642808 11.6034 0.694804 11.5076 0.769601C11.4118 0.844398 11.3343 0.94003 11.281 1.04924C11.2277 1.15845 11.2 1.27836 11.2 1.39988V7.02388C9.20634 7.14008 7.26591 7.71208 5.528 8.69588C4.9072 8.15028 4.0704 7.87188 3.2352 7.87188C2.37745 7.87188 1.55481 8.21251 0.948134 8.81888C0.341462 9.42525 0.000424209 10.2477 0 11.1055C0 12.3007 0.6496 13.3359 1.6112 13.8927C1.60386 13.9949 1.60012 14.0974 1.6 14.1999C1.6 16.1887 2.9632 18.0015 4.8336 19.2719C6.7296 20.5599 9.2864 21.3999 12 21.3999C14.7136 21.3999 17.2704 20.5599 19.1664 19.2719C21.0368 18.0015 22.4 16.1887 22.4 14.1999C22.4 14.0975 22.3968 13.9951 22.3888 13.8927C22.8788 13.6109 23.2858 13.2048 23.5687 12.7154C23.8516 12.2261 24.0004 11.6707 24 11.1055C24 10.2474 23.6592 9.42456 23.0524 8.81785C22.4457 8.21113 21.6228 7.87028 20.7648 7.87028C19.9296 7.87028 19.0928 8.14868 18.472 8.69428C16.734 7.71104 14.7935 7.13959 12.8 7.02388V2.42388L17.688 3.64628C17.8398 4.19057 18.1789 4.66384 18.6454 4.98272C19.1119 5.30161 19.6759 5.44566 20.2382 5.38951C20.8005 5.33336 21.3249 5.08062 21.7192 4.67578C22.1134 4.27095 22.3521 3.73999 22.3933 3.17641C22.4346 2.61284 22.2756 2.0528 21.9444 1.59493C21.6133 1.13705 21.1312 0.810701 20.5831 0.673357C20.0349 0.536013 19.4559 0.596482 18.948 0.844114C18.4401 1.09175 18.0358 1.51066 17.8064 2.02708L12.1936 0.623877ZM20 3.79988C19.79 3.7999 19.5885 3.71738 19.4388 3.57011C19.2891 3.42283 19.2034 3.22262 19.2 3.01268V2.98708C19.2025 2.82942 19.2516 2.67603 19.341 2.54616C19.4304 2.4163 19.5562 2.31575 19.7026 2.25716C19.849 2.19857 20.0094 2.18454 20.1638 2.21684C20.3181 2.24914 20.4594 2.32632 20.5701 2.4387C20.6807 2.55107 20.7556 2.69363 20.7854 2.84845C20.8153 3.00328 20.7987 3.16347 20.7378 3.30891C20.6769 3.45434 20.5744 3.57854 20.4431 3.66589C20.3118 3.75324 20.1577 3.79986 20 3.79988ZM8 13.3999H9.6V11.7999H8V13.3999ZM12 16.5999C10.4208 16.5999 9.4128 16.3279 8.3104 15.8639L7.6896 17.3359C8.9632 17.8735 10.1824 18.1999 12 18.1999C13.8176 18.1999 15.0368 17.8735 16.3104 17.3359L15.6896 15.8639C14.5856 16.3279 13.5776 16.5999 12 16.5999ZM16 13.3999H14.4V11.7999H16V13.3999Z" fill="#606E80"/>
</svg>
