<svg width="24" height="24" viewBox="0 0 24 24" fill="none" xmlns="http://www.w3.org/2000/svg">
<path d="M16.764 21.6435C12.7665 21.6435 9.525 18.9435 9.525 15.6165C9.525 12.2865 12.7635 9.5865 16.761 9.5865C20.7585 9.5865 24 12.2865 24 15.6165C24 17.4315 23.025 19.068 21.501 20.1705C21.4155 20.2301 21.3516 20.3158 21.3192 20.4149C21.2867 20.5139 21.2873 20.6209 21.321 20.7195L21.648 21.9345C21.6684 21.9914 21.6829 22.0502 21.6915 22.11C21.69 22.174 21.6639 22.2349 21.6186 22.2801C21.5734 22.3254 21.5125 22.3515 21.4485 22.353C21.3995 22.3495 21.3521 22.3341 21.3105 22.308L19.725 21.393C19.6094 21.3219 19.4767 21.2836 19.341 21.282C19.2689 21.2822 19.1971 21.2928 19.128 21.3135C18.3593 21.5335 17.5636 21.6446 16.764 21.6435ZM13.596 14.313C13.6873 14.4531 13.8132 14.5672 13.9615 14.6443C14.1099 14.7215 14.2756 14.7589 14.4427 14.7532C14.6098 14.7474 14.7726 14.6985 14.9153 14.6113C15.0579 14.5241 15.1756 14.4016 15.257 14.2555C15.3384 14.1094 15.3806 13.9448 15.3796 13.7776C15.3787 13.6104 15.3345 13.4463 15.2515 13.3012C15.1684 13.1561 15.0493 13.0349 14.9056 12.9494C14.762 12.8638 14.5987 12.8168 14.4315 12.813C14.3041 12.8128 14.1778 12.8378 14.0601 12.8865C13.9423 12.9352 13.8354 13.0067 13.7453 13.0969C13.6553 13.1871 13.584 13.2942 13.5354 13.412C13.4869 13.5298 13.4621 13.6561 13.4625 13.7835C13.4515 13.9697 13.4972 14.1548 13.596 14.313ZM18.444 14.3145C18.5357 14.4545 18.6622 14.5684 18.8111 14.645C18.9599 14.7217 19.1261 14.7584 19.2934 14.7517C19.4607 14.745 19.6234 14.695 19.7656 14.6067C19.9079 14.5184 20.0248 14.3948 20.105 14.2478C20.1852 14.1009 20.226 13.9357 20.2234 13.7683C20.2208 13.6009 20.1748 13.437 20.09 13.2926C20.0052 13.1483 19.8845 13.0284 19.7395 12.9446C19.5946 12.8608 19.4304 12.816 19.263 12.8145C19.0069 12.8149 18.7614 12.9168 18.5804 13.0979C18.3993 13.2789 18.2974 13.5244 18.297 13.7805C18.2916 13.9692 18.3428 14.1552 18.444 14.3145Z" fill="#09B83E"/>
<path d="M0 10.239C0 12.4215 1.1715 14.3865 3.0015 15.723C3.10363 15.7948 3.17974 15.8978 3.21841 16.0165C3.25708 16.1352 3.25624 16.2633 3.216 16.3815L2.8245 17.841C2.79848 17.9083 2.78231 17.9791 2.7765 18.051C2.77589 18.0892 2.78297 18.1271 2.7973 18.1625C2.81163 18.1979 2.83293 18.2301 2.85994 18.2571C2.88694 18.2841 2.9191 18.3054 2.9545 18.3197C2.9899 18.334 3.02781 18.3411 3.066 18.3405C3.126 18.3405 3.1815 18.326 3.2325 18.297L5.1345 17.1975C5.27369 17.1124 5.43338 17.0668 5.5965 17.0655C5.6845 17.0655 5.77 17.078 5.853 17.103C6.64671 17.3312 7.46521 17.4622 8.2905 17.493C8.11419 16.8831 8.02481 16.2514 8.025 15.6165C8.025 11.2125 12.2025 8.0865 16.761 8.0865L16.986 8.0895C15.8805 5.1435 12.588 3 8.694 3C3.894 3 0 6.24 0 10.239ZM6.948 7.9065C6.948 8.21282 6.82631 8.5066 6.60971 8.72321C6.3931 8.93981 6.09933 9.0615 5.793 9.0615C5.48668 9.0615 5.1929 8.93981 4.97629 8.72321C4.75969 8.5066 4.638 8.21282 4.638 7.9065C4.638 7.60017 4.75969 7.3064 4.97629 7.08979C5.1929 6.87319 5.48668 6.7515 5.793 6.7515C6.09933 6.7515 6.3931 6.87319 6.60971 7.08979C6.82631 7.3064 6.948 7.60017 6.948 7.9065ZM12.7605 7.9065C12.7605 8.21282 12.6388 8.5066 12.4222 8.72321C12.2056 8.93981 11.9118 9.0615 11.6055 9.0615C11.2992 9.0615 11.0054 8.93981 10.7888 8.72321C10.5722 8.5066 10.4505 8.21282 10.4505 7.9065C10.4505 7.60017 10.5722 7.3064 10.7888 7.08979C11.0054 6.87319 11.2992 6.7515 11.6055 6.7515C11.9118 6.7515 12.2056 6.87319 12.4222 7.08979C12.6388 7.3064 12.7605 7.60017 12.7605 7.9065Z" fill="#09B83E"/>
</svg>
