<svg width="24" height="24" viewBox="0 0 24 24" fill="none" xmlns="http://www.w3.org/2000/svg">
<path d="M23.4673 6.65153C23.3297 6.13903 23.0612 5.6718 22.6886 5.29637C22.3161 4.92094 21.8524 4.6504 21.3437 4.5117C19.4817 4 11.9874 4 11.9874 4C11.9874 4 4.49284 4.01549 2.63077 4.52719C2.12214 4.6659 1.65844 4.93645 1.28586 5.3119C0.913272 5.68735 0.644804 6.1546 0.507185 6.66711C-0.0560488 10.0008 -0.274537 15.0806 0.522651 18.2809C0.660284 18.7934 0.928758 19.2607 1.30134 19.6361C1.67392 20.0115 2.13761 20.2821 2.64624 20.4208C4.50831 20.9325 12.0027 20.9325 12.0027 20.9325C12.0027 20.9325 19.497 20.9325 21.359 20.4208C21.8677 20.2821 22.3314 20.0116 22.704 19.6361C23.0766 19.2607 23.3451 18.7935 23.4827 18.2809C24.0768 14.9425 24.2598 9.86585 23.4673 6.65153Z" fill="#606E80"/>
<path d="M9.60156 16.0946L15.8186 12.4663L9.60156 8.83789V16.0946Z" fill="white"/>
</svg>
