<svg width="24" height="24" viewBox="0 0 24 24" fill="none" xmlns="http://www.w3.org/2000/svg">
<path d="M14 12.31C13.978 12.73 13.883 13.143 13.72 13.53C13.5866 13.8249 13.3669 14.0725 13.09 14.24C12.904 14.34 12.7 14.405 12.49 14.43C12.1863 14.4901 11.8737 14.4901 11.57 14.43C11.3707 14.377 11.1838 14.2853 11.02 14.16C10.9207 14.0725 10.8398 13.9662 10.782 13.8472C10.7242 13.7282 10.6905 13.5988 10.6831 13.4667C10.6757 13.3346 10.6945 13.2024 10.7386 13.0776C10.7827 12.9528 10.8512 12.8381 10.94 12.74C11.1262 12.5568 11.3572 12.4258 11.61 12.36C11.882 12.275 12.165 12.235 12.45 12.24C12.71 12.225 12.97 12.225 13.23 12.24C13.472 12.259 13.712 12.292 13.95 12.34L14 12.31Z" fill="black"/>
<path d="M17 2H7C5.67392 2 4.40215 2.52678 3.46447 3.46447C2.52678 4.40215 2 5.67392 2 7V17C2 18.3261 2.52678 19.5979 3.46447 20.5355C4.40215 21.4732 5.67392 22 7 22H17C18.3261 22 19.5979 21.4732 20.5355 20.5355C21.4732 19.5979 22 18.3261 22 17V7C22 5.67392 21.4732 4.40215 20.5355 3.46447C19.5979 2.52678 18.3261 2 17 2ZM7.52 14.53C7.67762 15.0562 7.92088 15.5529 8.24 16C8.69555 16.6293 9.32449 17.1123 10.05 17.39C10.497 17.556 10.965 17.664 11.44 17.71C11.906 17.755 12.374 17.755 12.84 17.71C13.3836 17.6683 13.9154 17.5294 14.41 17.3C14.9698 17.0277 15.4489 16.614 15.8 16.1C16.0112 15.7982 16.1507 15.4521 16.2079 15.0882C16.2651 14.7242 16.2385 14.3521 16.13 14C15.998 13.5548 15.7151 13.1694 15.33 12.91L15.13 12.77C15.13 12.86 15.13 12.94 15.08 13.02C15.01 13.47 14.86 13.902 14.64 14.3C14.4453 14.6566 14.1706 14.9631 13.8375 15.1956C13.5043 15.4281 13.1218 15.5802 12.72 15.64C12.1914 15.7435 11.6455 15.716 11.13 15.56C10.7023 15.442 10.3128 15.2146 10 14.9C9.65706 14.5511 9.4421 14.0965 9.39 13.61C9.33991 13.1983 9.40721 12.7808 9.58415 12.4057C9.76108 12.0306 10.0404 11.7132 10.39 11.49C10.7535 11.2487 11.1615 11.0821 11.59 11C12.013 10.93 12.441 10.9 12.87 10.91C13.2049 10.9188 13.5389 10.9489 13.87 11H13.93C13.8855 10.7264 13.7942 10.4625 13.66 10.22C13.5631 10.0583 13.4342 9.91805 13.2812 9.80798C13.1281 9.69792 12.9542 9.62033 12.77 9.58C12.3301 9.44496 11.8599 9.44496 11.42 9.58C11.103 9.69212 10.8275 9.89786 10.63 10.17V10.24L9.63 9.55V9.48C10.0467 8.87598 10.681 8.45669 11.4 8.31C12.0132 8.17629 12.6506 8.20385 13.25 8.39C13.5861 8.4929 13.8972 8.66417 14.164 8.89304C14.4307 9.12192 14.6472 9.40346 14.8 9.72C14.976 10.079 15.095 10.464 15.15 10.86C15.1792 11.0319 15.1959 11.2057 15.2 11.38L15.5 11.52C15.969 11.769 16.3837 12.109 16.72 12.52C17.066 12.947 17.293 13.457 17.38 14C17.451 14.328 17.475 14.665 17.45 15C17.3989 15.8326 17.0716 16.6243 16.52 17.25C15.8228 18.0743 14.8742 18.647 13.82 18.88C13.3558 18.9772 12.884 19.0341 12.41 19.05C11.9794 19.0681 11.548 19.0514 11.12 19C10.4258 18.9186 9.75 18.7226 9.12 18.42C8.30818 18.0086 7.61854 17.3914 7.12 16.63C6.75085 16.0555 6.47099 15.4284 6.29 14.77C6.156 14.275 6.059 13.77 6 13.26V12C6 11.58 6 11.16 6.07 10.74C6.11113 10.2649 6.18801 9.79355 6.3 9.33C6.45274 8.74603 6.68847 8.187 7 7.67C7.62462 6.55549 8.64552 5.71664 9.86 5.32C10.2958 5.17206 10.7444 5.06494 11.2 5C11.7715 4.935 12.3485 4.935 12.92 5C13.6106 5.06297 14.2862 5.23862 14.92 5.52C15.8347 5.92345 16.6127 6.58342 17.16 7.42C17.5438 8.02381 17.8274 8.68568 18 9.38L16.82 9.7V9.62C16.6872 9.14633 16.4922 8.69237 16.24 8.27C15.7272 7.43701 14.9323 6.81596 14 6.52C13.5092 6.35346 12.9976 6.25586 12.48 6.23C12.0973 6.19988 11.7127 6.19988 11.33 6.23C10.7393 6.28784 10.1637 6.45038 9.63 6.71C8.94025 7.0702 8.37295 7.62706 8 8.31C7.74181 8.77782 7.54997 9.2793 7.43 9.8C7.32444 10.2235 7.2542 10.6549 7.22 11.09C7.19489 11.5063 7.19489 11.9237 7.22 12.34C7.22482 13.0799 7.32566 13.8161 7.52 14.53Z" fill="black"/>
<path d="M14 12.31C13.978 12.73 13.883 13.143 13.72 13.53C13.5866 13.8249 13.3669 14.0725 13.09 14.24C12.904 14.34 12.7 14.405 12.49 14.43C12.1863 14.4901 11.8737 14.4901 11.57 14.43C11.3707 14.377 11.1838 14.2853 11.02 14.16C10.9207 14.0725 10.8398 13.9662 10.782 13.8472C10.7242 13.7282 10.6905 13.5988 10.6831 13.4667C10.6757 13.3346 10.6945 13.2024 10.7386 13.0776C10.7827 12.9528 10.8512 12.8381 10.94 12.74C11.1262 12.5568 11.3572 12.4258 11.61 12.36C11.882 12.275 12.165 12.235 12.45 12.24C12.71 12.225 12.97 12.225 13.23 12.24C13.472 12.259 13.712 12.292 13.95 12.34L14 12.31Z" fill="black"/>
</svg>
