<svg width="24" height="24" viewBox="0 0 24 24" fill="none" xmlns="http://www.w3.org/2000/svg">
<path d="M16.6322 8.64166C18.178 9.74607 20.0716 10.3959 22.1169 10.3959V6.46237C21.7298 6.46253 21.3437 6.42214 20.965 6.34188V9.43813C18.92 9.43813 17.0265 8.78839 15.4804 7.68406V15.7113C15.4804 19.727 12.2234 22.9821 8.20596 22.9821C6.70695 22.9821 5.31363 22.5291 4.15625 21.7523C5.47724 23.1023 7.31945 23.9398 9.35746 23.9398C13.3752 23.9398 16.6324 20.6847 16.6324 16.6688V8.64166H16.6322ZM18.0532 4.67322C17.2631 3.81062 16.7444 2.69586 16.6322 1.46342V0.95752H15.5407C15.8155 2.52389 16.7527 3.8621 18.0532 4.67322ZM6.69727 18.6708C6.25587 18.0925 6.01728 17.3849 6.0184 16.6573C6.0184 14.8207 7.50814 13.3316 9.34613 13.3316C9.6886 13.3314 10.0291 13.384 10.3555 13.4874V9.46593C9.97402 9.41371 9.58902 9.39145 9.20419 9.39964V12.5297C8.87756 12.4263 8.53693 12.3737 8.19429 12.374C6.35639 12.374 4.86673 13.863 4.86673 15.6998C4.86673 16.9986 5.61131 18.1231 6.69727 18.6708Z" fill="#606E80"/>
<path d="M15.4814 7.68397C17.0276 8.78831 18.9209 9.43804 20.966 9.43804V6.34179C19.8245 6.09873 18.8139 5.50254 18.0541 4.67322C16.7535 3.86202 15.8165 2.52381 15.5417 0.95752H12.6747V16.6687C12.6681 18.5003 11.181 19.9833 9.34696 19.9833C8.2663 19.9833 7.30614 19.4685 6.69811 18.6708C5.61232 18.1231 4.86765 16.9985 4.86765 15.6999C4.86765 13.8632 6.35731 12.3741 8.19521 12.3741C8.54735 12.3741 8.88674 12.4289 9.20512 12.5298V9.39973C5.25819 9.48124 2.08398 12.7045 2.08398 16.6687C2.08398 18.6477 2.87441 20.4416 4.15734 21.7524C5.31472 22.5291 6.70796 22.9822 8.20705 22.9822C12.2246 22.9822 15.4815 19.7269 15.4815 15.7113L15.4814 7.68397Z" fill="#606E80"/>
<path d="M20.9654 6.34179V5.50477C19.936 5.50627 18.9269 5.21813 18.0535 4.6733C18.8266 5.51927 19.8447 6.10265 20.9654 6.34196M15.541 0.957517C15.5148 0.807854 15.4948 0.657193 15.4808 0.505903V0H11.5221V15.7113C11.5158 17.5428 10.0286 19.0258 8.19454 19.0258C7.67459 19.0266 7.16174 18.905 6.69743 18.671C7.30546 19.4686 8.26563 19.9833 9.34629 19.9833C11.1802 19.9833 12.6676 18.5004 12.674 16.6688V0.9576L15.541 0.957517ZM9.20469 9.39972V8.5085C8.87389 8.46333 8.5404 8.44072 8.20654 8.4408C4.18861 8.4408 0.931641 11.696 0.931641 15.7113C0.931641 18.2287 2.21167 20.4473 4.15683 21.7524C2.8739 20.4416 2.08348 18.6476 2.08348 16.6687C2.08348 12.7046 5.2576 9.48124 9.20469 9.39972Z" fill="#606E80"/>
</svg>
