<svg width="20" height="20" viewBox="0 0 20 20" fill="none" xmlns="http://www.w3.org/2000/svg">
<path d="M17.2929 8.13359C17.1295 8.16095 16.9835 8.25213 16.8873 8.38706C16.791 8.522 16.7523 8.68965 16.7796 8.85313C16.8431 9.23212 16.875 9.61573 16.875 10C16.8764 11.683 16.2579 13.3075 15.1375 14.5633C14.4404 13.5532 13.4603 12.7717 12.3203 12.3172C12.9326 11.8349 13.3795 11.1737 13.5987 10.4257C13.8178 9.67766 13.7985 8.87992 13.5433 8.1434C13.288 7.40688 12.8096 6.76819 12.1746 6.31617C11.5396 5.86414 10.7794 5.62123 9.99996 5.62123C9.22047 5.62123 8.46036 5.86414 7.82532 6.31617C7.19028 6.76819 6.71189 7.40688 6.45667 8.1434C6.20145 8.87992 6.18208 9.67766 6.40127 10.4257C6.62045 11.1737 7.06729 11.8349 7.67965 12.3172C6.53966 12.7717 5.55951 13.5532 4.86246 14.5633C3.98333 13.5726 3.40908 12.3491 3.20874 11.0399C3.00841 9.73063 3.19052 8.39139 3.73319 7.18318C4.27586 5.97497 5.15597 4.94923 6.26771 4.2293C7.37945 3.50937 8.67548 3.1259 9.99996 3.125C10.3842 3.12494 10.7678 3.15682 11.1468 3.22031C11.3096 3.24599 11.4759 3.20637 11.6096 3.11007C11.7432 3.01377 11.8335 2.86858 11.8607 2.70608C11.8879 2.54358 11.8498 2.37692 11.7547 2.24235C11.6597 2.10778 11.5153 2.01619 11.3531 1.9875C9.65577 1.70197 7.91163 1.96323 6.37249 2.73357C4.83334 3.50392 3.57884 4.74348 2.7901 6.27328C2.00137 7.80308 1.71922 9.54397 1.98439 11.2446C2.24957 12.9452 3.04834 14.5175 4.26539 15.7346C5.48243 16.9516 7.05477 17.7504 8.75538 18.0156C10.456 18.2807 12.1969 17.9986 13.7267 17.2099C15.2565 16.4211 16.496 15.1666 17.2664 13.6275C18.0367 12.0883 18.298 10.3442 18.0125 8.64688C17.9851 8.4834 17.8939 8.33748 17.759 8.24123C17.6241 8.14497 17.4564 8.10625 17.2929 8.13359ZM7.49996 9.375C7.49996 8.88055 7.64658 8.3972 7.92129 7.98608C8.19599 7.57495 8.58644 7.25452 9.04325 7.0653C9.50007 6.87608 10.0027 6.82657 10.4877 6.92304C10.9726 7.0195 11.4181 7.2576 11.7677 7.60723C12.1174 7.95687 12.3555 8.40232 12.4519 8.88728C12.5484 9.37223 12.4989 9.87489 12.3097 10.3317C12.1204 10.7885 11.8 11.179 11.3889 11.4537C10.9778 11.7284 10.4944 11.875 9.99996 11.875C9.33692 11.875 8.70103 11.6116 8.23219 11.1428C7.76335 10.6739 7.49996 10.038 7.49996 9.375ZM5.78746 15.4297C6.2396 14.7226 6.86246 14.1406 7.59865 13.7375C8.33483 13.3345 9.16064 13.1232 9.99996 13.1232C10.8393 13.1232 11.6651 13.3345 12.4013 13.7375C13.1375 14.1406 13.7603 14.7226 14.2125 15.4297C13.008 16.3664 11.5258 16.8749 9.99996 16.8749C8.47416 16.8749 6.99189 16.3664 5.78746 15.4297Z" fill="#1F2937"/>
<path d="M18.8281 1.99219H18.0682C18.1769 1.83401 18.2374 1.64765 18.2422 1.45576C18.2465 1.30958 18.2209 1.16405 18.167 1.02812C18.113 0.892195 18.0318 0.768732 17.9284 0.66532C17.825 0.561909 17.7016 0.480731 17.5656 0.426775C17.4297 0.372819 17.2842 0.347224 17.138 0.351561C17.003 0.354443 16.87 0.385209 16.7474 0.441927C16.6249 0.498646 16.5154 0.580092 16.4258 0.681151C16.3597 0.756525 16.3009 0.837937 16.25 0.924315C16.1991 0.837937 16.1403 0.756525 16.0742 0.681151C15.9846 0.580092 15.8751 0.498646 15.7526 0.441927C15.63 0.385209 15.497 0.354443 15.362 0.351561C15.2158 0.347224 15.0703 0.372819 14.9344 0.426775C14.7984 0.480731 14.675 0.561909 14.5716 0.66532C14.4682 0.768732 14.387 0.892195 14.333 1.02812C14.2791 1.16405 14.2535 1.30958 14.2578 1.45576C14.2626 1.64765 14.3231 1.83401 14.4318 1.99219H13.6719C13.5165 1.99219 13.3674 2.05392 13.2576 2.1638C13.1477 2.27369 13.0859 2.42272 13.0859 2.57812V3.51562C13.0859 3.6507 13.1326 3.78164 13.218 3.88628C13.3034 3.99092 13.4223 4.06283 13.5547 4.08984V5.85937C13.5547 6.01477 13.6164 6.16381 13.7263 6.27369C13.8362 6.38358 13.9852 6.44531 14.1406 6.44531H18.3594C18.5148 6.44531 18.6638 6.38358 18.7737 6.27369C18.8836 6.16381 18.9453 6.01477 18.9453 5.85937V4.08984C19.0777 4.06283 19.1966 3.99092 19.282 3.88628C19.3674 3.78164 19.4141 3.6507 19.4141 3.51562V2.57812C19.4141 2.42272 19.3523 2.27369 19.2424 2.1638C19.1326 2.05392 18.9835 1.99219 18.8281 1.99219ZM18.7109 3.39844H16.6016V2.69531H18.7109V3.39844ZM16.9531 1.14756C16.9791 1.11877 17.0107 1.09567 17.046 1.07968C17.0812 1.0637 17.1195 1.05519 17.1582 1.05469H17.1685C17.218 1.05455 17.2671 1.06438 17.3128 1.0836C17.3585 1.10282 17.3999 1.13103 17.4345 1.16657C17.4691 1.2021 17.4961 1.24422 17.5141 1.29043C17.5321 1.33664 17.5406 1.38599 17.5391 1.43555C17.5386 1.47429 17.53 1.5125 17.5141 1.54779C17.4981 1.58309 17.475 1.61469 17.4462 1.64062C17.244 1.81992 16.9115 1.91191 16.6367 1.95586C16.6807 1.68223 16.7727 1.34971 16.9531 1.14756ZM15.0693 1.16308C15.1389 1.09429 15.2326 1.05539 15.3304 1.05469H15.3418C15.3805 1.05519 15.4188 1.0637 15.454 1.07968C15.4893 1.09567 15.5209 1.11877 15.5469 1.14756C15.7262 1.34971 15.8182 1.68193 15.8618 1.95644C15.5894 1.91221 15.2539 1.82021 15.0538 1.64062C15.025 1.61469 15.0019 1.58309 14.9859 1.54779C14.97 1.5125 14.9614 1.47429 14.9609 1.43555C14.9596 1.38516 14.9686 1.33504 14.9872 1.28821C15.0058 1.24137 15.0338 1.19881 15.0693 1.16308ZM13.7891 2.69531H15.8984V3.39844H13.7891V2.69531ZM14.2578 4.10156H15.8984V5.74219H14.2578V4.10156ZM16.6016 5.74219V4.10156H18.2422V5.74219H16.6016Z" fill="#1F2937"/>
</svg>
