<svg width="52" height="28" viewBox="0 0 52 28" fill="none" xmlns="http://www.w3.org/2000/svg">
<g filter="url(#filter0_d_812_85417)">
<path d="M2.5 13C2.5 6.64873 7.64873 1.5 14 1.5H38C44.3513 1.5 49.5 6.64873 49.5 13C49.5 19.3513 44.3513 24.5 38 24.5H14C7.64873 24.5 2.5 19.3513 2.5 13Z" fill="white"/>
<path d="M2.5 13C2.5 6.64873 7.64873 1.5 14 1.5H38C44.3513 1.5 49.5 6.64873 49.5 13C49.5 19.3513 44.3513 24.5 38 24.5H14C7.64873 24.5 2.5 19.3513 2.5 13Z" stroke="#E5E7EB"/>
<g clip-path="url(#clip0_812_85417)">
<path d="M18 13V18H10V13" stroke="#1F2937" stroke-linecap="round" strokeLinejoin="round"/>
<path d="M19 10.5H9V13H19V10.5Z" stroke="#1F2937" stroke-linecap="round" strokeLinejoin="round"/>
<path d="M14 18V10.5" stroke="black" stroke-linecap="round" strokeLinejoin="round"/>
<path d="M14 10.5H11.75C11.4185 10.5 11.1005 10.3683 10.8661 10.1339C10.6317 9.89946 10.5 9.58152 10.5 9.25C10.5 8.91848 10.6317 8.60054 10.8661 8.36612C11.1005 8.1317 11.4185 8 11.75 8C13.5 8 14 10.5 14 10.5Z" stroke="black" stroke-linecap="round" strokeLinejoin="round"/>
<path d="M14 10.5H16.25C16.5815 10.5 16.8995 10.3683 17.1339 10.1339C17.3683 9.89946 17.5 9.58152 17.5 9.25C17.5 8.91848 17.3683 8.60054 17.1339 8.36612C16.8995 8.1317 16.5815 8 16.25 8C14.5 8 14 10.5 14 10.5Z" stroke="black" stroke-linecap="round" strokeLinejoin="round"/>
</g>
<path d="M29.1506 8.27273V17H27.8295V9.59375H27.7784L25.6903 10.9574V9.69602L27.8679 8.27273H29.1506ZM34.8824 8.27273V17H33.5614V9.59375H33.5103L31.4222 10.9574V9.69602L33.5998 8.27273H34.8824ZM37.3032 17V16.0455L40.2564 12.9858C40.5717 12.6534 40.8316 12.3622 41.0362 12.1122C41.2436 11.8594 41.3984 11.6193 41.5007 11.392C41.603 11.1648 41.6541 10.9233 41.6541 10.6676C41.6541 10.3778 41.5859 10.1278 41.4495 9.91761C41.3132 9.70455 41.1271 9.54119 40.8913 9.42756C40.6555 9.31108 40.3899 9.25284 40.0944 9.25284C39.7819 9.25284 39.5092 9.31676 39.2762 9.4446C39.0433 9.57244 38.8643 9.75284 38.7393 9.9858C38.6143 10.2187 38.5518 10.4915 38.5518 10.804H37.2947C37.2947 10.2727 37.4169 9.80824 37.6612 9.41051C37.9055 9.01278 38.2407 8.70455 38.6669 8.4858C39.093 8.2642 39.5774 8.15341 40.12 8.15341C40.6683 8.15341 41.1513 8.26278 41.5689 8.48153C41.9893 8.69744 42.3174 8.9929 42.5532 9.3679C42.789 9.74006 42.9069 10.1605 42.9069 10.6293C42.9069 10.9531 42.8459 11.2699 42.7237 11.5795C42.6044 11.8892 42.3956 12.2344 42.0973 12.6151C41.799 12.9929 41.3842 13.4517 40.853 13.9915L39.1186 15.8068V15.8707H43.0476V17H37.3032Z" fill="#1F2937"/>
</g>
<defs>
<filter id="filter0_d_812_85417" x="0" y="0" width="52" height="28" filterUnits="userSpaceOnUse" color-interpolation-filters="sRGB">
<feFlood flood-opacity="0" result="BackgroundImageFix"/>
<feColorMatrix in="SourceAlpha" type="matrix" values="0 0 0 0 0 0 0 0 0 0 0 0 0 0 0 0 0 0 127 0" result="hardAlpha"/>
<feOffset dy="1"/>
<feGaussianBlur stdDeviation="1"/>
<feComposite in2="hardAlpha" operator="out"/>
<feColorMatrix type="matrix" values="0 0 0 0 0 0 0 0 0 0 0 0 0 0 0 0 0 0 0.05 0"/>
<feBlend mode="normal" in2="BackgroundImageFix" result="effect1_dropShadow_812_85417"/>
<feBlend mode="normal" in="SourceGraphic" in2="effect1_dropShadow_812_85417" result="shape"/>
</filter>
<clipPath id="clip0_812_85417">
<rect width="12" height="12" fill="white" transform="translate(8 7)"/>
</clipPath>
</defs>
</svg>
