<svg width="74" height="38" viewBox="0 0 74 38" fill="none" xmlns="http://www.w3.org/2000/svg">
<path d="M0 8C0 3.58172 3.58172 0 8 0H66C70.4183 0 74 3.58172 74 8V30C74 34.4183 70.4183 38 66 38H8C3.58172 38 0 34.4183 0 30V8Z" fill="#2563EB"/>
<g clip-path="url(#clip0_1271_17984)">
<path d="M23.6663 19V24.8333H14.333V19" stroke="white" stroke-linecap="round" strokeLinejoin="round"/>
<path d="M24.8337 16.0833H13.167V19H24.8337V16.0833Z" stroke="white" stroke-linecap="round" strokeLinejoin="round"/>
<path d="M19 24.8333V16.0833" stroke="white" stroke-linecap="round" strokeLinejoin="round"/>
<path d="M19.0003 16.0834H16.3753C15.9886 16.0834 15.6176 15.9297 15.3441 15.6562C15.0706 15.3827 14.917 15.0118 14.917 14.625C14.917 14.2382 15.0706 13.8673 15.3441 13.5938C15.6176 13.3203 15.9886 13.1667 16.3753 13.1667C18.417 13.1667 19.0003 16.0834 19.0003 16.0834Z" stroke="white" stroke-linecap="round" strokeLinejoin="round"/>
<path d="M19 16.0834H21.625C22.0118 16.0834 22.3827 15.9297 22.6562 15.6562C22.9297 15.3827 23.0833 15.0118 23.0833 14.625C23.0833 14.2382 22.9297 13.8673 22.6562 13.5938C22.3827 13.3203 22.0118 13.1667 21.625 13.1667C19.5833 13.1667 19 16.0834 19 16.0834Z" stroke="white" stroke-linecap="round" strokeLinejoin="round"/>
</g>
<path d="M42.7219 16.5746C42.6332 16.2869 42.5106 16.0295 42.3544 15.8022C42.2017 15.5714 42.017 15.3743 41.8004 15.2109C41.5873 15.0476 41.3423 14.9251 41.0653 14.8434C40.7883 14.7582 40.4865 14.7156 40.1598 14.7156C39.5738 14.7156 39.0518 14.8629 38.5937 15.1577C38.1356 15.4524 37.7752 15.8857 37.5124 16.4574C37.2532 17.0256 37.1236 17.718 37.1236 18.5348C37.1236 19.3587 37.2532 20.0565 37.5124 20.6282C37.7716 21.1999 38.1321 21.6349 38.5937 21.9332C39.0554 22.228 39.5916 22.3754 40.2024 22.3754C40.7564 22.3754 41.2358 22.2688 41.6406 22.0558C42.049 21.8427 42.3633 21.5408 42.5834 21.1502C42.8036 20.756 42.9137 20.2944 42.9137 19.7653L43.3611 19.8345H40.3995V18.2898H44.826V19.6001C44.826 20.5341 44.6271 21.342 44.2294 22.0238C43.8317 22.7056 43.2848 23.2312 42.5888 23.6005C41.8927 23.9663 41.0937 24.1491 40.1917 24.1491C39.1868 24.1491 38.3043 23.9237 37.5444 23.4727C36.788 23.0181 36.1967 22.3736 35.7706 21.5391C35.348 20.701 35.1367 19.7067 35.1367 18.5561C35.1367 17.6754 35.261 16.8888 35.5096 16.1964C35.7617 15.5039 36.1133 14.9162 36.5643 14.4332C37.0153 13.9467 37.5444 13.5774 38.1516 13.3253C38.7589 13.0696 39.4194 12.9418 40.1331 12.9418C40.7368 12.9418 41.2997 13.0305 41.8217 13.2081C42.3437 13.3821 42.8072 13.6307 43.212 13.9538C43.6204 14.277 43.9559 14.6605 44.2187 15.1044C44.4815 15.5483 44.6537 16.0384 44.7354 16.5746H42.7219ZM47.2394 24V15.8182H49.1677V24H47.2394ZM48.2089 14.657C47.9035 14.657 47.6407 14.5558 47.4205 14.3533C47.2003 14.1474 47.0903 13.9006 47.0903 13.6129C47.0903 13.3217 47.2003 13.0749 47.4205 12.8725C47.6407 12.6665 47.9035 12.5636 48.2089 12.5636C48.5178 12.5636 48.7806 12.6665 48.9972 12.8725C49.2174 13.0749 49.3275 13.3217 49.3275 13.6129C49.3275 13.9006 49.2174 14.1474 48.9972 14.3533C48.7806 14.5558 48.5178 14.657 48.2089 14.657ZM55.3697 15.8182V17.3097H50.5331V15.8182H55.3697ZM51.7422 24V15.0458C51.7422 14.4954 51.8559 14.0373 52.0831 13.6715C52.314 13.3058 52.6229 13.0323 53.01 12.8512C53.3971 12.6701 53.8267 12.5795 54.299 12.5795C54.6328 12.5795 54.9294 12.6062 55.1886 12.6594C55.4478 12.7127 55.6396 12.7607 55.7639 12.8033L55.3804 14.2947C55.2987 14.2699 55.1957 14.245 55.0714 14.2202C54.9471 14.1918 54.8086 14.1776 54.6559 14.1776C54.2973 14.1776 54.0434 14.2646 53.8942 14.4386C53.7486 14.609 53.6758 14.854 53.6758 15.1737V24H51.7422ZM61.0404 15.8182V17.3097H56.3369V15.8182H61.0404ZM57.4982 13.858H59.4264V21.5391C59.4264 21.7983 59.4655 21.9972 59.5436 22.1357C59.6253 22.2706 59.7318 22.3629 59.8632 22.4126C59.9946 22.4624 60.1402 22.4872 60.3 22.4872C60.4207 22.4872 60.5308 22.4783 60.6303 22.4606C60.7332 22.4428 60.8114 22.4268 60.8646 22.4126L61.1896 23.9201C61.0866 23.9556 60.9392 23.9947 60.7474 24.0373C60.5592 24.0799 60.3284 24.1048 60.055 24.1119C59.572 24.1261 59.137 24.0533 58.7499 23.8935C58.3629 23.7301 58.0557 23.478 57.8284 23.1371C57.6047 22.7962 57.4946 22.37 57.4982 21.8587V13.858Z" fill="white"/>
<defs>
<clipPath id="clip0_1271_17984">
<rect width="14" height="14" fill="white" transform="translate(12 12)"/>
</clipPath>
</defs>
</svg>
