<svg width="21" height="20" viewBox="0 0 21 20" fill="none" xmlns="http://www.w3.org/2000/svg">
<path d="M14.2397 3.125C12.6265 3.125 11.214 3.81875 10.3335 4.99141C9.45303 3.81875 8.04053 3.125 6.42725 3.125C5.14305 3.12645 3.91186 3.63723 3.0038 4.5453C2.09573 5.45337 1.58494 6.68455 1.5835 7.96875C1.5835 13.4375 9.69209 17.8641 10.0374 18.0469C10.1284 18.0958 10.2301 18.1215 10.3335 18.1215C10.4368 18.1215 10.5386 18.0958 10.6296 18.0469C10.9749 17.8641 19.0835 13.4375 19.0835 7.96875C19.082 6.68455 18.5713 5.45337 17.6632 4.5453C16.7551 3.63723 15.5239 3.12645 14.2397 3.125ZM10.3335 16.7812C8.90693 15.95 2.8335 12.1633 2.8335 7.96875C2.83474 7.01601 3.21376 6.10265 3.88745 5.42896C4.56114 4.75526 5.47451 4.37624 6.42725 4.375C7.94678 4.375 9.22256 5.18438 9.75537 6.48438C9.80246 6.59901 9.88256 6.69705 9.9855 6.76605C10.0884 6.83505 10.2096 6.8719 10.3335 6.8719C10.4574 6.8719 10.5786 6.83505 10.6815 6.76605C10.7844 6.69705 10.8645 6.59901 10.9116 6.48438C11.4444 5.18203 12.7202 4.375 14.2397 4.375C15.1925 4.37624 16.1059 4.75526 16.7795 5.42896C17.4532 6.10265 17.8323 7.01601 17.8335 7.96875C17.8335 12.157 11.7585 15.9492 10.3335 16.7812Z" fill="#606E80"/>
</svg>
