<svg width="48" height="48" viewBox="0 0 48 48" fill="none" xmlns="http://www.w3.org/2000/svg">
<rect width="48" height="48" rx="8" fill="#2563EB"/>
<mask id="mask0_812_82232" style="mask-type:alpha" maskUnits="userSpaceOnUse" x="12" y="12" width="24" height="24">
<rect x="12" y="12" width="24" height="24" fill="#D9D9D9"/>
</mask>
<g mask="url(#mask0_812_82232)">
<path d="M27.7731 24.973L26.6501 23.85C26.8001 23.0218 26.5638 22.2773 25.9413 21.6163C25.319 20.9554 24.5552 20.7 23.6501 20.85L22.5271 19.727C22.7527 19.6257 22.9842 19.5497 23.2213 19.499C23.4585 19.4483 23.7181 19.423 24.0001 19.423C25.1347 19.423 26.0979 19.8188 26.8896 20.6105C27.6812 21.4022 28.0771 22.3653 28.0771 23.5C28.0771 23.782 28.0517 24.0448 28.0011 24.2885C27.9504 24.532 27.8744 24.7602 27.7731 24.973ZM30.9538 28.0845L29.8501 27.05C30.4834 26.5667 31.0459 26.0375 31.5376 25.4625C32.0292 24.8875 32.4501 24.2333 32.8001 23.5C31.9667 21.8167 30.7709 20.4792 29.2126 19.4875C27.6542 18.4958 25.9167 18 24.0001 18C23.5167 18 23.0417 18.0333 22.5751 18.1C22.1084 18.1667 21.6501 18.2667 21.2001 18.4L20.0348 17.2348C20.6668 16.9834 21.3123 16.7982 21.9713 16.679C22.6303 16.5597 23.3066 16.5 24.0001 16.5C26.3436 16.5 28.457 17.1462 30.3403 18.4385C32.2237 19.7308 33.5974 21.418 34.4616 23.5C34.0911 24.3935 33.6126 25.2275 33.0261 26.002C32.4394 26.7763 31.7487 27.4705 30.9538 28.0845ZM31.7616 33.8693L27.7156 29.8538C27.2027 30.0436 26.6344 30.1988 26.0106 30.3193C25.3869 30.4398 24.7167 30.5 24.0001 30.5C21.6501 30.5 19.5367 29.8538 17.6598 28.5615C15.7828 27.2692 14.4091 25.582 13.5386 23.5C13.9077 22.6167 14.3847 21.7927 14.9693 21.028C15.554 20.2632 16.1976 19.6 16.9001 19.0385L14.1308 16.2385L15.1848 15.1848L32.8153 32.8153L31.7616 33.8693ZM17.9541 20.0923C17.4257 20.5128 16.9119 21.0183 16.4126 21.6088C15.9132 22.1991 15.5091 22.8295 15.2001 23.5C16.0334 25.1833 17.2292 26.5208 18.7876 27.5125C20.3459 28.5042 22.0834 29 24.0001 29C24.4552 29 24.9085 28.9615 25.3598 28.8845C25.811 28.8077 26.1937 28.7283 26.5078 28.6463L25.2423 27.35C25.0718 27.4192 24.8744 27.4743 24.6501 27.5153C24.4257 27.5564 24.2091 27.577 24.0001 27.577C22.8654 27.577 21.9022 27.1812 21.1106 26.3895C20.3189 25.5978 19.9231 24.6347 19.9231 23.5C19.9231 23.2975 19.9437 23.0857 19.9848 22.8645C20.0258 22.6433 20.0809 22.4411 20.1501 22.2578L17.9541 20.0923Z" fill="white"/>
</g>
</svg>
