<svg width="16" height="16" viewBox="0 0 16 16" fill="none" xmlns="http://www.w3.org/2000/svg">
<g clip-path="url(#clip0_5358_13367)">
<path d="M1.33398 12V14C1.33398 14.4 1.60065 14.6667 2.00065 14.6667H4.66732V12.6667H6.66732V10.6667H8.00065L8.93398 9.73336C9.86054 10.0561 10.8692 10.0549 11.795 9.72986C12.7207 9.40483 13.5088 8.77525 14.0302 7.94411C14.5517 7.11297 14.7756 6.12947 14.6654 5.15452C14.5552 4.17956 14.1174 3.27086 13.4236 2.57707C12.7298 1.88328 11.8211 1.44548 10.8462 1.33528C9.8712 1.22509 8.88771 1.44902 8.05657 1.97045C7.22543 2.49188 6.59585 3.27994 6.27082 4.20571C5.94579 5.13147 5.94455 6.14014 6.26732 7.06669L1.33398 12Z" stroke="#6B7280" stroke-linecap="round" strokeLinejoin="round"/>
<path d="M10.9993 5.33342C11.1834 5.33342 11.3327 5.18418 11.3327 5.00008C11.3327 4.81599 11.1834 4.66675 10.9993 4.66675C10.8153 4.66675 10.666 4.81599 10.666 5.00008C10.666 5.18418 10.8153 5.33342 10.9993 5.33342Z" stroke="#6B7280" stroke-linecap="round" strokeLinejoin="round"/>
</g>
<defs>
<clipPath id="clip0_5358_13367">
<rect width="16" height="16" fill="white"/>
</clipPath>
</defs>
</svg>
