<svg width="16" height="16" viewBox="0 0 16 16" fill="none" xmlns="http://www.w3.org/2000/svg">
<path d="M5.99967 11.3333H4.66634C3.78229 11.3333 2.93444 10.9821 2.30932 10.357C1.6842 9.73186 1.33301 8.88401 1.33301 7.99996C1.33301 7.1159 1.6842 6.26806 2.30932 5.64294C2.93444 5.01782 3.78229 4.66663 4.66634 4.66663H5.99967" stroke="#1F2937" stroke-linecap="round" stroke-linejoin="round"/>
<path d="M10 4.66663H11.3333C12.2174 4.66663 13.0652 5.01782 13.6904 5.64294C14.3155 6.26806 14.6667 7.1159 14.6667 7.99996C14.6667 8.88401 14.3155 9.73186 13.6904 10.357C13.0652 10.9821 12.2174 11.3333 11.3333 11.3333H10" stroke="#1F2937" stroke-linecap="round" stroke-linejoin="round"/>
<path d="M5.33301 8H10.6663" stroke="#1F2937" stroke-linecap="round" stroke-linejoin="round"/>
</svg>
