<svg width="24" height="24" viewBox="0 0 24 24" fill="none" xmlns="http://www.w3.org/2000/svg">
<path d="M0 12C0 5.37258 5.37258 0 12 0C18.6274 0 24 5.37258 24 12C24 18.6274 18.6274 24 12 24C5.37258 24 0 18.6274 0 12Z" fill="#CCFBF1"/>
<path d="M16.5 10.875C16.5 10.9745 16.4605 11.0698 16.3902 11.1402C16.3198 11.2105 16.2245 11.25 16.125 11.25C16.0255 11.25 15.9302 11.2105 15.8598 11.1402C15.7895 11.0698 15.75 10.9745 15.75 10.875V8.78062L12.6408 11.8903C12.5704 11.9607 12.475 12.0002 12.3755 12.0002C12.276 12.0002 12.1805 11.9607 12.1102 11.8903C12.0398 11.8199 12.0003 11.7245 12.0003 11.625C12.0003 11.5255 12.0398 11.4301 12.1102 11.3597L15.2194 8.25H13.125C13.0255 8.25 12.9302 8.21049 12.8598 8.14016C12.7895 8.06984 12.75 7.97446 12.75 7.875C12.75 7.77554 12.7895 7.68016 12.8598 7.60984C12.9302 7.53951 13.0255 7.5 13.125 7.5H16.125C16.2245 7.5 16.3198 7.53951 16.3902 7.60984C16.4605 7.68016 16.5 7.77554 16.5 7.875V10.875ZM14.625 12C14.5255 12 14.4302 12.0395 14.3598 12.1098C14.2895 12.1802 14.25 12.2755 14.25 12.375V15.75H8.25V9.75H11.625C11.7245 9.75 11.8198 9.71049 11.8902 9.64016C11.9605 9.56984 12 9.47446 12 9.375C12 9.27554 11.9605 9.18016 11.8902 9.10984C11.8198 9.03951 11.7245 9 11.625 9H8.25C8.05109 9 7.86032 9.07902 7.71967 9.21967C7.57902 9.36032 7.5 9.55109 7.5 9.75V15.75C7.5 15.9489 7.57902 16.1397 7.71967 16.2803C7.86032 16.421 8.05109 16.5 8.25 16.5H14.25C14.4489 16.5 14.6397 16.421 14.7803 16.2803C14.921 16.1397 15 15.9489 15 15.75V12.375C15 12.2755 14.9605 12.1802 14.8902 12.1098C14.8198 12.0395 14.7245 12 14.625 12Z" fill="#115E59"/>
</svg>
