<svg width="61" height="24" viewBox="0 0 61 24" fill="none" xmlns="http://www.w3.org/2000/svg">
<path d="M0 12C0 5.37258 5.37258 0 12 0H49C55.6274 0 61 5.37258 61 12C61 18.6274 55.6274 24 49 24H12C5.37258 24 0 18.6274 0 12Z" fill="#5A3E85"/>
<rect x="2" y="2" width="20" height="20" rx="10" fill="white"/>
<path d="M7.06502 6.28564L6.28564 8.27327V16.2228H9.14203V17.7142H10.7014L12.2594 16.2228H14.5969L17.7142 13.2427V6.28564H7.06502ZM8.10337 7.27882H16.6754V12.7448L14.8567 14.4841H11.9999L10.4425 15.9736V14.4842H8.10337V7.27882ZM10.9609 12.2485H11.9999V9.2675H10.9609V12.2485ZM13.8179 12.2485H14.8567V9.2675H13.8179V12.2485Z" fill="#5A3E85"/>
<path d="M28.1186 17V6.81818H29.6548V15.6776H34.2685V17H28.1186ZM35.9716 17V9.36364H37.4581V17H35.9716ZM36.7223 8.18537C36.4638 8.18537 36.2418 8.09919 36.0562 7.92685C35.8739 7.75118 35.7827 7.54238 35.7827 7.30043C35.7827 7.05516 35.8739 6.84635 36.0562 6.67401C36.2418 6.49834 36.4638 6.41051 36.7223 6.41051C36.9809 6.41051 37.2013 6.49834 37.3836 6.67401C37.5692 6.84635 37.662 7.05516 37.662 7.30043C37.662 7.54238 37.5692 7.75118 37.3836 7.92685C37.2013 8.09919 36.9809 8.18537 36.7223 8.18537ZM46.0606 9.36364L43.2915 17H41.7005L38.9264 9.36364H40.5223L42.4562 15.2401H42.5358L44.4648 9.36364H46.0606ZM50.5591 17.1541C49.8067 17.1541 49.1587 16.9934 48.6152 16.6719C48.0749 16.3471 47.6573 15.8913 47.3623 15.3047C47.0707 14.7147 46.9248 14.0237 46.9248 13.2315C46.9248 12.4493 47.0707 11.7599 47.3623 11.1634C47.6573 10.5668 48.0683 10.1011 48.5953 9.76633C49.1256 9.43158 49.7454 9.2642 50.4547 9.2642C50.8855 9.2642 51.3032 9.33546 51.7075 9.47798C52.1119 9.6205 52.4748 9.84422 52.7963 10.1491C53.1178 10.4541 53.3713 10.8501 53.5569 11.3374C53.7426 11.8213 53.8354 12.4096 53.8354 13.1023V13.6293H47.765V12.5156H52.3787C52.3787 12.1245 52.2991 11.7782 52.14 11.4766C51.981 11.1716 51.7572 10.9313 51.4689 10.7557C51.1838 10.58 50.8491 10.4922 50.4646 10.4922C50.047 10.4922 49.6824 10.5949 49.3709 10.8004C49.0626 11.0026 48.824 11.2678 48.655 11.5959C48.4892 11.9207 48.4064 12.2737 48.4064 12.6548V13.5249C48.4064 14.0353 48.4959 14.4695 48.6748 14.8274C48.8571 15.1854 49.1107 15.4588 49.4355 15.6477C49.7603 15.8333 50.1398 15.9261 50.574 15.9261C50.8557 15.9261 51.1126 15.8864 51.3446 15.8068C51.5766 15.724 51.7771 15.6013 51.9461 15.4389C52.1152 15.2765 52.2444 15.076 52.3339 14.8374L53.7409 15.0909C53.6282 15.5052 53.426 15.8681 53.1344 16.1797C52.846 16.4879 52.4831 16.7282 52.0456 16.9006C51.6114 17.0696 51.1159 17.1541 50.5591 17.1541Z" fill="white"/>
</svg>
