<svg width="14" height="14" viewBox="0 0 14 14" fill="none" xmlns="http://www.w3.org/2000/svg">
<path d="M6.99989 4.81251C6.56725 4.81251 6.14431 4.9408 5.78458 5.18117C5.42485 5.42153 5.14447 5.76317 4.97891 6.16289C4.81334 6.5626 4.77002 7.00243 4.85442 7.42677C4.93883 7.8511 5.14717 8.24087 5.4531 8.5468C5.75902 8.85273 6.1488 9.06107 6.57313 9.14547C6.99747 9.22988 7.4373 9.18656 7.83701 9.02099C8.23673 8.85543 8.57837 8.57505 8.81873 8.21532C9.0591 7.85558 9.18739 7.43265 9.18739 7.00001C9.18739 6.41985 8.95692 5.86345 8.54669 5.45321C8.13645 5.04297 7.58005 4.81251 6.99989 4.81251ZM6.99989 8.31251C6.7403 8.31251 6.48655 8.23553 6.27071 8.09131C6.05487 7.94709 5.88664 7.74211 5.7873 7.50228C5.68796 7.26245 5.66197 6.99855 5.71261 6.74395C5.76325 6.48935 5.88826 6.25548 6.07181 6.07193C6.25537 5.88837 6.48924 5.76337 6.74384 5.71273C6.99844 5.66208 7.26234 5.68807 7.50216 5.78741C7.74199 5.88675 7.94698 6.05498 8.0912 6.27082C8.23542 6.48666 8.31239 6.74042 8.31239 7.00001C8.31239 7.3481 8.17411 7.68194 7.92797 7.92808C7.68183 8.17423 7.34799 8.31251 6.99989 8.31251ZM11.0309 8.70297C10.8429 9.14735 10.5828 9.55758 10.2609 9.91704C10.183 10.0014 10.075 10.0517 9.96031 10.0571C9.84561 10.0625 9.73337 10.0227 9.64781 9.94608C9.56226 9.86949 9.51024 9.76234 9.50298 9.64774C9.49573 9.53314 9.53382 9.42029 9.60903 9.33352C10.1835 8.69212 10.5011 7.86133 10.5011 7.00028C10.5011 6.13923 10.1835 5.30844 9.60903 4.66704C9.56964 4.62441 9.53912 4.57438 9.51926 4.51985C9.49939 4.46531 9.49058 4.40737 9.49332 4.3494C9.49607 4.29143 9.51032 4.23458 9.53525 4.18217C9.56018 4.12976 9.59529 4.08283 9.63854 4.04412C9.68178 4.00541 9.7323 3.97569 9.78714 3.95669C9.84198 3.9377 9.90005 3.9298 9.95798 3.93347C10.0159 3.93714 10.0725 3.95229 10.1245 3.97806C10.1765 4.00382 10.2229 4.03967 10.2609 4.08352C10.8133 4.70168 11.1789 5.46393 11.3153 6.28168C11.4516 7.09942 11.353 7.93906 11.0309 8.70297ZM3.77333 5.63774C3.51519 6.2488 3.43602 6.92064 3.54505 7.57497C3.65407 8.22929 3.94679 8.83917 4.38911 9.33352C4.46433 9.42029 4.50242 9.53314 4.49516 9.64774C4.48791 9.76234 4.43589 9.86949 4.35033 9.94608C4.26477 10.0227 4.15253 10.0625 4.03784 10.0571C3.92314 10.0517 3.81517 10.0014 3.73724 9.91704C3.01896 9.11529 2.62178 8.07671 2.62178 7.00028C2.62178 5.92385 3.01896 4.88526 3.73724 4.08352C3.81461 3.99686 3.92325 3.94449 4.03924 3.93792C4.15524 3.93136 4.26909 3.97114 4.35575 4.04852C4.44241 4.1259 4.49479 4.23454 4.50135 4.35053C4.50791 4.46653 4.46813 4.58038 4.39075 4.66704C4.13263 4.95419 3.92398 5.28222 3.77333 5.63774ZM13.5624 7.00001C13.565 8.71814 12.8914 10.3683 11.6872 11.5938C11.6473 11.6364 11.5994 11.6706 11.5461 11.6943C11.4929 11.7181 11.4354 11.731 11.3771 11.7323C11.3188 11.7336 11.2608 11.7231 11.2066 11.7017C11.1523 11.6802 11.1029 11.6481 11.0613 11.6073C11.0197 11.5664 10.9866 11.5177 10.9641 11.4639C10.9416 11.4101 10.93 11.3523 10.9301 11.294C10.9303 11.2357 10.942 11.1779 10.9648 11.1242C10.9876 11.0705 11.0208 11.0219 11.0626 10.9813C12.1054 9.91888 12.6896 8.48971 12.6896 7.0011C12.6896 5.51249 12.1054 4.08332 11.0626 3.02094C10.9811 2.93813 10.9358 2.82632 10.9368 2.71012C10.9377 2.59392 10.9847 2.48285 11.0675 2.40133C11.1504 2.31982 11.2622 2.27455 11.3784 2.27547C11.4946 2.27639 11.6056 2.32344 11.6872 2.40626C12.8914 3.63171 13.565 5.28187 13.5624 7.00001ZM2.93716 10.9802C2.97745 11.0212 3.00926 11.0697 3.03079 11.123C3.05232 11.1763 3.06314 11.2333 3.06264 11.2908C3.06213 11.3483 3.0503 11.4051 3.02783 11.458C3.00537 11.511 2.9727 11.5589 2.93169 11.5992C2.89068 11.6395 2.84214 11.6713 2.78884 11.6929C2.73553 11.7144 2.67851 11.7252 2.62103 11.7247C2.56354 11.7242 2.50672 11.7124 2.4538 11.6899C2.40089 11.6674 2.35292 11.6348 2.31263 11.5938C1.10851 10.3679 0.433838 8.71831 0.433838 7.00001C0.433838 5.2817 1.10851 3.63209 2.31263 2.40626C2.35247 2.36366 2.40042 2.32946 2.45368 2.30567C2.50693 2.28187 2.5644 2.26897 2.62271 2.26771C2.68102 2.26645 2.739 2.27687 2.79323 2.29834C2.84746 2.31982 2.89684 2.35192 2.93848 2.39276C2.98012 2.43359 3.01318 2.48235 3.03571 2.53615C3.05823 2.58995 3.06977 2.64771 3.06965 2.70604C3.06952 2.76436 3.05774 2.82207 3.03499 2.87578C3.01223 2.92948 2.97897 2.97809 2.93716 3.01876C1.89441 4.08114 1.31023 5.5103 1.31023 6.99891C1.31023 8.48753 1.89441 9.91669 2.93716 10.9791V10.9802Z" fill="white"/>
</svg>
