<svg width="280" height="110" viewBox="0 0 280 110" fill="none" xmlns="http://www.w3.org/2000/svg">
<g clip-path="url(#clip0_812_85278)">
<rect width="280" height="110" rx="8" fill="white"/>
<rect x="-7" y="-4" width="294" height="168" fill="#181D25"/>
<mask id="path-3-inside-1_812_85278" fill="white">
<path d="M71 25H108V65H71V25Z"/>
</mask>
<path d="M108 64H71V66H108V64Z" fill="#404B5A" mask="url(#path-3-inside-1_812_85278)"/>
<path d="M81.8111 57.4432C79.9399 57.4432 78.3338 56.9697 76.9929 56.0227C75.6596 55.0682 74.633 53.6932 73.9134 51.8977C73.2012 50.0947 72.8452 47.9242 72.8452 45.3864C72.8527 42.8485 73.2126 40.6894 73.9247 38.9091C74.6444 37.1212 75.6709 35.7576 77.0043 34.8182C78.3452 33.8788 79.9474 33.4091 81.8111 33.4091C83.6747 33.4091 85.277 33.8788 86.6179 34.8182C87.9588 35.7576 88.9853 37.1212 89.6974 38.9091C90.4171 40.697 90.777 42.8561 90.777 45.3864C90.777 47.9318 90.4171 50.1061 89.6974 51.9091C88.9853 53.7045 87.9588 55.0758 86.6179 56.0227C85.2846 56.9697 83.6823 57.4432 81.8111 57.4432ZM81.8111 53.8864C83.2656 53.8864 84.4134 53.1705 85.2543 51.7386C86.1027 50.2992 86.527 48.1818 86.527 45.3864C86.527 43.5379 86.3338 41.9848 85.9474 40.7273C85.5611 39.4697 85.0156 38.5227 84.3111 37.8864C83.6065 37.2424 82.7732 36.9205 81.8111 36.9205C80.3641 36.9205 79.2202 37.6402 78.3793 39.0795C77.5384 40.5114 77.1141 42.6136 77.1065 45.3864C77.099 47.2424 77.2846 48.803 77.6634 50.0682C78.0497 51.3333 78.5952 52.2879 79.2997 52.9318C80.0043 53.5682 80.8414 53.8864 81.8111 53.8864ZM104.018 33.7273V57H99.8026V37.8295H99.6662L94.223 41.3068V37.4432L100.007 33.7273H104.018Z" fill="#F6F7F9"/>
<path d="M70.9055 80V69.8182H72.1384V74.3523H77.5674V69.8182H78.8003V80H77.5674V75.446H72.1384V80H70.9055ZM84.2819 80.1591C83.5925 80.1591 82.9876 79.995 82.4673 79.6669C81.9502 79.3388 81.5459 78.8797 81.2542 78.2898C80.9659 77.6998 80.8217 77.0104 80.8217 76.2216C80.8217 75.4261 80.9659 74.7318 81.2542 74.1385C81.5459 73.5452 81.9502 73.0845 82.4673 72.7564C82.9876 72.4283 83.5925 72.2642 84.2819 72.2642C84.9713 72.2642 85.5745 72.4283 86.0916 72.7564C86.6119 73.0845 87.0163 73.5452 87.3046 74.1385C87.5963 74.7318 87.7421 75.4261 87.7421 76.2216C87.7421 77.0104 87.5963 77.6998 87.3046 78.2898C87.0163 78.8797 86.6119 79.3388 86.0916 79.6669C85.5745 79.995 84.9713 80.1591 84.2819 80.1591ZM84.2819 79.1051C84.8056 79.1051 85.2365 78.9709 85.5745 78.7024C85.9126 78.4339 86.1628 78.081 86.3252 77.6435C86.4876 77.206 86.5689 76.732 86.5689 76.2216C86.5689 75.7112 86.4876 75.2356 86.3252 74.7947C86.1628 74.3539 85.9126 73.9976 85.5745 73.7259C85.2365 73.4541 84.8056 73.3182 84.2819 73.3182C83.7582 73.3182 83.3274 73.4541 82.9893 73.7259C82.6512 73.9976 82.401 74.3539 82.2386 74.7947C82.0762 75.2356 81.995 75.7112 81.995 76.2216C81.995 76.732 82.0762 77.206 82.2386 77.6435C82.401 78.081 82.6512 78.4339 82.9893 78.7024C83.3274 78.9709 83.7582 79.1051 84.2819 79.1051ZM94.4157 76.8778V72.3636H95.589V80H94.4157V78.7074H94.3361C94.1571 79.0952 93.8787 79.425 93.5009 79.6967C93.123 79.9652 92.6458 80.0994 92.0691 80.0994C91.5918 80.0994 91.1676 79.995 90.7963 79.7862C90.4251 79.5741 90.1335 79.2559 89.9213 78.8317C89.7092 78.4041 89.6032 77.8655 89.6032 77.2159V72.3636H90.7765V77.1364C90.7765 77.6932 90.9322 78.1373 91.2438 78.4688C91.5587 78.8002 91.9597 78.9659 92.4469 78.9659C92.7386 78.9659 93.0352 78.8913 93.3368 78.7422C93.6417 78.593 93.897 78.3643 94.1025 78.0561C94.3113 77.7479 94.4157 77.3551 94.4157 76.8778ZM97.8079 80V72.3636H98.9414V73.517H99.021C99.1602 73.1392 99.4121 72.8326 99.7767 72.5973C100.141 72.362 100.552 72.2443 101.01 72.2443C101.096 72.2443 101.204 72.246 101.333 72.2493C101.462 72.2526 101.56 72.2576 101.626 72.2642V73.4574C101.586 73.4474 101.495 73.4325 101.353 73.4126C101.213 73.3894 101.066 73.3778 100.91 73.3778C100.539 73.3778 100.208 73.4557 99.9159 73.6115C99.6275 73.764 99.3988 73.9761 99.2298 74.2479C99.0641 74.5163 98.9812 74.8229 98.9812 75.1676V80H97.8079ZM108.496 74.0739L107.442 74.3722C107.376 74.1965 107.278 74.0258 107.149 73.8601C107.023 73.6911 106.85 73.5518 106.632 73.4425C106.413 73.3331 106.133 73.2784 105.791 73.2784C105.324 73.2784 104.935 73.3861 104.623 73.6016C104.315 73.8137 104.161 74.0838 104.161 74.4119C104.161 74.7036 104.267 74.9339 104.479 75.103C104.691 75.272 105.023 75.4129 105.473 75.5256L106.607 75.804C107.29 75.9697 107.798 76.2232 108.133 76.5646C108.468 76.9027 108.635 77.3385 108.635 77.8722C108.635 78.3097 108.509 78.7008 108.257 79.0455C108.009 79.3902 107.661 79.6619 107.213 79.8608C106.766 80.0597 106.246 80.1591 105.652 80.1591C104.873 80.1591 104.229 79.9901 103.718 79.652C103.208 79.3139 102.885 78.8201 102.749 78.1705L103.862 77.892C103.969 78.303 104.169 78.6113 104.464 78.8168C104.762 79.0223 105.152 79.125 105.632 79.125C106.179 79.125 106.613 79.009 106.935 78.777C107.26 78.5417 107.422 78.2599 107.422 77.9318C107.422 77.6667 107.329 77.4446 107.144 77.2656C106.958 77.0833 106.673 76.9474 106.289 76.858L105.016 76.5597C104.317 76.3939 103.803 76.1371 103.475 75.7891C103.15 75.4377 102.987 74.9986 102.987 74.4716C102.987 74.0407 103.108 73.6596 103.35 73.3281C103.596 72.9967 103.929 72.7365 104.35 72.5476C104.774 72.3587 105.255 72.2642 105.791 72.2642C106.547 72.2642 107.14 72.4299 107.571 72.7614C108.005 73.0928 108.314 73.5303 108.496 74.0739Z" fill="#B0BECB"/>
<mask id="path-7-inside-2_812_85278" fill="white">
<path d="M121.5 25H158.5V65H121.5V25Z"/>
</mask>
<path d="M158.5 64H121.5V66H158.5V64Z" fill="#404B5A" mask="url(#path-7-inside-2_812_85278)"/>
<path d="M133.19 33.7273V57H128.974V37.8295H128.838L123.395 41.3068V37.4432L129.179 33.7273H133.19ZM138.679 52.6818V49.3295L148.554 33.7273H151.349V38.5H149.645L142.997 49.0341V49.2159H156.781V52.6818H138.679ZM149.781 57V51.6591L149.827 50.1591V33.7273H153.804V57H149.781Z" fill="#F6F7F9"/>
<path d="M125.487 69.8182H126.959L130.419 78.2699H130.538L133.999 69.8182H135.47V80H134.317V72.2642H134.217L131.036 80H129.922L126.74 72.2642H126.641V80H125.487V69.8182ZM137.853 80V72.3636H139.027V80H137.853ZM138.45 71.0909C138.221 71.0909 138.024 71.013 137.858 70.8572C137.696 70.7015 137.615 70.5142 137.615 70.2955C137.615 70.0767 137.696 69.8894 137.858 69.7337C138.024 69.5779 138.221 69.5 138.45 69.5C138.679 69.5 138.874 69.5779 139.037 69.7337C139.202 69.8894 139.285 70.0767 139.285 70.2955C139.285 70.5142 139.202 70.7015 139.037 70.8572C138.874 71.013 138.679 71.0909 138.45 71.0909ZM142.419 75.4062V80H141.246V72.3636H142.379V73.5568H142.479C142.658 73.169 142.929 72.8575 143.294 72.6222C143.658 72.3835 144.129 72.2642 144.706 72.2642C145.223 72.2642 145.675 72.3703 146.063 72.5824C146.451 72.7912 146.752 73.1094 146.968 73.5369C147.183 73.9612 147.291 74.4981 147.291 75.1477V80H146.118V75.2273C146.118 74.6274 145.962 74.16 145.65 73.8253C145.339 73.4872 144.911 73.3182 144.368 73.3182C143.993 73.3182 143.658 73.3994 143.363 73.5618C143.072 73.7242 142.841 73.9612 142.672 74.2727C142.503 74.5843 142.419 74.9621 142.419 75.4062ZM154.914 74.0739L153.86 74.3722C153.794 74.1965 153.696 74.0258 153.567 73.8601C153.441 73.6911 153.269 73.5518 153.05 73.4425C152.831 73.3331 152.551 73.2784 152.21 73.2784C151.742 73.2784 151.353 73.3861 151.041 73.6016C150.733 73.8137 150.579 74.0838 150.579 74.4119C150.579 74.7036 150.685 74.9339 150.897 75.103C151.109 75.272 151.441 75.4129 151.891 75.5256L153.025 75.804C153.708 75.9697 154.216 76.2232 154.551 76.5646C154.886 76.9027 155.053 77.3385 155.053 77.8722C155.053 78.3097 154.927 78.7008 154.675 79.0455C154.427 79.3902 154.079 79.6619 153.631 79.8608C153.184 80.0597 152.664 80.1591 152.07 80.1591C151.291 80.1591 150.647 79.9901 150.136 79.652C149.626 79.3139 149.303 78.8201 149.167 78.1705L150.281 77.892C150.387 78.303 150.587 78.6113 150.882 78.8168C151.18 79.0223 151.57 79.125 152.05 79.125C152.597 79.125 153.032 79.009 153.353 78.777C153.678 78.5417 153.84 78.2599 153.84 77.9318C153.84 77.6667 153.747 77.4446 153.562 77.2656C153.376 77.0833 153.091 76.9474 152.707 76.858L151.434 76.5597C150.735 76.3939 150.221 76.1371 149.893 75.7891C149.568 75.4377 149.406 74.9986 149.406 74.4716C149.406 74.0407 149.527 73.6596 149.769 73.3281C150.014 72.9967 150.347 72.7365 150.768 72.5476C151.192 72.3587 151.673 72.2642 152.21 72.2642C152.965 72.2642 153.559 72.4299 153.989 72.7614C154.424 73.0928 154.732 73.5303 154.914 74.0739Z" fill="#929FB1"/>
<mask id="path-11-inside-3_812_85278" fill="white">
<path d="M170.5 25H210.5V65H170.5V25Z"/>
</mask>
<path d="M210.5 64H170.5V66H210.5V64Z" fill="#404B5A" mask="url(#path-11-inside-3_812_85278)"/>
<path d="M181.108 57.3182C179.472 57.3182 178.017 57.0379 176.744 56.4773C175.479 55.9167 174.479 55.1364 173.744 54.1364C173.009 53.1364 172.619 51.9811 172.574 50.6705H176.847C176.884 51.2992 177.093 51.8485 177.472 52.3182C177.85 52.7803 178.354 53.1402 178.983 53.3977C179.612 53.6553 180.316 53.7841 181.097 53.7841C181.93 53.7841 182.669 53.6402 183.312 53.3523C183.956 53.0568 184.46 52.6477 184.824 52.125C185.188 51.6023 185.366 51 185.358 50.3182C185.366 49.6136 185.184 48.9924 184.812 48.4545C184.441 47.9167 183.903 47.4962 183.199 47.1932C182.502 46.8902 181.661 46.7386 180.676 46.7386H178.619V43.4886H180.676C181.487 43.4886 182.195 43.3485 182.801 43.0682C183.415 42.7879 183.896 42.3939 184.244 41.8864C184.593 41.3712 184.763 40.7765 184.756 40.1023C184.763 39.4432 184.616 38.8712 184.312 38.3864C184.017 37.8939 183.597 37.5114 183.051 37.2386C182.513 36.9659 181.881 36.8295 181.153 36.8295C180.441 36.8295 179.782 36.9583 179.176 37.2159C178.57 37.4735 178.081 37.8409 177.71 38.3182C177.339 38.7879 177.142 39.3485 177.119 40H173.062C173.093 38.697 173.468 37.553 174.188 36.5682C174.915 35.5758 175.884 34.803 177.097 34.25C178.309 33.6894 179.669 33.4091 181.176 33.4091C182.729 33.4091 184.078 33.7008 185.222 34.2841C186.373 34.8598 187.263 35.6364 187.892 36.6136C188.521 37.5909 188.835 38.6705 188.835 39.8523C188.843 41.1629 188.456 42.2614 187.676 43.1477C186.903 44.0341 185.888 44.6136 184.631 44.8864V45.0682C186.267 45.2955 187.521 45.9015 188.392 46.8864C189.271 47.8636 189.706 49.0795 189.699 50.5341C189.699 51.8371 189.328 53.0038 188.585 54.0341C187.85 55.0568 186.835 55.8598 185.54 56.4432C184.252 57.0265 182.775 57.3182 181.108 57.3182ZM194.452 57L204.349 37.4091V37.25H192.861V33.7273H208.713V37.3295L198.827 57H194.452Z" fill="#F6F7F9"/>
<path d="M181.091 72.3636C181.031 71.8598 180.789 71.4688 180.365 71.1903C179.941 70.9119 179.42 70.7727 178.804 70.7727C178.353 70.7727 177.959 70.8456 177.62 70.9915C177.286 71.1373 177.024 71.3378 176.835 71.593C176.649 71.8482 176.557 72.1383 176.557 72.4631C176.557 72.7348 176.621 72.9685 176.75 73.1641C176.883 73.3563 177.052 73.517 177.258 73.6463C177.463 73.7723 177.678 73.8767 177.904 73.9595C178.129 74.0391 178.336 74.1037 178.525 74.1534L179.559 74.4318C179.825 74.5014 180.12 74.5975 180.444 74.7202C180.772 74.8428 181.086 75.0102 181.384 75.2223C181.686 75.4311 181.934 75.6996 182.13 76.0277C182.325 76.3558 182.423 76.7585 182.423 77.2358C182.423 77.786 182.279 78.2831 181.991 78.7273C181.705 79.1714 181.288 79.5244 180.738 79.7862C180.191 80.0481 179.526 80.179 178.744 80.179C178.015 80.179 177.384 80.0613 176.85 79.826C176.32 79.5907 175.902 79.2625 175.597 78.8416C175.295 78.4207 175.125 77.9318 175.085 77.375H176.358C176.391 77.7595 176.52 78.0777 176.745 78.3295C176.974 78.5781 177.263 78.7637 177.611 78.8864C177.962 79.0057 178.34 79.0653 178.744 79.0653C179.215 79.0653 179.637 78.9891 180.012 78.8366C180.386 78.6809 180.683 78.4654 180.902 78.1903C181.12 77.9119 181.23 77.5871 181.23 77.2159C181.23 76.8778 181.135 76.6027 180.946 76.3906C180.758 76.1785 180.509 76.0062 180.201 75.8736C179.893 75.741 179.559 75.625 179.201 75.5256L177.949 75.1676C177.153 74.9389 176.523 74.6125 176.059 74.1882C175.595 73.764 175.363 73.2088 175.363 72.5227C175.363 71.9527 175.518 71.4555 175.826 71.0312C176.137 70.6037 176.555 70.2723 177.079 70.0369C177.606 69.7983 178.194 69.679 178.844 69.679C179.5 69.679 180.083 69.7966 180.594 70.032C181.104 70.264 181.508 70.5821 181.807 70.9865C182.108 71.3909 182.267 71.8499 182.284 72.3636H181.091ZM187.563 80.1591C186.827 80.1591 186.192 79.9967 185.659 79.6719C185.128 79.3438 184.719 78.8864 184.431 78.2997C184.146 77.7098 184.003 77.0237 184.003 76.2415C184.003 75.4593 184.146 74.7699 184.431 74.1733C184.719 73.5734 185.12 73.1061 185.634 72.7713C186.151 72.4332 186.754 72.2642 187.444 72.2642C187.841 72.2642 188.234 72.3305 188.622 72.4631C189.01 72.5956 189.363 72.8111 189.681 73.1094C189.999 73.4044 190.252 73.7955 190.441 74.2827C190.63 74.7699 190.725 75.3698 190.725 76.0824V76.5795H184.838V75.5653H189.532C189.532 75.1345 189.445 74.75 189.273 74.4119C189.104 74.0739 188.862 73.8071 188.547 73.6115C188.236 73.416 187.868 73.3182 187.444 73.3182C186.976 73.3182 186.572 73.4342 186.23 73.6662C185.892 73.8949 185.632 74.1932 185.45 74.5611C185.268 74.929 185.176 75.3234 185.176 75.7443V76.4205C185.176 76.9972 185.276 77.486 185.475 77.8871C185.677 78.2848 185.957 78.5881 186.315 78.7969C186.673 79.0024 187.089 79.1051 187.563 79.1051C187.871 79.1051 188.149 79.062 188.398 78.9759C188.65 78.8864 188.867 78.7538 189.049 78.5781C189.232 78.3991 189.372 78.1771 189.472 77.9119L190.605 78.2301C190.486 78.6146 190.286 78.9527 190.004 79.2443C189.722 79.5327 189.374 79.758 188.96 79.9205C188.546 80.0795 188.08 80.1591 187.563 80.1591ZM195.682 80.1591C194.966 80.1591 194.349 79.9901 193.832 79.652C193.315 79.3139 192.918 78.8482 192.639 78.255C192.361 77.6617 192.222 76.9839 192.222 76.2216C192.222 75.446 192.364 74.7616 192.649 74.1683C192.938 73.5717 193.339 73.1061 193.852 72.7713C194.369 72.4332 194.973 72.2642 195.662 72.2642C196.199 72.2642 196.683 72.3636 197.114 72.5625C197.545 72.7614 197.898 73.0398 198.173 73.3977C198.448 73.7557 198.618 74.1733 198.685 74.6506H197.511C197.422 74.3026 197.223 73.9943 196.915 73.7259C196.61 73.4541 196.199 73.3182 195.682 73.3182C195.224 73.3182 194.823 73.4375 194.479 73.6761C194.137 73.9115 193.871 74.2446 193.678 74.6754C193.489 75.103 193.395 75.6051 193.395 76.1818C193.395 76.7718 193.488 77.2855 193.673 77.723C193.862 78.1605 194.127 78.5002 194.469 78.7422C194.813 78.9841 195.218 79.1051 195.682 79.1051C195.987 79.1051 196.264 79.0521 196.512 78.946C196.761 78.84 196.971 78.6875 197.143 78.4886C197.316 78.2898 197.438 78.0511 197.511 77.7727H198.685C198.618 78.2235 198.454 78.6295 198.192 78.9908C197.934 79.3487 197.591 79.6338 197.163 79.8459C196.739 80.0547 196.245 80.1591 195.682 80.1591ZM205.879 74.0739L204.825 74.3722C204.759 74.1965 204.661 74.0258 204.532 73.8601C204.406 73.6911 204.233 73.5518 204.015 73.4425C203.796 73.3331 203.516 73.2784 203.174 73.2784C202.707 73.2784 202.318 73.3861 202.006 73.6016C201.698 73.8137 201.544 74.0838 201.544 74.4119C201.544 74.7036 201.65 74.9339 201.862 75.103C202.074 75.272 202.405 75.4129 202.856 75.5256L203.99 75.804C204.673 75.9697 205.181 76.2232 205.516 76.5646C205.851 76.9027 206.018 77.3385 206.018 77.8722C206.018 78.3097 205.892 78.7008 205.64 79.0455C205.392 79.3902 205.044 79.6619 204.596 79.8608C204.149 80.0597 203.628 80.1591 203.035 80.1591C202.256 80.1591 201.612 79.9901 201.101 79.652C200.591 79.3139 200.268 78.8201 200.132 78.1705L201.245 77.892C201.352 78.303 201.552 78.6113 201.847 78.8168C202.145 79.0223 202.535 79.125 203.015 79.125C203.562 79.125 203.996 79.009 204.318 78.777C204.643 78.5417 204.805 78.2599 204.805 77.9318C204.805 77.6667 204.712 77.4446 204.527 77.2656C204.341 77.0833 204.056 76.9474 203.672 76.858L202.399 76.5597C201.7 76.3939 201.186 76.1371 200.858 75.7891C200.533 75.4377 200.37 74.9986 200.37 74.4716C200.37 74.0407 200.491 73.6596 200.733 73.3281C200.979 72.9967 201.312 72.7365 201.733 72.5476C202.157 72.3587 202.637 72.2642 203.174 72.2642C203.93 72.2642 204.523 72.4299 204.954 72.7614C205.388 73.0928 205.697 73.5303 205.879 74.0739Z" fill="#929FB1"/>
</g>
<defs>
<clipPath id="clip0_812_85278">
<rect width="280" height="110" rx="8" fill="white"/>
</clipPath>
</defs>
</svg>
