<svg width="116" height="48" viewBox="0 0 116 48" fill="none" xmlns="http://www.w3.org/2000/svg">
<g clip-path="url(#clip0_2729_141154)">
<g opacity="0.8">
<path fill-rule="evenodd" clip-rule="evenodd" d="M82.7637 24.4883H85.6799V28.6336H85.7148C86.2065 27.7551 87.1911 27.4045 88.2274 27.4045C89.1589 27.4045 90.2651 27.7383 90.8797 28.4758C91.7051 29.4422 91.7931 30.3026 91.7931 32.0415V37.4871H88.8769V32.1825C88.8769 31.7077 88.8769 30.1448 87.314 30.1448C85.7511 30.1448 85.6799 31.6029 85.6799 32.0764V37.4871H82.7637V24.4883ZM102.895 37.4871H100.137V36.4507H100.102C99.5044 37.698 98.3102 37.804 97.5727 37.804C96.975 37.804 95.5699 37.663 94.7095 36.5749C93.9372 35.6085 93.8311 34.9059 93.8311 33.5707V27.7383H96.7473V33.1308V33.1309C96.7473 33.7985 96.7473 35.0806 98.3102 35.0806C99.1537 35.0806 99.9792 34.642 99.9792 33.0959V27.7383H102.895V37.4871ZM107.92 24.4883H105.004V37.4871H107.797V36.4508H107.832C108.201 37.1533 109.255 37.8209 110.625 37.8209C113.103 37.8209 115.544 36.2399 115.544 32.5512C115.544 28.8626 112.786 27.4045 110.748 27.4045C110.345 27.4045 108.956 27.4045 107.92 28.5107V24.4883ZM112.627 32.603C112.627 33.8852 111.679 35.0974 110.186 35.0974V35.0987C108.727 35.0987 107.814 33.9395 107.814 32.5862C107.814 31.3739 108.693 30.1267 110.239 30.1267C111.679 30.1267 112.627 31.3208 112.627 32.603Z" fill="url(#paint0_linear_2729_141154)"/>
</g>
<path d="M50.4759 19.1818C49.9493 21.3955 47.9995 23.2043 45.3641 23.2043C42.4129 23.2043 40.1475 20.8858 40.1475 17.9864C40.1475 15.087 42.378 12.8047 45.2942 12.8047C47.8766 12.8047 49.9674 14.5086 50.459 16.897H47.5079C47.1922 16.2294 46.6126 15.5268 45.4003 15.5268C44.012 15.457 43.0818 16.5981 43.0818 18.0032C43.0818 19.4082 44.0133 20.4795 45.4003 20.4795C46.6126 20.4795 47.1922 19.777 47.5079 19.1792H50.4772L50.4759 19.1818Z" fill="black"/>
<path d="M52.0579 13.1385H54.7982V14.1748H54.8331C55.079 13.7 55.5887 12.8047 57.2745 12.8047V15.7377C55.9225 15.7727 54.9729 16.0534 54.9729 17.5296V22.8873H52.0566V13.1385H52.0579Z" fill="black"/>
<path d="M67.7802 19.8313C67.3054 20.9207 66.621 21.763 65.7955 22.3258C64.9869 22.9054 64.0217 23.2043 63.0203 23.2043C60.227 23.2043 57.8555 20.9388 57.8555 18.0394C57.8555 15.3172 59.998 12.8047 62.9673 12.8047C65.9365 12.8047 68.114 15.1581 68.114 18.1274C68.114 18.5142 68.0791 18.6721 68.0441 18.8998H60.7368C60.9127 20.059 61.8792 20.7447 63.0203 20.7447C63.9156 20.7447 64.3905 20.3411 64.7941 19.8313H67.7802ZM65.1978 16.9332C65.0749 16.3536 64.4953 15.2642 62.9841 15.2642C61.4729 15.2642 60.8933 16.3536 60.7704 16.9332H65.1965H65.1978Z" fill="black"/>
<path d="M79.9729 22.8886H77.0566V21.8341H77.0217C76.53 22.7825 75.3178 23.2224 74.1753 23.2224C71.0831 23.2224 69.2744 20.7978 69.2744 18.0045C69.2744 14.8075 71.5761 12.8047 74.1753 12.8047C75.7745 12.8047 76.6698 13.5771 77.0217 14.1748H77.0566V13.1385H79.9729V22.8873V22.8886ZM74.6152 20.4989C76.4421 20.4989 77.0566 18.9528 77.0566 18.0045C77.0566 16.8271 76.248 15.5281 74.5971 15.5281C72.9462 15.5281 72.1906 16.9332 72.1906 18.0407C72.1906 18.9541 72.8582 20.5002 74.6152 20.5002V20.4989Z" fill="black"/>
<path d="M85.6814 13.1367H87.0865V15.3504H85.6814V22.8868H82.7652V15.3504H81.3252V13.1367H82.7652V9.88672H85.6814V13.1367Z" fill="black"/>
<path d="M93.1474 12.8203C96.6963 12.8203 98.4002 15.6136 98.4002 18.002C98.4002 20.3903 96.6963 23.1837 93.1474 23.1837C89.5985 23.1837 87.8945 20.3903 87.8945 18.002C87.8945 15.6136 89.5985 12.8203 93.1474 12.8203ZM93.1474 20.4615C94.4127 20.4615 95.484 19.4252 95.484 18.002C95.484 16.5788 94.4127 15.5425 93.1474 15.5425C91.882 15.5425 90.8108 16.5788 90.8108 18.002C90.8108 19.4252 91.882 20.4615 93.1474 20.4615Z" fill="black"/>
<path d="M100.034 13.1385H102.774V14.1748H102.809C103.055 13.7 103.564 12.8047 105.25 12.8047V15.7377C103.898 15.7727 102.948 16.0534 102.948 17.5296V22.8873H100.032V13.1385H100.034Z" fill="black"/>
<path d="M110.924 15.8761C110.906 15.6653 110.871 15.1387 110.011 15.1387C109.396 15.1387 109.185 15.5255 109.185 15.7882C109.185 16.3147 109.906 16.6136 110.678 16.8426C112.329 17.2993 114.086 17.791 114.086 19.8986C114.086 22.0062 112.277 23.2185 110.117 23.2185C108.641 23.2185 106.41 22.5509 106.147 19.9865H109.046C109.168 20.8819 110.029 20.8819 110.152 20.8819C110.643 20.8819 111.171 20.6011 111.171 20.1263C111.171 19.3707 110.451 19.2827 108.589 18.5634C107.324 18.1597 106.27 17.3343 106.27 16.0159C106.27 14.0829 108.027 12.8008 110.047 12.8008C111.329 12.8008 113.543 13.3105 113.789 15.8749H110.925L110.924 15.8761Z" fill="black"/>
<path d="M36.1935 23.5701C36.2608 35.803 24.0434 45.6902 14.3205 45.4431C10.7923 45.3538 4.82143 43.8595 2.40202 39.5071C2.04364 38.8615 0.896037 36.6607 1.55458 34.143C2.14585 31.8802 3.88472 30.5915 4.50315 30.1465C7.75189 27.8086 10.3343 29.4155 13.4989 27.4528C15.6428 26.1227 16.5769 24.0695 17.1979 22.7032C21.2087 13.8847 12.3099 3.39326 14.3205 1.69708C16.7839 -0.38076 36.1081 8.23854 36.1935 23.5701Z" fill="url(#paint1_radial_2729_141154)"/>
<g filter="url(#filter0_d_2729_141154)">
<path d="M36.1936 23.5719C36.1936 32.4888 30.6962 38.1349 29.7401 39.0846C23.4949 45.2909 15.7968 45.4436 14.3206 45.4449C19.3716 36.2848 18.7467 31.728 17.2252 29.2582C14.371 24.6289 7.58763 26.0715 4.13836 19.8729C1.92337 15.8932 2.66343 11.6004 2.75529 11.1036C2.95583 10.0284 3.48629 7.37482 5.69092 5.07833C8.39367 2.26043 11.8339 1.83218 13.6362 1.60835C17.524 1.12447 20.5231 2.22161 22.0381 2.79606C26.5884 4.5207 29.2575 7.4628 30.3236 8.66474C31.6329 10.1423 36.1936 15.452 36.1936 23.5732V23.5719Z" fill="url(#paint2_radial_2729_141154)"/>
</g>
</g>
<defs>
<filter id="filter0_d_2729_141154" x="0.752156" y="0.712001" width="36.2175" height="46.5446" filterUnits="userSpaceOnUse" color-interpolation-filters="sRGB">
<feFlood flood-opacity="0" result="BackgroundImageFix"/>
<feColorMatrix in="SourceAlpha" type="matrix" values="0 0 0 0 0 0 0 0 0 0 0 0 0 0 0 0 0 0 127 0" result="hardAlpha"/>
<feOffset dx="-0.51752" dy="0.51752"/>
<feGaussianBlur stdDeviation="0.6469"/>
<feColorMatrix type="matrix" values="0 0 0 0 0 0 0 0 0 0 0 0 0 0 0 0 0 0 0.08 0"/>
<feBlend mode="normal" in2="BackgroundImageFix" result="effect1_dropShadow_2729_141154"/>
<feBlend mode="normal" in="SourceGraphic" in2="effect1_dropShadow_2729_141154" result="shape"/>
</filter>
<linearGradient id="paint0_linear_2729_141154" x1="77.5" y1="43.5" x2="125" y2="29" gradientUnits="userSpaceOnUse">
<stop stop-color="#609791"/>
<stop offset="0.252272" stop-color="#0E2C97"/>
<stop offset="0.318866" stop-color="#111DD5"/>
<stop offset="0.441722" stop-color="#E7029F"/>
<stop offset="0.687434" stop-color="#E86A43"/>
<stop offset="0.766659" stop-color="#F6A29F"/>
<stop offset="1" stop-color="#A58E49"/>
</linearGradient>
<radialGradient id="paint1_radial_2729_141154" cx="0" cy="0" r="1" gradientUnits="userSpaceOnUse" gradientTransform="translate(22 21) rotate(169.17) scale(92.8614 117.43)">
<stop stop-color="#609791"/>
<stop offset="0.252272" stop-color="#0E2C97"/>
<stop offset="0.318866" stop-color="#111DD5"/>
<stop offset="0.441722" stop-color="#E7029F"/>
<stop offset="0.687434" stop-color="#E86A43"/>
<stop offset="0.766659" stop-color="#F6A29F"/>
<stop offset="1" stop-color="#A58E49"/>
</radialGradient>
<radialGradient id="paint2_radial_2729_141154" cx="0" cy="0" r="1" gradientUnits="userSpaceOnUse" gradientTransform="translate(43 51) rotate(-79.0459) scale(63.1506 82.5418)">
<stop stop-color="#609791"/>
<stop offset="0.252272" stop-color="#0E2C97"/>
<stop offset="0.318866" stop-color="#111DD5"/>
<stop offset="0.441722" stop-color="#E7029F"/>
<stop offset="0.687434" stop-color="#E86A43"/>
<stop offset="0.766659" stop-color="#F6A29F"/>
<stop offset="1" stop-color="#A58E49"/>
</radialGradient>
<clipPath id="clip0_2729_141154">
<rect width="115.543" height="48" fill="white"/>
</clipPath>
</defs>
</svg>
