<svg width="16" height="16" viewBox="0 0 16 16" fill="none" xmlns="http://www.w3.org/2000/svg">
<path d="M13.5 6.5H6.38059L13.125 4.71938C13.1888 4.70255 13.2487 4.67326 13.3011 4.63317C13.3536 4.59309 13.3976 4.54302 13.4306 4.48584C13.4636 4.42866 13.485 4.36552 13.4934 4.30004C13.5019 4.23457 13.4973 4.16807 13.48 4.10437L12.97 2.22937C12.8998 1.97712 12.733 1.76267 12.5059 1.63247C12.2787 1.50227 12.0094 1.4668 11.7562 1.53375L2.23809 4.04625C2.11136 4.07915 1.99247 4.137 1.88837 4.21641C1.78427 4.29583 1.69706 4.39521 1.63184 4.50875C1.56627 4.62089 1.5239 4.74507 1.50725 4.87391C1.49061 5.00275 1.50004 5.13362 1.53497 5.25875L1.99997 6.9725C1.99997 6.98125 1.99997 6.99063 1.99997 7V12.5C1.99997 12.7652 2.10533 13.0196 2.29286 13.2071C2.4804 13.3946 2.73475 13.5 2.99997 13.5H13C13.2652 13.5 13.5195 13.3946 13.7071 13.2071C13.8946 13.0196 14 12.7652 14 12.5V7C14 6.86739 13.9473 6.74021 13.8535 6.64645C13.7598 6.55268 13.6326 6.5 13.5 6.5ZM12.01 2.5L12.385 3.87937L10.9712 4.25437L9.21372 3.23937L12.01 2.5ZM7.84184 3.6L9.59934 4.615L7.29059 5.22437L5.53309 4.21062L7.84184 3.6ZM2.87934 6.38875L2.50434 5.00875L4.16059 4.57125L5.91809 5.5875L2.87934 6.38875ZM13 12.5H2.99997V7.5H13V12.5Z" fill="#2563EB"/>
</svg>
