<svg width="16" height="16" viewBox="0 0 16 16" fill="none" xmlns="http://www.w3.org/2000/svg">
<path fill-rule="evenodd" clip-rule="evenodd" d="M7.05725 0.979681C5.99073 1.12293 4.9665 1.50796 4.06488 2.1104C2.90003 2.88873 1.99214 3.995 1.45602 5.28931C0.919899 6.58362 0.779625 8.00784 1.05294 9.38187C1.32625 10.7559 2.00087 12.018 2.99149 13.0087C3.98212 13.9993 5.24425 14.6739 6.61828 14.9472C7.99231 15.2205 9.41653 15.0802 10.7108 14.5441C12.0051 14.008 13.1114 13.1001 13.8897 11.9353C14.4922 11.0336 14.8772 10.0094 15.0205 8.9429C14.0675 9.60694 12.9276 9.96995 11.7502 9.96995C10.2331 9.96995 8.77824 9.36731 7.70554 8.29461C6.63284 7.22191 6.0302 5.76701 6.0302 4.24998C6.0302 3.07258 6.39321 1.9326 7.05725 0.979681ZM3.6019 1.41751C4.90379 0.547618 6.4344 0.083313 8.00017 0.083313C8.16869 0.083313 8.32062 0.184831 8.38512 0.340528C8.44961 0.496226 8.41396 0.675442 8.29479 0.794608C7.37837 1.71103 6.86353 2.95396 6.86353 4.24998C6.86353 5.546 7.37837 6.78893 8.29479 7.70535C9.21122 8.62177 10.4542 9.13661 11.7502 9.13661C13.0462 9.13661 14.2891 8.62177 15.2055 7.70535C15.3247 7.58619 15.5039 7.55054 15.6596 7.61503C15.8153 7.67952 15.9168 7.83145 15.9168 7.99998C15.9168 9.56575 15.4525 11.0964 14.5826 12.3982C13.7127 13.7001 12.4763 14.7148 11.0297 15.314C9.58316 15.9132 7.99138 16.07 6.4557 15.7645C4.92002 15.4591 3.5094 14.7051 2.40224 13.5979C1.29507 12.4907 0.541083 11.0801 0.235616 9.54445C-0.0698501 8.00876 0.0869262 6.41698 0.68612 4.9704C1.28531 3.52382 2.30001 2.28741 3.6019 1.41751Z" fill="#606E80"/>
</svg>
