<svg width="36" height="36" viewBox="0 0 36 36" fill="none" xmlns="http://www.w3.org/2000/svg">
<path fill-rule="evenodd" clip-rule="evenodd" d="M18 2.16667C9.25549 2.16667 2.16667 9.25549 2.16667 18C2.16667 26.7445 9.25549 33.8333 18 33.8333C26.7445 33.8333 33.8333 26.7445 33.8333 18C33.8333 9.25549 26.7445 2.16667 18 2.16667ZM0.5 18C0.5 8.33502 8.33502 0.5 18 0.5C27.665 0.5 35.5 8.33502 35.5 18C35.5 27.665 27.665 35.5 18 35.5C8.33502 35.5 0.5 27.665 0.5 18Z" fill="#B0BECB"/>
<path fill-rule="evenodd" clip-rule="evenodd" d="M14.0774 10.7441C14.4028 10.4186 14.9305 10.4186 15.2559 10.7441L21.9226 17.4107C22.248 17.7362 22.248 18.2638 21.9226 18.5893L15.2559 25.2559C14.9305 25.5814 14.4028 25.5814 14.0774 25.2559C13.752 24.9305 13.752 24.4028 14.0774 24.0774L20.1548 18L14.0774 11.9226C13.752 11.5972 13.752 11.0695 14.0774 10.7441Z" fill="#B0BECB"/>
</svg>
