<svg width="16" height="16" viewBox="0 0 16 16" fill="none" xmlns="http://www.w3.org/2000/svg">
<path d="M12 14C12 12.9391 11.5786 11.9217 10.8284 11.1716C10.0783 10.4214 9.06087 10 8 10C6.93913 10 5.92172 10.4214 5.17157 11.1716C4.42143 11.9217 4 12.9391 4 14" stroke="#1F2937" stroke-linecap="round" stroke-linejoin="round"/>
<path d="M7.99967 10C9.47243 10 10.6663 8.80611 10.6663 7.33335C10.6663 5.86059 9.47243 4.66669 7.99967 4.66669C6.52692 4.66669 5.33301 5.86059 5.33301 7.33335C5.33301 8.80611 6.52692 10 7.99967 10Z" stroke="#1F2937" stroke-linecap="round" stroke-linejoin="round"/>
<path d="M12.6667 2H3.33333C2.59695 2 2 2.59695 2 3.33333V12.6667C2 13.403 2.59695 14 3.33333 14H12.6667C13.403 14 14 13.403 14 12.6667V3.33333C14 2.59695 13.403 2 12.6667 2Z" stroke="#1F2937" stroke-linecap="round" stroke-linejoin="round"/>
</svg>
