<svg width="21" height="20" viewBox="0 0 21 20" fill="none" xmlns="http://www.w3.org/2000/svg">
<path d="M11.625 14.875C11.625 15.0975 11.559 15.315 11.4354 15.5C11.3118 15.685 11.1361 15.8292 10.9305 15.9144C10.725 15.9995 10.4988 16.0218 10.2805 15.9784C10.0623 15.935 9.86184 15.8278 9.70451 15.6705C9.54718 15.5132 9.44003 15.3127 9.39662 15.0945C9.35321 14.8762 9.37549 14.65 9.46064 14.4445C9.54579 14.2389 9.68998 14.0632 9.87499 13.9396C10.06 13.816 10.2775 13.75 10.5 13.75C10.7984 13.75 11.0845 13.8685 11.2955 14.0795C11.5065 14.2905 11.625 14.5766 11.625 14.875ZM10.5 4.75C8.43188 4.75 6.75 6.26406 6.75 8.125V8.5C6.75 8.69891 6.82902 8.88968 6.96967 9.03033C7.11033 9.17098 7.30109 9.25 7.5 9.25C7.69892 9.25 7.88968 9.17098 8.03033 9.03033C8.17099 8.88968 8.25 8.69891 8.25 8.5V8.125C8.25 7.09375 9.25969 6.25 10.5 6.25C11.7403 6.25 12.75 7.09375 12.75 8.125C12.75 9.15625 11.7403 10 10.5 10C10.3011 10 10.1103 10.079 9.96967 10.2197C9.82902 10.3603 9.75 10.5511 9.75 10.75V11.5C9.75 11.6989 9.82902 11.8897 9.96967 12.0303C10.1103 12.171 10.3011 12.25 10.5 12.25C10.6989 12.25 10.8897 12.171 11.0303 12.0303C11.171 11.8897 11.25 11.6989 11.25 11.5V11.4325C12.96 11.1184 14.25 9.75437 14.25 8.125C14.25 6.26406 12.5681 4.75 10.5 4.75ZM20.25 10C20.25 11.9284 19.6782 13.8134 18.6068 15.4168C17.5355 17.0202 16.0127 18.2699 14.2312 19.0078C12.4496 19.7458 10.4892 19.9389 8.59787 19.5627C6.70656 19.1865 4.96928 18.2579 3.60571 16.8943C2.24215 15.5307 1.31355 13.7934 0.937348 11.9021C0.561142 10.0108 0.754225 8.05042 1.49218 6.26884C2.23013 4.48726 3.47982 2.96451 5.08319 1.89317C6.68657 0.821828 8.57164 0.25 10.5 0.25C13.085 0.25273 15.5634 1.28084 17.3913 3.10872C19.2192 4.93661 20.2473 7.41498 20.25 10ZM18.75 10C18.75 8.3683 18.2661 6.77325 17.3596 5.41655C16.4531 4.05984 15.1646 3.00242 13.6571 2.37799C12.1497 1.75357 10.4909 1.59019 8.89051 1.90852C7.29017 2.22685 5.82016 3.01259 4.66637 4.16637C3.51259 5.32015 2.72685 6.79016 2.40853 8.3905C2.0902 9.99085 2.25358 11.6496 2.878 13.1571C3.50242 14.6646 4.55984 15.9531 5.91655 16.8596C7.27326 17.7661 8.86831 18.25 10.5 18.25C12.6873 18.2475 14.7843 17.3775 16.3309 15.8309C17.8775 14.2843 18.7475 12.1873 18.75 10Z" fill="#6B7280"/>
</svg>
