<svg width="16" height="16" viewBox="0 0 16 16" fill="none" xmlns="http://www.w3.org/2000/svg">
<mask id="mask0_938_104327" style="mask-type:alpha" maskUnits="userSpaceOnUse" x="0" y="0" width="16" height="16">
<rect width="16" height="16" fill="#D9D9D9"/>
</mask>
<g mask="url(#mask0_938_104327)">
<path d="M4.33333 13C3.412 13 2.62611 12.6804 1.97567 12.0412C1.32522 11.4019 1 10.6207 1 9.6975C1 8.86928 1.26644 8.14083 1.79933 7.51217C2.33222 6.8835 2.99311 6.51106 3.782 6.39483C3.99567 5.39828 4.49678 4.58333 5.28533 3.95C6.07378 3.31667 6.97867 3 8 3C9.20711 3 10.2311 3.42044 11.072 4.26133C11.9129 5.10222 12.3333 6.12622 12.3333 7.33333V7.66667H12.5385C13.2411 7.72133 13.8269 8.00383 14.2962 8.51417C14.7654 9.02439 15 9.63078 15 10.3333C15 11.0769 14.7436 11.7072 14.2308 12.2243C13.7179 12.7414 13.0897 13 12.3462 13H8.70517C8.36839 13 8.08333 12.8833 7.85 12.65C7.61667 12.4167 7.5 12.1316 7.5 11.7948V8.1435L6.26667 9.35633L5.56417 8.66033L8 6.22433L10.4358 8.66033L9.73333 9.35633L8.5 8.1435V11.7948C8.5 11.8462 8.52139 11.8932 8.56417 11.9358C8.60683 11.9786 8.65383 12 8.70517 12H12.3333C12.8 12 13.1944 11.8389 13.5167 11.5167C13.8389 11.1944 14 10.8 14 10.3333C14 9.86667 13.8389 9.47222 13.5167 9.15C13.1944 8.82778 12.8 8.66667 12.3333 8.66667H11.3333V7.33333C11.3333 6.41111 11.0083 5.625 10.3583 4.975C9.70833 4.325 8.92222 4 8 4C7.07778 4 6.29167 4.325 5.64167 4.975C4.99167 5.625 4.66667 6.41111 4.66667 7.33333H4.3205C3.68883 7.33333 3.14417 7.56111 2.6865 8.01667C2.22883 8.47222 2 9.02222 2 9.66667C2 10.3111 2.22778 10.8611 2.68333 11.3167C3.13889 11.7722 3.68889 12 4.33333 12H6V13H4.33333Z" fill="#2563EB"/>
</g>
</svg>
