<svg width="102" height="24" viewBox="0 0 102 24" fill="none" xmlns="http://www.w3.org/2000/svg">
<path d="M0.333496 12C0.333496 5.37258 5.70608 0 12.3335 0H89.3335C95.9609 0 101.333 5.37258 101.333 12C101.333 18.6274 95.9609 24 89.3335 24H12.3335C5.70608 24 0.333496 18.6274 0.333496 12Z" fill="#F3F4F6"/>
<path d="M12.3335 3.875C10.7265 3.875 9.15564 4.35152 7.81949 5.24431C6.48334 6.1371 5.44194 7.40605 4.82698 8.8907C4.21202 10.3753 4.05111 12.009 4.36462 13.5851C4.67812 15.1612 5.45196 16.6089 6.58826 17.7452C7.72456 18.8815 9.1723 19.6554 10.7484 19.9689C12.3245 20.2824 13.9582 20.1215 15.4428 19.5065C16.9275 18.8916 18.1964 17.8502 19.0892 16.514C19.982 15.1779 20.4585 13.607 20.4585 12C20.4562 9.84581 19.5995 7.78051 18.0762 6.25727C16.553 4.73403 14.4877 3.87727 12.3335 3.875ZM12.3335 18.875C10.9738 18.875 9.64454 18.4718 8.51395 17.7164C7.38337 16.9609 6.50218 15.8872 5.98183 14.6309C5.46148 13.3747 5.32533 11.9924 5.5906 10.6588C5.85587 9.32513 6.51065 8.10013 7.47214 7.13864C8.43363 6.17716 9.65863 5.52237 10.9923 5.2571C12.3259 4.99183 13.7082 5.12798 14.9644 5.64833C16.2207 6.16868 17.2944 7.04987 18.0499 8.18045C18.8053 9.31104 19.2085 10.6403 19.2085 12C19.2064 13.8227 18.4814 15.5702 17.1926 16.8591C15.9037 18.1479 14.1562 18.8729 12.3335 18.875ZM15.4585 13.5625C15.4585 14.1427 15.228 14.6991 14.8178 15.1093C14.4076 15.5195 13.8512 15.75 13.271 15.75H12.9585V16.375C12.9585 16.5408 12.8927 16.6997 12.7754 16.8169C12.6582 16.9342 12.4993 17 12.3335 17C12.1677 17 12.0088 16.9342 11.8916 16.8169C11.7743 16.6997 11.7085 16.5408 11.7085 16.375V15.75H10.4585C10.2927 15.75 10.1338 15.6842 10.0166 15.5669C9.89935 15.4497 9.8335 15.2908 9.8335 15.125C9.8335 14.9592 9.89935 14.8003 10.0166 14.6831C10.1338 14.5658 10.2927 14.5 10.4585 14.5H13.271C13.5196 14.5 13.7581 14.4012 13.9339 14.2254C14.1097 14.0496 14.2085 13.8111 14.2085 13.5625C14.2085 13.3139 14.1097 13.0754 13.9339 12.8996C13.7581 12.7238 13.5196 12.625 13.271 12.625H11.396C10.8158 12.625 10.2594 12.3945 9.8492 11.9843C9.43897 11.5741 9.2085 11.0177 9.2085 10.4375C9.2085 9.85734 9.43897 9.30094 9.8492 8.8907C10.2594 8.48047 10.8158 8.25 11.396 8.25H11.7085V7.625C11.7085 7.45924 11.7743 7.30027 11.8916 7.18306C12.0088 7.06585 12.1677 7 12.3335 7C12.4993 7 12.6582 7.06585 12.7754 7.18306C12.8927 7.30027 12.9585 7.45924 12.9585 7.625V8.25H14.2085C14.3743 8.25 14.5332 8.31585 14.6504 8.43306C14.7677 8.55027 14.8335 8.70924 14.8335 8.875C14.8335 9.04076 14.7677 9.19973 14.6504 9.31694C14.5332 9.43415 14.3743 9.5 14.2085 9.5H11.396C11.1474 9.5 10.9089 9.59877 10.7331 9.77459C10.5573 9.9504 10.4585 10.1889 10.4585 10.4375C10.4585 10.6861 10.5573 10.9246 10.7331 11.1004C10.9089 11.2762 11.1474 11.375 11.396 11.375H13.271C13.8512 11.375 14.4076 11.6055 14.8178 12.0157C15.228 12.4259 15.4585 12.9823 15.4585 13.5625Z" fill="#606E80"/>
<path d="M34.0054 9.4929C33.9523 9.02225 33.7336 8.65767 33.3491 8.39915C32.9647 8.13731 32.4808 8.00639 31.8974 8.00639C31.4798 8.00639 31.1185 8.07268 30.8136 8.20526C30.5087 8.33452 30.2717 8.51349 30.1027 8.74219C29.937 8.96757 29.8541 9.22443 29.8541 9.51278C29.8541 9.75473 29.9104 9.96354 30.0231 10.1392C30.1391 10.3149 30.2899 10.4624 30.4755 10.5817C30.6645 10.6977 30.8666 10.7955 31.0821 10.875C31.2975 10.9512 31.5047 11.0142 31.7035 11.0639L32.6978 11.3224C33.0227 11.402 33.3557 11.5097 33.6971 11.6456C34.0385 11.7815 34.355 11.9605 34.6467 12.1825C34.9384 12.4046 35.1737 12.6797 35.3527 13.0078C35.535 13.3359 35.6261 13.7287 35.6261 14.1861C35.6261 14.7628 35.477 15.2749 35.1787 15.7223C34.8837 16.1697 34.4545 16.5227 33.891 16.7812C33.3309 17.0398 32.6531 17.169 31.8576 17.169C31.0953 17.169 30.4358 17.0481 29.879 16.8061C29.3221 16.5642 28.8863 16.2211 28.5714 15.777C28.2566 15.3295 28.0825 14.7992 28.0494 14.1861H29.5906C29.6204 14.554 29.7397 14.8606 29.9486 15.1058C30.1607 15.3478 30.4308 15.5284 30.7589 15.6477C31.0904 15.7637 31.4533 15.8217 31.8477 15.8217C32.2819 15.8217 32.668 15.7538 33.0061 15.6179C33.3475 15.4787 33.6159 15.2865 33.8115 15.0412C34.007 14.7926 34.1048 14.5026 34.1048 14.1712C34.1048 13.8696 34.0186 13.6226 33.8463 13.4304C33.6772 13.2382 33.4469 13.0791 33.1552 12.9531C32.8669 12.8272 32.5404 12.7161 32.1758 12.62L30.9727 12.2919C30.1574 12.0698 29.5111 11.7434 29.0338 11.3125C28.5598 10.8816 28.3228 10.3116 28.3228 9.60227C28.3228 9.01562 28.4819 8.50355 28.8001 8.06605C29.1183 7.62855 29.5492 7.28883 30.0927 7.04688C30.6363 6.80161 31.2495 6.67898 31.9322 6.67898C32.6216 6.67898 33.2298 6.79995 33.7568 7.0419C34.2871 7.28385 34.7047 7.61695 35.0096 8.04119C35.3146 8.46212 35.4736 8.94602 35.4869 9.4929H34.0054ZM40.7037 17.1541C39.9514 17.1541 39.3034 16.9934 38.7599 16.6719C38.2196 16.3471 37.802 15.8913 37.507 15.3047C37.2153 14.7147 37.0695 14.0237 37.0695 13.2315C37.0695 12.4493 37.2153 11.7599 37.507 11.1634C37.802 10.5668 38.213 10.1011 38.74 9.76633C39.2703 9.43158 39.8901 9.2642 40.5993 9.2642C41.0302 9.2642 41.4478 9.33546 41.8522 9.47798C42.2565 9.6205 42.6195 9.84422 42.941 10.1491C43.2625 10.4541 43.516 10.8501 43.7016 11.3374C43.8872 11.8213 43.98 12.4096 43.98 13.1023V13.6293H37.9097V12.5156H42.5233C42.5233 12.1245 42.4438 11.7782 42.2847 11.4766C42.1256 11.1716 41.9019 10.9313 41.6135 10.7557C41.3285 10.58 40.9938 10.4922 40.6093 10.4922C40.1917 10.4922 39.8271 10.5949 39.5155 10.8004C39.2073 11.0026 38.9687 11.2678 38.7996 11.5959C38.6339 11.9207 38.551 12.2737 38.551 12.6548V13.5249C38.551 14.0353 38.6405 14.4695 38.8195 14.8274C39.0018 15.1854 39.2554 15.4588 39.5802 15.6477C39.905 15.8333 40.2845 15.9261 40.7187 15.9261C41.0004 15.9261 41.2572 15.8864 41.4893 15.8068C41.7213 15.724 41.9218 15.6013 42.0908 15.4389C42.2599 15.2765 42.3891 15.076 42.4786 14.8374L43.8856 15.0909C43.7729 15.5052 43.5707 15.8681 43.279 16.1797C42.9907 16.4879 42.6278 16.7282 42.1903 16.9006C41.7561 17.0696 41.2606 17.1541 40.7037 17.1541ZM47.1859 12.4659V17H45.6993V9.36364H47.1262V10.6065H47.2207C47.3963 10.2022 47.6714 9.87737 48.0459 9.6321C48.4238 9.38684 48.8994 9.2642 49.4728 9.2642C49.9931 9.2642 50.4489 9.37358 50.84 9.59233C51.2311 9.80777 51.5343 10.1293 51.7498 10.5568C51.9652 10.9844 52.0729 11.513 52.0729 12.1428V17H50.5864V12.3217C50.5864 11.7682 50.4422 11.3357 50.1539 11.0241C49.8655 10.7093 49.4695 10.5518 48.9657 10.5518C48.621 10.5518 48.3144 10.6264 48.0459 10.7756C47.7808 10.9247 47.5703 11.1435 47.4145 11.4318C47.2621 11.7169 47.1859 12.0616 47.1859 12.4659ZM56.9952 17.1491C56.3787 17.1491 55.8285 16.9917 55.3446 16.6768C54.864 16.3587 54.4862 15.9062 54.2111 15.3196C53.9393 14.7296 53.8034 14.022 53.8034 13.1967C53.8034 12.3714 53.941 11.6655 54.2161 11.0788C54.4945 10.4922 54.8756 10.0431 55.3595 9.73153C55.8434 9.41998 56.392 9.2642 57.0051 9.2642C57.4791 9.2642 57.8603 9.34375 58.1486 9.50284C58.4403 9.65862 58.6657 9.84091 58.8247 10.0497C58.9872 10.2585 59.1131 10.4425 59.2026 10.6016H59.2921V6.81818H60.7786V17H59.3269V15.8118H59.2026C59.1131 15.9742 58.9838 16.1598 58.8148 16.3686C58.6491 16.5774 58.4204 16.7597 58.1287 16.9155C57.8371 17.0713 57.4592 17.1491 56.9952 17.1491ZM57.3233 15.8814C57.7509 15.8814 58.1122 15.7687 58.4071 15.5433C58.7054 15.3146 58.9308 14.9981 59.0833 14.5938C59.239 14.1894 59.3169 13.7187 59.3169 13.1818C59.3169 12.6515 59.2407 12.1875 59.0882 11.7898C58.9358 11.392 58.7121 11.0821 58.4171 10.8601C58.1221 10.638 57.7575 10.527 57.3233 10.527C56.8759 10.527 56.503 10.643 56.2047 10.875C55.9064 11.107 55.681 11.4235 55.5286 11.8246C55.3794 12.2256 55.3049 12.678 55.3049 13.1818C55.3049 13.6922 55.3811 14.1513 55.5336 14.5589C55.686 14.9666 55.9114 15.2898 56.2097 15.5284C56.5113 15.7637 56.8825 15.8814 57.3233 15.8814ZM66.3625 8.14062V6.81818H74.2424V8.14062H71.0656V17H69.5343V8.14062H66.3625ZM75.9344 17V9.36364H77.4209V17H75.9344ZM76.6851 8.18537C76.4266 8.18537 76.2045 8.09919 76.0189 7.92685C75.8367 7.75118 75.7455 7.54238 75.7455 7.30043C75.7455 7.05516 75.8367 6.84635 76.0189 6.67401C76.2045 6.49834 76.4266 6.41051 76.6851 6.41051C76.9437 6.41051 77.1641 6.49834 77.3464 6.67401C77.532 6.84635 77.6248 7.05516 77.6248 7.30043C77.6248 7.54238 77.532 7.75118 77.3464 7.92685C77.1641 8.09919 76.9437 8.18537 76.6851 8.18537ZM79.4908 19.8636V9.36364H80.9425V10.6016H81.0668C81.1529 10.4425 81.2772 10.2585 81.4396 10.0497C81.602 9.84091 81.8274 9.65862 82.1158 9.50284C82.4041 9.34375 82.7853 9.2642 83.2592 9.2642C83.8757 9.2642 84.4259 9.41998 84.9098 9.73153C85.3937 10.0431 85.7732 10.4922 86.0483 11.0788C86.3267 11.6655 86.4659 12.3714 86.4659 13.1967C86.4659 14.022 86.3284 14.7296 86.0533 15.3196C85.7782 15.9062 85.4003 16.3587 84.9197 16.6768C84.4391 16.9917 83.8906 17.1491 83.2741 17.1491C82.8101 17.1491 82.4306 17.0713 82.1356 16.9155C81.844 16.7597 81.6153 16.5774 81.4496 16.3686C81.2838 16.1598 81.1562 15.9742 81.0668 15.8118H80.9773V19.8636H79.4908ZM80.9474 13.1818C80.9474 13.7187 81.0253 14.1894 81.1811 14.5938C81.3369 14.9981 81.5623 15.3146 81.8572 15.5433C82.1522 15.7687 82.5135 15.8814 82.941 15.8814C83.3852 15.8814 83.7564 15.7637 84.0547 15.5284C84.353 15.2898 84.5784 14.9666 84.7308 14.5589C84.8866 14.1513 84.9645 13.6922 84.9645 13.1818C84.9645 12.678 84.8882 12.2256 84.7358 11.8246C84.5866 11.4235 84.3613 11.107 84.0596 10.875C83.7614 10.643 83.3885 10.527 82.941 10.527C82.5102 10.527 82.1456 10.638 81.8473 10.8601C81.5523 11.0821 81.3286 11.392 81.1761 11.7898C81.0237 12.1875 80.9474 12.6515 80.9474 13.1818ZM93.9237 11.228L92.5764 11.4666C92.52 11.2943 92.4305 11.1302 92.3079 10.9744C92.1886 10.8187 92.0262 10.6911 91.8207 10.5916C91.6152 10.4922 91.3583 10.4425 91.0501 10.4425C90.6292 10.4425 90.2778 10.5369 89.9961 10.7259C89.7144 10.9115 89.5735 11.1518 89.5735 11.4467C89.5735 11.7019 89.668 11.9074 89.8569 12.0632C90.0458 12.219 90.3508 12.3466 90.7717 12.446L91.9848 12.7244C92.6874 12.8868 93.2111 13.1371 93.5558 13.4751C93.9005 13.8132 94.0728 14.2524 94.0728 14.7926C94.0728 15.25 93.9403 15.6577 93.6751 16.0156C93.4133 16.3703 93.047 16.6487 92.5764 16.8509C92.1091 17.053 91.5671 17.1541 90.9507 17.1541C90.0956 17.1541 89.3979 16.9718 88.8576 16.6072C88.3174 16.2393 87.9859 15.7173 87.8633 15.0412L89.3001 14.8224C89.3896 15.197 89.5735 15.4804 89.8519 15.6726C90.1304 15.8615 90.4933 15.956 90.9407 15.956C91.4279 15.956 91.8174 15.8549 92.1091 15.6527C92.4007 15.4472 92.5466 15.197 92.5466 14.902C92.5466 14.6634 92.4571 14.4628 92.2781 14.3004C92.1024 14.138 91.8323 14.0154 91.4677 13.9325L90.1751 13.6491C89.4625 13.4867 88.9355 13.2282 88.5941 12.8736C88.2561 12.5189 88.087 12.0698 88.087 11.5263C88.087 11.0755 88.213 10.6811 88.4649 10.343C88.7168 10.005 89.0648 9.74148 89.5089 9.55256C89.953 9.36032 90.4618 9.2642 91.0352 9.2642C91.8605 9.2642 92.5101 9.44318 92.9841 9.80114C93.458 10.1558 93.7712 10.6314 93.9237 11.228Z" fill="#606E80"/>
</svg>
