<svg width="15" height="14" viewBox="0 0 15 14" fill="none" xmlns="http://www.w3.org/2000/svg">
<g clip-path="url(#clip0_2489_19485)">
<path d="M4.91665 12.8333C5.23881 12.8333 5.49998 12.5721 5.49998 12.25C5.49998 11.9278 5.23881 11.6666 4.91665 11.6666C4.59448 11.6666 4.33331 11.9278 4.33331 12.25C4.33331 12.5721 4.59448 12.8333 4.91665 12.8333Z" stroke="white" stroke-linecap="round" stroke-linejoin="round"/>
<path d="M11.3333 12.8333C11.6555 12.8333 11.9167 12.5721 11.9167 12.25C11.9167 11.9278 11.6555 11.6666 11.3333 11.6666C11.0112 11.6666 10.75 11.9278 10.75 12.25C10.75 12.5721 11.0112 12.8333 11.3333 12.8333Z" stroke="white" stroke-linecap="round" stroke-linejoin="round"/>
<path d="M1.44586 1.1958H2.61253L4.16419 8.4408C4.22112 8.70614 4.36875 8.94333 4.58169 9.11155C4.79463 9.27977 5.05956 9.3685 5.33086 9.36247H11.0359C11.3014 9.36204 11.5588 9.27105 11.7656 9.10454C11.9724 8.93802 12.1163 8.70594 12.1734 8.44663L13.1359 4.11247H3.2367" stroke="white" stroke-linecap="round" stroke-linejoin="round"/>
</g>
<defs>
<clipPath id="clip0_2489_19485">
<rect width="14" height="14" fill="white" transform="translate(0.25)"/>
</clipPath>
</defs>
</svg>
