<svg width="36" height="36" viewBox="0 0 36 36" fill="none" xmlns="http://www.w3.org/2000/svg">
<path fill-rule="evenodd" clip-rule="evenodd" d="M18 33.8333C26.7445 33.8333 33.8333 26.7445 33.8333 18C33.8333 9.25549 26.7445 2.16667 18 2.16667C9.25549 2.16667 2.16667 9.25549 2.16667 18C2.16667 26.7445 9.25549 33.8333 18 33.8333ZM35.5 18C35.5 27.665 27.665 35.5 18 35.5C8.33502 35.5 0.5 27.665 0.5 18C0.5 8.33502 8.33502 0.5 18 0.5C27.665 0.5 35.5 8.33502 35.5 18Z" fill="#B0BECB"/>
<path fill-rule="evenodd" clip-rule="evenodd" d="M21.9226 25.2559C21.5972 25.5814 21.0695 25.5814 20.7441 25.2559L14.0774 18.5893C13.752 18.2638 13.752 17.7362 14.0774 17.4107L20.7441 10.7441C21.0695 10.4186 21.5972 10.4186 21.9226 10.7441C22.248 11.0695 22.248 11.5972 21.9226 11.9226L15.8452 18L21.9226 24.0774C22.248 24.4028 22.248 24.9305 21.9226 25.2559Z" fill="#B0BECB"/>
</svg>
