<svg width="42" height="42" viewBox="0 0 42 42" fill="none" xmlns="http://www.w3.org/2000/svg">
<g filter="url(#filter0_d_2842_84380)">
<g clip-path="url(#clip0_2842_84380)">
<path d="M2 9C2 4.58172 5.58172 1 10 1H32C36.4183 1 40 4.58172 40 9V31C40 35.4183 36.4183 39 32 39H10C5.58172 39 2 35.4183 2 31V9Z" fill="white"/>
<path d="M29.3285 12.5557C27.7548 11.8194 26.09 11.2962 24.3781 11C24.1648 11.3855 23.9157 11.9041 23.7439 12.3166C21.8981 12.039 20.0693 12.039 18.2574 12.3166C18.0857 11.9041 17.8309 11.3855 17.6157 11C15.9021 11.2963 14.2359 11.8208 12.6615 12.5595C9.52854 17.2939 8.67922 21.9105 9.10383 26.4618C11.1818 28.0136 13.1956 28.9562 15.1754 29.5731C15.6675 28.8965 16.1024 28.1801 16.4757 27.4314C15.7649 27.1608 15.0796 26.8273 14.4281 26.4348C14.5995 26.3077 14.7669 26.1753 14.9301 26.0377C18.8783 27.8844 23.1683 27.8844 27.0694 26.0377C27.2333 26.1744 27.4007 26.3068 27.5714 26.4348C26.9188 26.8283 26.2322 27.1625 25.5199 27.4333C25.8954 28.1851 26.3296 28.9021 26.8203 29.575C28.802 28.9582 30.8176 28.0155 32.8956 26.4618C33.3939 21.1858 32.0445 16.6115 29.3285 12.5557ZM17.0137 23.6628C15.8284 23.6628 14.8564 22.5563 14.8564 21.2089C14.8564 19.8615 15.8077 18.7531 17.0137 18.7531C18.2196 18.7531 19.1917 19.8595 19.1709 21.2089C19.1728 22.5563 18.2197 23.6628 17.0137 23.6628ZM24.9858 23.6628C23.8005 23.6628 22.8286 22.5563 22.8286 21.2089C22.8286 19.8615 23.7798 18.7531 24.9858 18.7531C26.1918 18.7531 27.1637 19.8595 27.143 21.2089C27.143 22.5563 26.1918 23.6628 24.9858 23.6628Z" fill="#606E80"/>
</g>
<path d="M2.5 9C2.5 4.85786 5.85786 1.5 10 1.5H32C36.1421 1.5 39.5 4.85786 39.5 9V31C39.5 35.1421 36.1421 38.5 32 38.5H10C5.85786 38.5 2.5 35.1421 2.5 31V9Z" stroke="#E5E7EB"/>
</g>
<defs>
<filter id="filter0_d_2842_84380" x="0" y="0" width="42" height="42" filterUnits="userSpaceOnUse" color-interpolation-filters="sRGB">
<feFlood flood-opacity="0" result="BackgroundImageFix"/>
<feColorMatrix in="SourceAlpha" type="matrix" values="0 0 0 0 0 0 0 0 0 0 0 0 0 0 0 0 0 0 127 0" result="hardAlpha"/>
<feOffset dy="1"/>
<feGaussianBlur stdDeviation="1"/>
<feComposite in2="hardAlpha" operator="out"/>
<feColorMatrix type="matrix" values="0 0 0 0 0 0 0 0 0 0 0 0 0 0 0 0 0 0 0.05 0"/>
<feBlend mode="normal" in2="BackgroundImageFix" result="effect1_dropShadow_2842_84380"/>
<feBlend mode="normal" in="SourceGraphic" in2="effect1_dropShadow_2842_84380" result="shape"/>
</filter>
<clipPath id="clip0_2842_84380">
<path d="M2 9C2 4.58172 5.58172 1 10 1H32C36.4183 1 40 4.58172 40 9V31C40 35.4183 36.4183 39 32 39H10C5.58172 39 2 35.4183 2 31V9Z" fill="white"/>
</clipPath>
</defs>
</svg>
