<svg width="42" height="42" viewBox="0 0 42 42" fill="none" xmlns="http://www.w3.org/2000/svg">
<g filter="url(#filter0_d_2842_84375)">
<g clip-path="url(#clip0_2842_84375)">
<path d="M2 9C2 4.58172 5.58172 1 10 1H32C36.4183 1 40 4.58172 40 9V31C40 35.4183 36.4183 39 32 39H10C5.58172 39 2 35.4183 2 31V9Z" fill="white"/>
<path d="M27.375 8H14.625C11.5184 8 9 10.5184 9 13.625V26.375C9 29.4816 11.5184 32 14.625 32H27.375C30.4816 32 33 29.4816 33 26.375V13.625C33 10.5184 30.4816 8 27.375 8Z" fill="#606E80"/>
<path d="M27.375 8H14.625C11.5184 8 9 10.5184 9 13.625V26.375C9 29.4816 11.5184 32 14.625 32H27.375C30.4816 32 33 29.4816 33 26.375V13.625C33 10.5184 30.4816 8 27.375 8Z" fill="#606E80"/>
<path d="M21.0008 10.625C18.4548 10.625 18.1352 10.6362 17.1353 10.6816C16.1372 10.7274 15.4559 10.8853 14.8598 11.1172C14.2432 11.3566 13.7201 11.677 13.1991 12.1982C12.6775 12.7194 12.3572 13.2424 12.117 13.8588C11.8845 14.4551 11.7263 15.1366 11.6814 16.1342C11.6367 17.1342 11.625 17.4539 11.625 20.0001C11.625 22.5463 11.6363 22.8648 11.6816 23.8647C11.7276 24.8628 11.8855 25.5441 12.1172 26.1402C12.3568 26.7568 12.6772 27.2799 13.1984 27.8009C13.7194 28.3225 14.2424 28.6436 14.8586 28.883C15.4552 29.1148 16.1365 29.2728 17.1344 29.3186C18.1344 29.364 18.4538 29.3752 20.9997 29.3752C23.5461 29.3752 23.8646 29.364 24.8646 29.3186C25.8626 29.2728 26.5447 29.1148 27.1412 28.883C27.7576 28.6436 28.2799 28.3225 28.8007 27.8009C29.3223 27.2799 29.6425 26.7568 29.8828 26.1404C30.1133 25.5441 30.2715 24.8626 30.3184 23.8649C30.3633 22.865 30.375 22.5463 30.375 20.0001C30.375 17.4539 30.3633 17.1344 30.3184 16.1344C30.2715 15.1363 30.1133 14.4552 29.8828 13.8591C29.6425 13.2424 29.3223 12.7194 28.8007 12.1982C28.2793 11.6768 27.7578 11.3564 27.1406 11.1173C26.543 10.8853 25.8613 10.7273 24.8632 10.6816C23.8632 10.6362 23.5448 10.625 20.9979 10.625H21.0008ZM20.1598 12.3145C20.4095 12.3141 20.688 12.3145 21.0008 12.3145C23.5041 12.3145 23.8007 12.3235 24.7892 12.3684C25.7032 12.4102 26.1994 12.5629 26.5298 12.6913C26.9674 12.8611 27.2793 13.0643 27.6072 13.3925C27.9353 13.7206 28.1384 14.0331 28.3088 14.4706C28.4371 14.8006 28.59 15.2968 28.6316 16.2108C28.6765 17.1991 28.6863 17.4959 28.6863 19.9979C28.6863 22.4999 28.6765 22.7968 28.6316 23.7851C28.5898 24.6991 28.4371 25.1952 28.3088 25.5253C28.1389 25.9629 27.9353 26.2744 27.6072 26.6023C27.2791 26.9305 26.9676 27.1335 26.5298 27.3035C26.1997 27.4324 25.7032 27.5848 24.7892 27.6266C23.8009 27.6715 23.5041 27.6812 21.0008 27.6812C18.4975 27.6812 18.2008 27.6715 17.2126 27.6266C16.2985 27.5844 15.8024 27.4317 15.4717 27.3033C15.0342 27.1333 14.7217 26.9303 14.3935 26.6022C14.0654 26.274 13.8623 25.9623 13.692 25.5246C13.5637 25.1945 13.4108 24.6984 13.3691 23.7843C13.3242 22.796 13.3152 22.4992 13.3152 19.9956C13.3152 17.4921 13.3242 17.1968 13.3691 16.2085C13.4109 15.2944 13.5637 14.7983 13.692 14.4678C13.862 14.0303 14.0654 13.7178 14.3936 13.3897C14.7218 13.0616 15.0342 12.8584 15.4717 12.6882C15.8022 12.5592 16.2985 12.4069 17.2126 12.3649C18.0774 12.3258 18.4126 12.3141 20.1598 12.3121V12.3145ZM26.0052 13.8711C25.3841 13.8711 24.8802 14.3745 24.8802 14.9957C24.8802 15.6168 25.3841 16.1207 26.0052 16.1207C26.6263 16.1207 27.1302 15.6168 27.1302 14.9957C27.1302 14.3746 26.6263 13.8707 26.0052 13.8707V13.8711ZM21.0008 15.1856C18.3421 15.1856 16.1864 17.3413 16.1864 20.0001C16.1864 22.6589 18.3421 24.8136 21.0008 24.8136C23.6597 24.8136 25.8146 22.6589 25.8146 20.0001C25.8146 17.3413 23.6595 15.1856 21.0007 15.1856H21.0008ZM21.0008 16.875C22.7267 16.875 24.1259 18.2741 24.1259 20.0001C24.1259 21.7259 22.7267 23.1252 21.0008 23.1252C19.2749 23.1252 17.8759 21.7259 17.8759 20.0001C17.8759 18.2741 19.2749 16.875 21.0008 16.875Z" fill="white"/>
</g>
<path d="M2.5 9C2.5 4.85786 5.85786 1.5 10 1.5H32C36.1421 1.5 39.5 4.85786 39.5 9V31C39.5 35.1421 36.1421 38.5 32 38.5H10C5.85786 38.5 2.5 35.1421 2.5 31V9Z" stroke="#E5E7EB"/>
</g>
<defs>
<filter id="filter0_d_2842_84375" x="0" y="0" width="42" height="42" filterUnits="userSpaceOnUse" color-interpolation-filters="sRGB">
<feFlood flood-opacity="0" result="BackgroundImageFix"/>
<feColorMatrix in="SourceAlpha" type="matrix" values="0 0 0 0 0 0 0 0 0 0 0 0 0 0 0 0 0 0 127 0" result="hardAlpha"/>
<feOffset dy="1"/>
<feGaussianBlur stdDeviation="1"/>
<feComposite in2="hardAlpha" operator="out"/>
<feColorMatrix type="matrix" values="0 0 0 0 0 0 0 0 0 0 0 0 0 0 0 0 0 0 0.05 0"/>
<feBlend mode="normal" in2="BackgroundImageFix" result="effect1_dropShadow_2842_84375"/>
<feBlend mode="normal" in="SourceGraphic" in2="effect1_dropShadow_2842_84375" result="shape"/>
</filter>
<clipPath id="clip0_2842_84375">
<path d="M2 9C2 4.58172 5.58172 1 10 1H32C36.4183 1 40 4.58172 40 9V31C40 35.4183 36.4183 39 32 39H10C5.58172 39 2 35.4183 2 31V9Z" fill="white"/>
</clipPath>
</defs>
</svg>
