<svg width="42" height="42" viewBox="0 0 42 42" fill="none" xmlns="http://www.w3.org/2000/svg">
<g filter="url(#filter0_d_3645_8431)">
<g clip-path="url(#clip0_3645_8431)">
<path d="M2 9C2 4.58172 5.58172 1 10 1H32C36.4183 1 40 4.58172 40 9V31C40 35.4183 36.4183 39 32 39H10C5.58172 39 2 35.4183 2 31V9Z" fill="white"/>
<path d="M25.764 29.6435C21.7665 29.6435 18.525 26.9435 18.525 23.6165C18.525 20.2865 21.7635 17.5865 25.761 17.5865C29.7585 17.5865 33 20.2865 33 23.6165C33 25.4315 32.025 27.068 30.501 28.1705C30.4155 28.2301 30.3516 28.3158 30.3192 28.4149C30.2867 28.5139 30.2873 28.6209 30.321 28.7195L30.648 29.9345C30.6684 29.9914 30.6829 30.0502 30.6915 30.11C30.69 30.174 30.6639 30.2349 30.6186 30.2801C30.5734 30.3254 30.5125 30.3515 30.4485 30.353C30.3995 30.3495 30.3521 30.3341 30.3105 30.308L28.725 29.393C28.6094 29.3219 28.4767 29.2836 28.341 29.282C28.2689 29.2822 28.1971 29.2928 28.128 29.3135C27.3593 29.5335 26.5636 29.6446 25.764 29.6435ZM22.596 22.313C22.6873 22.4531 22.8132 22.5672 22.9615 22.6443C23.1099 22.7215 23.2756 22.7589 23.4427 22.7532C23.6098 22.7474 23.7726 22.6985 23.9153 22.6113C24.0579 22.5241 24.1756 22.4016 24.257 22.2555C24.3384 22.1094 24.3806 21.9448 24.3796 21.7776C24.3787 21.6104 24.3345 21.4463 24.2515 21.3012C24.1684 21.1561 24.0493 21.0349 23.9056 20.9494C23.762 20.8638 23.5987 20.8168 23.4315 20.813C23.3041 20.8128 23.1778 20.8378 23.0601 20.8865C22.9423 20.9352 22.8354 21.0067 22.7453 21.0969C22.6553 21.1871 22.584 21.2942 22.5354 21.412C22.4869 21.5298 22.4621 21.6561 22.4625 21.7835C22.4515 21.9697 22.4972 22.1548 22.596 22.313ZM27.444 22.3145C27.5357 22.4545 27.6622 22.5684 27.8111 22.645C27.9599 22.7217 28.1261 22.7584 28.2934 22.7517C28.4607 22.745 28.6234 22.695 28.7656 22.6067C28.9079 22.5184 29.0248 22.3948 29.105 22.2478C29.1852 22.1009 29.226 21.9357 29.2234 21.7683C29.2208 21.6009 29.1748 21.437 29.09 21.2926C29.0052 21.1483 28.8845 21.0284 28.7395 20.9446C28.5946 20.8608 28.4304 20.816 28.263 20.8145C28.0069 20.8149 27.7614 20.9168 27.5804 21.0979C27.3993 21.2789 27.2974 21.5244 27.297 21.7805C27.2916 21.9692 27.3428 22.1552 27.444 22.3145Z" fill="#606E80"/>
<path d="M9 18.239C9 20.4215 10.1715 22.3865 12.0015 23.723C12.1036 23.7948 12.1797 23.8978 12.2184 24.0165C12.2571 24.1352 12.2562 24.2633 12.216 24.3815L11.8245 25.841C11.7985 25.9083 11.7823 25.9791 11.7765 26.051C11.7759 26.0892 11.783 26.1271 11.7973 26.1625C11.8116 26.1979 11.8329 26.2301 11.8599 26.2571C11.8869 26.2841 11.9191 26.3054 11.9545 26.3197C11.9899 26.334 12.0278 26.3411 12.066 26.3405C12.126 26.3405 12.1815 26.326 12.2325 26.297L14.1345 25.1975C14.2737 25.1124 14.4334 25.0668 14.5965 25.0655C14.6845 25.0655 14.77 25.078 14.853 25.103C15.6467 25.3312 16.4652 25.4622 17.2905 25.493C17.1142 24.8831 17.0248 24.2514 17.025 23.6165C17.025 19.2125 21.2025 16.0865 25.761 16.0865L25.986 16.0895C24.8805 13.1435 21.588 11 17.694 11C12.894 11 9 14.24 9 18.239ZM15.948 15.9065C15.948 16.2128 15.8263 16.5066 15.6097 16.7232C15.3931 16.9398 15.0993 17.0615 14.793 17.0615C14.4867 17.0615 14.1929 16.9398 13.9763 16.7232C13.7597 16.5066 13.638 16.2128 13.638 15.9065C13.638 15.6002 13.7597 15.3064 13.9763 15.0898C14.1929 14.8732 14.4867 14.7515 14.793 14.7515C15.0993 14.7515 15.3931 14.8732 15.6097 15.0898C15.8263 15.3064 15.948 15.6002 15.948 15.9065ZM21.7605 15.9065C21.7605 16.2128 21.6388 16.5066 21.4222 16.7232C21.2056 16.9398 20.9118 17.0615 20.6055 17.0615C20.2992 17.0615 20.0054 16.9398 19.7888 16.7232C19.5722 16.5066 19.4505 16.2128 19.4505 15.9065C19.4505 15.6002 19.5722 15.3064 19.7888 15.0898C20.0054 14.8732 20.2992 14.7515 20.6055 14.7515C20.9118 14.7515 21.2056 14.8732 21.4222 15.0898C21.6388 15.3064 21.7605 15.6002 21.7605 15.9065Z" fill="#606E80"/>
</g>
<path d="M2.5 9C2.5 4.85786 5.85786 1.5 10 1.5H32C36.1421 1.5 39.5 4.85786 39.5 9V31C39.5 35.1421 36.1421 38.5 32 38.5H10C5.85786 38.5 2.5 35.1421 2.5 31V9Z" stroke="#E5E7EB"/>
</g>
<defs>
<filter id="filter0_d_3645_8431" x="0" y="0" width="42" height="42" filterUnits="userSpaceOnUse" color-interpolation-filters="sRGB">
<feFlood flood-opacity="0" result="BackgroundImageFix"/>
<feColorMatrix in="SourceAlpha" type="matrix" values="0 0 0 0 0 0 0 0 0 0 0 0 0 0 0 0 0 0 127 0" result="hardAlpha"/>
<feOffset dy="1"/>
<feGaussianBlur stdDeviation="1"/>
<feComposite in2="hardAlpha" operator="out"/>
<feColorMatrix type="matrix" values="0 0 0 0 0 0 0 0 0 0 0 0 0 0 0 0 0 0 0.05 0"/>
<feBlend mode="normal" in2="BackgroundImageFix" result="effect1_dropShadow_3645_8431"/>
<feBlend mode="normal" in="SourceGraphic" in2="effect1_dropShadow_3645_8431" result="shape"/>
</filter>
<clipPath id="clip0_3645_8431">
<path d="M2 9C2 4.58172 5.58172 1 10 1H32C36.4183 1 40 4.58172 40 9V31C40 35.4183 36.4183 39 32 39H10C5.58172 39 2 35.4183 2 31V9Z" fill="white"/>
</clipPath>
</defs>
</svg>
