<svg width="42" height="42" viewBox="0 0 42 42" fill="none" xmlns="http://www.w3.org/2000/svg">
<g filter="url(#filter0_d_2842_84374)">
<g clip-path="url(#clip0_2842_84374)">
<path d="M2 9C2 4.58172 5.58172 1 10 1H32C36.4183 1 40 4.58172 40 9V31C40 35.4183 36.4183 39 32 39H10C5.58172 39 2 35.4183 2 31V9Z" fill="white"/>
<path d="M25.6322 16.6417C27.178 17.7461 29.0716 18.3959 31.1169 18.3959V14.4624C30.7298 14.4625 30.3437 14.4221 29.965 14.3419V17.4381C27.92 17.4381 26.0265 16.7884 24.4804 15.6841V23.7113C24.4804 27.727 21.2234 30.9821 17.206 30.9821C15.707 30.9821 14.3136 30.5291 13.1562 29.7523C14.4772 31.1023 16.3194 31.9398 18.3575 31.9398C22.3752 31.9398 25.6324 28.6847 25.6324 24.6688V16.6417H25.6322ZM27.0532 12.6732C26.2631 11.8106 25.7444 10.6959 25.6322 9.46342V8.95752H24.5407C24.8155 10.5239 25.7527 11.8621 27.0532 12.6732ZM15.6973 26.6708C15.2559 26.0925 15.0173 25.3849 15.0184 24.6573C15.0184 22.8207 16.5081 21.3316 18.3461 21.3316C18.6886 21.3314 19.0291 21.384 19.3555 21.4874V17.4659C18.974 17.4137 18.589 17.3915 18.2042 17.3996V20.5297C17.8776 20.4263 17.5369 20.3737 17.1943 20.374C15.3564 20.374 13.8667 21.863 13.8667 23.6998C13.8667 24.9986 14.6113 26.1231 15.6973 26.6708Z" fill="#606E80"/>
<path d="M24.4814 15.684C26.0276 16.7883 27.9209 17.438 29.966 17.438V14.3418C28.8245 14.0987 27.8139 13.5025 27.0541 12.6732C25.7535 11.862 24.8165 10.5238 24.5417 8.95752H21.6747V24.6687C21.6681 26.5003 20.181 27.9833 18.347 27.9833C17.2663 27.9833 16.3061 27.4685 15.6981 26.6708C14.6123 26.1231 13.8677 24.9985 13.8677 23.6999C13.8677 21.8632 15.3573 20.3741 17.1952 20.3741C17.5473 20.3741 17.8867 20.4289 18.2051 20.5298V17.3997C14.2582 17.4812 11.084 20.7045 11.084 24.6687C11.084 26.6477 11.8744 28.4416 13.1573 29.7524C14.3147 30.5291 15.708 30.9822 17.207 30.9822C21.2246 30.9822 24.4815 27.7269 24.4815 23.7113L24.4814 15.684Z" fill="#606E80"/>
<path d="M29.9654 14.3418V13.5048C28.936 13.5063 27.9269 13.2181 27.0535 12.6733C27.8266 13.5193 28.8447 14.1026 29.9654 14.342M24.541 8.95752C24.5148 8.80785 24.4948 8.65719 24.4808 8.5059V8H20.5221V23.7113C20.5158 25.5428 19.0286 27.0258 17.1945 27.0258C16.6746 27.0266 16.1617 26.905 15.6974 26.671C16.3055 27.4686 17.2656 27.9833 18.3463 27.9833C20.1802 27.9833 21.6676 26.5004 21.674 24.6688V8.9576L24.541 8.95752ZM18.2047 17.3997V16.5085C17.8739 16.4633 17.5404 16.4407 17.2065 16.4408C13.1886 16.4408 9.93164 19.696 9.93164 23.7113C9.93164 26.2287 11.2117 28.4473 13.1568 29.7524C11.8739 28.4416 11.0835 26.6476 11.0835 24.6687C11.0835 20.7046 14.2576 17.4812 18.2047 17.3997Z" fill="#606E80"/>
</g>
<path d="M2.5 9C2.5 4.85786 5.85786 1.5 10 1.5H32C36.1421 1.5 39.5 4.85786 39.5 9V31C39.5 35.1421 36.1421 38.5 32 38.5H10C5.85786 38.5 2.5 35.1421 2.5 31V9Z" stroke="#E5E7EB"/>
</g>
<defs>
<filter id="filter0_d_2842_84374" x="0" y="0" width="42" height="42" filterUnits="userSpaceOnUse" color-interpolation-filters="sRGB">
<feFlood flood-opacity="0" result="BackgroundImageFix"/>
<feColorMatrix in="SourceAlpha" type="matrix" values="0 0 0 0 0 0 0 0 0 0 0 0 0 0 0 0 0 0 127 0" result="hardAlpha"/>
<feOffset dy="1"/>
<feGaussianBlur stdDeviation="1"/>
<feComposite in2="hardAlpha" operator="out"/>
<feColorMatrix type="matrix" values="0 0 0 0 0 0 0 0 0 0 0 0 0 0 0 0 0 0 0.05 0"/>
<feBlend mode="normal" in2="BackgroundImageFix" result="effect1_dropShadow_2842_84374"/>
<feBlend mode="normal" in="SourceGraphic" in2="effect1_dropShadow_2842_84374" result="shape"/>
</filter>
<clipPath id="clip0_2842_84374">
<path d="M2 9C2 4.58172 5.58172 1 10 1H32C36.4183 1 40 4.58172 40 9V31C40 35.4183 36.4183 39 32 39H10C5.58172 39 2 35.4183 2 31V9Z" fill="white"/>
</clipPath>
</defs>
</svg>
