<svg width="42" height="42" viewBox="0 0 42 42" fill="none" xmlns="http://www.w3.org/2000/svg">
<g filter="url(#filter0_d_2842_84376)">
<g clip-path="url(#clip0_2842_84376)">
<path d="M2 9C2 4.58172 5.58172 1 10 1H32C36.4183 1 40 4.58172 40 9V31C40 35.4183 36.4183 39 32 39H10C5.58172 39 2 35.4183 2 31V9Z" fill="white"/>
<path d="M10.6383 8L9.00195 12.1692V28.8439H14.9991V31.9723H18.2733L21.5443 28.8439H26.4521L32.9971 22.5929V8H10.6383ZM12.8184 10.0833H30.816V21.5485L26.9975 25.197H20.9995L17.7295 28.3212V25.1971H12.8184V10.0833ZM18.8179 20.5076H20.9995V14.2547H18.8179V20.5076ZM24.8164 20.5076H26.9976V14.2547H24.8164V20.5076Z" fill="#606E80"/>
</g>
<path d="M2.5 9C2.5 4.85786 5.85786 1.5 10 1.5H32C36.1421 1.5 39.5 4.85786 39.5 9V31C39.5 35.1421 36.1421 38.5 32 38.5H10C5.85786 38.5 2.5 35.1421 2.5 31V9Z" stroke="#E5E7EB"/>
</g>
<defs>
<filter id="filter0_d_2842_84376" x="0" y="0" width="42" height="42" filterUnits="userSpaceOnUse" color-interpolation-filters="sRGB">
<feFlood flood-opacity="0" result="BackgroundImageFix"/>
<feColorMatrix in="SourceAlpha" type="matrix" values="0 0 0 0 0 0 0 0 0 0 0 0 0 0 0 0 0 0 127 0" result="hardAlpha"/>
<feOffset dy="1"/>
<feGaussianBlur stdDeviation="1"/>
<feComposite in2="hardAlpha" operator="out"/>
<feColorMatrix type="matrix" values="0 0 0 0 0 0 0 0 0 0 0 0 0 0 0 0 0 0 0.05 0"/>
<feBlend mode="normal" in2="BackgroundImageFix" result="effect1_dropShadow_2842_84376"/>
<feBlend mode="normal" in="SourceGraphic" in2="effect1_dropShadow_2842_84376" result="shape"/>
</filter>
<clipPath id="clip0_2842_84376">
<path d="M2 9C2 4.58172 5.58172 1 10 1H32C36.4183 1 40 4.58172 40 9V31C40 35.4183 36.4183 39 32 39H10C5.58172 39 2 35.4183 2 31V9Z" fill="white"/>
</clipPath>
</defs>
</svg>
