<svg width="42" height="42" viewBox="0 0 42 42" fill="none" xmlns="http://www.w3.org/2000/svg">
<g filter="url(#filter0_d_2842_84378)">
<g clip-path="url(#clip0_2842_84378)">
<path d="M2 9C2 4.58172 5.58172 1 10 1H32C36.4183 1 40 4.58172 40 9V31C40 35.4183 36.4183 39 32 39H10C5.58172 39 2 35.4183 2 31V9Z" fill="white"/>
<path fill-rule="evenodd" clip-rule="evenodd" d="M21.1936 9.62388C21.0757 9.59447 20.9526 9.59231 20.8338 9.61756C20.7149 9.64281 20.6034 9.6948 20.5076 9.7696C20.4118 9.8444 20.3343 9.94003 20.281 10.0492C20.2277 10.1584 20.2 10.2784 20.2 10.3999V16.0239C18.2063 16.1401 16.2659 16.7121 14.528 17.6959C13.9072 17.1503 13.0704 16.8719 12.2352 16.8719C11.3774 16.8719 10.5548 17.2125 9.94813 17.8189C9.34146 18.4253 9.00042 19.2477 9 20.1055C9 21.3007 9.6496 22.3359 10.6112 22.8927C10.6039 22.9949 10.6001 23.0974 10.6 23.1999C10.6 25.1887 11.9632 27.0015 13.8336 28.2719C15.7296 29.5599 18.2864 30.3999 21 30.3999C23.7136 30.3999 26.2704 29.5599 28.1664 28.2719C30.0368 27.0015 31.4 25.1887 31.4 23.1999C31.4 23.0975 31.3968 22.9951 31.3888 22.8927C31.8788 22.6109 32.2858 22.2048 32.5687 21.7154C32.8516 21.2261 33.0004 20.6707 33 20.1055C33 19.2474 32.6592 18.4246 32.0524 17.8178C31.4457 17.2111 30.6228 16.8703 29.7648 16.8703C28.9296 16.8703 28.0928 17.1487 27.472 17.6943C25.734 16.711 23.7935 16.1396 21.8 16.0239V11.4239L26.688 12.6463C26.8398 13.1906 27.1789 13.6638 27.6454 13.9827C28.1119 14.3016 28.6759 14.4457 29.2382 14.3895C29.8005 14.3334 30.3249 14.0806 30.7192 13.6758C31.1134 13.2709 31.3521 12.74 31.3933 12.1764C31.4346 11.6128 31.2756 11.0528 30.9444 10.5949C30.6133 10.137 30.1312 9.8107 29.5831 9.67336C29.0349 9.53601 28.4559 9.59648 27.948 9.84411C27.4401 10.0917 27.0358 10.5107 26.8064 11.0271L21.1936 9.62388ZM29 12.7999C28.79 12.7999 28.5885 12.7174 28.4388 12.5701C28.2891 12.4228 28.2034 12.2226 28.2 12.0127V11.9871C28.2025 11.8294 28.2516 11.676 28.341 11.5462C28.4304 11.4163 28.5562 11.3158 28.7026 11.2572C28.849 11.1986 29.0094 11.1845 29.1638 11.2168C29.3181 11.2491 29.4594 11.3263 29.5701 11.4387C29.6807 11.5511 29.7556 11.6936 29.7854 11.8485C29.8153 12.0033 29.7987 12.1635 29.7378 12.3089C29.6769 12.4543 29.5744 12.5785 29.4431 12.6659C29.3118 12.7532 29.1577 12.7999 29 12.7999ZM17 22.3999H18.6V20.7999H17V22.3999ZM21 25.5999C19.4208 25.5999 18.4128 25.3279 17.3104 24.8639L16.6896 26.3359C17.9632 26.8735 19.1824 27.1999 21 27.1999C22.8176 27.1999 24.0368 26.8735 25.3104 26.3359L24.6896 24.8639C23.5856 25.3279 22.5776 25.5999 21 25.5999ZM25 22.3999H23.4V20.7999H25V22.3999Z" fill="#606E80"/>
</g>
<path d="M2.5 9C2.5 4.85786 5.85786 1.5 10 1.5H32C36.1421 1.5 39.5 4.85786 39.5 9V31C39.5 35.1421 36.1421 38.5 32 38.5H10C5.85786 38.5 2.5 35.1421 2.5 31V9Z" stroke="#E5E7EB"/>
</g>
<defs>
<filter id="filter0_d_2842_84378" x="0" y="0" width="42" height="42" filterUnits="userSpaceOnUse" color-interpolation-filters="sRGB">
<feFlood flood-opacity="0" result="BackgroundImageFix"/>
<feColorMatrix in="SourceAlpha" type="matrix" values="0 0 0 0 0 0 0 0 0 0 0 0 0 0 0 0 0 0 127 0" result="hardAlpha"/>
<feOffset dy="1"/>
<feGaussianBlur stdDeviation="1"/>
<feComposite in2="hardAlpha" operator="out"/>
<feColorMatrix type="matrix" values="0 0 0 0 0 0 0 0 0 0 0 0 0 0 0 0 0 0 0.05 0"/>
<feBlend mode="normal" in2="BackgroundImageFix" result="effect1_dropShadow_2842_84378"/>
<feBlend mode="normal" in="SourceGraphic" in2="effect1_dropShadow_2842_84378" result="shape"/>
</filter>
<clipPath id="clip0_2842_84378">
<path d="M2 9C2 4.58172 5.58172 1 10 1H32C36.4183 1 40 4.58172 40 9V31C40 35.4183 36.4183 39 32 39H10C5.58172 39 2 35.4183 2 31V9Z" fill="white"/>
</clipPath>
</defs>
</svg>
