<svg width="42" height="42" viewBox="0 0 42 42" fill="none" xmlns="http://www.w3.org/2000/svg">
<g filter="url(#filter0_d_2842_84377)">
<g clip-path="url(#clip0_2842_84377)">
<path d="M2 9C2 4.58172 5.58172 1 10 1H32C36.4183 1 40 4.58172 40 9V31C40 35.4183 36.4183 39 32 39H10C5.58172 39 2 35.4183 2 31V9Z" fill="white"/>
<path d="M32.4673 14.6515C32.3297 14.139 32.0612 13.6718 31.6886 13.2964C31.3161 12.9209 30.8524 12.6504 30.3437 12.5117C28.4817 12 20.9874 12 20.9874 12C20.9874 12 13.4928 12.0155 11.6308 12.5272C11.1221 12.6659 10.6584 12.9365 10.2859 13.3119C9.91327 13.6873 9.6448 14.1546 9.50718 14.6671C8.94395 18.0008 8.72546 23.0806 9.52265 26.2809C9.66028 26.7934 9.92876 27.2607 10.3013 27.6361C10.6739 28.0115 11.1376 28.2821 11.6462 28.4208C13.5083 28.9325 21.0027 28.9325 21.0027 28.9325C21.0027 28.9325 28.497 28.9325 30.359 28.4208C30.8677 28.2821 31.3314 28.0116 31.704 27.6361C32.0766 27.2607 32.3451 26.7935 32.4827 26.2809C33.0768 22.9425 33.2598 17.8659 32.4673 14.6515Z" fill="#606E80"/>
<path d="M18.6016 24.0946L24.8186 20.4663L18.6016 16.8379V24.0946Z" fill="white"/>
</g>
<path d="M2.5 9C2.5 4.85786 5.85786 1.5 10 1.5H32C36.1421 1.5 39.5 4.85786 39.5 9V31C39.5 35.1421 36.1421 38.5 32 38.5H10C5.85786 38.5 2.5 35.1421 2.5 31V9Z" stroke="#E5E7EB"/>
</g>
<defs>
<filter id="filter0_d_2842_84377" x="0" y="0" width="42" height="42" filterUnits="userSpaceOnUse" color-interpolation-filters="sRGB">
<feFlood flood-opacity="0" result="BackgroundImageFix"/>
<feColorMatrix in="SourceAlpha" type="matrix" values="0 0 0 0 0 0 0 0 0 0 0 0 0 0 0 0 0 0 127 0" result="hardAlpha"/>
<feOffset dy="1"/>
<feGaussianBlur stdDeviation="1"/>
<feComposite in2="hardAlpha" operator="out"/>
<feColorMatrix type="matrix" values="0 0 0 0 0 0 0 0 0 0 0 0 0 0 0 0 0 0 0.05 0"/>
<feBlend mode="normal" in2="BackgroundImageFix" result="effect1_dropShadow_2842_84377"/>
<feBlend mode="normal" in="SourceGraphic" in2="effect1_dropShadow_2842_84377" result="shape"/>
</filter>
<clipPath id="clip0_2842_84377">
<path d="M2 9C2 4.58172 5.58172 1 10 1H32C36.4183 1 40 4.58172 40 9V31C40 35.4183 36.4183 39 32 39H10C5.58172 39 2 35.4183 2 31V9Z" fill="white"/>
</clipPath>
</defs>
</svg>
