<svg width="40" height="40" viewBox="0 0 40 40" fill="none" xmlns="http://www.w3.org/2000/svg">
<path d="M10.6884 8.98665C9.77175 10.9689 10.1338 14.5206 10.2805 17.0043C9.2905 17.5338 8.01936 16.6046 7.29976 16.6046C6.55114 16.6046 5.65737 17.0796 5.51681 17.7875C5.41598 18.2979 5.65279 19.0412 7.35171 19.6887C8.00867 19.9394 9.57161 20.2344 9.9337 21.0574C10.4425 22.2138 7.32115 27.5515 2.41995 28.3303C2.2349 28.3598 2.06768 28.4543 1.95038 28.5956C1.83307 28.7369 1.77396 28.915 1.78438 29.0958C1.86994 30.5338 5.20972 31.0973 6.69017 31.3185C6.84142 31.5161 6.96365 32.351 7.15768 32.9866C7.24476 33.2713 7.46935 33.612 8.04686 33.612C8.80007 33.612 10.0513 33.0515 12.23 33.3996C14.3659 33.7433 16.3734 36.6666 20.2281 36.6666C23.8108 36.6666 25.9482 33.73 28.0046 33.3996C29.1948 33.2094 30.2169 33.2698 31.3597 33.4852C32.1465 33.6341 32.8523 33.7167 33.0769 32.9704C33.274 32.3259 33.3947 31.5073 33.5429 31.3141C35.0096 31.0943 38.3647 30.5324 38.4487 29.0943C38.4591 28.9135 38.4 28.7354 38.2827 28.5941C38.1654 28.4528 37.9982 28.3584 37.8131 28.3288C32.9944 27.5619 29.7784 22.2403 30.2994 21.056C30.6599 20.2344 32.2122 19.9424 32.8814 19.6872C34.125 19.2138 34.7483 18.6312 34.7346 17.9571C34.7178 17.0943 33.6422 16.5796 32.8508 16.5796C32.0457 16.5796 30.8891 17.4999 29.9526 17.0014C30.0992 14.497 30.4598 10.9616 29.5446 8.98075C27.8106 5.23001 23.9529 3.33325 20.0967 3.33325C16.2649 3.33325 12.4363 5.20346 10.6884 8.98665Z" stroke="#BBBBBB"/>
</svg>
