<svg width="24" height="24" viewBox="0 0 24 24" fill="none" xmlns="http://www.w3.org/2000/svg">
<path d="M6.41345 5.39204C5.86344 6.58142 6.0807 8.71239 6.1687 10.2027C5.57469 10.5204 4.81201 9.96283 4.38025 9.96283C3.93107 9.96283 3.39481 10.2478 3.31048 10.6726C3.24998 10.9788 3.39206 11.4248 4.41142 11.8133C4.80559 11.9637 5.74336 12.1407 5.96061 12.6345C6.26587 13.3283 4.39308 16.531 1.45236 16.9982C1.34133 17.016 1.241 17.0726 1.17062 17.1574C1.10023 17.2422 1.06477 17.3491 1.07102 17.4575C1.12235 18.3204 3.12622 18.6584 4.01449 18.7912C4.10524 18.9097 4.17858 19.4106 4.295 19.792C4.34725 19.9628 4.482 20.1673 4.82851 20.1673C5.28043 20.1673 6.0312 19.831 7.33839 20.0398C8.61991 20.246 9.82444 22 12.1372 22C14.2869 22 15.5693 20.2381 16.8032 20.0398C17.5173 19.9257 18.1305 19.9619 18.8162 20.0912C19.2883 20.1805 19.7118 20.2301 19.8465 19.7823C19.9648 19.3956 20.0372 18.9044 20.1261 18.7885C21.0061 18.6566 23.0192 18.3195 23.0696 17.4566C23.0759 17.3482 23.0404 17.2413 22.97 17.1565C22.8996 17.0718 22.7993 17.0151 22.6883 16.9973C19.797 16.5372 17.8674 13.3442 18.18 12.6336C18.3964 12.1407 19.3277 11.9655 19.7292 11.8124C20.4754 11.5283 20.8494 11.1788 20.8411 10.7743C20.8311 10.2566 20.1857 9.94779 19.7109 9.94779C19.2278 9.94779 18.5339 10.5 17.9719 10.2009C18.0599 8.69823 18.2763 6.57699 17.7272 5.3885C16.6867 3.13805 14.3721 2 12.0584 2C9.75935 2 7.46214 3.12212 6.41345 5.39204Z" fill="#FFFC00" stroke="black"/>
</svg>
