<svg width="16" height="16" viewBox="0 0 16 16" fill="none" xmlns="http://www.w3.org/2000/svg">
<path d="M10.2194 1.55065C10.1353 1.50967 10.0414 1.49311 9.94838 1.50283C9.85535 1.51255 9.76692 1.54817 9.69312 1.60565L5.32812 5.00002H2.5C2.23478 5.00002 1.98043 5.10538 1.79289 5.29291C1.60536 5.48045 1.5 5.7348 1.5 6.00002V10C1.5 10.2652 1.60536 10.5196 1.79289 10.7071C1.98043 10.8947 2.23478 11 2.5 11H5.32812L9.69312 14.3944C9.76699 14.4518 9.85548 14.4874 9.94855 14.497C10.0416 14.5066 10.1355 14.4899 10.2196 14.4489C10.3036 14.4078 10.3745 14.3439 10.424 14.2646C10.4736 14.1852 10.4999 14.0936 10.5 14V2.00002C10.5 1.90635 10.4737 1.81456 10.4241 1.73511C10.3745 1.65566 10.3035 1.59174 10.2194 1.55065ZM9.5 12.9775L5.80688 10.1056C5.71931 10.037 5.61124 9.99984 5.5 10H2.5V6.00002H5.5C5.61124 6.0002 5.71931 5.963 5.80688 5.8944L9.5 3.02252V12.9775ZM13 6.50002V9.50002C13 9.63263 12.9473 9.75981 12.8536 9.85357C12.7598 9.94734 12.6326 10 12.5 10C12.3674 10 12.2402 9.94734 12.1464 9.85357C12.0527 9.75981 12 9.63263 12 9.50002V6.50002C12 6.36741 12.0527 6.24024 12.1464 6.14647C12.2402 6.0527 12.3674 6.00002 12.5 6.00002C12.6326 6.00002 12.7598 6.0527 12.8536 6.14647C12.9473 6.24024 13 6.36741 13 6.50002ZM15 5.50002V10.5C15 10.6326 14.9473 10.7598 14.8536 10.8536C14.7598 10.9473 14.6326 11 14.5 11C14.3674 11 14.2402 10.9473 14.1464 10.8536C14.0527 10.7598 14 10.6326 14 10.5V5.50002C14 5.36741 14.0527 5.24024 14.1464 5.14647C14.2402 5.0527 14.3674 5.00002 14.5 5.00002C14.6326 5.00002 14.7598 5.0527 14.8536 5.14647C14.9473 5.24024 15 5.36741 15 5.50002Z" fill="#1F2937"/>
</svg>
