<svg width="20" height="20" viewBox="0 0 20 20" fill="none" xmlns="http://www.w3.org/2000/svg">
<path fill-rule="evenodd" clip-rule="evenodd" d="M10.0002 7.08331C8.38933 7.08331 7.0835 8.38915 7.0835 9.99998C7.0835 11.6108 8.38933 12.9166 10.0002 12.9166C11.611 12.9166 12.9168 11.6108 12.9168 9.99998C12.9168 8.38915 11.611 7.08331 10.0002 7.08331ZM6.25016 9.99998C6.25016 7.92891 7.92909 6.24998 10.0002 6.24998C12.0712 6.24998 13.7502 7.92891 13.7502 9.99998C13.7502 12.071 12.0712 13.75 10.0002 13.75C7.92909 13.75 6.25016 12.071 6.25016 9.99998Z" fill="#606E80"/>
<path fill-rule="evenodd" clip-rule="evenodd" d="M10.0002 2.08331C10.2303 2.08331 10.4168 2.26986 10.4168 2.49998V3.33331C10.4168 3.56343 10.2303 3.74998 10.0002 3.74998C9.77004 3.74998 9.5835 3.56343 9.5835 3.33331V2.49998C9.5835 2.26986 9.77004 2.08331 10.0002 2.08331Z" fill="#606E80"/>
<path fill-rule="evenodd" clip-rule="evenodd" d="M10.0002 16.25C10.2303 16.25 10.4168 16.4365 10.4168 16.6666V17.5C10.4168 17.7301 10.2303 17.9166 10.0002 17.9166C9.77004 17.9166 9.5835 17.7301 9.5835 17.5V16.6666C9.5835 16.4365 9.77004 16.25 10.0002 16.25Z" fill="#606E80"/>
<path fill-rule="evenodd" clip-rule="evenodd" d="M2.0835 9.99998C2.0835 9.76986 2.27004 9.58331 2.50016 9.58331H3.3335C3.56361 9.58331 3.75016 9.76986 3.75016 9.99998C3.75016 10.2301 3.56361 10.4166 3.3335 10.4166H2.50016C2.27004 10.4166 2.0835 10.2301 2.0835 9.99998Z" fill="#606E80"/>
<path fill-rule="evenodd" clip-rule="evenodd" d="M16.2502 9.99998C16.2502 9.76986 16.4367 9.58331 16.6668 9.58331H17.5002C17.7303 9.58331 17.9168 9.76986 17.9168 9.99998C17.9168 10.2301 17.7303 10.4166 17.5002 10.4166H16.6668C16.4367 10.4166 16.2502 10.2301 16.2502 9.99998Z" fill="#606E80"/>
<path fill-rule="evenodd" clip-rule="evenodd" d="M15.5981 4.40202C15.7608 4.56474 15.7608 4.82856 15.5981 4.99127L15.009 5.58044C14.8462 5.74316 14.5824 5.74316 14.4197 5.58044C14.257 5.41772 14.257 5.1539 14.4197 4.99118L15.0089 4.40202C15.1716 4.2393 15.4354 4.2393 15.5981 4.40202Z" fill="#606E80"/>
<path fill-rule="evenodd" clip-rule="evenodd" d="M5.58062 14.4195C5.74334 14.5822 5.74334 14.8461 5.58062 15.0088L4.99146 15.5979C4.82874 15.7607 4.56492 15.7607 4.4022 15.5979C4.23948 15.4352 4.23948 15.1714 4.4022 15.0087L4.99137 14.4195C5.15409 14.2568 5.41791 14.2568 5.58062 14.4195Z" fill="#606E80"/>
<path fill-rule="evenodd" clip-rule="evenodd" d="M4.4022 4.40202C4.56492 4.2393 4.82874 4.2393 4.99146 4.40202L5.58062 4.99119C5.74334 5.1539 5.74334 5.41772 5.58062 5.58044C5.41791 5.74316 5.15409 5.74316 4.99137 5.58044L4.4022 4.99127C4.23948 4.82856 4.23948 4.56474 4.4022 4.40202Z" fill="#606E80"/>
<path fill-rule="evenodd" clip-rule="evenodd" d="M14.4197 14.4195C14.5824 14.2568 14.8462 14.2568 15.009 14.4195L15.5981 15.0087C15.7608 15.1714 15.7608 15.4352 15.5981 15.5979C15.4354 15.7607 15.1716 15.7607 15.0089 15.5979L14.4197 15.0088C14.257 14.8461 14.257 14.5822 14.4197 14.4195Z" fill="#606E80"/>
</svg>
