<svg width="40" height="40" viewBox="0 0 40 40" fill="none" xmlns="http://www.w3.org/2000/svg">
<path d="M24.7004 13.7592L23.9044 13.1743L23.9044 14.1622L23.9045 25.0962C23.9045 30.303 19.803 34.5 14.773 34.5C12.9121 34.5 11.1816 33.9274 9.73785 32.9427C8.14645 31.2512 7.16602 28.9456 7.16602 26.4004C7.16602 21.4387 10.8909 17.3935 15.5945 17.0245V20.1236C15.3223 20.0756 15.0426 20.0506 14.7573 20.0506C12.0347 20.0506 9.85162 22.316 9.85162 25.0807C9.85162 26.9965 10.8972 28.6673 12.443 29.5167C13.3392 30.6702 14.7239 31.4151 16.2823 31.4151C18.9992 31.4151 21.1786 29.1589 21.1882 26.402V26.4002V5.5H24.0734C24.5383 7.57015 25.786 9.3345 27.483 10.4447C28.4622 11.5254 29.7313 12.3297 31.166 12.7252V16.0409C28.761 15.9395 26.5388 15.11 24.7004 13.7592Z" stroke="#BBBBBB"/>
</svg>
