<svg width="24" height="24" viewBox="0 0 24 24" fill="none" xmlns="http://www.w3.org/2000/svg">
<path d="M16.6327 8.64215C18.1784 9.74656 20.0721 10.3964 22.1173 10.3964V6.46286C21.7302 6.46301 21.3442 6.42263 20.9655 6.34237V9.43861C18.9205 9.43861 17.027 8.78888 15.4809 7.68455V15.7118C15.4809 19.7275 12.2239 22.9826 8.20645 22.9826C6.70744 22.9826 5.31412 22.5296 4.15674 21.7528C5.47773 23.1028 7.31994 23.9402 9.35795 23.9402C13.3757 23.9402 16.6328 20.6852 16.6328 16.6693V8.64215H16.6327ZM18.0536 4.6737C17.2636 3.81111 16.7449 2.69635 16.6327 1.46391V0.958008H15.5412C15.8159 2.52438 16.7532 3.86259 18.0536 4.6737ZM6.69776 18.6713C6.25635 18.093 6.01777 17.3854 6.01889 16.6578C6.01889 14.8212 7.50863 13.3321 9.34661 13.3321C9.68909 13.3319 10.0295 13.3844 10.356 13.4879V9.46642C9.9745 9.4142 9.58951 9.39194 9.20468 9.40013V12.5302C8.87805 12.4267 8.53742 12.3742 8.19478 12.3745C6.35688 12.3745 4.86722 13.8635 4.86722 15.7003C4.86722 16.9991 5.6118 18.1236 6.69776 18.6713Z" fill="#FF004F"/>
<path d="M15.481 7.68446C17.0271 8.78879 18.9204 9.43853 20.9655 9.43853V6.34228C19.824 6.09922 18.8134 5.50303 18.0536 4.6737C16.753 3.8625 15.816 2.5243 15.5412 0.958008H12.6742V16.6692C12.6677 18.5008 11.1805 19.9838 9.34648 19.9838C8.26581 19.9838 7.30565 19.469 6.69762 18.6712C5.61183 18.1236 4.86717 16.999 4.86717 15.7004C4.86717 13.8637 6.35682 12.3746 8.19472 12.3746C8.54686 12.3746 8.88625 12.4293 9.20463 12.5303V9.40022C5.2577 9.48173 2.0835 12.705 2.0835 16.6692C2.0835 18.6482 2.87392 20.4421 4.15685 21.7529C5.31423 22.5296 6.70747 22.9827 8.20656 22.9827C12.2241 22.9827 15.481 19.7274 15.481 15.7118L15.481 7.68446Z" fill="black"/>
<path d="M20.9654 6.34179V5.50477C19.936 5.50627 18.9269 5.21813 18.0535 4.6733C18.8266 5.51927 19.8447 6.10265 20.9654 6.34196M15.541 0.957517C15.5148 0.807854 15.4948 0.657193 15.4808 0.505903V0H11.5221V15.7113C11.5158 17.5428 10.0286 19.0258 8.19454 19.0258C7.67459 19.0266 7.16174 18.905 6.69743 18.671C7.30546 19.4686 8.26563 19.9833 9.34629 19.9833C11.1802 19.9833 12.6676 18.5004 12.674 16.6688V0.9576L15.541 0.957517ZM9.20469 9.39972V8.5085C8.87389 8.46333 8.5404 8.44072 8.20654 8.4408C4.18861 8.4408 0.931641 11.696 0.931641 15.7113C0.931641 18.2287 2.21167 20.4473 4.15683 21.7524C2.8739 20.4416 2.08348 18.6476 2.08348 16.6687C2.08348 12.7046 5.2576 9.48124 9.20469 9.39972Z" fill="#00F2EA"/>
</svg>
