<svg width="40" height="40" viewBox="0 0 40 40" fill="none" xmlns="http://www.w3.org/2000/svg">
<mask id="mask0_3364_5707" style="mask-type:luminance" maskUnits="userSpaceOnUse" x="0" y="0" width="40" height="40">
<path d="M0 0H40V40H0V0Z" fill="white"/>
</mask>
<g mask="url(#mask0_3364_5707)">
<path d="M17.6061 25.1255L6.69842 37.6257H1.8854L15.4939 22.0258L15.7622 21.7183L15.5147 21.3939L1.0102 2.37712H12.4079L20.9893 13.7581L21.3602 14.25L21.7652 13.7859L31.7272 2.37427H36.5343L23.8576 16.8998L23.5907 17.2056L23.8351 17.5297L38.9964 37.6257H27.9045L18.3803 25.1509L18.0087 24.6642L17.6061 25.1255ZM28.9453 34.749L29.0954 34.9457H29.3429H32.7429H33.7465L33.142 34.1445L11.1991 5.06169L11.0491 4.86284H10.8H7.15429H6.14391L6.75677 5.66612L28.9453 34.749Z" stroke="#BBBBBB"/>
</g>
</svg>
