<svg width="48" height="48" viewBox="0 0 48 48" fill="none" xmlns="http://www.w3.org/2000/svg">
<rect width="48" height="48" rx="8" fill="#2563EB"/>
<path d="M33 16.5H15C14.8011 16.5 14.6103 16.579 14.4697 16.7197C14.329 16.8603 14.25 17.0511 14.25 17.25V30C14.25 30.3978 14.408 30.7794 14.6893 31.0607C14.9706 31.342 15.3522 31.5 15.75 31.5H32.25C32.6478 31.5 33.0294 31.342 33.3107 31.0607C33.592 30.7794 33.75 30.3978 33.75 30V17.25C33.75 17.0511 33.671 16.8603 33.5303 16.7197C33.3897 16.579 33.1989 16.5 33 16.5ZM15.75 22.5H19.5V25.5H15.75V22.5ZM21 22.5H32.25V25.5H21V22.5ZM32.25 18V21H15.75V18H32.25ZM15.75 27H19.5V30H15.75V27ZM32.25 30H21V27H32.25V30Z" fill="white"/>
</svg>
