<svg width="21" height="22" viewBox="0 0 21 22" fill="none" xmlns="http://www.w3.org/2000/svg">
<path d="M20.9654 6.34179V5.50477C19.936 5.50627 18.9269 5.21813 18.0535 4.6733C18.8266 5.51927 19.8447 6.10265 20.9654 6.34196M15.541 0.957517C15.5148 0.807854 15.4948 0.657193 15.4808 0.505903V0H11.5221V15.7113C11.5158 17.5428 10.0286 19.0258 8.19454 19.0258C7.67459 19.0266 7.16174 18.905 6.69743 18.671C7.30546 19.4686 8.26563 19.9833 9.34629 19.9833C11.1802 19.9833 12.6676 18.5004 12.674 16.6688V0.9576L15.541 0.957517ZM9.20469 9.39972V8.5085C8.87389 8.46333 8.5404 8.44072 8.20654 8.4408C4.18861 8.4408 0.931641 11.696 0.931641 15.7113C0.931641 18.2287 2.21167 20.4473 4.15683 21.7524C2.8739 20.4416 2.08348 18.6476 2.08348 16.6687C2.08348 12.7046 5.2576 9.48124 9.20469 9.39972Z" fill="#00F2EA"/>
</svg>
