<svg width="25" height="24" viewBox="0 0 25 24" fill="none" xmlns="http://www.w3.org/2000/svg">
<path d="M23.9678 6.65153C23.8302 6.13903 23.5617 5.6718 23.1891 5.29637C22.8165 4.92094 22.3529 4.6504 21.8442 4.5117C19.9822 4 12.4879 4 12.4879 4C12.4879 4 4.99333 4.01549 3.13126 4.52719C2.62262 4.6659 2.15893 4.93645 1.78634 5.3119C1.41376 5.68735 1.14529 6.1546 1.00767 6.66711C0.44444 10.0008 0.225951 15.0806 1.02314 18.2809C1.16077 18.7934 1.42925 19.2607 1.80183 19.6361C2.17441 20.0115 2.6381 20.2821 3.14672 20.4208C5.0088 20.9325 12.5032 20.9325 12.5032 20.9325C12.5032 20.9325 19.9975 20.9325 21.8595 20.4208C22.3681 20.2821 22.8319 20.0116 23.2045 19.6361C23.5771 19.2607 23.8455 18.7935 23.9832 18.2809C24.5773 14.9425 24.7603 9.86585 23.9678 6.65153Z" fill="#FF0000"/>
<path d="M10.1025 16.0946L16.3196 12.4663L10.1025 8.83789V16.0946Z" fill="white"/>
</svg>
