<svg width="40" height="28" viewBox="0 0 40 28" fill="none" xmlns="http://www.w3.org/2000/svg">
<path d="M19.7428 6.42875L20 6.5831L20.2572 6.42875L30 0.583095L39.5 6.2831V15.7169L20 27.4169L0.5 15.7169V6.2831L10 0.583095L19.7428 6.42875ZM14 12.5H14.5V12V10V9.5H14H10.5V6V5.5H10H8H7.5V6V9.5H4H3.5V10V12V12.5H4H7.5V16V16.5H8H10H10.5V16V12.5H14ZM24.2322 15.7678C24.7011 16.2366 25.337 16.5 26 16.5C27.3761 16.5 28.5 15.3761 28.5 14C28.5 12.6239 27.3761 11.5 26 11.5C24.6239 11.5 23.5 12.6239 23.5 14C23.5 14.663 23.7634 15.2989 24.2322 15.7678ZM31.0433 12.3097C31.3466 12.4353 31.6717 12.5 32 12.5C33.3761 12.5 34.5 11.3761 34.5 10C34.5 8.62386 33.3761 7.5 32 7.5C30.6239 7.5 29.5 8.62386 29.5 10C29.5 10.3283 29.5647 10.6534 29.6903 10.9567C29.8159 11.26 30.0001 11.5356 30.2322 11.7678C30.4644 11.9999 30.74 12.1841 31.0433 12.3097Z" stroke="#BBBBBB"/>
</svg>
