<svg width="24" height="18" viewBox="0 0 24 18" fill="none" xmlns="http://www.w3.org/2000/svg">
<path d="M24 10.1996V4.19961L18 0.599609L12 4.19961L6 0.599609L0 4.19961V10.1996L12 17.3996L24 10.1996ZM8.4 7.79961H6V10.1996H4.8V7.79961H2.4V6.59961H4.8V4.19961H6V6.59961H8.4V7.79961ZM15.6 10.1996C15.2817 10.1996 14.9765 10.0732 14.7515 9.84814C14.5264 9.62309 14.4 9.31787 14.4 8.99961C14.4 8.33961 14.94 7.79961 15.6 7.79961C16.26 7.79961 16.8 8.33961 16.8 8.99961C16.8 9.65961 16.26 10.1996 15.6 10.1996ZM19.2 7.79961C19.0424 7.79961 18.8864 7.76857 18.7408 7.70826C18.5952 7.64796 18.4629 7.55957 18.3515 7.44814C18.24 7.33671 18.1517 7.20442 18.0913 7.05883C18.031 6.91324 18 6.7572 18 6.59961C18 5.93961 18.54 5.39961 19.2 5.39961C19.86 5.39961 20.4 5.93961 20.4 6.59961C20.4 7.25961 19.86 7.79961 19.2 7.79961Z" fill="#FF0000"/>
</svg>
